<svg xmlns="http://www.w3.org/2000/svg" xmlns:v="https://svgstorm.com" viewBox="0 0 1600 1256" width="1600" height="1256">

<g fill="None" fill-opacity="0.0" stroke="#B58773" stroke-opacity="1.00" stroke-width="0.3"><path d=" M 963.00 370.00  C 964.28 368.98 965.63 367.80 967.00 367.00 C 965.47 379.10 960.45 391.39 964.00 404.00 C 953.86 402.28 948.72 410.78 944.25 418.25 C 939.77 425.72 947.33 436.36 947.00 445.00 C 950.74 445.16 949.29 446.62 949.00 450.00 C 953.29 449.75 959.70 454.79 965.00 452.00 C 964.19 455.24 968.40 458.75 970.00 455.00 C 977.92 465.30 962.82 470.08 962.03 481.03 C 961.23 491.97 965.66 507.67 961.00 518.00 C 959.32 523.60 958.23 528.97 958.00 535.00 C 957.86 538.66 958.10 542.34 958.00 546.00 C 972.56 553.76 982.90 562.86 1001.00 560.00 C 1019.10 557.14 1019.48 583.86 1032.00 589.00 C 1039.14 585.88 1045.29 582.99 1053.07 581.07 C 1060.86 579.15 1061.72 570.16 1066.00 565.00 C 1066.38 561.59 1063.48 557.00 1066.78 553.78 C 1070.07 550.56 1065.60 546.59 1070.00 547.00 C 1065.85 536.17 1079.20 526.04 1073.00 515.00 C 1070.92 512.94 1070.52 513.07 1070.00 510.00 C 1068.74 502.55 1072.94 493.13 1064.00 490.00 C 1055.60 489.56 1046.89 498.85 1039.30 502.30 C 1031.71 505.76 1023.17 511.40 1015.31 515.31 C 1007.44 519.21 998.69 523.65 990.31 527.31 C 981.92 530.96 973.68 536.31 966.00 541.00 C 972.72 529.29 976.39 518.35 983.92 506.92 C 991.46 495.50 993.83 485.03 1002.31 473.31 C 1010.78 461.58 1005.82 442.86 1006.00 428.00 C 1007.08 421.94 1005.68 413.65 998.00 414.00 C 998.75 415.24 997.18 416.38 997.00 417.00 C 996.59 422.58 998.88 427.52 999.00 433.00 C 994.10 429.09 996.83 437.24 995.01 441.01 C 993.19 444.78 994.44 450.35 998.00 452.00 C 989.08 453.02 983.15 461.98 975.00 465.00 C 979.66 457.47 987.46 455.39 990.92 446.92 C 994.39 438.46 990.16 423.79 991.00 415.00 C 991.84 406.21 997.33 399.52 1002.77 392.77 C 1008.21 386.02 1002.83 372.24 1006.33 364.33 C 1009.82 356.42 1016.30 349.92 1020.00 345.00 C 1019.73 341.25 1009.21 344.35 1004.07 345.07 C 998.94 345.80 991.62 348.79 986.02 349.02 C 980.43 349.26 974.30 351.40 971.77 356.77 C 969.24 362.14 966.33 365.24 963.00 370.00 M 1069.00 513.00  C 1064.59 520.94 1058.38 535.14 1046.98 530.02 C 1035.58 524.91 1025.01 530.06 1015.92 535.92 C 1006.83 541.79 998.94 545.59 990.00 551.00 C 997.82 545.47 1004.59 537.59 1013.75 533.75 C 1022.91 529.90 1031.04 517.05 1042.07 523.93 C 1053.11 530.80 1058.82 514.29 1069.00 513.00 Z"/>
</g>
<g fill="None" fill-opacity="0.0" stroke="#72463A" stroke-opacity="1.00" stroke-width="0.3"><path d=" M 997.00 417.00  C 997.59 408.96 1005.92 403.30 1011.08 396.08 C 1016.25 388.86 1017.12 381.38 1013.00 372.00 C 1008.88 362.62 1020.61 353.61 1020.00 345.00 C 1016.30 349.92 1009.82 356.42 1006.33 364.33 C 1002.83 372.24 1008.21 386.02 1002.77 392.77 C 997.33 399.52 991.84 406.21 991.00 415.00 C 990.16 423.79 994.39 438.46 990.92 446.92 C 987.46 455.39 979.66 457.47 975.00 465.00 C 983.15 461.98 989.08 453.02 998.00 452.00 C 994.44 450.35 993.19 444.78 995.01 441.01 C 996.83 437.24 994.10 429.09 999.00 433.00 C 998.88 427.52 996.59 422.58 997.00 417.00 Z"/>
</g>
<g fill="None" fill-opacity="0.0" stroke="#6E443C" stroke-opacity="1.00" stroke-width="0.3"><path d=" M 963.00 370.00  C 963.00 370.00 962.15 370.23 962.00 370.00 C 956.06 376.72 959.20 394.00 952.75 399.75 C 946.29 405.49 935.82 412.02 935.01 422.01 C 934.20 432.00 944.83 444.12 934.75 451.75 C 924.66 459.37 921.32 465.51 920.00 477.00 C 918.92 486.43 913.34 497.78 914.00 507.00 C 914.50 507.45 913.60 509.44 914.00 510.00 C 917.85 507.88 914.96 501.64 918.00 499.00 C 920.76 488.84 922.63 476.04 926.33 466.33 C 930.02 456.61 946.51 456.17 947.00 445.00 C 947.33 436.36 939.77 425.72 944.25 418.25 C 948.72 410.78 953.86 402.28 964.00 404.00 C 960.45 391.39 965.47 379.10 967.00 367.00 C 965.63 367.80 964.28 368.98 963.00 370.00 Z"/>
</g>
<g fill="None" fill-opacity="0.0" stroke="#AC8377" stroke-opacity="1.00" stroke-width="0.3"><path d=" M 897.00 442.00  C 897.02 442.50 901.70 449.01 899.93 454.08 C 898.17 459.15 905.21 467.56 902.00 468.00 C 907.20 467.59 906.38 472.88 912.00 472.00 C 912.23 474.18 912.80 479.83 915.00 476.00 C 914.85 478.94 914.39 482.37 918.00 483.00 C 918.91 481.17 918.34 478.26 920.00 477.00 C 921.32 465.51 924.66 459.37 934.75 451.75 C 944.83 444.12 934.20 432.00 935.01 422.01 C 935.82 412.02 946.29 405.49 952.75 399.75 C 959.20 394.00 956.06 376.72 962.00 370.00 C 957.99 363.76 948.01 379.13 941.75 381.75 C 935.48 384.36 929.89 396.34 928.78 403.78 C 927.66 411.21 919.06 417.57 913.25 423.25 C 907.44 428.92 899.54 433.74 897.00 442.00 Z"/>
</g>
<g fill="None" fill-opacity="0.0" stroke="#9A6E66" stroke-opacity="1.00" stroke-width="0.3"><path d=" M 1024.00 416.00  C 1021.98 421.75 1025.85 434.70 1024.00 440.00 C 1022.15 445.30 1028.66 456.30 1031.00 455.00 C 1035.44 447.28 1040.71 441.98 1050.00 440.00 C 1048.17 430.20 1049.27 417.24 1061.00 418.00 C 1057.32 416.03 1066.44 410.30 1066.00 406.00 C 1050.48 406.15 1036.19 407.23 1024.00 416.00 Z"/>
</g>
<g fill="None" fill-opacity="0.0" stroke="#9E7063" stroke-opacity="1.00" stroke-width="0.3"><path d=" M 1102.00 409.00  C 1103.60 408.68 1105.38 409.24 1107.00 409.00 C 1102.17 414.04 1092.36 416.28 1091.00 424.00 C 1085.86 425.18 1078.05 412.89 1073.31 418.31 C 1068.56 423.73 1061.91 424.67 1056.77 428.77 C 1051.63 432.87 1058.49 446.46 1047.00 446.00 C 1044.55 452.29 1056.46 453.60 1059.03 457.97 C 1061.59 462.34 1071.33 465.37 1071.00 471.00 C 1074.43 471.58 1077.88 472.75 1079.00 476.00 C 1081.74 469.36 1083.39 459.94 1093.00 461.00 C 1102.61 462.06 1098.20 448.39 1097.00 441.00 C 1101.23 443.68 1103.38 436.21 1107.00 435.00 C 1100.71 442.47 1100.14 452.03 1101.00 462.00 C 1089.77 460.87 1083.36 470.18 1079.00 479.00 C 1080.95 482.88 1098.12 490.07 1102.00 487.00 C 1106.91 476.88 1117.20 464.75 1118.00 453.00 C 1118.34 448.07 1118.59 442.25 1119.00 438.00 C 1118.34 427.41 1121.16 417.66 1124.00 408.00 C 1116.84 408.69 1108.40 406.64 1102.00 409.00 Z"/>
</g>
<g fill="None" fill-opacity="0.0" stroke="#72463D" stroke-opacity="1.00" stroke-width="0.3"><path d=" M 1061.00 418.00  C 1049.27 417.24 1048.17 430.20 1050.00 440.00 C 1040.71 441.98 1035.44 447.28 1031.00 455.00 C 1029.05 458.39 1026.03 461.27 1025.00 465.00 C 1033.29 459.40 1036.22 447.59 1047.00 446.00 C 1058.49 446.46 1051.63 432.87 1056.77 428.77 C 1061.91 424.67 1068.56 423.73 1073.31 418.31 C 1078.05 412.89 1085.86 425.18 1091.00 424.00 C 1092.36 416.28 1102.17 414.04 1107.00 409.00 C 1105.38 409.24 1103.60 408.68 1102.00 409.00 C 1095.35 411.45 1088.45 420.06 1081.23 412.77 C 1074.00 405.48 1067.52 415.34 1061.00 418.00 Z"/>
</g>
<g fill="None" fill-opacity="0.0" stroke="#916A6F" stroke-opacity="1.00" stroke-width="0.3"><path d=" M 1020.00 419.00  C 1025.32 420.10 1023.25 434.84 1023.00 440.00 C 1022.75 445.16 1021.76 456.80 1022.00 463.00 C 1022.24 469.20 1019.75 476.52 1017.08 482.08 C 1014.40 487.64 1010.83 493.11 1009.00 499.00 C 1024.06 491.18 1038.76 486.61 1054.03 479.03 C 1069.29 471.44 1085.25 486.10 1100.00 491.00 C 1100.71 489.75 1101.33 488.39 1102.00 487.00 C 1098.12 490.07 1080.95 482.88 1079.00 479.00 C 1078.26 477.53 1078.25 477.82 1079.00 476.00 C 1077.88 472.75 1074.43 471.58 1071.00 471.00 C 1071.33 465.37 1061.59 462.34 1059.03 457.97 C 1056.46 453.60 1044.55 452.29 1047.00 446.00 C 1036.22 447.59 1033.29 459.40 1025.00 465.00 C 1026.03 461.27 1029.05 458.39 1031.00 455.00 C 1028.66 456.30 1022.15 445.30 1024.00 440.00 C 1025.85 434.70 1021.98 421.75 1024.00 416.00 C 1022.84 416.83 1021.25 418.10 1020.00 419.00 Z"/>
</g>
<g fill="None" fill-opacity="0.0" stroke="#725168" stroke-opacity="1.00" stroke-width="0.3"><path d=" M 1006.00 428.00  C 1005.82 442.86 1010.78 461.58 1002.31 473.31 C 993.83 485.03 991.46 495.50 983.92 506.92 C 976.39 518.35 972.72 529.29 966.00 541.00 C 973.68 536.31 981.92 530.96 990.31 527.31 C 998.69 523.65 1007.44 519.21 1015.31 515.31 C 1023.17 511.40 1031.71 505.76 1039.30 502.30 C 1046.89 498.85 1055.60 489.56 1064.00 490.00 C 1067.91 490.21 1070.83 494.50 1075.02 493.02 C 1079.22 491.54 1083.59 495.09 1087.23 496.77 C 1090.86 498.45 1095.30 497.07 1097.00 498.00 C 1096.79 496.53 1099.29 492.26 1100.00 491.00 C 1085.25 486.10 1069.29 471.44 1054.03 479.03 C 1038.76 486.61 1024.06 491.18 1009.00 499.00 C 1010.83 493.11 1014.40 487.64 1017.08 482.08 C 1019.75 476.52 1022.24 469.20 1022.00 463.00 C 1021.76 456.80 1022.75 445.16 1023.00 440.00 C 1023.25 434.84 1025.32 420.10 1020.00 419.00 C 1017.10 421.10 1007.56 424.58 1006.00 428.00 Z"/>
</g>
<g fill="None" fill-opacity="0.0" stroke="#75463A" stroke-opacity="1.00" stroke-width="0.3"><path d=" M 1079.00 476.00  C 1078.25 477.82 1078.26 477.53 1079.00 479.00 C 1083.36 470.18 1089.77 460.87 1101.00 462.00 C 1100.14 452.03 1100.71 442.47 1107.00 435.00 C 1103.38 436.21 1101.23 443.68 1097.00 441.00 C 1098.20 448.39 1102.61 462.06 1093.00 461.00 C 1083.39 459.94 1081.74 469.36 1079.00 476.00 Z"/>
</g>
<g fill="None" fill-opacity="0.0" stroke="#BEA9A5" stroke-opacity="1.00" stroke-width="0.3"><path d=" M 1118.00 453.00  C 1118.79 448.57 1119.00 443.15 1119.00 438.00 C 1118.59 442.25 1118.34 448.07 1118.00 453.00 Z"/>
</g>
<g fill="None" fill-opacity="0.0" stroke="#9D7C7C" stroke-opacity="1.00" stroke-width="0.3"><path d=" M 897.00 442.00  C 893.84 452.26 892.07 462.45 890.00 473.00 C 892.78 470.43 898.15 478.11 899.77 481.23 C 901.39 484.35 903.88 491.33 905.78 495.22 C 907.67 499.12 911.09 504.38 914.00 507.00 C 913.34 497.78 918.92 486.43 920.00 477.00 C 918.34 478.26 918.91 481.17 918.00 483.00 C 914.39 482.37 914.85 478.94 915.00 476.00 C 912.80 479.83 912.23 474.18 912.00 472.00 C 906.38 472.88 907.20 467.59 902.00 468.00 C 905.21 467.56 898.17 459.15 899.93 454.08 C 901.70 449.01 897.02 442.50 897.00 442.00 Z"/>
</g>
<g fill="None" fill-opacity="0.0" stroke="#A67F79" stroke-opacity="1.00" stroke-width="0.3"><path d=" M 918.00 499.00  C 918.15 500.52 917.93 502.64 920.00 503.00 C 921.38 497.88 925.75 494.13 927.00 489.00 C 934.60 485.87 939.30 503.10 945.75 498.74 C 952.19 494.38 956.15 487.13 961.00 482.00 C 961.52 493.98 962.92 506.10 961.00 518.00 C 965.66 507.67 961.23 491.97 962.03 481.03 C 962.82 470.08 977.92 465.30 970.00 455.00 C 968.40 458.75 964.19 455.24 965.00 452.00 C 959.70 454.79 953.29 449.75 949.00 450.00 C 949.29 446.62 950.74 445.16 947.00 445.00 C 946.51 456.17 930.02 456.61 926.33 466.33 C 922.63 476.04 920.76 488.84 918.00 499.00 Z"/>
</g>
<g fill="None" fill-opacity="0.0" stroke="#8B7484" stroke-opacity="1.00" stroke-width="0.3"><path d=" M 890.00 473.00  C 888.18 482.26 883.53 490.31 883.00 500.00 C 882.41 510.86 892.35 521.64 900.25 528.75 C 908.15 535.87 914.31 549.61 925.22 548.22 C 936.13 546.84 955.42 547.02 958.00 535.00 C 958.23 528.97 959.32 523.60 961.00 518.00 C 962.92 506.10 961.52 493.98 961.00 482.00 C 956.15 487.13 952.19 494.38 945.75 498.74 C 939.30 503.10 934.60 485.87 927.00 489.00 C 925.75 494.13 921.38 497.88 920.00 503.00 C 917.93 502.64 918.15 500.52 918.00 499.00 C 914.96 501.64 917.85 507.88 914.00 510.00 C 913.60 509.44 914.50 507.45 914.00 507.00 C 911.09 504.38 907.67 499.12 905.78 495.22 C 903.88 491.33 901.39 484.35 899.77 481.23 C 898.15 478.11 892.78 470.43 890.00 473.00 Z"/>
</g>
<g fill="None" fill-opacity="0.0" stroke="#E8DABB" stroke-opacity="1.00" stroke-width="0.3"><path d=" M 516.00 492.00  C 519.30 487.72 533.79 492.39 538.00 493.00 C 534.97 492.12 517.68 485.52 516.00 492.00 Z"/>
</g>
<g fill="None" fill-opacity="0.0" stroke="#966766" stroke-opacity="1.00" stroke-width="0.3"><path d=" M 1070.00 510.00  C 1075.37 509.94 1080.06 513.46 1082.00 518.00 C 1082.05 516.89 1083.21 514.61 1084.00 514.00 C 1083.37 518.03 1086.91 519.25 1090.00 518.00 C 1091.86 527.59 1104.91 526.23 1109.75 534.25 C 1114.59 542.27 1106.35 560.10 1114.00 567.00 C 1113.26 570.22 1109.62 570.72 1114.00 573.00 C 1117.35 575.68 1121.78 578.55 1125.00 582.00 C 1126.27 573.09 1127.37 563.45 1129.00 555.00 C 1130.75 545.92 1127.86 545.94 1128.00 536.00 C 1128.14 526.06 1122.91 511.41 1113.00 506.00 C 1106.43 504.30 1101.99 500.72 1097.00 498.00 C 1095.30 497.07 1090.86 498.45 1087.23 496.77 C 1083.59 495.09 1079.22 491.54 1075.02 493.02 C 1070.83 494.50 1067.91 490.21 1064.00 490.00 C 1072.94 493.13 1068.74 502.55 1070.00 510.00 Z"/>
</g>
<g fill="None" fill-opacity="0.0" stroke="#BE984F" stroke-opacity="1.00" stroke-width="0.3"><path d=" M 516.00 492.00  C 515.88 492.47 516.13 493.54 516.00 494.00 C 516.91 493.39 516.82 492.33 518.00 492.00 C 520.52 500.06 525.54 507.44 528.77 515.23 C 532.00 523.02 535.60 531.86 538.32 539.68 C 541.04 547.50 547.37 555.66 545.00 563.00 C 546.14 562.97 546.72 561.47 548.00 562.00 C 560.61 595.46 570.15 630.68 582.00 664.00 C 582.96 664.87 590.28 668.95 594.25 673.75 C 598.22 678.55 602.27 683.22 608.23 686.77 C 614.19 690.32 613.93 698.90 613.93 706.07 C 613.92 713.24 622.99 718.31 620.67 725.67 C 618.35 733.03 618.24 740.77 618.00 748.00 C 619.25 751.60 622.52 754.84 625.00 758.00 C 621.10 759.41 619.18 753.10 616.00 755.00 C 614.42 761.79 610.49 771.72 610.00 778.00 C 610.64 796.41 619.42 813.46 621.00 832.00 C 622.58 850.54 626.88 870.19 628.00 889.00 C 629.23 896.30 631.29 905.62 632.00 913.00 C 633.63 895.66 638.68 878.56 636.00 860.00 C 633.32 841.44 640.36 823.91 640.00 806.00 C 639.34 773.32 629.59 735.40 624.07 703.93 C 618.56 672.46 605.67 642.88 597.02 612.98 C 588.38 583.07 573.24 558.97 561.00 531.00 C 585.55 568.64 606.91 602.17 616.33 647.67 C 625.75 693.17 632.60 749.28 641.00 796.00 C 641.83 799.89 643.72 805.25 645.00 809.00 C 652.12 789.76 647.79 766.98 649.00 746.00 C 648.62 735.98 644.88 725.55 635.00 721.00 C 634.94 713.12 640.95 704.12 639.00 696.00 C 637.05 687.88 633.03 683.19 637.32 675.32 C 641.61 667.46 638.71 659.31 643.00 652.00 C 638.94 638.97 634.94 625.93 627.92 614.08 C 620.89 602.24 616.36 589.42 612.98 576.02 C 609.59 562.63 603.62 552.47 594.25 541.75 C 584.87 531.03 579.37 523.48 573.30 509.70 C 567.23 495.91 551.17 494.92 538.00 493.00 C 533.79 492.39 519.30 487.72 516.00 492.00 Z"/>
</g>
<g fill="None" fill-opacity="0.0" stroke="#7A5728" stroke-opacity="1.00" stroke-width="0.3"><path d=" M 516.00 494.00  C 514.27 503.55 504.48 510.94 503.78 520.78 C 503.07 530.62 504.11 541.56 501.00 552.00 C 493.19 552.77 493.99 561.52 490.25 566.25 C 486.51 570.98 481.40 573.64 479.77 579.77 C 478.14 585.90 470.68 586.94 467.00 591.00 C 471.48 588.17 480.98 588.54 482.00 581.00 C 483.61 583.10 484.27 586.29 485.00 589.00 C 486.76 583.27 484.20 574.51 492.67 573.67 C 501.15 572.84 495.78 562.93 501.26 559.26 C 506.73 555.59 505.96 547.84 507.00 542.00 C 514.56 541.04 522.18 547.80 516.69 554.69 C 511.21 561.59 507.38 564.49 503.25 571.25 C 499.11 578.01 495.04 582.72 491.03 589.03 C 487.02 595.33 481.79 599.29 477.25 605.25 C 472.71 611.21 469.10 616.77 465.70 623.70 C 462.29 630.62 459.51 639.74 460.00 648.00 C 460.49 656.26 455.17 665.54 462.00 672.00 C 463.08 649.86 468.60 623.53 483.30 606.30 C 498.01 589.08 510.23 575.17 521.00 556.00 C 526.05 568.12 521.12 582.67 519.00 595.00 C 521.76 593.58 523.27 590.35 526.00 589.00 C 526.20 588.68 526.79 588.27 527.00 588.00 C 533.09 580.18 540.82 571.78 545.00 563.00 C 547.37 555.66 541.04 547.50 538.32 539.68 C 535.60 531.86 532.00 523.02 528.77 515.23 C 525.54 507.44 520.52 500.06 518.00 492.00 C 516.82 492.33 516.91 493.39 516.00 494.00 M 511.00 516.00  C 512.01 524.50 513.12 534.96 511.00 543.00 C 509.35 535.08 509.32 523.85 511.00 516.00 Z"/>
</g>
<g fill="None" fill-opacity="0.0" stroke="#947774" stroke-opacity="1.00" stroke-width="0.3"><path d=" M 882.00 508.00  C 882.00 508.50 882.00 509.00 882.00 509.00 C 883.14 514.85 890.22 519.15 894.25 523.75 C 898.28 528.35 901.77 534.08 906.75 538.25 C 911.73 542.41 913.89 550.08 922.01 549.99 C 930.13 549.91 935.71 549.52 945.02 546.02 C 954.34 542.53 953.65 549.26 950.23 556.23 C 946.81 563.20 941.26 569.01 943.00 576.00 C 945.63 581.63 953.27 586.85 957.75 591.25 C 962.24 595.64 966.79 603.83 971.75 607.25 C 976.72 610.67 981.14 622.22 987.00 623.00 C 986.92 622.73 987.65 622.07 988.00 622.00 C 986.06 616.03 977.04 612.20 973.75 606.25 C 970.46 600.29 961.65 596.32 958.25 590.75 C 954.84 585.18 944.86 580.64 944.03 573.97 C 943.19 567.31 951.02 558.94 953.31 552.31 C 955.59 545.67 966.23 551.18 971.25 555.75 C 976.26 560.33 987.06 564.62 994.01 562.01 C 1000.96 559.39 1016.41 562.96 1016.77 570.23 C 1017.13 577.50 1029.49 585.24 1026.00 592.00 C 1028.04 591.08 1030.23 589.77 1032.00 589.00 C 1019.48 583.86 1019.10 557.14 1001.00 560.00 C 982.90 562.86 972.56 553.76 958.00 546.00 C 958.10 542.34 957.86 538.66 958.00 535.00 C 955.42 547.02 936.13 546.84 925.22 548.22 C 914.31 549.61 908.15 535.87 900.25 528.75 C 892.35 521.64 882.41 510.86 883.00 500.00 C 882.64 502.21 882.00 505.09 882.00 508.00 Z"/>
</g>
<g fill="None" fill-opacity="0.0" stroke="#B98F7C" stroke-opacity="1.00" stroke-width="0.3"><path d=" M 1129.00 555.00  C 1128.75 564.91 1140.10 574.51 1140.99 584.01 C 1141.89 593.50 1139.68 596.99 1139.01 603.01 C 1138.34 609.02 1138.06 619.90 1136.00 619.00 C 1136.77 620.16 1137.08 622.51 1139.00 622.00 C 1144.13 605.09 1144.51 592.96 1152.23 576.23 C 1159.95 559.50 1151.25 549.01 1143.92 533.08 C 1136.60 517.15 1130.66 510.58 1113.00 506.00 C 1122.91 511.41 1128.14 526.06 1128.00 536.00 C 1127.86 545.94 1130.75 545.92 1129.00 555.00 Z"/>
</g>
<g fill="None" fill-opacity="0.0" stroke="#EADFC9" stroke-opacity="1.00" stroke-width="0.3"><path d=" M 880.00 576.00  C 880.37 570.05 880.00 563.96 880.00 558.00 C 880.00 553.33 880.00 548.67 880.00 544.00 C 880.00 536.33 880.00 528.67 880.00 521.00 C 880.00 517.60 878.46 509.94 882.00 509.00 C 882.00 509.00 882.00 508.50 882.00 508.00 C 881.00 508.00 880.00 508.00 879.00 508.00 C 879.67 532.18 877.67 557.57 880.00 581.00 C 880.08 579.34 879.90 577.66 880.00 576.00 Z"/>
</g>
<g fill="None" fill-opacity="0.0" stroke="#927154" stroke-opacity="1.00" stroke-width="0.3"><path d=" M 880.00 521.00  C 879.64 522.39 884.48 517.52 882.00 515.00 C 891.63 523.64 900.39 529.88 909.25 541.75 C 918.10 553.63 934.02 552.27 948.00 547.00 C 956.89 546.10 950.20 553.67 948.08 559.08 C 945.95 564.48 940.21 570.04 943.00 576.00 C 941.26 569.01 946.81 563.20 950.23 556.23 C 953.65 549.26 954.34 542.53 945.02 546.02 C 935.71 549.52 930.13 549.91 922.01 549.99 C 913.89 550.08 911.73 542.41 906.75 538.25 C 901.77 534.08 898.28 528.35 894.25 523.75 C 890.22 519.15 883.14 514.85 882.00 509.00 C 878.46 509.94 880.00 517.60 880.00 521.00 Z"/>
</g>
<g fill="None" fill-opacity="0.0" stroke="#71463B" stroke-opacity="1.00" stroke-width="0.3"><path d=" M 1073.00 515.00  C 1079.74 521.67 1083.19 534.68 1096.00 529.00 C 1090.80 526.60 1081.78 525.66 1082.00 518.00 C 1080.06 513.46 1075.37 509.94 1070.00 510.00 C 1070.52 513.07 1070.92 512.94 1073.00 515.00 Z"/>
</g>
<g fill="None" fill-opacity="0.0" stroke="#7B5248" stroke-opacity="1.00" stroke-width="0.3"><path d=" M 1069.00 513.00  C 1058.82 514.29 1053.11 530.80 1042.07 523.93 C 1031.04 517.05 1022.91 529.90 1013.75 533.75 C 1004.59 537.59 997.82 545.47 990.00 551.00 C 998.94 545.59 1006.83 541.79 1015.92 535.92 C 1025.01 530.06 1035.58 524.91 1046.98 530.02 C 1058.38 535.14 1064.59 520.94 1069.00 513.00 Z"/>
</g>
<g fill="None" fill-opacity="0.0" stroke="#A4796C" stroke-opacity="1.00" stroke-width="0.3"><path d=" M 1082.00 518.00  C 1081.78 525.66 1090.80 526.60 1096.00 529.00 C 1083.19 534.68 1079.74 521.67 1073.00 515.00 C 1079.20 526.04 1065.85 536.17 1070.00 547.00 C 1065.60 546.59 1070.07 550.56 1066.78 553.78 C 1063.48 557.00 1066.38 561.59 1066.00 565.00 C 1071.67 558.17 1084.35 564.53 1088.00 570.00 C 1078.87 568.67 1068.94 569.52 1066.23 579.23 C 1063.52 588.94 1053.68 587.08 1046.32 590.32 C 1038.96 593.56 1030.35 595.43 1023.00 599.00 C 1025.49 607.67 1031.78 614.65 1040.00 616.00 C 1047.86 614.65 1056.44 614.23 1061.25 607.25 C 1066.06 600.27 1070.68 597.99 1075.77 592.77 C 1080.86 587.55 1086.94 582.79 1093.77 581.77 C 1100.60 580.76 1107.42 572.26 1114.00 573.00 C 1109.62 570.72 1113.26 570.22 1114.00 567.00 C 1106.35 560.10 1114.59 542.27 1109.75 534.25 C 1104.91 526.23 1091.86 527.59 1090.00 518.00 C 1086.91 519.25 1083.37 518.03 1084.00 514.00 C 1083.21 514.61 1082.05 516.89 1082.00 518.00 Z"/>
</g>
<g fill="None" fill-opacity="0.0" stroke="#9E773E" stroke-opacity="1.00" stroke-width="0.3"><path d=" M 880.00 521.00  C 880.00 528.67 880.00 536.33 880.00 544.00 C 881.62 539.04 881.99 547.37 883.00 548.00 C 880.95 543.08 886.30 540.78 885.00 537.00 C 891.02 545.95 883.45 564.02 893.25 572.75 C 903.05 581.47 904.57 593.01 901.00 605.00 C 912.70 604.04 935.20 599.46 932.67 584.33 C 930.14 569.20 938.80 557.84 948.00 547.00 C 934.02 552.27 918.10 553.63 909.25 541.75 C 900.39 529.88 891.63 523.64 882.00 515.00 C 884.48 517.52 879.64 522.39 880.00 521.00 Z"/>
</g>
<g fill="None" fill-opacity="0.0" stroke="#5C3811" stroke-opacity="1.00" stroke-width="0.3"><path d=" M 511.00 516.00  C 509.32 523.85 509.35 535.08 511.00 543.00 C 513.12 534.96 512.01 524.50 511.00 516.00 Z"/>
</g>
<g fill="None" fill-opacity="0.0" stroke="#876E32" stroke-opacity="1.00" stroke-width="0.3"><path d=" M 640.00 806.00  C 649.93 888.15 651.95 973.46 656.00 1057.00 C 667.54 1014.41 660.57 968.44 657.22 924.78 C 653.87 881.12 648.44 838.54 641.00 796.00 C 632.60 749.28 625.75 693.17 616.33 647.67 C 606.91 602.17 585.55 568.64 561.00 531.00 C 573.24 558.97 588.38 583.07 597.02 612.98 C 605.67 642.88 618.56 672.46 624.07 703.93 C 629.59 735.40 639.34 773.32 640.00 806.00 Z"/>
</g>
<g fill="None" fill-opacity="0.0" stroke="#806232" stroke-opacity="1.00" stroke-width="0.3"><path d=" M 880.00 544.00  C 880.00 548.67 880.00 553.33 880.00 558.00 C 880.52 563.37 881.00 569.95 881.00 576.00 C 881.00 588.05 883.66 604.59 874.75 612.75 C 865.85 620.92 862.83 627.45 854.00 635.00 C 850.92 638.07 848.56 641.69 846.00 645.00 C 842.64 653.56 839.43 663.16 833.75 670.75 C 828.06 678.34 825.46 688.26 819.25 695.25 C 813.04 702.23 810.82 715.86 800.00 713.00 C 803.27 720.86 794.75 728.29 790.70 735.70 C 786.64 743.10 780.70 751.36 777.23 759.23 C 773.76 767.10 767.20 775.50 766.00 783.00 C 772.21 772.93 778.53 762.24 785.23 752.23 C 791.93 742.22 797.92 731.62 804.75 721.75 C 811.58 711.87 817.79 701.66 825.25 692.25 C 832.71 682.84 839.08 673.20 847.25 664.25 C 855.41 655.29 861.87 646.20 870.25 637.25 C 878.62 628.30 885.40 615.30 899.00 618.00 C 912.60 620.70 930.63 620.19 944.93 622.07 C 959.22 623.95 974.29 626.44 989.00 627.00 C 988.01 625.68 987.44 624.54 987.00 623.00 C 981.14 622.22 976.72 610.67 971.75 607.25 C 966.79 603.83 962.24 595.64 957.75 591.25 C 953.27 586.85 945.63 581.63 943.00 576.00 C 940.21 570.04 945.95 564.48 948.08 559.08 C 950.20 553.67 956.89 546.10 948.00 547.00 C 938.80 557.84 930.14 569.20 932.67 584.33 C 935.20 599.46 912.70 604.04 901.00 605.00 C 904.57 593.01 903.05 581.47 893.25 572.75 C 883.45 564.02 891.02 545.95 885.00 537.00 C 886.30 540.78 880.95 543.08 883.00 548.00 C 881.99 547.37 881.62 539.04 880.00 544.00 Z"/>
</g>
<g fill="None" fill-opacity="0.0" stroke="#987139" stroke-opacity="1.00" stroke-width="0.3"><path d=" M 467.00 591.00  C 449.92 609.84 439.43 636.94 448.00 662.00 C 449.54 659.04 456.58 666.03 458.00 667.00 C 455.95 673.90 456.76 682.75 459.00 689.00 C 461.92 685.30 461.68 679.57 463.00 675.00 C 473.01 696.38 468.75 723.50 470.00 746.00 C 475.62 729.58 485.00 714.85 486.00 697.00 C 487.00 679.15 473.77 660.03 477.67 641.67 C 481.58 623.32 491.89 616.16 507.00 607.00 C 512.92 602.19 521.89 595.65 526.00 589.00 C 523.27 590.35 521.76 593.58 519.00 595.00 C 521.12 582.67 526.05 568.12 521.00 556.00 C 510.23 575.17 498.01 589.08 483.30 606.30 C 468.60 623.53 463.08 649.86 462.00 672.00 C 455.17 665.54 460.49 656.26 460.00 648.00 C 459.51 639.74 462.29 630.62 465.70 623.70 C 469.10 616.77 472.71 611.21 477.25 605.25 C 481.79 599.29 487.02 595.33 491.03 589.03 C 495.04 582.72 499.11 578.01 503.25 571.25 C 507.38 564.49 511.21 561.59 516.69 554.69 C 522.18 547.80 514.56 541.04 507.00 542.00 C 505.96 547.84 506.73 555.59 501.26 559.26 C 495.78 562.93 501.15 572.84 492.67 573.67 C 484.20 574.51 486.76 583.27 485.00 589.00 C 484.27 586.29 483.61 583.10 482.00 581.00 C 480.98 588.54 471.48 588.17 467.00 591.00 Z"/>
</g>
<g fill="None" fill-opacity="0.0" stroke="#887486" stroke-opacity="1.00" stroke-width="0.3"><path d=" M 988.00 622.00  C 1004.81 618.87 1022.91 618.95 1040.00 616.00 C 1031.78 614.65 1025.49 607.67 1023.00 599.00 C 1022.64 599.23 1022.00 599.00 1022.00 599.00 C 1018.59 601.66 1009.27 593.12 1004.75 589.25 C 1000.24 585.37 991.99 581.88 985.78 586.78 C 979.56 591.67 970.95 592.02 965.00 593.00 C 975.12 589.88 983.86 582.88 994.03 580.03 C 1004.19 577.17 1011.32 592.51 1021.00 594.00 C 1022.83 593.96 1024.37 592.74 1026.00 592.00 C 1029.49 585.24 1017.13 577.50 1016.77 570.23 C 1016.41 562.96 1000.96 559.39 994.01 562.01 C 987.06 564.62 976.26 560.33 971.25 555.75 C 966.23 551.18 955.59 545.67 953.31 552.31 C 951.02 558.94 943.19 567.31 944.03 573.97 C 944.86 580.64 954.84 585.18 958.25 590.75 C 961.65 596.32 970.46 600.29 973.75 606.25 C 977.04 612.20 986.06 616.03 988.00 622.00 Z"/>
</g>
<g fill="None" fill-opacity="0.0" stroke="#EEE3C3" stroke-opacity="1.00" stroke-width="0.3"><path d=" M 717.00 560.00  C 719.74 555.92 733.56 555.71 738.00 555.00 C 740.74 554.56 743.24 554.47 746.00 554.00 C 752.60 552.89 764.31 548.97 771.00 551.00 C 771.80 551.24 773.44 552.47 774.00 553.00 C 770.43 547.49 753.13 550.69 746.00 553.00 C 738.87 555.31 720.56 552.39 717.00 560.00 Z"/>
</g>
<g fill="None" fill-opacity="0.0" stroke="#CBA052" stroke-opacity="1.00" stroke-width="0.3"><path d=" M 746.00 554.00  C 741.93 557.31 741.85 567.52 738.23 572.23 C 734.61 576.94 733.61 584.58 729.70 589.70 C 725.78 594.81 722.24 600.05 718.75 605.75 C 715.25 611.44 712.68 617.22 711.02 624.02 C 709.37 630.82 707.59 639.72 707.00 647.00 C 699.41 611.80 731.00 586.91 738.00 555.00 C 733.56 555.71 719.74 555.92 717.00 560.00 C 716.10 561.92 715.51 566.79 715.00 569.00 C 715.22 573.16 719.67 581.25 718.00 588.00 C 716.33 594.75 708.97 593.55 706.00 596.00 C 686.71 627.34 697.02 667.80 704.00 701.00 C 704.96 684.10 710.96 668.32 714.00 652.00 C 716.56 638.26 726.33 628.12 736.00 619.00 C 755.23 600.87 764.51 575.33 771.00 551.00 C 764.31 548.97 752.60 552.89 746.00 554.00 Z"/>
</g>
<g fill="None" fill-opacity="0.0" stroke="#81612B" stroke-opacity="1.00" stroke-width="0.3"><path d=" M 736.00 619.00  C 735.23 621.56 735.76 626.32 736.00 629.00 C 736.65 636.41 738.68 643.77 740.00 651.00 C 741.17 644.18 749.41 637.81 751.77 630.77 C 754.13 623.73 759.89 616.39 762.00 609.00 C 774.42 646.71 779.11 687.81 780.00 729.00 C 780.00 729.50 780.00 730.00 780.00 730.00 C 782.79 732.37 785.79 718.85 785.00 714.00 C 784.21 709.15 784.38 698.79 783.02 692.98 C 781.66 687.16 781.15 678.53 781.00 672.00 C 780.85 665.47 779.42 658.32 778.02 651.98 C 776.63 645.63 776.50 637.99 774.02 631.98 C 771.55 625.96 770.99 620.08 769.01 613.99 C 767.03 607.90 764.40 602.54 766.32 596.32 C 768.25 590.10 770.45 584.51 771.33 578.33 C 772.21 572.15 779.00 568.03 779.00 562.00 C 777.45 558.87 776.78 555.62 774.00 553.00 C 773.44 552.47 771.80 551.24 771.00 551.00 C 764.51 575.33 755.23 600.87 736.00 619.00 Z"/>
</g>
<g fill="None" fill-opacity="0.0" stroke="#9D7330" stroke-opacity="1.00" stroke-width="0.3"><path d=" M 738.00 555.00  C 731.00 586.91 699.41 611.80 707.00 647.00 C 707.59 639.72 709.37 630.82 711.02 624.02 C 712.68 617.22 715.25 611.44 718.75 605.75 C 722.24 600.05 725.78 594.81 729.70 589.70 C 733.61 584.58 734.61 576.94 738.23 572.23 C 741.85 567.52 741.93 557.31 746.00 554.00 C 743.24 554.47 740.74 554.56 738.00 555.00 Z"/>
</g>
<g fill="None" fill-opacity="0.0" stroke="#A1756A" stroke-opacity="1.00" stroke-width="0.3"><path d=" M 1125.00 582.00  C 1122.75 597.74 1126.19 606.33 1136.00 619.00 C 1138.06 619.90 1138.34 609.02 1139.01 603.01 C 1139.68 596.99 1141.89 593.50 1140.99 584.01 C 1140.10 574.51 1128.75 564.91 1129.00 555.00 C 1127.37 563.45 1126.27 573.09 1125.00 582.00 Z"/>
</g>
<g fill="None" fill-opacity="0.0" stroke="#B9A88A" stroke-opacity="1.00" stroke-width="0.3"><path d=" M 880.00 576.00  C 880.00 576.00 881.00 576.04 881.00 576.00 C 881.00 569.95 880.52 563.37 880.00 558.00 C 880.00 563.96 880.37 570.05 880.00 576.00 Z"/>
</g>
<g fill="None" fill-opacity="0.0" stroke="#A88547" stroke-opacity="1.00" stroke-width="0.3"><path d=" M 780.00 730.00  C 783.01 734.87 777.30 737.75 775.00 741.00 C 765.41 760.39 752.84 778.34 742.92 797.92 C 733.01 817.51 723.74 837.99 715.00 858.00 C 713.86 864.39 715.86 873.84 714.00 881.00 C 710.72 878.09 711.66 882.87 710.00 884.00 C 709.89 881.22 709.76 879.31 709.00 877.00 C 708.03 876.98 707.78 880.01 707.00 878.00 C 695.01 907.47 683.72 937.83 676.00 969.00 C 674.10 976.68 670.94 984.02 670.00 992.00 C 667.67 980.15 670.02 965.78 671.00 954.00 C 671.00 925.01 671.00 895.00 671.00 866.00 C 670.58 861.61 670.00 856.07 670.00 851.00 C 670.00 812.80 662.43 776.35 661.00 739.00 C 659.89 731.24 650.90 726.56 645.00 722.00 C 653.77 730.60 652.32 743.84 651.00 755.00 C 648.34 753.04 651.72 747.89 649.00 746.00 C 647.79 766.98 652.12 789.76 645.00 809.00 C 643.72 805.25 641.83 799.89 641.00 796.00 C 648.44 838.54 653.87 881.12 657.22 924.78 C 660.57 968.44 667.54 1014.41 656.00 1057.00 C 651.95 973.46 649.93 888.15 640.00 806.00 C 640.36 823.91 633.32 841.44 636.00 860.00 C 638.68 878.56 633.63 895.66 632.00 913.00 C 630.76 926.25 633.84 940.77 635.00 954.00 C 638.96 999.04 644.00 1045.18 644.00 1091.00 C 644.00 1109.89 644.76 1128.83 643.00 1147.00 C 641.01 1183.26 637.28 1219.07 638.00 1256.00 C 642.33 1256.00 646.67 1256.00 651.00 1256.00 C 651.28 1236.68 653.00 1217.35 653.00 1198.00 C 653.00 1188.91 654.11 1178.98 655.00 1170.00 C 655.89 1161.02 654.07 1149.68 658.00 1142.00 C 658.87 1140.30 659.75 1138.44 661.00 1137.00 C 659.36 1138.50 657.49 1139.61 657.00 1142.00 C 655.06 1134.77 661.37 1126.88 666.00 1121.00 C 664.83 1122.08 663.29 1123.16 662.00 1124.00 C 660.87 1119.10 659.89 1112.24 661.00 1108.00 C 662.44 1094.80 664.76 1081.51 667.00 1069.00 C 670.09 1035.02 681.63 999.47 690.07 967.07 C 698.52 934.68 710.64 906.18 722.00 875.00 C 725.31 865.91 729.87 857.02 733.00 848.00 C 735.98 839.39 741.21 833.27 746.00 826.00 C 748.19 818.23 752.36 808.98 757.00 801.00 C 760.37 795.21 762.89 788.76 766.00 783.00 C 767.20 775.50 773.76 767.10 777.23 759.23 C 780.70 751.36 786.64 743.10 790.70 735.70 C 794.75 728.29 803.27 720.86 800.00 713.00 C 810.82 715.86 813.04 702.23 819.25 695.25 C 825.46 688.26 828.06 678.34 833.75 670.75 C 839.43 663.16 842.64 653.56 846.00 645.00 C 842.25 649.85 836.96 654.18 833.00 659.00 C 821.47 676.27 807.24 692.30 796.00 710.00 C 800.50 684.48 808.14 654.13 801.00 627.00 C 802.25 628.91 797.56 622.50 795.75 620.25 C 793.94 617.99 788.43 615.80 786.00 614.00 C 786.12 622.40 780.77 629.11 779.00 637.00 C 774.57 630.62 785.24 624.90 783.00 618.00 C 780.76 611.10 779.09 607.20 782.97 600.97 C 786.86 594.75 783.21 586.32 787.00 580.00 C 788.60 580.53 787.72 582.75 788.00 584.00 C 788.95 576.66 782.41 568.89 779.00 562.00 C 779.00 568.03 772.21 572.15 771.33 578.33 C 770.45 584.51 768.25 590.10 766.32 596.32 C 764.40 602.54 767.03 607.90 769.01 613.99 C 770.99 620.08 771.55 625.96 774.02 631.98 C 776.50 637.99 776.63 645.63 778.02 651.98 C 779.42 658.32 780.85 665.47 781.00 672.00 C 781.15 678.53 781.66 687.16 783.02 692.98 C 784.38 698.79 784.21 709.15 785.00 714.00 C 785.79 718.85 782.79 732.37 780.00 730.00 Z"/>
</g>
<g fill="None" fill-opacity="0.0" stroke="#694038" stroke-opacity="1.00" stroke-width="0.3"><path d=" M 1066.00 565.00  C 1061.72 570.16 1060.86 579.15 1053.07 581.07 C 1045.29 582.99 1039.14 585.88 1032.00 589.00 C 1030.23 589.77 1028.04 591.08 1026.00 592.00 C 1024.37 592.74 1022.83 593.96 1021.00 594.00 C 1022.12 595.20 1021.28 597.50 1022.00 599.00 C 1022.00 599.00 1022.64 599.23 1023.00 599.00 C 1030.35 595.43 1038.96 593.56 1046.32 590.32 C 1053.68 587.08 1063.52 588.94 1066.23 579.23 C 1068.94 569.52 1078.87 568.67 1088.00 570.00 C 1084.35 564.53 1071.67 558.17 1066.00 565.00 Z"/>
</g>
<g fill="None" fill-opacity="0.0" stroke="#845D2E" stroke-opacity="1.00" stroke-width="0.3"><path d=" M 706.00 596.00  C 708.97 593.55 716.33 594.75 718.00 588.00 C 719.67 581.25 715.22 573.16 715.00 569.00 C 713.70 574.61 714.33 581.19 715.66 586.32 C 716.99 591.45 708.49 592.71 706.00 596.00 Z"/>
</g>
<g fill="None" fill-opacity="0.0" stroke="#65444A" stroke-opacity="1.00" stroke-width="0.3"><path d=" M 1022.00 599.00  C 1021.28 597.50 1022.12 595.20 1021.00 594.00 C 1011.32 592.51 1004.19 577.17 994.03 580.03 C 983.86 582.88 975.12 589.88 965.00 593.00 C 970.95 592.02 979.56 591.67 985.78 586.78 C 991.99 581.88 1000.24 585.37 1004.75 589.25 C 1009.27 593.12 1018.59 601.66 1022.00 599.00 Z"/>
</g>
<g fill="None" fill-opacity="0.0" stroke="#806138" stroke-opacity="1.00" stroke-width="0.3"><path d=" M 801.00 627.00  C 799.50 621.29 798.82 615.81 792.23 613.77 C 785.64 611.73 784.66 607.53 787.01 602.01 C 789.35 596.49 787.29 589.52 788.00 584.00 C 787.72 582.75 788.60 580.53 787.00 580.00 C 783.21 586.32 786.86 594.75 782.97 600.97 C 779.09 607.20 780.76 611.10 783.00 618.00 C 785.24 624.90 774.57 630.62 779.00 637.00 C 780.77 629.11 786.12 622.40 786.00 614.00 C 788.43 615.80 793.94 617.99 795.75 620.25 C 797.56 622.50 802.25 628.91 801.00 627.00 Z"/>
</g>
<g fill="None" fill-opacity="0.0" stroke="#DCCFB5" stroke-opacity="1.00" stroke-width="0.3"><path d=" M 526.00 589.00  C 521.89 595.65 512.92 602.19 507.00 607.00 C 514.54 602.43 522.79 594.51 527.00 588.00 C 526.79 588.27 526.20 588.68 526.00 589.00 Z"/>
</g>
<g fill="None" fill-opacity="0.0" stroke="#A58247" stroke-opacity="1.00" stroke-width="0.3"><path d=" M 740.00 651.00  C 744.62 676.30 757.86 697.32 771.00 719.00 C 773.51 722.24 776.51 726.56 780.00 729.00 C 779.11 687.81 774.42 646.71 762.00 609.00 C 759.89 616.39 754.13 623.73 751.77 630.77 C 749.41 637.81 741.17 644.18 740.00 651.00 Z"/>
</g>
<g fill="None" fill-opacity="0.0" stroke="#E3D4B1" stroke-opacity="1.00" stroke-width="0.3"><path d=" M 714.00 652.00  C 717.43 640.70 725.48 629.24 735.00 622.00 C 734.21 624.45 735.64 627.22 736.00 629.00 C 735.76 626.32 735.23 621.56 736.00 619.00 C 726.33 628.12 716.56 638.26 714.00 652.00 Z"/>
</g>
<g fill="None" fill-opacity="0.0" stroke="#EBE0C4" stroke-opacity="1.00" stroke-width="0.3"><path d=" M 833.00 659.00  C 836.96 654.18 842.25 649.85 846.00 645.00 C 848.56 641.69 850.92 638.07 854.00 635.00 C 846.24 641.63 838.51 650.45 833.00 659.00 Z"/>
</g>
<g fill="None" fill-opacity="0.0" stroke="#745025" stroke-opacity="1.00" stroke-width="0.3"><path d=" M 649.00 746.00  C 651.72 747.89 648.34 753.04 651.00 755.00 C 652.32 743.84 653.77 730.60 645.00 722.00 C 641.35 719.17 641.56 720.19 642.00 716.00 C 642.75 708.77 647.10 700.27 643.98 693.03 C 640.85 685.78 642.39 678.77 646.02 672.03 C 649.66 665.28 645.08 658.67 643.00 652.00 C 638.71 659.31 641.61 667.46 637.32 675.32 C 633.03 683.19 637.05 687.88 639.00 696.00 C 640.95 704.12 634.94 713.12 635.00 721.00 C 644.88 725.55 648.62 735.98 649.00 746.00 Z"/>
</g>
<g fill="None" fill-opacity="0.0" stroke="#B38E53" stroke-opacity="1.00" stroke-width="0.3"><path d=" M 448.00 662.00  C 458.15 691.58 463.26 723.04 467.00 754.00 C 468.80 752.01 469.11 748.61 470.00 746.00 C 468.75 723.50 473.01 696.38 463.00 675.00 C 461.68 679.57 461.92 685.30 459.00 689.00 C 456.76 682.75 455.95 673.90 458.00 667.00 C 456.58 666.03 449.54 659.04 448.00 662.00 Z"/>
</g>
<g fill="None" fill-opacity="0.0" stroke="#745127" stroke-opacity="1.00" stroke-width="0.3"><path d=" M 582.00 664.00  C 585.48 673.78 583.75 684.17 596.92 688.08 C 610.09 691.99 600.43 705.15 608.75 714.25 C 617.06 723.36 607.09 736.46 611.07 746.93 C 615.05 757.39 609.63 767.38 610.00 778.00 C 610.49 771.72 614.42 761.79 616.00 755.00 C 616.58 752.52 617.91 750.71 618.00 748.00 C 618.24 740.77 618.35 733.03 620.67 725.67 C 622.99 718.31 613.92 713.24 613.93 706.07 C 613.93 698.90 614.19 690.32 608.23 686.77 C 602.27 683.22 598.22 678.55 594.25 673.75 C 590.28 668.95 582.96 664.87 582.00 664.00 Z"/>
</g>
<g fill="None" fill-opacity="0.0" stroke="#E0D4B9" stroke-opacity="1.00" stroke-width="0.3"><path d=" M 645.00 722.00  C 650.90 726.56 659.89 731.24 661.00 739.00 C 660.52 726.35 643.07 726.45 642.00 716.00 C 641.56 720.19 641.35 719.17 645.00 722.00 Z"/>
</g>
<g fill="None" fill-opacity="0.0" stroke="#E8DBBB" stroke-opacity="1.00" stroke-width="0.3"><path d=" M 775.00 741.00  C 777.30 737.75 783.01 734.87 780.00 730.00 C 780.00 730.00 780.00 729.50 780.00 729.00 C 776.51 726.56 773.51 722.24 771.00 719.00 C 776.63 728.29 780.14 730.61 775.00 741.00 Z"/>
</g>
<g fill="None" fill-opacity="0.0" stroke="#BB9351" stroke-opacity="1.00" stroke-width="0.3"><path d=" M 892.00 741.00  C 891.12 741.62 886.32 747.01 884.00 749.00 C 882.92 750.17 881.85 751.71 881.00 753.00 C 885.38 757.90 890.29 763.74 898.00 762.00 C 902.92 759.14 908.14 756.96 913.00 754.00 C 912.18 757.10 907.59 758.10 905.00 760.00 C 903.22 762.02 903.19 762.98 905.00 765.00 C 910.14 760.48 915.56 761.02 921.22 757.22 C 926.89 753.43 931.88 764.94 937.00 760.00 C 939.32 756.61 941.14 752.70 944.00 750.00 C 945.26 765.02 943.90 782.88 949.33 796.67 C 954.76 810.46 942.06 830.65 952.92 842.08 C 963.77 853.51 959.21 867.63 949.75 877.75 C 940.30 887.87 935.37 898.70 928.00 907.00 C 927.64 908.78 926.00 909.82 929.00 909.00 C 933.80 907.06 937.34 899.04 942.25 896.25 C 947.15 893.45 951.51 886.65 955.75 882.75 C 960.00 878.85 966.11 873.62 969.00 869.00 C 980.71 847.38 972.93 824.87 967.00 803.00 C 961.06 781.13 959.24 755.52 959.00 732.00 C 936.36 733.14 912.46 732.87 892.00 741.00 Z"/>
</g>
<g fill="None" fill-opacity="0.0" stroke="#745128" stroke-opacity="1.00" stroke-width="0.3"><path d=" M 816.00 775.00  C 820.72 780.43 829.52 784.79 837.07 779.07 C 844.63 773.36 852.62 780.80 861.00 781.00 C 863.54 767.97 874.33 757.95 884.00 749.00 C 886.32 747.01 891.12 741.62 892.00 741.00 C 885.32 743.65 877.43 745.87 871.75 750.75 C 866.07 755.64 865.92 763.32 860.75 769.75 C 855.59 776.19 848.97 767.84 841.23 772.23 C 833.48 776.62 823.99 771.55 816.00 775.00 Z"/>
</g>
<g fill="None" fill-opacity="0.0" stroke="#8E6E2F" stroke-opacity="1.00" stroke-width="0.3"><path d=" M 616.00 755.00  C 619.18 753.10 621.10 759.41 625.00 758.00 C 622.52 754.84 619.25 751.60 618.00 748.00 C 617.91 750.71 616.58 752.52 616.00 755.00 Z"/>
</g>
<g fill="None" fill-opacity="0.0" stroke="#968343" stroke-opacity="1.00" stroke-width="0.3"><path d=" M 816.00 775.00  C 798.55 782.53 782.37 793.24 767.00 804.00 C 759.66 810.03 751.17 818.15 746.00 826.00 C 741.21 833.27 735.98 839.39 733.00 848.00 C 737.45 847.36 742.24 849.55 746.00 850.00 C 767.88 850.44 789.47 851.73 810.00 846.00 C 813.55 842.62 814.97 835.73 818.92 831.92 C 822.87 828.11 826.73 823.16 826.00 818.00 C 825.43 816.06 822.60 813.87 824.00 811.00 C 793.53 821.40 764.97 838.11 734.00 847.00 C 746.52 830.64 770.04 826.54 788.69 818.69 C 807.35 810.85 827.40 802.53 845.23 792.23 C 863.06 781.93 881.05 773.24 898.00 762.00 C 890.29 763.74 885.38 757.90 881.00 753.00 C 881.85 751.71 882.92 750.17 884.00 749.00 C 874.33 757.95 863.54 767.97 861.00 781.00 C 852.62 780.80 844.63 773.36 837.07 779.07 C 829.52 784.79 820.72 780.43 816.00 775.00 Z"/>
</g>
<g fill="None" fill-opacity="0.0" stroke="#7A5D29" stroke-opacity="1.00" stroke-width="0.3"><path d=" M 937.00 760.00  C 932.19 767.01 926.63 772.92 920.00 778.00 C 919.75 778.26 919.87 779.54 920.00 780.00 C 924.08 794.71 928.42 809.28 934.68 823.32 C 940.93 837.37 949.83 849.92 942.92 864.92 C 936.02 879.93 931.11 891.47 928.00 907.00 C 935.37 898.70 940.30 887.87 949.75 877.75 C 959.21 867.63 963.77 853.51 952.92 842.08 C 942.06 830.65 954.76 810.46 949.33 796.67 C 943.90 782.88 945.26 765.02 944.00 750.00 C 941.14 752.70 939.32 756.61 937.00 760.00 Z"/>
</g>
<g fill="None" fill-opacity="0.0" stroke="#7F6A30" stroke-opacity="1.00" stroke-width="0.3"><path d=" M 898.00 762.00  C 881.05 773.24 863.06 781.93 845.23 792.23 C 827.40 802.53 807.35 810.85 788.69 818.69 C 770.04 826.54 746.52 830.64 734.00 847.00 C 764.97 838.11 793.53 821.40 824.00 811.00 C 822.60 813.87 825.43 816.06 826.00 818.00 C 825.62 815.33 825.59 814.23 826.00 812.00 C 827.43 804.22 844.33 801.48 851.70 795.70 C 859.07 789.92 870.83 785.07 878.70 778.70 C 886.57 772.32 896.48 765.61 905.00 760.00 C 907.59 758.10 912.18 757.10 913.00 754.00 C 908.14 756.96 902.92 759.14 898.00 762.00 Z"/>
</g>
<g fill="None" fill-opacity="0.0" stroke="#9D8544" stroke-opacity="1.00" stroke-width="0.3"><path d=" M 905.00 760.00  C 896.48 765.61 886.57 772.32 878.70 778.70 C 870.83 785.07 859.07 789.92 851.70 795.70 C 844.33 801.48 827.43 804.22 826.00 812.00 C 828.59 825.28 846.99 820.05 851.25 811.25 C 855.51 802.46 875.61 815.77 882.00 814.00 C 887.63 811.16 892.13 806.16 897.00 802.00 C 905.33 794.88 911.83 784.26 920.00 778.00 C 926.63 772.92 932.19 767.01 937.00 760.00 C 931.88 764.94 926.89 753.43 921.22 757.22 C 915.56 761.02 910.14 760.48 905.00 765.00 C 903.19 762.98 903.22 762.02 905.00 760.00 Z"/>
</g>
<g fill="None" fill-opacity="0.0" stroke="#E1D8BB" stroke-opacity="1.00" stroke-width="0.3"><path d=" M 897.00 802.00  C 903.79 797.61 914.14 787.59 920.00 780.00 C 919.87 779.54 919.75 778.26 920.00 778.00 C 911.83 784.26 905.33 794.88 897.00 802.00 Z"/>
</g>
<g fill="None" fill-opacity="0.0" stroke="#F0E8CD" stroke-opacity="1.00" stroke-width="0.3"><path d=" M 746.00 826.00  C 751.17 818.15 759.66 810.03 767.00 804.00 C 762.71 807.00 758.98 811.42 754.00 813.00 C 753.15 809.28 755.57 804.70 757.00 801.00 C 752.36 808.98 748.19 818.23 746.00 826.00 Z"/>
</g>
<g fill="None" fill-opacity="0.0" stroke="#765629" stroke-opacity="1.00" stroke-width="0.3"><path d=" M 826.00 812.00  C 825.59 814.23 825.62 815.33 826.00 818.00 C 826.73 823.16 822.87 828.11 818.92 831.92 C 814.97 835.73 813.55 842.62 810.00 846.00 C 822.97 848.02 820.65 829.48 831.26 827.26 C 841.87 825.03 852.70 825.96 857.00 813.00 C 865.31 814.63 873.76 818.17 882.00 814.00 C 875.61 815.77 855.51 802.46 851.25 811.25 C 846.99 820.05 828.59 825.28 826.00 812.00 Z"/>
</g>
<g fill="None" fill-opacity="0.0" stroke="#E5DABC" stroke-opacity="1.00" stroke-width="0.3"><path d=" M 722.00 875.00  C 726.84 867.38 729.68 858.09 734.00 850.00 C 738.00 850.06 742.00 849.92 746.00 850.00 C 742.24 849.55 737.45 847.36 733.00 848.00 C 729.87 857.02 725.31 865.91 722.00 875.00 Z"/>
</g>
<g fill="None" fill-opacity="0.0" stroke="#BDB190" stroke-opacity="1.00" stroke-width="0.3"><path d=" M 671.00 866.00  C 671.00 860.93 670.42 855.39 670.00 851.00 C 670.00 856.07 670.58 861.61 671.00 866.00 Z"/>
</g>
<g fill="None" fill-opacity="0.0" stroke="#8B6E39" stroke-opacity="1.00" stroke-width="0.3"><path d=" M 707.00 878.00  C 707.78 880.01 708.03 876.98 709.00 877.00 C 709.76 879.31 709.89 881.22 710.00 884.00 C 711.66 882.87 710.72 878.09 714.00 881.00 C 715.86 873.84 713.86 864.39 715.00 858.00 C 712.24 864.31 709.68 871.42 707.00 878.00 Z"/>
</g>
<g fill="None" fill-opacity="0.0" stroke="#F3E8CD" stroke-opacity="1.00" stroke-width="0.3"><path d=" M 929.00 909.00  C 934.29 907.55 938.38 899.12 943.25 896.25 C 948.12 893.37 952.40 886.51 956.75 882.75 C 961.10 879.00 966.52 874.07 969.00 869.00 C 966.11 873.62 960.00 878.85 955.75 882.75 C 951.51 886.65 947.15 893.45 942.25 896.25 C 937.34 899.04 933.80 907.06 929.00 909.00 Z"/>
</g>
<g fill="None" fill-opacity="0.0" stroke="#E1D6BA" stroke-opacity="1.00" stroke-width="0.3"><path d=" M 635.00 954.00  C 633.84 940.77 630.76 926.25 632.00 913.00 C 631.29 905.62 629.23 896.30 628.00 889.00 C 629.27 910.27 630.84 933.58 635.00 954.00 Z"/>
</g>
<g fill="None" fill-opacity="0.0" stroke="#E8DCC0" stroke-opacity="1.00" stroke-width="0.3"><path d=" M 676.00 969.00  C 672.89 970.39 673.86 974.60 672.00 977.00 C 670.17 970.33 671.00 961.50 671.00 954.00 C 670.02 965.78 667.67 980.15 670.00 992.00 C 670.94 984.02 674.10 976.68 676.00 969.00 Z"/>
</g>
<g fill="None" fill-opacity="0.0" stroke="#EADCB9" stroke-opacity="1.00" stroke-width="0.3"><path d=" M 732.00 1037.00  C 734.72 1032.65 734.84 1025.23 736.00 1020.00 C 739.19 1005.59 757.50 992.01 771.00 989.00 C 759.22 989.76 752.23 997.94 742.75 1004.75 C 733.28 1011.56 735.66 1027.68 732.00 1037.00 Z"/>
</g>
<g fill="None" fill-opacity="0.0" stroke="#C89A48" stroke-opacity="1.00" stroke-width="0.3"><path d=" M 736.00 1020.00  C 737.81 1017.90 747.06 1015.85 749.00 1017.00 C 736.49 1021.03 737.98 1034.21 734.00 1044.00 C 724.45 1038.96 716.43 1049.75 710.00 1052.00 C 707.74 1053.04 706.47 1054.37 704.00 1055.00 C 684.48 1059.99 674.92 1078.66 667.00 1097.00 C 665.70 1100.00 660.15 1109.90 661.00 1108.00 C 659.89 1112.24 660.87 1119.10 662.00 1124.00 C 663.29 1123.16 664.83 1122.08 666.00 1121.00 C 684.65 1097.37 706.29 1077.16 728.08 1056.08 C 749.88 1035.00 776.81 1014.56 806.00 1007.00 C 746.04 1032.43 706.88 1091.52 661.00 1137.00 C 659.75 1138.44 658.87 1140.30 658.00 1142.00 C 663.28 1138.30 673.58 1139.78 679.67 1136.67 C 685.76 1133.56 694.31 1132.32 700.68 1129.68 C 707.04 1127.04 712.80 1123.92 718.74 1120.74 C 724.68 1117.57 732.20 1115.87 737.00 1111.00 C 737.15 1101.94 734.59 1087.99 742.25 1080.25 C 749.90 1072.51 749.50 1059.53 745.00 1050.00 C 761.20 1059.66 780.37 1052.77 794.00 1042.00 C 801.52 1044.02 807.67 1049.62 815.00 1052.00 C 830.48 1038.05 846.03 1022.63 863.00 1011.00 C 861.28 1007.31 843.88 1004.99 840.00 1004.00 C 828.34 1002.48 816.50 998.37 805.02 996.98 C 793.55 995.58 782.58 988.25 771.00 989.00 C 757.50 992.01 739.19 1005.59 736.00 1020.00 Z"/>
</g>
<g fill="None" fill-opacity="0.0" stroke="#EADDBE" stroke-opacity="1.00" stroke-width="0.3"><path d=" M 863.00 1011.00  C 863.20 1011.42 863.86 1012.68 864.00 1013.00 C 861.15 1004.99 847.93 1005.03 840.00 1004.00 C 843.88 1004.99 861.28 1007.31 863.00 1011.00 Z"/>
</g>
<g fill="None" fill-opacity="0.0" stroke="#8D6527" stroke-opacity="1.00" stroke-width="0.3"><path d=" M 666.00 1121.00  C 661.37 1126.88 655.06 1134.77 657.00 1142.00 C 657.49 1139.61 659.36 1138.50 661.00 1137.00 C 706.88 1091.52 746.04 1032.43 806.00 1007.00 C 776.81 1014.56 749.88 1035.00 728.08 1056.08 C 706.29 1077.16 684.65 1097.37 666.00 1121.00 Z"/>
</g>
<g fill="None" fill-opacity="0.0" stroke="#7C5627" stroke-opacity="1.00" stroke-width="0.3"><path d=" M 737.00 1111.00  C 737.39 1110.60 738.78 1109.45 739.00 1109.00 C 742.31 1102.14 740.19 1087.73 748.75 1083.75 C 757.31 1079.78 750.30 1060.40 759.00 1060.00 C 767.70 1059.60 779.32 1060.87 785.30 1054.30 C 791.29 1047.74 803.83 1046.03 808.89 1052.11 C 813.96 1058.18 813.87 1069.35 818.00 1077.00 C 819.39 1078.78 822.24 1080.63 824.00 1082.00 C 822.24 1072.37 834.05 1062.06 840.00 1056.00 C 847.15 1068.18 852.88 1076.01 860.77 1088.23 C 868.66 1100.45 866.07 1121.02 868.00 1135.00 C 869.71 1125.16 869.41 1114.80 870.93 1104.93 C 872.45 1095.05 867.41 1087.73 861.70 1080.31 C 855.98 1072.88 855.73 1067.29 849.70 1059.31 C 843.66 1051.32 851.94 1044.88 862.00 1045.00 C 859.46 1055.96 869.78 1063.22 868.00 1074.00 C 869.93 1072.74 871.91 1071.00 873.00 1069.00 C 875.51 1071.91 879.15 1073.33 883.00 1072.00 C 884.13 1066.09 878.22 1062.78 873.00 1064.00 C 866.79 1055.67 872.25 1046.06 871.99 1038.01 C 871.73 1029.96 867.08 1020.21 864.00 1013.00 C 863.86 1012.68 863.20 1011.42 863.00 1011.00 C 846.03 1022.63 830.48 1038.05 815.00 1052.00 C 807.67 1049.62 801.52 1044.02 794.00 1042.00 C 780.37 1052.77 761.20 1059.66 745.00 1050.00 C 749.50 1059.53 749.90 1072.51 742.25 1080.25 C 734.59 1087.99 737.15 1101.94 737.00 1111.00 Z"/>
</g>
<g fill="None" fill-opacity="0.0" stroke="#865C29" stroke-opacity="1.00" stroke-width="0.3"><path d=" M 736.00 1020.00  C 734.84 1025.23 734.72 1032.65 732.00 1037.00 C 732.00 1038.00 732.00 1039.00 732.00 1040.00 C 727.62 1040.20 723.16 1039.99 719.00 1041.00 C 713.63 1042.70 713.63 1048.37 710.00 1052.00 C 716.43 1049.75 724.45 1038.96 734.00 1044.00 C 737.98 1034.21 736.49 1021.03 749.00 1017.00 C 747.06 1015.85 737.81 1017.90 736.00 1020.00 Z"/>
</g>
<g fill="None" fill-opacity="0.0" stroke="#E3D4B6" stroke-opacity="1.00" stroke-width="0.3"><path d=" M 704.00 1055.00  C 706.47 1054.37 707.74 1053.04 710.00 1052.00 C 713.63 1048.37 713.63 1042.70 719.00 1041.00 C 711.20 1042.90 711.10 1052.54 704.00 1055.00 Z"/>
</g>
<g fill="None" fill-opacity="0.0" stroke="#A17739" stroke-opacity="1.00" stroke-width="0.3"><path d=" M 824.00 1082.00  C 824.27 1082.21 824.68 1082.80 825.00 1083.00 C 830.00 1086.09 833.67 1091.38 838.00 1095.00 C 844.64 1099.75 850.47 1104.64 852.00 1113.00 C 855.63 1136.95 854.19 1162.70 859.00 1186.00 C 867.98 1160.28 880.20 1135.73 889.00 1110.00 C 890.73 1104.93 891.58 1099.66 891.00 1094.00 C 889.29 1086.29 885.22 1079.21 883.00 1072.00 C 879.15 1073.33 875.51 1071.91 873.00 1069.00 C 871.91 1071.00 869.93 1072.74 868.00 1074.00 C 869.78 1063.22 859.46 1055.96 862.00 1045.00 C 851.94 1044.88 843.66 1051.32 849.70 1059.31 C 855.73 1067.29 855.98 1072.88 861.70 1080.31 C 867.41 1087.73 872.45 1095.05 870.93 1104.93 C 869.41 1114.80 869.71 1125.16 868.00 1135.00 C 866.07 1121.02 868.66 1100.45 860.77 1088.23 C 852.88 1076.01 847.15 1068.18 840.00 1056.00 C 834.05 1062.06 822.24 1072.37 824.00 1082.00 Z"/>
</g>
<g fill="None" fill-opacity="0.0" stroke="#E6D8B7" stroke-opacity="1.00" stroke-width="0.3"><path d=" M 661.00 1108.00  C 660.15 1109.90 665.70 1100.00 667.00 1097.00 C 664.54 1097.86 664.73 1101.01 664.00 1103.00 C 662.50 1092.34 665.97 1080.30 667.00 1069.00 C 664.76 1081.51 662.44 1094.80 661.00 1108.00 Z"/>
</g>
<g fill="None" fill-opacity="0.0" stroke="#E6D9C2" stroke-opacity="1.00" stroke-width="0.3"><path d=" M 852.00 1113.00  C 850.47 1104.64 844.64 1099.75 838.00 1095.00 C 833.23 1091.59 828.62 1087.65 825.00 1083.00 C 824.68 1082.80 824.27 1082.21 824.00 1082.00 C 822.24 1080.63 819.39 1078.78 818.00 1077.00 C 825.87 1091.58 846.79 1096.73 852.00 1113.00 Z"/>
</g>
<g fill="None" fill-opacity="0.0" stroke="#AF9875" stroke-opacity="1.00" stroke-width="0.3"><path d=" M 838.00 1095.00  C 833.67 1091.38 830.00 1086.09 825.00 1083.00 C 828.62 1087.65 833.23 1091.59 838.00 1095.00 Z"/>
</g>
<g fill="None" fill-opacity="0.0" stroke="#E8DBBD" stroke-opacity="1.00" stroke-width="0.3"><path d=" M 643.00 1147.00  C 644.76 1128.83 644.00 1109.89 644.00 1091.00 C 642.29 1108.70 643.00 1128.48 643.00 1147.00 Z"/>
</g>
<g fill="None" fill-opacity="0.0" stroke="#BFB098" stroke-opacity="1.00" stroke-width="0.3"><path d=" M 889.00 1110.00  C 891.61 1104.49 892.40 1100.32 891.00 1094.00 C 891.58 1099.66 890.73 1104.93 889.00 1110.00 Z"/>
</g>
<g fill="None" fill-opacity="0.0" stroke="#E7D9B9" stroke-opacity="1.00" stroke-width="0.3"><path d=" M 737.00 1111.00  C 732.20 1115.87 724.68 1117.57 718.74 1120.74 C 712.80 1123.92 707.04 1127.04 700.68 1129.68 C 694.31 1132.32 685.76 1133.56 679.67 1136.67 C 673.58 1139.78 663.28 1138.30 658.00 1142.00 C 654.07 1149.68 655.89 1161.02 655.00 1170.00 C 654.11 1178.98 653.00 1188.91 653.00 1198.00 C 654.86 1188.86 656.03 1176.31 656.00 1166.00 C 655.98 1155.70 655.54 1142.29 666.33 1141.33 C 677.12 1140.37 684.30 1136.01 693.32 1133.32 C 702.34 1130.64 710.64 1127.26 717.77 1122.77 C 724.90 1118.29 735.98 1116.97 739.00 1109.00 C 738.78 1109.45 737.39 1110.60 737.00 1111.00 Z"/>
</g>
<g fill="#FEFEFE" fill-opacity="1.00" stroke="None">

</g>
<g fill="#B58773" fill-opacity="1.00" stroke="None">
<path d=" M 963.00 370.00  C 964.28 368.98 965.63 367.80 967.00 367.00 C 965.47 379.10 960.45 391.39 964.00 404.00 C 953.86 402.28 948.72 410.78 944.25 418.25 C 939.77 425.72 947.33 436.36 947.00 445.00 C 950.74 445.16 949.29 446.62 949.00 450.00 C 953.29 449.75 959.70 454.79 965.00 452.00 C 964.19 455.24 968.40 458.75 970.00 455.00 C 977.92 465.30 962.82 470.08 962.03 481.03 C 961.23 491.97 965.66 507.67 961.00 518.00 C 959.32 523.60 958.23 528.97 958.00 535.00 C 957.86 538.66 958.10 542.34 958.00 546.00 C 972.56 553.76 982.90 562.86 1001.00 560.00 C 1019.10 557.14 1019.48 583.86 1032.00 589.00 C 1039.14 585.88 1045.29 582.99 1053.07 581.07 C 1060.86 579.15 1061.72 570.16 1066.00 565.00 C 1066.38 561.59 1063.48 557.00 1066.78 553.78 C 1070.07 550.56 1065.60 546.59 1070.00 547.00 C 1065.85 536.17 1079.20 526.04 1073.00 515.00 C 1070.92 512.94 1070.52 513.07 1070.00 510.00 C 1068.74 502.55 1072.94 493.13 1064.00 490.00 C 1055.60 489.56 1046.89 498.85 1039.30 502.30 C 1031.71 505.76 1023.17 511.40 1015.31 515.31 C 1007.44 519.21 998.69 523.65 990.31 527.31 C 981.92 530.96 973.68 536.31 966.00 541.00 C 972.72 529.29 976.39 518.35 983.92 506.92 C 991.46 495.50 993.83 485.03 1002.31 473.31 C 1010.78 461.58 1005.82 442.86 1006.00 428.00 C 1007.08 421.94 1005.68 413.65 998.00 414.00 C 998.75 415.24 997.18 416.38 997.00 417.00 C 996.59 422.58 998.88 427.52 999.00 433.00 C 994.10 429.09 996.83 437.24 995.01 441.01 C 993.19 444.78 994.44 450.35 998.00 452.00 C 989.08 453.02 983.15 461.98 975.00 465.00 C 979.66 457.47 987.46 455.39 990.92 446.92 C 994.39 438.46 990.16 423.79 991.00 415.00 C 991.84 406.21 997.33 399.52 1002.77 392.77 C 1008.21 386.02 1002.83 372.24 1006.33 364.33 C 1009.82 356.42 1016.30 349.92 1020.00 345.00 C 1019.73 341.25 1009.21 344.35 1004.07 345.07 C 998.94 345.80 991.62 348.79 986.02 349.02 C 980.43 349.26 974.30 351.40 971.77 356.77 C 969.24 362.14 966.33 365.24 963.00 370.00 M 1069.00 513.00  C 1064.59 520.94 1058.38 535.14 1046.98 530.02 C 1035.58 524.91 1025.01 530.06 1015.92 535.92 C 1006.83 541.79 998.94 545.59 990.00 551.00 C 997.82 545.47 1004.59 537.59 1013.75 533.75 C 1022.91 529.90 1031.04 517.05 1042.07 523.93 C 1053.11 530.80 1058.82 514.29 1069.00 513.00 Z"/>
</g>
<g fill="#72463A" fill-opacity="1.00" stroke="None">
<path d=" M 997.00 417.00  C 997.59 408.96 1005.92 403.30 1011.08 396.08 C 1016.25 388.86 1017.12 381.38 1013.00 372.00 C 1008.88 362.62 1020.61 353.61 1020.00 345.00 C 1016.30 349.92 1009.82 356.42 1006.33 364.33 C 1002.83 372.24 1008.21 386.02 1002.77 392.77 C 997.33 399.52 991.84 406.21 991.00 415.00 C 990.16 423.79 994.39 438.46 990.92 446.92 C 987.46 455.39 979.66 457.47 975.00 465.00 C 983.15 461.98 989.08 453.02 998.00 452.00 C 994.44 450.35 993.19 444.78 995.01 441.01 C 996.83 437.24 994.10 429.09 999.00 433.00 C 998.88 427.52 996.59 422.58 997.00 417.00 Z"/>
</g>
<g fill="#6E443C" fill-opacity="1.00" stroke="None">
<path d=" M 963.00 370.00  C 963.00 370.00 962.15 370.23 962.00 370.00 C 956.06 376.72 959.20 394.00 952.75 399.75 C 946.29 405.49 935.82 412.02 935.01 422.01 C 934.20 432.00 944.83 444.12 934.75 451.75 C 924.66 459.37 921.32 465.51 920.00 477.00 C 918.92 486.43 913.34 497.78 914.00 507.00 C 914.50 507.45 913.60 509.44 914.00 510.00 C 917.85 507.88 914.96 501.64 918.00 499.00 C 920.76 488.84 922.63 476.04 926.33 466.33 C 930.02 456.61 946.51 456.17 947.00 445.00 C 947.33 436.36 939.77 425.72 944.25 418.25 C 948.72 410.78 953.86 402.28 964.00 404.00 C 960.45 391.39 965.47 379.10 967.00 367.00 C 965.63 367.80 964.28 368.98 963.00 370.00 Z"/>
</g>
<g fill="#AC8377" fill-opacity="1.00" stroke="None">
<path d=" M 897.00 442.00  C 897.02 442.50 901.70 449.01 899.93 454.08 C 898.17 459.15 905.21 467.56 902.00 468.00 C 907.20 467.59 906.38 472.88 912.00 472.00 C 912.23 474.18 912.80 479.83 915.00 476.00 C 914.85 478.94 914.39 482.37 918.00 483.00 C 918.91 481.17 918.34 478.26 920.00 477.00 C 921.32 465.51 924.66 459.37 934.75 451.75 C 944.83 444.12 934.20 432.00 935.01 422.01 C 935.82 412.02 946.29 405.49 952.75 399.75 C 959.20 394.00 956.06 376.72 962.00 370.00 C 957.99 363.76 948.01 379.13 941.75 381.75 C 935.48 384.36 929.89 396.34 928.78 403.78 C 927.66 411.21 919.06 417.57 913.25 423.25 C 907.44 428.92 899.54 433.74 897.00 442.00 Z"/>
</g>
<g fill="#9A6E66" fill-opacity="1.00" stroke="None">
<path d=" M 1024.00 416.00  C 1021.98 421.75 1025.85 434.70 1024.00 440.00 C 1022.15 445.30 1028.66 456.30 1031.00 455.00 C 1035.44 447.28 1040.71 441.98 1050.00 440.00 C 1048.17 430.20 1049.27 417.24 1061.00 418.00 C 1057.32 416.03 1066.44 410.30 1066.00 406.00 C 1050.48 406.15 1036.19 407.23 1024.00 416.00 Z"/>
</g>
<g fill="#9E7063" fill-opacity="1.00" stroke="None">
<path d=" M 1102.00 409.00  C 1103.60 408.68 1105.38 409.24 1107.00 409.00 C 1102.17 414.04 1092.36 416.28 1091.00 424.00 C 1085.86 425.18 1078.05 412.89 1073.31 418.31 C 1068.56 423.73 1061.91 424.67 1056.77 428.77 C 1051.63 432.87 1058.49 446.46 1047.00 446.00 C 1044.55 452.29 1056.46 453.60 1059.03 457.97 C 1061.59 462.34 1071.33 465.37 1071.00 471.00 C 1074.43 471.58 1077.88 472.75 1079.00 476.00 C 1081.74 469.36 1083.39 459.94 1093.00 461.00 C 1102.61 462.06 1098.20 448.39 1097.00 441.00 C 1101.23 443.68 1103.38 436.21 1107.00 435.00 C 1100.71 442.47 1100.14 452.03 1101.00 462.00 C 1089.77 460.87 1083.36 470.18 1079.00 479.00 C 1080.95 482.88 1098.12 490.07 1102.00 487.00 C 1106.91 476.88 1117.20 464.75 1118.00 453.00 C 1118.34 448.07 1118.59 442.25 1119.00 438.00 C 1118.34 427.41 1121.16 417.66 1124.00 408.00 C 1116.84 408.69 1108.40 406.64 1102.00 409.00 Z"/>
</g>
<g fill="#72463D" fill-opacity="1.00" stroke="None">
<path d=" M 1061.00 418.00  C 1049.27 417.24 1048.17 430.20 1050.00 440.00 C 1040.71 441.98 1035.44 447.28 1031.00 455.00 C 1029.05 458.39 1026.03 461.27 1025.00 465.00 C 1033.29 459.40 1036.22 447.59 1047.00 446.00 C 1058.49 446.46 1051.63 432.87 1056.77 428.77 C 1061.91 424.67 1068.56 423.73 1073.31 418.31 C 1078.05 412.89 1085.86 425.18 1091.00 424.00 C 1092.36 416.28 1102.17 414.04 1107.00 409.00 C 1105.38 409.24 1103.60 408.68 1102.00 409.00 C 1095.35 411.45 1088.45 420.06 1081.23 412.77 C 1074.00 405.48 1067.52 415.34 1061.00 418.00 Z"/>
</g>
<g fill="#916A6F" fill-opacity="1.00" stroke="None">
<path d=" M 1020.00 419.00  C 1025.32 420.10 1023.25 434.84 1023.00 440.00 C 1022.75 445.16 1021.76 456.80 1022.00 463.00 C 1022.24 469.20 1019.75 476.52 1017.08 482.08 C 1014.40 487.64 1010.83 493.11 1009.00 499.00 C 1024.06 491.18 1038.76 486.61 1054.03 479.03 C 1069.29 471.44 1085.25 486.10 1100.00 491.00 C 1100.71 489.75 1101.33 488.39 1102.00 487.00 C 1098.12 490.07 1080.95 482.88 1079.00 479.00 C 1078.26 477.53 1078.25 477.82 1079.00 476.00 C 1077.88 472.75 1074.43 471.58 1071.00 471.00 C 1071.33 465.37 1061.59 462.34 1059.03 457.97 C 1056.46 453.60 1044.55 452.29 1047.00 446.00 C 1036.22 447.59 1033.29 459.40 1025.00 465.00 C 1026.03 461.27 1029.05 458.39 1031.00 455.00 C 1028.66 456.30 1022.15 445.30 1024.00 440.00 C 1025.85 434.70 1021.98 421.75 1024.00 416.00 C 1022.84 416.83 1021.25 418.10 1020.00 419.00 Z"/>
</g>
<g fill="#725168" fill-opacity="1.00" stroke="None">
<path d=" M 1006.00 428.00  C 1005.82 442.86 1010.78 461.58 1002.31 473.31 C 993.83 485.03 991.46 495.50 983.92 506.92 C 976.39 518.35 972.72 529.29 966.00 541.00 C 973.68 536.31 981.92 530.96 990.31 527.31 C 998.69 523.65 1007.44 519.21 1015.31 515.31 C 1023.17 511.40 1031.71 505.76 1039.30 502.30 C 1046.89 498.85 1055.60 489.56 1064.00 490.00 C 1067.91 490.21 1070.83 494.50 1075.02 493.02 C 1079.22 491.54 1083.59 495.09 1087.23 496.77 C 1090.86 498.45 1095.30 497.07 1097.00 498.00 C 1096.79 496.53 1099.29 492.26 1100.00 491.00 C 1085.25 486.10 1069.29 471.44 1054.03 479.03 C 1038.76 486.61 1024.06 491.18 1009.00 499.00 C 1010.83 493.11 1014.40 487.64 1017.08 482.08 C 1019.75 476.52 1022.24 469.20 1022.00 463.00 C 1021.76 456.80 1022.75 445.16 1023.00 440.00 C 1023.25 434.84 1025.32 420.10 1020.00 419.00 C 1017.10 421.10 1007.56 424.58 1006.00 428.00 Z"/>
</g>
<g fill="#75463A" fill-opacity="1.00" stroke="None">
<path d=" M 1079.00 476.00  C 1078.25 477.82 1078.26 477.53 1079.00 479.00 C 1083.36 470.18 1089.77 460.87 1101.00 462.00 C 1100.14 452.03 1100.71 442.47 1107.00 435.00 C 1103.38 436.21 1101.23 443.68 1097.00 441.00 C 1098.20 448.39 1102.61 462.06 1093.00 461.00 C 1083.39 459.94 1081.74 469.36 1079.00 476.00 Z"/>
</g>
<g fill="#BEA9A5" fill-opacity="1.00" stroke="None">
<path d=" M 1118.00 453.00  C 1118.79 448.57 1119.00 443.15 1119.00 438.00 C 1118.59 442.25 1118.34 448.07 1118.00 453.00 Z"/>
</g>
<g fill="#9D7C7C" fill-opacity="1.00" stroke="None">
<path d=" M 897.00 442.00  C 893.84 452.26 892.07 462.45 890.00 473.00 C 892.78 470.43 898.15 478.11 899.77 481.23 C 901.39 484.35 903.88 491.33 905.78 495.22 C 907.67 499.12 911.09 504.38 914.00 507.00 C 913.34 497.78 918.92 486.43 920.00 477.00 C 918.34 478.26 918.91 481.17 918.00 483.00 C 914.39 482.37 914.85 478.94 915.00 476.00 C 912.80 479.83 912.23 474.18 912.00 472.00 C 906.38 472.88 907.20 467.59 902.00 468.00 C 905.21 467.56 898.17 459.15 899.93 454.08 C 901.70 449.01 897.02 442.50 897.00 442.00 Z"/>
</g>
<g fill="#A67F79" fill-opacity="1.00" stroke="None">
<path d=" M 918.00 499.00  C 918.15 500.52 917.93 502.64 920.00 503.00 C 921.38 497.88 925.75 494.13 927.00 489.00 C 934.60 485.87 939.30 503.10 945.75 498.74 C 952.19 494.38 956.15 487.13 961.00 482.00 C 961.52 493.98 962.92 506.10 961.00 518.00 C 965.66 507.67 961.23 491.97 962.03 481.03 C 962.82 470.08 977.92 465.30 970.00 455.00 C 968.40 458.75 964.19 455.24 965.00 452.00 C 959.70 454.79 953.29 449.75 949.00 450.00 C 949.29 446.62 950.74 445.16 947.00 445.00 C 946.51 456.17 930.02 456.61 926.33 466.33 C 922.63 476.04 920.76 488.84 918.00 499.00 Z"/>
</g>
<g fill="#8B7484" fill-opacity="1.00" stroke="None">
<path d=" M 890.00 473.00  C 888.18 482.26 883.53 490.31 883.00 500.00 C 882.41 510.86 892.35 521.64 900.25 528.75 C 908.15 535.87 914.31 549.61 925.22 548.22 C 936.13 546.84 955.42 547.02 958.00 535.00 C 958.23 528.97 959.32 523.60 961.00 518.00 C 962.92 506.10 961.52 493.98 961.00 482.00 C 956.15 487.13 952.19 494.38 945.75 498.74 C 939.30 503.10 934.60 485.87 927.00 489.00 C 925.75 494.13 921.38 497.88 920.00 503.00 C 917.93 502.64 918.15 500.52 918.00 499.00 C 914.96 501.64 917.85 507.88 914.00 510.00 C 913.60 509.44 914.50 507.45 914.00 507.00 C 911.09 504.38 907.67 499.12 905.78 495.22 C 903.88 491.33 901.39 484.35 899.77 481.23 C 898.15 478.11 892.78 470.43 890.00 473.00 Z"/>
</g>
<g fill="#E8DABB" fill-opacity="1.00" stroke="None">
<path d=" M 516.00 492.00  C 519.30 487.72 533.79 492.39 538.00 493.00 C 534.97 492.12 517.68 485.52 516.00 492.00 Z"/>
</g>
<g fill="#966766" fill-opacity="1.00" stroke="None">
<path d=" M 1070.00 510.00  C 1075.37 509.94 1080.06 513.46 1082.00 518.00 C 1082.05 516.89 1083.21 514.61 1084.00 514.00 C 1083.37 518.03 1086.91 519.25 1090.00 518.00 C 1091.86 527.59 1104.91 526.23 1109.75 534.25 C 1114.59 542.27 1106.35 560.10 1114.00 567.00 C 1113.26 570.22 1109.62 570.72 1114.00 573.00 C 1117.35 575.68 1121.78 578.55 1125.00 582.00 C 1126.27 573.09 1127.37 563.45 1129.00 555.00 C 1130.75 545.92 1127.86 545.94 1128.00 536.00 C 1128.14 526.06 1122.91 511.41 1113.00 506.00 C 1106.43 504.30 1101.99 500.72 1097.00 498.00 C 1095.30 497.07 1090.86 498.45 1087.23 496.77 C 1083.59 495.09 1079.22 491.54 1075.02 493.02 C 1070.83 494.50 1067.91 490.21 1064.00 490.00 C 1072.94 493.13 1068.74 502.55 1070.00 510.00 Z"/>
</g>
<g fill="#BE984F" fill-opacity="1.00" stroke="None">
<path d=" M 516.00 492.00  C 515.88 492.47 516.13 493.54 516.00 494.00 C 516.91 493.39 516.82 492.33 518.00 492.00 C 520.52 500.06 525.54 507.44 528.77 515.23 C 532.00 523.02 535.60 531.86 538.32 539.68 C 541.04 547.50 547.37 555.66 545.00 563.00 C 546.14 562.97 546.72 561.47 548.00 562.00 C 560.61 595.46 570.15 630.68 582.00 664.00 C 582.96 664.87 590.28 668.95 594.25 673.75 C 598.22 678.55 602.27 683.22 608.23 686.77 C 614.19 690.32 613.93 698.90 613.93 706.07 C 613.92 713.24 622.99 718.31 620.67 725.67 C 618.35 733.03 618.24 740.77 618.00 748.00 C 619.25 751.60 622.52 754.84 625.00 758.00 C 621.10 759.41 619.18 753.10 616.00 755.00 C 614.42 761.79 610.49 771.72 610.00 778.00 C 610.64 796.41 619.42 813.46 621.00 832.00 C 622.58 850.54 626.88 870.19 628.00 889.00 C 629.23 896.30 631.29 905.62 632.00 913.00 C 633.63 895.66 638.68 878.56 636.00 860.00 C 633.32 841.44 640.36 823.91 640.00 806.00 C 639.34 773.32 629.59 735.40 624.07 703.93 C 618.56 672.46 605.67 642.88 597.02 612.98 C 588.38 583.07 573.24 558.97 561.00 531.00 C 585.55 568.64 606.91 602.17 616.33 647.67 C 625.75 693.17 632.60 749.28 641.00 796.00 C 641.83 799.89 643.72 805.25 645.00 809.00 C 652.12 789.76 647.79 766.98 649.00 746.00 C 648.62 735.98 644.88 725.55 635.00 721.00 C 634.94 713.12 640.95 704.12 639.00 696.00 C 637.05 687.88 633.03 683.19 637.32 675.32 C 641.61 667.46 638.71 659.31 643.00 652.00 C 638.94 638.97 634.94 625.93 627.92 614.08 C 620.89 602.24 616.36 589.42 612.98 576.02 C 609.59 562.63 603.62 552.47 594.25 541.75 C 584.87 531.03 579.37 523.48 573.30 509.70 C 567.23 495.91 551.17 494.92 538.00 493.00 C 533.79 492.39 519.30 487.72 516.00 492.00 Z"/>
</g>
<g fill="#7A5728" fill-opacity="1.00" stroke="None">
<path d=" M 516.00 494.00  C 514.27 503.55 504.48 510.94 503.78 520.78 C 503.07 530.62 504.11 541.56 501.00 552.00 C 493.19 552.77 493.99 561.52 490.25 566.25 C 486.51 570.98 481.40 573.64 479.77 579.77 C 478.14 585.90 470.68 586.94 467.00 591.00 C 471.48 588.17 480.98 588.54 482.00 581.00 C 483.61 583.10 484.27 586.29 485.00 589.00 C 486.76 583.27 484.20 574.51 492.67 573.67 C 501.15 572.84 495.78 562.93 501.26 559.26 C 506.73 555.59 505.96 547.84 507.00 542.00 C 514.56 541.04 522.18 547.80 516.69 554.69 C 511.21 561.59 507.38 564.49 503.25 571.25 C 499.11 578.01 495.04 582.72 491.03 589.03 C 487.02 595.33 481.79 599.29 477.25 605.25 C 472.71 611.21 469.10 616.77 465.70 623.70 C 462.29 630.62 459.51 639.74 460.00 648.00 C 460.49 656.26 455.17 665.54 462.00 672.00 C 463.08 649.86 468.60 623.53 483.30 606.30 C 498.01 589.08 510.23 575.17 521.00 556.00 C 526.05 568.12 521.12 582.67 519.00 595.00 C 521.76 593.58 523.27 590.35 526.00 589.00 C 526.20 588.68 526.79 588.27 527.00 588.00 C 533.09 580.18 540.82 571.78 545.00 563.00 C 547.37 555.66 541.04 547.50 538.32 539.68 C 535.60 531.86 532.00 523.02 528.77 515.23 C 525.54 507.44 520.52 500.06 518.00 492.00 C 516.82 492.33 516.91 493.39 516.00 494.00 M 511.00 516.00  C 512.01 524.50 513.12 534.96 511.00 543.00 C 509.35 535.08 509.32 523.85 511.00 516.00 Z"/>
</g>
<g fill="#947774" fill-opacity="1.00" stroke="None">
<path d=" M 882.00 508.00  C 882.00 508.50 882.00 509.00 882.00 509.00 C 883.14 514.85 890.22 519.15 894.25 523.75 C 898.28 528.35 901.77 534.08 906.75 538.25 C 911.73 542.41 913.89 550.08 922.01 549.99 C 930.13 549.91 935.71 549.52 945.02 546.02 C 954.34 542.53 953.65 549.26 950.23 556.23 C 946.81 563.20 941.26 569.01 943.00 576.00 C 945.63 581.63 953.27 586.85 957.75 591.25 C 962.24 595.64 966.79 603.83 971.75 607.25 C 976.72 610.67 981.14 622.22 987.00 623.00 C 986.92 622.73 987.65 622.07 988.00 622.00 C 986.06 616.03 977.04 612.20 973.75 606.25 C 970.46 600.29 961.65 596.32 958.25 590.75 C 954.84 585.18 944.86 580.64 944.03 573.97 C 943.19 567.31 951.02 558.94 953.31 552.31 C 955.59 545.67 966.23 551.18 971.25 555.75 C 976.26 560.33 987.06 564.62 994.01 562.01 C 1000.96 559.39 1016.41 562.96 1016.77 570.23 C 1017.13 577.50 1029.49 585.24 1026.00 592.00 C 1028.04 591.08 1030.23 589.77 1032.00 589.00 C 1019.48 583.86 1019.10 557.14 1001.00 560.00 C 982.90 562.86 972.56 553.76 958.00 546.00 C 958.10 542.34 957.86 538.66 958.00 535.00 C 955.42 547.02 936.13 546.84 925.22 548.22 C 914.31 549.61 908.15 535.87 900.25 528.75 C 892.35 521.64 882.41 510.86 883.00 500.00 C 882.64 502.21 882.00 505.09 882.00 508.00 Z"/>
</g>
<g fill="#B98F7C" fill-opacity="1.00" stroke="None">
<path d=" M 1129.00 555.00  C 1128.75 564.91 1140.10 574.51 1140.99 584.01 C 1141.89 593.50 1139.68 596.99 1139.01 603.01 C 1138.34 609.02 1138.06 619.90 1136.00 619.00 C 1136.77 620.16 1137.08 622.51 1139.00 622.00 C 1144.13 605.09 1144.51 592.96 1152.23 576.23 C 1159.95 559.50 1151.25 549.01 1143.92 533.08 C 1136.60 517.15 1130.66 510.58 1113.00 506.00 C 1122.91 511.41 1128.14 526.06 1128.00 536.00 C 1127.86 545.94 1130.75 545.92 1129.00 555.00 Z"/>
</g>
<g fill="#EADFC9" fill-opacity="1.00" stroke="None">
<path d=" M 880.00 576.00  C 880.37 570.05 880.00 563.96 880.00 558.00 C 880.00 553.33 880.00 548.67 880.00 544.00 C 880.00 536.33 880.00 528.67 880.00 521.00 C 880.00 517.60 878.46 509.94 882.00 509.00 C 882.00 509.00 882.00 508.50 882.00 508.00 C 881.00 508.00 880.00 508.00 879.00 508.00 C 879.67 532.18 877.67 557.57 880.00 581.00 C 880.08 579.34 879.90 577.66 880.00 576.00 Z"/>
</g>
<g fill="#927154" fill-opacity="1.00" stroke="None">
<path d=" M 880.00 521.00  C 879.64 522.39 884.48 517.52 882.00 515.00 C 891.63 523.64 900.39 529.88 909.25 541.75 C 918.10 553.63 934.02 552.27 948.00 547.00 C 956.89 546.10 950.20 553.67 948.08 559.08 C 945.95 564.48 940.21 570.04 943.00 576.00 C 941.26 569.01 946.81 563.20 950.23 556.23 C 953.65 549.26 954.34 542.53 945.02 546.02 C 935.71 549.52 930.13 549.91 922.01 549.99 C 913.89 550.08 911.73 542.41 906.75 538.25 C 901.77 534.08 898.28 528.35 894.25 523.75 C 890.22 519.15 883.14 514.85 882.00 509.00 C 878.46 509.94 880.00 517.60 880.00 521.00 Z"/>
</g>
<g fill="#71463B" fill-opacity="1.00" stroke="None">
<path d=" M 1073.00 515.00  C 1079.74 521.67 1083.19 534.68 1096.00 529.00 C 1090.80 526.60 1081.78 525.66 1082.00 518.00 C 1080.06 513.46 1075.37 509.94 1070.00 510.00 C 1070.52 513.07 1070.92 512.94 1073.00 515.00 Z"/>
</g>
<g fill="#7B5248" fill-opacity="1.00" stroke="None">
<path d=" M 1069.00 513.00  C 1058.82 514.29 1053.11 530.80 1042.07 523.93 C 1031.04 517.05 1022.91 529.90 1013.75 533.75 C 1004.59 537.59 997.82 545.47 990.00 551.00 C 998.94 545.59 1006.83 541.79 1015.92 535.92 C 1025.01 530.06 1035.58 524.91 1046.98 530.02 C 1058.38 535.14 1064.59 520.94 1069.00 513.00 Z"/>
</g>
<g fill="#A4796C" fill-opacity="1.00" stroke="None">
<path d=" M 1082.00 518.00  C 1081.78 525.66 1090.80 526.60 1096.00 529.00 C 1083.19 534.68 1079.74 521.67 1073.00 515.00 C 1079.20 526.04 1065.85 536.17 1070.00 547.00 C 1065.60 546.59 1070.07 550.56 1066.78 553.78 C 1063.48 557.00 1066.38 561.59 1066.00 565.00 C 1071.67 558.17 1084.35 564.53 1088.00 570.00 C 1078.87 568.67 1068.94 569.52 1066.23 579.23 C 1063.52 588.94 1053.68 587.08 1046.32 590.32 C 1038.96 593.56 1030.35 595.43 1023.00 599.00 C 1025.49 607.67 1031.78 614.65 1040.00 616.00 C 1047.86 614.65 1056.44 614.23 1061.25 607.25 C 1066.06 600.27 1070.68 597.99 1075.77 592.77 C 1080.86 587.55 1086.94 582.79 1093.77 581.77 C 1100.60 580.76 1107.42 572.26 1114.00 573.00 C 1109.62 570.72 1113.26 570.22 1114.00 567.00 C 1106.35 560.10 1114.59 542.27 1109.75 534.25 C 1104.91 526.23 1091.86 527.59 1090.00 518.00 C 1086.91 519.25 1083.37 518.03 1084.00 514.00 C 1083.21 514.61 1082.05 516.89 1082.00 518.00 Z"/>
</g>
<g fill="#9E773E" fill-opacity="1.00" stroke="None">
<path d=" M 880.00 521.00  C 880.00 528.67 880.00 536.33 880.00 544.00 C 881.62 539.04 881.99 547.37 883.00 548.00 C 880.95 543.08 886.30 540.78 885.00 537.00 C 891.02 545.95 883.45 564.02 893.25 572.75 C 903.05 581.47 904.57 593.01 901.00 605.00 C 912.70 604.04 935.20 599.46 932.67 584.33 C 930.14 569.20 938.80 557.84 948.00 547.00 C 934.02 552.27 918.10 553.63 909.25 541.75 C 900.39 529.88 891.63 523.64 882.00 515.00 C 884.48 517.52 879.64 522.39 880.00 521.00 Z"/>
</g>
<g fill="#5C3811" fill-opacity="1.00" stroke="None">
<path d=" M 511.00 516.00  C 509.32 523.85 509.35 535.08 511.00 543.00 C 513.12 534.96 512.01 524.50 511.00 516.00 Z"/>
</g>
<g fill="#876E32" fill-opacity="1.00" stroke="None">
<path d=" M 640.00 806.00  C 649.93 888.15 651.95 973.46 656.00 1057.00 C 667.54 1014.41 660.57 968.44 657.22 924.78 C 653.87 881.12 648.44 838.54 641.00 796.00 C 632.60 749.28 625.75 693.17 616.33 647.67 C 606.91 602.17 585.55 568.64 561.00 531.00 C 573.24 558.97 588.38 583.07 597.02 612.98 C 605.67 642.88 618.56 672.46 624.07 703.93 C 629.59 735.40 639.34 773.32 640.00 806.00 Z"/>
</g>
<g fill="#806232" fill-opacity="1.00" stroke="None">
<path d=" M 880.00 544.00  C 880.00 548.67 880.00 553.33 880.00 558.00 C 880.52 563.37 881.00 569.95 881.00 576.00 C 881.00 588.05 883.66 604.59 874.75 612.75 C 865.85 620.92 862.83 627.45 854.00 635.00 C 850.92 638.07 848.56 641.69 846.00 645.00 C 842.64 653.56 839.43 663.16 833.75 670.75 C 828.06 678.34 825.46 688.26 819.25 695.25 C 813.04 702.23 810.82 715.86 800.00 713.00 C 803.27 720.86 794.75 728.29 790.70 735.70 C 786.64 743.10 780.70 751.36 777.23 759.23 C 773.76 767.10 767.20 775.50 766.00 783.00 C 772.21 772.93 778.53 762.24 785.23 752.23 C 791.93 742.22 797.92 731.62 804.75 721.75 C 811.58 711.87 817.79 701.66 825.25 692.25 C 832.71 682.84 839.08 673.20 847.25 664.25 C 855.41 655.29 861.87 646.20 870.25 637.25 C 878.62 628.30 885.40 615.30 899.00 618.00 C 912.60 620.70 930.63 620.19 944.93 622.07 C 959.22 623.95 974.29 626.44 989.00 627.00 C 988.01 625.68 987.44 624.54 987.00 623.00 C 981.14 622.22 976.72 610.67 971.75 607.25 C 966.79 603.83 962.24 595.64 957.75 591.25 C 953.27 586.85 945.63 581.63 943.00 576.00 C 940.21 570.04 945.95 564.48 948.08 559.08 C 950.20 553.67 956.89 546.10 948.00 547.00 C 938.80 557.84 930.14 569.20 932.67 584.33 C 935.20 599.46 912.70 604.04 901.00 605.00 C 904.57 593.01 903.05 581.47 893.25 572.75 C 883.45 564.02 891.02 545.95 885.00 537.00 C 886.30 540.78 880.95 543.08 883.00 548.00 C 881.99 547.37 881.62 539.04 880.00 544.00 Z"/>
</g>
<g fill="#987139" fill-opacity="1.00" stroke="None">
<path d=" M 467.00 591.00  C 449.92 609.84 439.43 636.94 448.00 662.00 C 449.54 659.04 456.58 666.03 458.00 667.00 C 455.95 673.90 456.76 682.75 459.00 689.00 C 461.92 685.30 461.68 679.57 463.00 675.00 C 473.01 696.38 468.75 723.50 470.00 746.00 C 475.62 729.58 485.00 714.85 486.00 697.00 C 487.00 679.15 473.77 660.03 477.67 641.67 C 481.58 623.32 491.89 616.16 507.00 607.00 C 512.92 602.19 521.89 595.65 526.00 589.00 C 523.27 590.35 521.76 593.58 519.00 595.00 C 521.12 582.67 526.05 568.12 521.00 556.00 C 510.23 575.17 498.01 589.08 483.30 606.30 C 468.60 623.53 463.08 649.86 462.00 672.00 C 455.17 665.54 460.49 656.26 460.00 648.00 C 459.51 639.74 462.29 630.62 465.70 623.70 C 469.10 616.77 472.71 611.21 477.25 605.25 C 481.79 599.29 487.02 595.33 491.03 589.03 C 495.04 582.72 499.11 578.01 503.25 571.25 C 507.38 564.49 511.21 561.59 516.69 554.69 C 522.18 547.80 514.56 541.04 507.00 542.00 C 505.96 547.84 506.73 555.59 501.26 559.26 C 495.78 562.93 501.15 572.84 492.67 573.67 C 484.20 574.51 486.76 583.27 485.00 589.00 C 484.27 586.29 483.61 583.10 482.00 581.00 C 480.98 588.54 471.48 588.17 467.00 591.00 Z"/>
</g>
<g fill="#887486" fill-opacity="1.00" stroke="None">
<path d=" M 988.00 622.00  C 1004.81 618.87 1022.91 618.95 1040.00 616.00 C 1031.78 614.65 1025.49 607.67 1023.00 599.00 C 1022.64 599.23 1022.00 599.00 1022.00 599.00 C 1018.59 601.66 1009.27 593.12 1004.75 589.25 C 1000.24 585.37 991.99 581.88 985.78 586.78 C 979.56 591.67 970.95 592.02 965.00 593.00 C 975.12 589.88 983.86 582.88 994.03 580.03 C 1004.19 577.17 1011.32 592.51 1021.00 594.00 C 1022.83 593.96 1024.37 592.74 1026.00 592.00 C 1029.49 585.24 1017.13 577.50 1016.77 570.23 C 1016.41 562.96 1000.96 559.39 994.01 562.01 C 987.06 564.62 976.26 560.33 971.25 555.75 C 966.23 551.18 955.59 545.67 953.31 552.31 C 951.02 558.94 943.19 567.31 944.03 573.97 C 944.86 580.64 954.84 585.18 958.25 590.75 C 961.65 596.32 970.46 600.29 973.75 606.25 C 977.04 612.20 986.06 616.03 988.00 622.00 Z"/>
</g>
<g fill="#EEE3C3" fill-opacity="1.00" stroke="None">
<path d=" M 717.00 560.00  C 719.74 555.92 733.56 555.71 738.00 555.00 C 740.74 554.56 743.24 554.47 746.00 554.00 C 752.60 552.89 764.31 548.97 771.00 551.00 C 771.80 551.24 773.44 552.47 774.00 553.00 C 770.43 547.49 753.13 550.69 746.00 553.00 C 738.87 555.31 720.56 552.39 717.00 560.00 Z"/>
</g>
<g fill="#CBA052" fill-opacity="1.00" stroke="None">
<path d=" M 746.00 554.00  C 741.93 557.31 741.85 567.52 738.23 572.23 C 734.61 576.94 733.61 584.58 729.70 589.70 C 725.78 594.81 722.24 600.05 718.75 605.75 C 715.25 611.44 712.68 617.22 711.02 624.02 C 709.37 630.82 707.59 639.72 707.00 647.00 C 699.41 611.80 731.00 586.91 738.00 555.00 C 733.56 555.71 719.74 555.92 717.00 560.00 C 716.10 561.92 715.51 566.79 715.00 569.00 C 715.22 573.16 719.67 581.25 718.00 588.00 C 716.33 594.75 708.97 593.55 706.00 596.00 C 686.71 627.34 697.02 667.80 704.00 701.00 C 704.96 684.10 710.96 668.32 714.00 652.00 C 716.56 638.26 726.33 628.12 736.00 619.00 C 755.23 600.87 764.51 575.33 771.00 551.00 C 764.31 548.97 752.60 552.89 746.00 554.00 Z"/>
</g>
<g fill="#81612B" fill-opacity="1.00" stroke="None">
<path d=" M 736.00 619.00  C 735.23 621.56 735.76 626.32 736.00 629.00 C 736.65 636.41 738.68 643.77 740.00 651.00 C 741.17 644.18 749.41 637.81 751.77 630.77 C 754.13 623.73 759.89 616.39 762.00 609.00 C 774.42 646.71 779.11 687.81 780.00 729.00 C 780.00 729.50 780.00 730.00 780.00 730.00 C 782.79 732.37 785.79 718.85 785.00 714.00 C 784.21 709.15 784.38 698.79 783.02 692.98 C 781.66 687.16 781.15 678.53 781.00 672.00 C 780.85 665.47 779.42 658.32 778.02 651.98 C 776.63 645.63 776.50 637.99 774.02 631.98 C 771.55 625.96 770.99 620.08 769.01 613.99 C 767.03 607.90 764.40 602.54 766.32 596.32 C 768.25 590.10 770.45 584.51 771.33 578.33 C 772.21 572.15 779.00 568.03 779.00 562.00 C 777.45 558.87 776.78 555.62 774.00 553.00 C 773.44 552.47 771.80 551.24 771.00 551.00 C 764.51 575.33 755.23 600.87 736.00 619.00 Z"/>
</g>
<g fill="#9D7330" fill-opacity="1.00" stroke="None">
<path d=" M 738.00 555.00  C 731.00 586.91 699.41 611.80 707.00 647.00 C 707.59 639.72 709.37 630.82 711.02 624.02 C 712.68 617.22 715.25 611.44 718.75 605.75 C 722.24 600.05 725.78 594.81 729.70 589.70 C 733.61 584.58 734.61 576.94 738.23 572.23 C 741.85 567.52 741.93 557.31 746.00 554.00 C 743.24 554.47 740.74 554.56 738.00 555.00 Z"/>
</g>
<g fill="#A1756A" fill-opacity="1.00" stroke="None">
<path d=" M 1125.00 582.00  C 1122.75 597.74 1126.19 606.33 1136.00 619.00 C 1138.06 619.90 1138.34 609.02 1139.01 603.01 C 1139.68 596.99 1141.89 593.50 1140.99 584.01 C 1140.10 574.51 1128.75 564.91 1129.00 555.00 C 1127.37 563.45 1126.27 573.09 1125.00 582.00 Z"/>
</g>
<g fill="#B9A88A" fill-opacity="1.00" stroke="None">
<path d=" M 880.00 576.00  C 880.00 576.00 881.00 576.04 881.00 576.00 C 881.00 569.95 880.52 563.37 880.00 558.00 C 880.00 563.96 880.37 570.05 880.00 576.00 Z"/>
</g>
<g fill="#A88547" fill-opacity="1.00" stroke="None">
<path d=" M 780.00 730.00  C 783.01 734.87 777.30 737.75 775.00 741.00 C 765.41 760.39 752.84 778.34 742.92 797.92 C 733.01 817.51 723.74 837.99 715.00 858.00 C 713.86 864.39 715.86 873.84 714.00 881.00 C 710.72 878.09 711.66 882.87 710.00 884.00 C 709.89 881.22 709.76 879.31 709.00 877.00 C 708.03 876.98 707.78 880.01 707.00 878.00 C 695.01 907.47 683.72 937.83 676.00 969.00 C 674.10 976.68 670.94 984.02 670.00 992.00 C 667.67 980.15 670.02 965.78 671.00 954.00 C 671.00 925.01 671.00 895.00 671.00 866.00 C 670.58 861.61 670.00 856.07 670.00 851.00 C 670.00 812.80 662.43 776.35 661.00 739.00 C 659.89 731.24 650.90 726.56 645.00 722.00 C 653.77 730.60 652.32 743.84 651.00 755.00 C 648.34 753.04 651.72 747.89 649.00 746.00 C 647.79 766.98 652.12 789.76 645.00 809.00 C 643.72 805.25 641.83 799.89 641.00 796.00 C 648.44 838.54 653.87 881.12 657.22 924.78 C 660.57 968.44 667.54 1014.41 656.00 1057.00 C 651.95 973.46 649.93 888.15 640.00 806.00 C 640.36 823.91 633.32 841.44 636.00 860.00 C 638.68 878.56 633.63 895.66 632.00 913.00 C 630.76 926.25 633.84 940.77 635.00 954.00 C 638.96 999.04 644.00 1045.18 644.00 1091.00 C 644.00 1109.89 644.76 1128.83 643.00 1147.00 C 641.01 1183.26 637.28 1219.07 638.00 1256.00 C 642.33 1256.00 646.67 1256.00 651.00 1256.00 C 651.28 1236.68 653.00 1217.35 653.00 1198.00 C 653.00 1188.91 654.11 1178.98 655.00 1170.00 C 655.89 1161.02 654.07 1149.68 658.00 1142.00 C 658.87 1140.30 659.75 1138.44 661.00 1137.00 C 659.36 1138.50 657.49 1139.61 657.00 1142.00 C 655.06 1134.77 661.37 1126.88 666.00 1121.00 C 664.83 1122.08 663.29 1123.16 662.00 1124.00 C 660.87 1119.10 659.89 1112.24 661.00 1108.00 C 662.44 1094.80 664.76 1081.51 667.00 1069.00 C 670.09 1035.02 681.63 999.47 690.07 967.07 C 698.52 934.68 710.64 906.18 722.00 875.00 C 725.31 865.91 729.87 857.02 733.00 848.00 C 735.98 839.39 741.21 833.27 746.00 826.00 C 748.19 818.23 752.36 808.98 757.00 801.00 C 760.37 795.21 762.89 788.76 766.00 783.00 C 767.20 775.50 773.76 767.10 777.23 759.23 C 780.70 751.36 786.64 743.10 790.70 735.70 C 794.75 728.29 803.27 720.86 800.00 713.00 C 810.82 715.86 813.04 702.23 819.25 695.25 C 825.46 688.26 828.06 678.34 833.75 670.75 C 839.43 663.16 842.64 653.56 846.00 645.00 C 842.25 649.85 836.96 654.18 833.00 659.00 C 821.47 676.27 807.24 692.30 796.00 710.00 C 800.50 684.48 808.14 654.13 801.00 627.00 C 802.25 628.91 797.56 622.50 795.75 620.25 C 793.94 617.99 788.43 615.80 786.00 614.00 C 786.12 622.40 780.77 629.11 779.00 637.00 C 774.57 630.62 785.24 624.90 783.00 618.00 C 780.76 611.10 779.09 607.20 782.97 600.97 C 786.86 594.75 783.21 586.32 787.00 580.00 C 788.60 580.53 787.72 582.75 788.00 584.00 C 788.95 576.66 782.41 568.89 779.00 562.00 C 779.00 568.03 772.21 572.15 771.33 578.33 C 770.45 584.51 768.25 590.10 766.32 596.32 C 764.40 602.54 767.03 607.90 769.01 613.99 C 770.99 620.08 771.55 625.96 774.02 631.98 C 776.50 637.99 776.63 645.63 778.02 651.98 C 779.42 658.32 780.85 665.47 781.00 672.00 C 781.15 678.53 781.66 687.16 783.02 692.98 C 784.38 698.79 784.21 709.15 785.00 714.00 C 785.79 718.85 782.79 732.37 780.00 730.00 Z"/>
</g>
<g fill="#694038" fill-opacity="1.00" stroke="None">
<path d=" M 1066.00 565.00  C 1061.72 570.16 1060.86 579.15 1053.07 581.07 C 1045.29 582.99 1039.14 585.88 1032.00 589.00 C 1030.23 589.77 1028.04 591.08 1026.00 592.00 C 1024.37 592.74 1022.83 593.96 1021.00 594.00 C 1022.12 595.20 1021.28 597.50 1022.00 599.00 C 1022.00 599.00 1022.64 599.23 1023.00 599.00 C 1030.35 595.43 1038.96 593.56 1046.32 590.32 C 1053.68 587.08 1063.52 588.94 1066.23 579.23 C 1068.94 569.52 1078.87 568.67 1088.00 570.00 C 1084.35 564.53 1071.67 558.17 1066.00 565.00 Z"/>
</g>
<g fill="#845D2E" fill-opacity="1.00" stroke="None">
<path d=" M 706.00 596.00  C 708.97 593.55 716.33 594.75 718.00 588.00 C 719.67 581.25 715.22 573.16 715.00 569.00 C 713.70 574.61 714.33 581.19 715.66 586.32 C 716.99 591.45 708.49 592.71 706.00 596.00 Z"/>
</g>
<g fill="#65444A" fill-opacity="1.00" stroke="None">
<path d=" M 1022.00 599.00  C 1021.28 597.50 1022.12 595.20 1021.00 594.00 C 1011.32 592.51 1004.19 577.17 994.03 580.03 C 983.86 582.88 975.12 589.88 965.00 593.00 C 970.95 592.02 979.56 591.67 985.78 586.78 C 991.99 581.88 1000.24 585.37 1004.75 589.25 C 1009.27 593.12 1018.59 601.66 1022.00 599.00 Z"/>
</g>
<g fill="#806138" fill-opacity="1.00" stroke="None">
<path d=" M 801.00 627.00  C 799.50 621.29 798.82 615.81 792.23 613.77 C 785.64 611.73 784.66 607.53 787.01 602.01 C 789.35 596.49 787.29 589.52 788.00 584.00 C 787.72 582.75 788.60 580.53 787.00 580.00 C 783.21 586.32 786.86 594.75 782.97 600.97 C 779.09 607.20 780.76 611.10 783.00 618.00 C 785.24 624.90 774.57 630.62 779.00 637.00 C 780.77 629.11 786.12 622.40 786.00 614.00 C 788.43 615.80 793.94 617.99 795.75 620.25 C 797.56 622.50 802.25 628.91 801.00 627.00 Z"/>
</g>
<g fill="#DCCFB5" fill-opacity="1.00" stroke="None">
<path d=" M 526.00 589.00  C 521.89 595.65 512.92 602.19 507.00 607.00 C 514.54 602.43 522.79 594.51 527.00 588.00 C 526.79 588.27 526.20 588.68 526.00 589.00 Z"/>
</g>
<g fill="#A58247" fill-opacity="1.00" stroke="None">
<path d=" M 740.00 651.00  C 744.62 676.30 757.86 697.32 771.00 719.00 C 773.51 722.24 776.51 726.56 780.00 729.00 C 779.11 687.81 774.42 646.71 762.00 609.00 C 759.89 616.39 754.13 623.73 751.77 630.77 C 749.41 637.81 741.17 644.18 740.00 651.00 Z"/>
</g>
<g fill="#E3D4B1" fill-opacity="1.00" stroke="None">
<path d=" M 714.00 652.00  C 717.43 640.70 725.48 629.24 735.00 622.00 C 734.21 624.45 735.64 627.22 736.00 629.00 C 735.76 626.32 735.23 621.56 736.00 619.00 C 726.33 628.12 716.56 638.26 714.00 652.00 Z"/>
</g>
<g fill="#EBE0C4" fill-opacity="1.00" stroke="None">
<path d=" M 833.00 659.00  C 836.96 654.18 842.25 649.85 846.00 645.00 C 848.56 641.69 850.92 638.07 854.00 635.00 C 846.24 641.63 838.51 650.45 833.00 659.00 Z"/>
</g>
<g fill="#745025" fill-opacity="1.00" stroke="None">
<path d=" M 649.00 746.00  C 651.72 747.89 648.34 753.04 651.00 755.00 C 652.32 743.84 653.77 730.60 645.00 722.00 C 641.35 719.17 641.56 720.19 642.00 716.00 C 642.75 708.77 647.10 700.27 643.98 693.03 C 640.85 685.78 642.39 678.77 646.02 672.03 C 649.66 665.28 645.08 658.67 643.00 652.00 C 638.71 659.31 641.61 667.46 637.32 675.32 C 633.03 683.19 637.05 687.88 639.00 696.00 C 640.95 704.12 634.94 713.12 635.00 721.00 C 644.88 725.55 648.62 735.98 649.00 746.00 Z"/>
</g>
<g fill="#B38E53" fill-opacity="1.00" stroke="None">
<path d=" M 448.00 662.00  C 458.15 691.58 463.26 723.04 467.00 754.00 C 468.80 752.01 469.11 748.61 470.00 746.00 C 468.75 723.50 473.01 696.38 463.00 675.00 C 461.68 679.57 461.92 685.30 459.00 689.00 C 456.76 682.75 455.95 673.90 458.00 667.00 C 456.58 666.03 449.54 659.04 448.00 662.00 Z"/>
</g>
<g fill="#745127" fill-opacity="1.00" stroke="None">
<path d=" M 582.00 664.00  C 585.48 673.78 583.75 684.17 596.92 688.08 C 610.09 691.99 600.43 705.15 608.75 714.25 C 617.06 723.36 607.09 736.46 611.07 746.93 C 615.05 757.39 609.63 767.38 610.00 778.00 C 610.49 771.72 614.42 761.79 616.00 755.00 C 616.58 752.52 617.91 750.71 618.00 748.00 C 618.24 740.77 618.35 733.03 620.67 725.67 C 622.99 718.31 613.92 713.24 613.93 706.07 C 613.93 698.90 614.19 690.32 608.23 686.77 C 602.27 683.22 598.22 678.55 594.25 673.75 C 590.28 668.95 582.96 664.87 582.00 664.00 Z"/>
</g>
<g fill="#E0D4B9" fill-opacity="1.00" stroke="None">
<path d=" M 645.00 722.00  C 650.90 726.56 659.89 731.24 661.00 739.00 C 660.52 726.35 643.07 726.45 642.00 716.00 C 641.56 720.19 641.35 719.17 645.00 722.00 Z"/>
</g>
<g fill="#E8DBBB" fill-opacity="1.00" stroke="None">
<path d=" M 775.00 741.00  C 777.30 737.75 783.01 734.87 780.00 730.00 C 780.00 730.00 780.00 729.50 780.00 729.00 C 776.51 726.56 773.51 722.24 771.00 719.00 C 776.63 728.29 780.14 730.61 775.00 741.00 Z"/>
</g>
<g fill="#BB9351" fill-opacity="1.00" stroke="None">
<path d=" M 892.00 741.00  C 891.12 741.62 886.32 747.01 884.00 749.00 C 882.92 750.17 881.85 751.71 881.00 753.00 C 885.38 757.90 890.29 763.74 898.00 762.00 C 902.92 759.14 908.14 756.96 913.00 754.00 C 912.18 757.10 907.59 758.10 905.00 760.00 C 903.22 762.02 903.19 762.98 905.00 765.00 C 910.14 760.48 915.56 761.02 921.22 757.22 C 926.89 753.43 931.88 764.94 937.00 760.00 C 939.32 756.61 941.14 752.70 944.00 750.00 C 945.26 765.02 943.90 782.88 949.33 796.67 C 954.76 810.46 942.06 830.65 952.92 842.08 C 963.77 853.51 959.21 867.63 949.75 877.75 C 940.30 887.87 935.37 898.70 928.00 907.00 C 927.64 908.78 926.00 909.82 929.00 909.00 C 933.80 907.06 937.34 899.04 942.25 896.25 C 947.15 893.45 951.51 886.65 955.75 882.75 C 960.00 878.85 966.11 873.62 969.00 869.00 C 980.71 847.38 972.93 824.87 967.00 803.00 C 961.06 781.13 959.24 755.52 959.00 732.00 C 936.36 733.14 912.46 732.87 892.00 741.00 Z"/>
</g>
<g fill="#745128" fill-opacity="1.00" stroke="None">
<path d=" M 816.00 775.00  C 820.72 780.43 829.52 784.79 837.07 779.07 C 844.63 773.36 852.62 780.80 861.00 781.00 C 863.54 767.97 874.33 757.95 884.00 749.00 C 886.32 747.01 891.12 741.62 892.00 741.00 C 885.32 743.65 877.43 745.87 871.75 750.75 C 866.07 755.64 865.92 763.32 860.75 769.75 C 855.59 776.19 848.97 767.84 841.23 772.23 C 833.48 776.62 823.99 771.55 816.00 775.00 Z"/>
</g>
<g fill="#8E6E2F" fill-opacity="1.00" stroke="None">
<path d=" M 616.00 755.00  C 619.18 753.10 621.10 759.41 625.00 758.00 C 622.52 754.84 619.25 751.60 618.00 748.00 C 617.91 750.71 616.58 752.52 616.00 755.00 Z"/>
</g>
<g fill="#968343" fill-opacity="1.00" stroke="None">
<path d=" M 816.00 775.00  C 798.55 782.53 782.37 793.24 767.00 804.00 C 759.66 810.03 751.17 818.15 746.00 826.00 C 741.21 833.27 735.98 839.39 733.00 848.00 C 737.45 847.36 742.24 849.55 746.00 850.00 C 767.88 850.44 789.47 851.73 810.00 846.00 C 813.55 842.62 814.97 835.73 818.92 831.92 C 822.87 828.11 826.73 823.16 826.00 818.00 C 825.43 816.06 822.60 813.87 824.00 811.00 C 793.53 821.40 764.97 838.11 734.00 847.00 C 746.52 830.64 770.04 826.54 788.69 818.69 C 807.35 810.85 827.40 802.53 845.23 792.23 C 863.06 781.93 881.05 773.24 898.00 762.00 C 890.29 763.74 885.38 757.90 881.00 753.00 C 881.85 751.71 882.92 750.17 884.00 749.00 C 874.33 757.95 863.54 767.97 861.00 781.00 C 852.62 780.80 844.63 773.36 837.07 779.07 C 829.52 784.79 820.72 780.43 816.00 775.00 Z"/>
</g>
<g fill="#7A5D29" fill-opacity="1.00" stroke="None">
<path d=" M 937.00 760.00  C 932.19 767.01 926.63 772.92 920.00 778.00 C 919.75 778.26 919.87 779.54 920.00 780.00 C 924.08 794.71 928.42 809.28 934.68 823.32 C 940.93 837.37 949.83 849.92 942.92 864.92 C 936.02 879.93 931.11 891.47 928.00 907.00 C 935.37 898.70 940.30 887.87 949.75 877.75 C 959.21 867.63 963.77 853.51 952.92 842.08 C 942.06 830.65 954.76 810.46 949.33 796.67 C 943.90 782.88 945.26 765.02 944.00 750.00 C 941.14 752.70 939.32 756.61 937.00 760.00 Z"/>
</g>
<g fill="#7F6A30" fill-opacity="1.00" stroke="None">
<path d=" M 898.00 762.00  C 881.05 773.24 863.06 781.93 845.23 792.23 C 827.40 802.53 807.35 810.85 788.69 818.69 C 770.04 826.54 746.52 830.64 734.00 847.00 C 764.97 838.11 793.53 821.40 824.00 811.00 C 822.60 813.87 825.43 816.06 826.00 818.00 C 825.62 815.33 825.59 814.23 826.00 812.00 C 827.43 804.22 844.33 801.48 851.70 795.70 C 859.07 789.92 870.83 785.07 878.70 778.70 C 886.57 772.32 896.48 765.61 905.00 760.00 C 907.59 758.10 912.18 757.10 913.00 754.00 C 908.14 756.96 902.92 759.14 898.00 762.00 Z"/>
</g>
<g fill="#9D8544" fill-opacity="1.00" stroke="None">
<path d=" M 905.00 760.00  C 896.48 765.61 886.57 772.32 878.70 778.70 C 870.83 785.07 859.07 789.92 851.70 795.70 C 844.33 801.48 827.43 804.22 826.00 812.00 C 828.59 825.28 846.99 820.05 851.25 811.25 C 855.51 802.46 875.61 815.77 882.00 814.00 C 887.63 811.16 892.13 806.16 897.00 802.00 C 905.33 794.88 911.83 784.26 920.00 778.00 C 926.63 772.92 932.19 767.01 937.00 760.00 C 931.88 764.94 926.89 753.43 921.22 757.22 C 915.56 761.02 910.14 760.48 905.00 765.00 C 903.19 762.98 903.22 762.02 905.00 760.00 Z"/>
</g>
<g fill="#E1D8BB" fill-opacity="1.00" stroke="None">
<path d=" M 897.00 802.00  C 903.79 797.61 914.14 787.59 920.00 780.00 C 919.87 779.54 919.75 778.26 920.00 778.00 C 911.83 784.26 905.33 794.88 897.00 802.00 Z"/>
</g>
<g fill="#F0E8CD" fill-opacity="1.00" stroke="None">
<path d=" M 746.00 826.00  C 751.17 818.15 759.66 810.03 767.00 804.00 C 762.71 807.00 758.98 811.42 754.00 813.00 C 753.15 809.28 755.57 804.70 757.00 801.00 C 752.36 808.98 748.19 818.23 746.00 826.00 Z"/>
</g>
<g fill="#765629" fill-opacity="1.00" stroke="None">
<path d=" M 826.00 812.00  C 825.59 814.23 825.62 815.33 826.00 818.00 C 826.73 823.16 822.87 828.11 818.92 831.92 C 814.97 835.73 813.55 842.62 810.00 846.00 C 822.97 848.02 820.65 829.48 831.26 827.26 C 841.87 825.03 852.70 825.96 857.00 813.00 C 865.31 814.63 873.76 818.17 882.00 814.00 C 875.61 815.77 855.51 802.46 851.25 811.25 C 846.99 820.05 828.59 825.28 826.00 812.00 Z"/>
</g>
<g fill="#E5DABC" fill-opacity="1.00" stroke="None">
<path d=" M 722.00 875.00  C 726.84 867.38 729.68 858.09 734.00 850.00 C 738.00 850.06 742.00 849.92 746.00 850.00 C 742.24 849.55 737.45 847.36 733.00 848.00 C 729.87 857.02 725.31 865.91 722.00 875.00 Z"/>
</g>
<g fill="#BDB190" fill-opacity="1.00" stroke="None">
<path d=" M 671.00 866.00  C 671.00 860.93 670.42 855.39 670.00 851.00 C 670.00 856.07 670.58 861.61 671.00 866.00 Z"/>
</g>
<g fill="#8B6E39" fill-opacity="1.00" stroke="None">
<path d=" M 707.00 878.00  C 707.78 880.01 708.03 876.98 709.00 877.00 C 709.76 879.31 709.89 881.22 710.00 884.00 C 711.66 882.87 710.72 878.09 714.00 881.00 C 715.86 873.84 713.86 864.39 715.00 858.00 C 712.24 864.31 709.68 871.42 707.00 878.00 Z"/>
</g>
<g fill="#F3E8CD" fill-opacity="1.00" stroke="None">
<path d=" M 929.00 909.00  C 934.29 907.55 938.38 899.12 943.25 896.25 C 948.12 893.37 952.40 886.51 956.75 882.75 C 961.10 879.00 966.52 874.07 969.00 869.00 C 966.11 873.62 960.00 878.85 955.75 882.75 C 951.51 886.65 947.15 893.45 942.25 896.25 C 937.34 899.04 933.80 907.06 929.00 909.00 Z"/>
</g>
<g fill="#E1D6BA" fill-opacity="1.00" stroke="None">
<path d=" M 635.00 954.00  C 633.84 940.77 630.76 926.25 632.00 913.00 C 631.29 905.62 629.23 896.30 628.00 889.00 C 629.27 910.27 630.84 933.58 635.00 954.00 Z"/>
</g>
<g fill="#E8DCC0" fill-opacity="1.00" stroke="None">
<path d=" M 676.00 969.00  C 672.89 970.39 673.86 974.60 672.00 977.00 C 670.17 970.33 671.00 961.50 671.00 954.00 C 670.02 965.78 667.67 980.15 670.00 992.00 C 670.94 984.02 674.10 976.68 676.00 969.00 Z"/>
</g>
<g fill="#EADCB9" fill-opacity="1.00" stroke="None">
<path d=" M 732.00 1037.00  C 734.72 1032.65 734.84 1025.23 736.00 1020.00 C 739.19 1005.59 757.50 992.01 771.00 989.00 C 759.22 989.76 752.23 997.94 742.75 1004.75 C 733.28 1011.56 735.66 1027.68 732.00 1037.00 Z"/>
</g>
<g fill="#C89A48" fill-opacity="1.00" stroke="None">
<path d=" M 736.00 1020.00  C 737.81 1017.90 747.06 1015.85 749.00 1017.00 C 736.49 1021.03 737.98 1034.21 734.00 1044.00 C 724.45 1038.96 716.43 1049.75 710.00 1052.00 C 707.74 1053.04 706.47 1054.37 704.00 1055.00 C 684.48 1059.99 674.92 1078.66 667.00 1097.00 C 665.70 1100.00 660.15 1109.90 661.00 1108.00 C 659.89 1112.24 660.87 1119.10 662.00 1124.00 C 663.29 1123.16 664.83 1122.08 666.00 1121.00 C 684.65 1097.37 706.29 1077.16 728.08 1056.08 C 749.88 1035.00 776.81 1014.56 806.00 1007.00 C 746.04 1032.43 706.88 1091.52 661.00 1137.00 C 659.75 1138.44 658.87 1140.30 658.00 1142.00 C 663.28 1138.30 673.58 1139.78 679.67 1136.67 C 685.76 1133.56 694.31 1132.32 700.68 1129.68 C 707.04 1127.04 712.80 1123.92 718.74 1120.74 C 724.68 1117.57 732.20 1115.87 737.00 1111.00 C 737.15 1101.94 734.59 1087.99 742.25 1080.25 C 749.90 1072.51 749.50 1059.53 745.00 1050.00 C 761.20 1059.66 780.37 1052.77 794.00 1042.00 C 801.52 1044.02 807.67 1049.62 815.00 1052.00 C 830.48 1038.05 846.03 1022.63 863.00 1011.00 C 861.28 1007.31 843.88 1004.99 840.00 1004.00 C 828.34 1002.48 816.50 998.37 805.02 996.98 C 793.55 995.58 782.58 988.25 771.00 989.00 C 757.50 992.01 739.19 1005.59 736.00 1020.00 Z"/>
</g>
<g fill="#EADDBE" fill-opacity="1.00" stroke="None">
<path d=" M 863.00 1011.00  C 863.20 1011.42 863.86 1012.68 864.00 1013.00 C 861.15 1004.99 847.93 1005.03 840.00 1004.00 C 843.88 1004.99 861.28 1007.31 863.00 1011.00 Z"/>
</g>
<g fill="#8D6527" fill-opacity="1.00" stroke="None">
<path d=" M 666.00 1121.00  C 661.37 1126.88 655.06 1134.77 657.00 1142.00 C 657.49 1139.61 659.36 1138.50 661.00 1137.00 C 706.88 1091.52 746.04 1032.43 806.00 1007.00 C 776.81 1014.56 749.88 1035.00 728.08 1056.08 C 706.29 1077.16 684.65 1097.37 666.00 1121.00 Z"/>
</g>
<g fill="#7C5627" fill-opacity="1.00" stroke="None">
<path d=" M 737.00 1111.00  C 737.39 1110.60 738.78 1109.45 739.00 1109.00 C 742.31 1102.14 740.19 1087.73 748.75 1083.75 C 757.31 1079.78 750.30 1060.40 759.00 1060.00 C 767.70 1059.60 779.32 1060.87 785.30 1054.30 C 791.29 1047.74 803.83 1046.03 808.89 1052.11 C 813.96 1058.18 813.87 1069.35 818.00 1077.00 C 819.39 1078.78 822.24 1080.63 824.00 1082.00 C 822.24 1072.37 834.05 1062.06 840.00 1056.00 C 847.15 1068.18 852.88 1076.01 860.77 1088.23 C 868.66 1100.45 866.07 1121.02 868.00 1135.00 C 869.71 1125.16 869.41 1114.80 870.93 1104.93 C 872.45 1095.05 867.41 1087.73 861.70 1080.31 C 855.98 1072.88 855.73 1067.29 849.70 1059.31 C 843.66 1051.32 851.94 1044.88 862.00 1045.00 C 859.46 1055.96 869.78 1063.22 868.00 1074.00 C 869.93 1072.74 871.91 1071.00 873.00 1069.00 C 875.51 1071.91 879.15 1073.33 883.00 1072.00 C 884.13 1066.09 878.22 1062.78 873.00 1064.00 C 866.79 1055.67 872.25 1046.06 871.99 1038.01 C 871.73 1029.96 867.08 1020.21 864.00 1013.00 C 863.86 1012.68 863.20 1011.42 863.00 1011.00 C 846.03 1022.63 830.48 1038.05 815.00 1052.00 C 807.67 1049.62 801.52 1044.02 794.00 1042.00 C 780.37 1052.77 761.20 1059.66 745.00 1050.00 C 749.50 1059.53 749.90 1072.51 742.25 1080.25 C 734.59 1087.99 737.15 1101.94 737.00 1111.00 Z"/>
</g>
<g fill="#865C29" fill-opacity="1.00" stroke="None">
<path d=" M 736.00 1020.00  C 734.84 1025.23 734.72 1032.65 732.00 1037.00 C 732.00 1038.00 732.00 1039.00 732.00 1040.00 C 727.62 1040.20 723.16 1039.99 719.00 1041.00 C 713.63 1042.70 713.63 1048.37 710.00 1052.00 C 716.43 1049.75 724.45 1038.96 734.00 1044.00 C 737.98 1034.21 736.49 1021.03 749.00 1017.00 C 747.06 1015.85 737.81 1017.90 736.00 1020.00 Z"/>
</g>
<g fill="#E3D4B6" fill-opacity="1.00" stroke="None">
<path d=" M 704.00 1055.00  C 706.47 1054.37 707.74 1053.04 710.00 1052.00 C 713.63 1048.37 713.63 1042.70 719.00 1041.00 C 711.20 1042.90 711.10 1052.54 704.00 1055.00 Z"/>
</g>
<g fill="#A17739" fill-opacity="1.00" stroke="None">
<path d=" M 824.00 1082.00  C 824.27 1082.21 824.68 1082.80 825.00 1083.00 C 830.00 1086.09 833.67 1091.38 838.00 1095.00 C 844.64 1099.75 850.47 1104.64 852.00 1113.00 C 855.63 1136.95 854.19 1162.70 859.00 1186.00 C 867.98 1160.28 880.20 1135.73 889.00 1110.00 C 890.73 1104.93 891.58 1099.66 891.00 1094.00 C 889.29 1086.29 885.22 1079.21 883.00 1072.00 C 879.15 1073.33 875.51 1071.91 873.00 1069.00 C 871.91 1071.00 869.93 1072.74 868.00 1074.00 C 869.78 1063.22 859.46 1055.96 862.00 1045.00 C 851.94 1044.88 843.66 1051.32 849.70 1059.31 C 855.73 1067.29 855.98 1072.88 861.70 1080.31 C 867.41 1087.73 872.45 1095.05 870.93 1104.93 C 869.41 1114.80 869.71 1125.16 868.00 1135.00 C 866.07 1121.02 868.66 1100.45 860.77 1088.23 C 852.88 1076.01 847.15 1068.18 840.00 1056.00 C 834.05 1062.06 822.24 1072.37 824.00 1082.00 Z"/>
</g>
<g fill="#E6D8B7" fill-opacity="1.00" stroke="None">
<path d=" M 661.00 1108.00  C 660.15 1109.90 665.70 1100.00 667.00 1097.00 C 664.54 1097.86 664.73 1101.01 664.00 1103.00 C 662.50 1092.34 665.97 1080.30 667.00 1069.00 C 664.76 1081.51 662.44 1094.80 661.00 1108.00 Z"/>
</g>
<g fill="#E6D9C2" fill-opacity="1.00" stroke="None">
<path d=" M 852.00 1113.00  C 850.47 1104.64 844.64 1099.75 838.00 1095.00 C 833.23 1091.59 828.62 1087.65 825.00 1083.00 C 824.68 1082.80 824.27 1082.21 824.00 1082.00 C 822.24 1080.63 819.39 1078.78 818.00 1077.00 C 825.87 1091.58 846.79 1096.73 852.00 1113.00 Z"/>
</g>
<g fill="#AF9875" fill-opacity="1.00" stroke="None">
<path d=" M 838.00 1095.00  C 833.67 1091.38 830.00 1086.09 825.00 1083.00 C 828.62 1087.65 833.23 1091.59 838.00 1095.00 Z"/>
</g>
<g fill="#E8DBBD" fill-opacity="1.00" stroke="None">
<path d=" M 643.00 1147.00  C 644.76 1128.83 644.00 1109.89 644.00 1091.00 C 642.29 1108.70 643.00 1128.48 643.00 1147.00 Z"/>
</g>
<g fill="#BFB098" fill-opacity="1.00" stroke="None">
<path d=" M 889.00 1110.00  C 891.61 1104.49 892.40 1100.32 891.00 1094.00 C 891.58 1099.66 890.73 1104.93 889.00 1110.00 Z"/>
</g>
<g fill="#E7D9B9" fill-opacity="1.00" stroke="None">
<path d=" M 737.00 1111.00  C 732.20 1115.87 724.68 1117.57 718.74 1120.74 C 712.80 1123.92 707.04 1127.04 700.68 1129.68 C 694.31 1132.32 685.76 1133.56 679.67 1136.67 C 673.58 1139.78 663.28 1138.30 658.00 1142.00 C 654.07 1149.68 655.89 1161.02 655.00 1170.00 C 654.11 1178.98 653.00 1188.91 653.00 1198.00 C 654.86 1188.86 656.03 1176.31 656.00 1166.00 C 655.98 1155.70 655.54 1142.29 666.33 1141.33 C 677.12 1140.37 684.30 1136.01 693.32 1133.32 C 702.34 1130.64 710.64 1127.26 717.77 1122.77 C 724.90 1118.29 735.98 1116.97 739.00 1109.00 C 738.78 1109.45 737.39 1110.60 737.00 1111.00 Z"/>
</g>
</svg>