<svg aria-hidden="true" xmlns="http://www.w3.org/2000/svg" xmlns:v="https://svgstorm.com" viewBox="0 0 1600 1600" width="1600" height="1600">

<g fill="None" fill-opacity="0.0" stroke="#FDEED3" stroke-opacity="1.00" stroke-width="0.3"><path d=" M 806.00 243.00  C 785.62 239.14 778.12 257.53 780.00 275.00 C 781.88 292.47 779.08 313.93 780.00 332.00 C 780.92 350.07 779.43 370.94 780.00 389.00 C 780.57 407.06 779.39 428.58 780.00 446.00 C 780.61 463.42 775.24 482.73 795.78 487.22 C 816.32 491.71 822.04 472.74 820.00 455.00 C 817.96 437.26 820.95 415.85 820.00 398.00 C 819.05 380.15 820.68 360.21 820.00 343.00 C 819.32 325.79 820.64 301.55 820.00 286.00 C 819.36 270.45 824.43 246.49 806.00 243.00 M 808.00 247.00  C 813.47 249.76 816.39 254.30 818.00 260.00 C 822.52 275.96 817.96 295.84 819.00 313.00 C 820.04 330.16 819.29 349.79 819.00 367.00 C 818.71 384.21 820.81 404.26 819.00 421.00 C 817.19 437.74 824.34 459.91 817.00 474.00 C 816.67 475.08 816.46 475.92 816.00 477.00 C 813.79 482.17 809.63 485.49 804.00 486.00 C 797.16 486.62 791.34 485.03 787.00 480.00 C 784.78 477.42 783.90 476.48 783.00 473.00 C 777.45 451.61 783.27 425.75 782.00 403.00 C 780.73 380.25 781.30 354.90 782.00 332.00 C 782.70 309.10 778.49 282.78 783.00 261.00 C 785.37 249.57 796.27 241.07 808.00 247.00 Z"/>
</g>
<g fill="None" fill-opacity="0.0" stroke="#AA5311" stroke-opacity="1.00" stroke-width="0.3"><path d=" M 783.00 261.00  C 780.90 284.14 783.39 307.70 783.00 331.00 C 782.61 354.30 781.99 378.69 783.00 402.00 C 784.01 425.31 779.92 449.91 783.00 473.00 C 783.90 476.48 784.78 477.42 787.00 480.00 C 782.00 468.03 788.95 451.37 787.00 437.00 C 785.05 422.63 787.92 404.84 787.00 390.00 C 786.08 375.16 787.55 356.64 787.00 342.00 C 786.45 327.36 787.52 308.61 787.00 295.00 C 786.48 281.39 781.96 266.18 786.98 253.98 C 791.99 241.77 817.13 247.18 814.78 260.22 C 812.43 273.27 813.05 290.39 813.00 305.00 C 812.95 319.61 813.34 337.28 813.00 352.00 C 812.66 366.72 813.84 385.89 813.00 400.00 C 812.16 414.11 814.95 434.74 813.00 447.00 C 811.05 459.26 818.40 477.04 808.00 484.00 C 811.10 482.53 814.35 479.86 816.00 477.00 C 816.46 475.92 816.67 475.08 817.00 474.00 C 817.28 473.08 817.81 471.96 818.00 471.00 C 820.18 437.02 814.46 400.88 817.00 366.00 C 819.54 331.12 813.85 294.88 817.00 260.00 C 815.08 254.90 812.74 250.03 808.00 247.00 C 796.27 241.07 785.37 249.57 783.00 261.00 Z"/>
</g>
<g fill="None" fill-opacity="0.0" stroke="#C0894F" stroke-opacity="1.00" stroke-width="0.3"><path d=" M 817.00 260.00  C 817.06 260.16 818.00 260.00 818.00 260.00 C 816.39 254.30 813.47 249.76 808.00 247.00 C 812.74 250.03 815.08 254.90 817.00 260.00 Z"/>
</g>
<g fill="None" fill-opacity="0.0" stroke="#CC5701" stroke-opacity="1.00" stroke-width="0.3"><path d=" M 787.00 480.00  C 791.34 485.03 797.16 486.62 804.00 486.00 C 804.88 485.79 806.88 484.53 808.00 484.00 C 818.40 477.04 811.05 459.26 813.00 447.00 C 814.95 434.74 812.16 414.11 813.00 400.00 C 813.84 385.89 812.66 366.72 813.00 352.00 C 813.34 337.28 812.95 319.61 813.00 305.00 C 813.05 290.39 812.43 273.27 814.78 260.22 C 817.13 247.18 791.99 241.77 786.98 253.98 C 781.96 266.18 786.48 281.39 787.00 295.00 C 787.52 308.61 786.45 327.36 787.00 342.00 C 787.55 356.64 786.08 375.16 787.00 390.00 C 787.92 404.84 785.05 422.63 787.00 437.00 C 788.95 451.37 782.00 468.03 787.00 480.00 Z"/>
</g>
<g fill="None" fill-opacity="0.0" stroke="#935B2C" stroke-opacity="1.00" stroke-width="0.3"><path d=" M 818.00 471.00  C 821.34 454.22 816.65 436.21 818.00 419.00 C 819.35 401.79 817.66 383.43 818.00 366.00 C 818.34 348.57 818.45 330.49 818.00 313.00 C 817.55 295.51 819.53 277.43 818.00 260.00 C 818.00 260.00 817.06 260.16 817.00 260.00 C 813.85 294.88 819.54 331.12 817.00 366.00 C 814.46 400.88 820.18 437.02 818.00 471.00 Z"/>
</g>
<g fill="None" fill-opacity="0.0" stroke="#F8D6B5" stroke-opacity="1.00" stroke-width="0.3"><path d=" M 818.00 471.00  C 817.81 471.96 817.28 473.08 817.00 474.00 C 824.34 459.91 817.19 437.74 819.00 421.00 C 820.81 404.26 818.71 384.21 819.00 367.00 C 819.29 349.79 820.04 330.16 819.00 313.00 C 817.96 295.84 822.52 275.96 818.00 260.00 C 819.53 277.43 817.55 295.51 818.00 313.00 C 818.45 330.49 818.34 348.57 818.00 366.00 C 817.66 383.43 819.35 401.79 818.00 419.00 C 816.65 436.21 821.34 454.22 818.00 471.00 Z"/>
</g>
<g fill="None" fill-opacity="0.0" stroke="#9A6C41" stroke-opacity="1.00" stroke-width="0.3"><path d=" M 783.00 473.00  C 779.92 449.91 784.01 425.31 783.00 402.00 C 781.99 378.69 782.61 354.30 783.00 331.00 C 783.39 307.70 780.90 284.14 783.00 261.00 C 778.49 282.78 782.70 309.10 782.00 332.00 C 781.30 354.90 780.73 380.25 782.00 403.00 C 783.27 425.75 777.45 451.61 783.00 473.00 Z"/>
</g>
<g fill="None" fill-opacity="0.0" stroke="#FDEDD1" stroke-opacity="1.00" stroke-width="0.3"><path d=" M 428.00 401.00  C 410.10 396.15 394.24 415.46 402.25 429.75 C 410.26 444.04 422.14 446.64 430.25 458.75 C 438.36 470.87 449.59 476.53 458.25 486.75 C 466.92 496.96 478.31 504.44 487.25 514.75 C 496.19 525.06 506.55 533.45 515.75 543.25 C 524.96 553.05 535.01 561.61 543.30 571.70 C 551.58 581.80 570.12 592.32 581.23 579.23 C 592.34 566.14 580.12 550.96 569.75 542.25 C 559.39 533.54 551.28 522.66 541.25 513.75 C 531.21 504.85 522.70 494.06 512.75 485.25 C 502.81 476.44 494.96 465.55 484.75 457.25 C 474.54 448.94 467.67 435.00 456.70 428.30 C 445.72 421.61 439.92 404.23 428.00 401.00 M 430.00 405.00  C 444.81 413.43 454.54 431.28 467.75 442.25 C 480.96 453.22 492.86 467.67 505.25 479.75 C 517.64 491.83 531.25 504.33 542.75 517.25 C 554.26 530.16 570.50 540.72 580.00 555.00 C 586.39 564.60 583.12 576.58 573.00 581.00 C 565.89 584.10 559.41 582.77 553.00 578.00 C 541.82 569.69 533.02 557.72 522.75 548.25 C 512.48 538.78 502.59 528.12 492.75 518.25 C 482.91 508.38 472.06 498.43 462.75 488.25 C 453.44 478.07 441.07 468.86 432.75 458.25 C 424.43 447.63 407.84 439.66 404.00 427.00 C 399.19 411.14 414.30 396.06 430.00 405.00 Z"/>
</g>
<g fill="None" fill-opacity="0.0" stroke="#FDEACE" stroke-opacity="1.00" stroke-width="0.3"><path d=" M 1018.00 580.00  C 1036.75 595.57 1053.02 575.52 1064.75 562.75 C 1076.49 549.99 1089.28 537.96 1101.75 525.75 C 1114.22 513.54 1125.79 500.68 1137.77 488.77 C 1149.75 476.86 1163.78 463.92 1174.75 451.75 C 1185.73 439.59 1211.75 425.84 1195.25 406.75 C 1178.75 387.65 1161.51 412.31 1149.75 423.75 C 1137.99 435.20 1124.18 448.28 1112.75 460.75 C 1101.31 473.22 1087.90 484.09 1075.75 496.75 C 1063.60 509.42 1051.31 522.10 1039.10 534.10 C 1026.89 546.10 1006.13 559.85 1018.00 580.00 M 1196.00 428.00  C 1191.65 440.23 1175.39 447.64 1167.25 458.25 C 1159.11 468.85 1146.48 478.07 1137.25 488.25 C 1128.02 498.43 1117.05 508.38 1107.25 518.25 C 1097.45 528.12 1087.49 538.78 1077.25 548.25 C 1067.00 557.72 1058.11 569.74 1047.00 578.00 C 1030.39 590.35 1009.05 573.83 1020.00 555.00 C 1028.49 540.40 1045.88 530.84 1056.75 517.75 C 1067.62 504.66 1081.88 493.14 1093.75 480.75 C 1105.63 468.37 1118.17 455.47 1130.75 443.75 C 1143.33 432.03 1154.30 417.19 1168.00 407.00 C 1183.38 395.57 1202.45 409.85 1196.00 428.00 Z"/>
</g>
<g fill="None" fill-opacity="0.0" stroke="#C6570B" stroke-opacity="1.00" stroke-width="0.3"><path d=" M 404.00 427.00  C 405.35 430.48 409.12 433.54 412.00 436.00 C 425.77 447.77 436.65 461.60 450.25 473.75 C 463.85 485.91 475.73 500.24 489.08 511.92 C 502.44 523.59 513.55 538.69 526.75 550.25 C 539.96 561.81 553.51 584.49 573.00 581.00 C 583.12 576.58 586.39 564.60 580.00 555.00 C 571.48 544.10 559.00 535.75 549.75 525.25 C 540.50 514.75 529.54 505.27 519.75 495.25 C 509.96 485.22 499.94 474.82 489.75 465.25 C 479.57 455.68 470.46 444.07 459.75 435.25 C 449.04 426.42 441.25 412.56 430.00 405.00 C 414.30 396.06 399.19 411.14 404.00 427.00 Z"/>
</g>
<g fill="None" fill-opacity="0.0" stroke="#C5570A" stroke-opacity="1.00" stroke-width="0.3"><path d=" M 1168.00 407.00  C 1155.04 418.29 1143.82 432.38 1131.25 444.25 C 1118.68 456.12 1106.18 468.79 1094.25 481.25 C 1082.32 493.71 1068.27 505.12 1057.25 518.25 C 1046.22 531.37 1029.51 541.13 1020.00 555.00 C 1009.05 573.83 1030.39 590.35 1047.00 578.00 C 1057.39 568.94 1066.05 557.73 1076.25 548.25 C 1086.44 538.77 1096.45 528.15 1106.25 518.25 C 1116.04 508.35 1126.99 498.50 1136.25 488.25 C 1145.51 478.00 1158.01 469.01 1166.25 458.25 C 1174.48 447.48 1190.55 439.91 1196.00 428.00 C 1202.45 409.85 1183.38 395.57 1168.00 407.00 Z"/>
</g>
<g fill="None" fill-opacity="0.0" stroke="#CA9B6E" stroke-opacity="1.00" stroke-width="0.3"><path d=" M 580.00 555.00  C 570.50 540.72 554.26 530.16 542.75 517.25 C 531.25 504.33 517.64 491.83 505.25 479.75 C 492.86 467.67 480.96 453.22 467.75 442.25 C 454.54 431.28 444.81 413.43 430.00 405.00 C 441.25 412.56 449.04 426.42 459.75 435.25 C 470.46 444.07 479.57 455.68 489.75 465.25 C 499.94 474.82 509.96 485.22 519.75 495.25 C 529.54 505.27 540.50 514.75 549.75 525.25 C 559.00 535.75 571.48 544.10 580.00 555.00 Z"/>
</g>
<g fill="None" fill-opacity="0.0" stroke="#D2A376" stroke-opacity="1.00" stroke-width="0.3"><path d=" M 1020.00 555.00  C 1029.51 541.13 1046.22 531.37 1057.25 518.25 C 1068.27 505.12 1082.32 493.71 1094.25 481.25 C 1106.18 468.79 1118.68 456.12 1131.25 444.25 C 1143.82 432.38 1155.04 418.29 1168.00 407.00 C 1154.30 417.19 1143.33 432.03 1130.75 443.75 C 1118.17 455.47 1105.63 468.37 1093.75 480.75 C 1081.88 493.14 1067.62 504.66 1056.75 517.75 C 1045.88 530.84 1028.49 540.40 1020.00 555.00 Z"/>
</g>
<g fill="None" fill-opacity="0.0" stroke="#E0B384" stroke-opacity="1.00" stroke-width="0.3"><path d=" M 553.00 578.00  C 528.06 556.26 507.10 529.87 482.75 507.25 C 458.40 484.63 435.43 459.43 412.00 436.00 C 409.12 433.54 405.35 430.48 404.00 427.00 C 407.84 439.66 424.43 447.63 432.75 458.25 C 441.07 468.86 453.44 478.07 462.75 488.25 C 472.06 498.43 482.91 508.38 492.75 518.25 C 502.59 528.12 512.48 538.78 522.75 548.25 C 533.02 557.72 541.82 569.69 553.00 578.00 Z"/>
</g>
<g fill="None" fill-opacity="0.0" stroke="#DCAC80" stroke-opacity="1.00" stroke-width="0.3"><path d=" M 1047.00 578.00  C 1058.11 569.74 1067.00 557.72 1077.25 548.25 C 1087.49 538.78 1097.45 528.12 1107.25 518.25 C 1117.05 508.38 1128.02 498.43 1137.25 488.25 C 1146.48 478.07 1159.11 468.85 1167.25 458.25 C 1175.39 447.64 1191.65 440.23 1196.00 428.00 C 1190.55 439.91 1174.48 447.48 1166.25 458.25 C 1158.01 469.01 1145.51 478.00 1136.25 488.25 C 1126.99 498.50 1116.04 508.35 1106.25 518.25 C 1096.45 528.15 1086.44 538.77 1076.25 548.25 C 1066.05 557.73 1057.39 568.94 1047.00 578.00 Z"/>
</g>
<g fill="None" fill-opacity="0.0" stroke="#AB6327" stroke-opacity="1.00" stroke-width="0.3"><path d=" M 553.00 578.00  C 559.41 582.77 565.89 584.10 573.00 581.00 C 553.51 584.49 539.96 561.81 526.75 550.25 C 513.55 538.69 502.44 523.59 489.08 511.92 C 475.73 500.24 463.85 485.91 450.25 473.75 C 436.65 461.60 425.77 447.77 412.00 436.00 C 435.43 459.43 458.40 484.63 482.75 507.25 C 507.10 529.87 528.06 556.26 553.00 578.00 Z"/>
</g>
<g fill="None" fill-opacity="0.0" stroke="#E2B182" stroke-opacity="1.00" stroke-width="0.3"><path d=" M 808.00 484.00  C 806.88 484.53 804.88 485.79 804.00 486.00 C 809.63 485.49 813.79 482.17 816.00 477.00 C 814.35 479.86 811.10 482.53 808.00 484.00 Z"/>
</g>
<g fill="None" fill-opacity="0.0" stroke="#F7E0C0" stroke-opacity="1.00" stroke-width="0.3"><path d=" M 556.00 900.00  C 555.80 890.43 548.35 882.80 547.02 872.98 C 545.70 863.15 541.55 854.10 540.22 843.78 C 538.89 833.45 537.00 820.89 537.00 810.00 C 536.39 803.71 536.40 796.23 537.00 790.00 C 537.00 720.10 569.78 658.24 619.75 608.75 C 669.72 559.26 741.43 535.59 812.00 537.00 C 832.85 537.42 852.80 541.80 872.00 547.00 C 898.02 550.72 923.33 567.01 945.25 580.75 C 967.16 594.50 984.58 611.63 1002.25 631.75 C 1019.92 651.87 1032.66 673.66 1042.93 699.07 C 1053.19 724.49 1063.00 758.10 1063.00 787.00 C 1064.27 800.09 1063.23 814.27 1062.00 827.00 C 1062.00 863.05 1043.47 904.32 1026.23 934.23 C 1008.99 964.14 986.82 990.64 958.30 1010.30 C 929.78 1029.96 895.20 1052.80 860.00 1056.00 C 845.70 1059.33 830.35 1062.42 815.00 1063.00 C 781.94 1064.26 747.92 1060.91 718.00 1050.00 C 704.31 1045.01 690.58 1040.31 678.00 1033.00 C 667.87 1027.11 658.05 1020.97 648.00 1015.00 C 643.38 1012.25 640.01 1008.30 636.00 1005.00 C 633.35 1003.29 630.64 1001.08 628.00 999.00 C 620.28 992.91 612.18 985.83 606.00 978.00 C 596.47 965.93 587.71 954.51 578.70 942.30 C 569.68 930.10 565.61 912.19 556.00 901.00 C 564.95 924.29 577.39 946.92 593.75 966.25 C 610.11 985.57 625.96 1000.97 646.92 1016.08 C 667.88 1031.20 688.47 1042.19 713.93 1051.07 C 739.39 1059.96 774.43 1065.69 803.00 1065.00 C 831.57 1064.31 864.58 1059.69 889.77 1049.77 C 914.96 1039.86 935.47 1029.46 956.75 1013.75 C 978.03 998.04 991.80 983.31 1008.75 962.75 C 1025.69 942.18 1035.07 923.32 1046.03 898.03 C 1056.98 872.73 1062.84 843.73 1065.00 814.00 C 1067.16 784.27 1059.30 750.01 1056.00 721.00 C 1050.18 715.38 1049.13 705.70 1044.78 698.22 C 1040.43 690.75 1037.79 682.48 1034.25 674.75 C 1030.72 667.01 1026.68 659.74 1021.75 653.25 C 1016.82 646.76 1011.70 640.49 1006.77 634.23 C 1001.84 627.97 996.27 621.90 990.90 616.10 C 985.53 610.30 979.11 605.15 973.25 599.75 C 967.38 594.36 958.55 590.43 956.00 583.00 C 948.64 581.52 940.51 576.79 937.00 570.00 C 925.44 568.76 917.84 560.82 907.23 557.77 C 896.61 554.72 891.52 547.17 880.67 545.33 C 869.82 543.49 856.51 541.57 845.07 538.93 C 833.64 536.29 820.90 536.25 808.67 534.33 C 796.44 532.41 782.78 535.77 771.00 537.00 C 759.22 538.23 746.23 540.51 735.07 543.07 C 723.92 545.64 714.14 548.82 704.07 553.07 C 694.01 557.33 685.23 561.71 675.75 565.75 C 666.26 569.78 656.90 574.73 649.08 581.08 C 641.25 587.42 634.82 593.43 627.25 600.25 C 619.67 607.07 611.94 611.76 605.77 619.77 C 599.60 627.78 592.67 634.64 586.92 642.92 C 581.17 651.19 575.26 658.39 570.25 667.25 C 565.24 676.11 560.94 684.88 556.92 694.92 C 552.91 704.97 547.98 714.77 544.93 724.93 C 541.87 735.08 540.74 747.92 538.00 759.00 C 535.26 770.08 535.77 785.03 535.00 797.00 C 534.23 808.97 535.68 825.27 537.67 836.33 C 539.66 847.39 541.13 861.27 544.00 871.00 C 546.87 880.73 548.04 893.89 556.00 900.00 Z"/>
</g>
<g fill="None" fill-opacity="0.0" stroke="#C45506" stroke-opacity="1.00" stroke-width="0.3"><path d=" M 537.00 790.00  C 537.00 796.67 537.00 803.33 537.00 810.00 C 537.00 820.89 538.89 833.45 540.22 843.78 C 541.55 854.10 545.70 863.15 547.02 872.98 C 548.35 882.80 555.80 890.43 556.00 900.00 C 556.00 900.00 555.99 900.50 556.00 901.00 C 565.61 912.19 569.68 930.10 578.70 942.30 C 587.71 954.51 596.47 965.93 606.00 978.00 C 612.83 985.39 621.06 992.06 628.00 999.00 C 630.64 1001.08 633.35 1003.29 636.00 1005.00 C 640.50 1007.90 644.04 1011.68 648.00 1015.00 C 658.05 1020.97 667.87 1027.11 678.00 1033.00 C 691.50 1038.23 705.28 1043.21 718.00 1050.00 C 747.92 1060.91 781.94 1064.26 815.00 1063.00 C 829.46 1060.41 844.77 1057.38 860.00 1056.00 C 895.20 1052.80 929.78 1029.96 958.30 1010.30 C 986.82 990.64 1008.99 964.14 1026.23 934.23 C 1043.47 904.32 1062.00 863.05 1062.00 827.00 C 1062.00 813.85 1063.00 800.46 1063.00 787.00 C 1063.00 758.10 1053.19 724.49 1042.93 699.07 C 1032.66 673.66 1019.92 651.87 1002.25 631.75 C 984.58 611.63 967.16 594.50 945.25 580.75 C 923.33 567.01 898.02 550.72 872.00 547.00 C 852.83 544.26 832.09 539.87 812.00 537.00 C 741.43 535.59 669.72 559.26 619.75 608.75 C 569.78 658.24 537.00 720.10 537.00 790.00 Z"/>
</g>
<g fill="None" fill-opacity="0.0" stroke="#B46D34" stroke-opacity="1.00" stroke-width="0.3"><path d=" M 872.00 547.00  C 852.80 541.80 832.85 537.42 812.00 537.00 C 832.09 539.87 852.83 544.26 872.00 547.00 Z"/>
</g>
<g fill="None" fill-opacity="0.0" stroke="#FDE7C9" stroke-opacity="1.00" stroke-width="0.3"><path d=" M 480.00 782.00  C 459.28 777.97 436.44 781.01 415.00 780.00 C 393.56 778.99 369.02 781.50 348.00 780.00 C 326.98 778.50 300.72 783.00 281.00 780.00 C 261.28 777.00 235.72 783.81 243.08 806.92 C 250.43 830.04 278.63 817.48 297.00 820.00 C 315.37 822.52 340.79 818.85 359.92 820.07 C 379.05 821.28 400.45 819.52 421.00 820.00 C 441.55 820.48 461.44 820.61 481.00 819.00 C 482.24 812.52 488.50 807.32 487.99 800.01 C 487.48 792.69 483.53 788.04 480.00 782.00 M 471.00 782.00  C 491.49 784.93 490.85 819.10 467.99 817.99 C 445.14 816.89 420.82 818.66 398.00 818.00 C 375.18 817.34 351.55 818.63 329.00 818.00 C 306.45 817.37 281.13 819.16 259.33 817.67 C 237.53 816.18 240.08 781.03 262.01 782.01 C 283.93 782.98 309.48 781.04 332.00 782.00 C 354.52 782.96 378.30 780.41 401.00 782.00 C 423.70 783.59 448.43 778.78 471.00 782.00 Z"/>
</g>
<g fill="None" fill-opacity="0.0" stroke="#FDE7C9" stroke-opacity="1.00" stroke-width="0.3"><path d=" M 1342.00 780.00  C 1318.95 777.21 1293.05 781.11 1270.00 780.00 C 1246.95 778.89 1221.52 780.11 1199.00 780.00 C 1176.48 779.89 1148.16 779.23 1127.01 780.01 C 1105.86 780.79 1107.41 819.51 1128.33 819.67 C 1149.25 819.83 1177.67 820.48 1200.00 820.00 C 1222.33 819.52 1248.31 820.96 1271.00 820.00 C 1293.69 819.04 1320.49 822.16 1342.78 819.78 C 1365.07 817.40 1360.46 782.23 1342.00 780.00 M 1115.00 806.00  C 1114.92 805.51 1115.00 804.50 1115.00 804.00 C 1108.43 788.53 1126.71 780.16 1141.00 782.00 C 1155.29 783.84 1175.44 781.13 1191.00 782.00 C 1206.56 782.87 1226.08 781.47 1242.00 782.00 C 1257.92 782.53 1276.33 781.48 1292.00 782.00 C 1307.68 782.52 1326.99 780.99 1341.67 782.33 C 1356.35 783.67 1361.79 804.83 1350.25 813.25 C 1338.70 821.66 1319.99 817.30 1305.00 818.00 C 1290.01 818.70 1270.49 817.78 1255.00 818.00 C 1239.51 818.22 1219.09 818.08 1204.00 818.00 C 1188.92 817.92 1167.45 818.46 1154.00 818.00 C 1140.55 817.54 1117.78 822.29 1115.00 806.00 Z"/>
</g>
<g fill="None" fill-opacity="0.0" stroke="#B25F1D" stroke-opacity="1.00" stroke-width="0.3"><path d=" M 471.00 782.00  C 448.43 778.78 423.70 783.59 401.00 782.00 C 378.30 780.41 354.52 782.96 332.00 782.00 C 309.48 781.04 283.93 782.98 262.01 782.01 C 240.08 781.03 237.53 816.18 259.33 817.67 C 281.13 819.16 306.45 817.37 329.00 818.00 C 351.55 818.63 375.18 817.34 398.00 818.00 C 420.82 818.66 445.14 816.89 467.99 817.99 C 490.85 819.10 491.49 784.93 471.00 782.00 M 481.00 812.00  C 470.73 812.64 459.23 813.23 447.00 813.00 C 434.77 812.77 421.41 813.06 409.00 813.00 C 396.59 812.94 383.44 812.92 371.00 813.00 C 358.56 813.08 345.30 812.72 333.00 813.00 C 320.70 813.28 306.93 812.34 295.00 813.00 C 283.07 813.66 268.06 811.51 257.00 813.00 C 245.94 814.49 243.79 789.81 253.08 787.08 C 262.37 784.35 278.87 788.14 290.00 787.00 C 301.13 785.86 316.04 787.51 328.00 787.00 C 339.96 786.49 353.68 787.22 366.00 787.00 C 378.32 786.78 391.56 787.07 404.00 787.00 C 416.44 786.93 429.58 786.98 442.00 787.00 C 454.42 787.02 463.81 785.84 475.22 787.78 C 486.63 789.72 487.32 803.80 481.00 812.00 Z"/>
</g>
<g fill="None" fill-opacity="0.0" stroke="#B25F1E" stroke-opacity="1.00" stroke-width="0.3"><path d=" M 1115.00 804.00  C 1115.00 798.32 1115.69 793.63 1119.00 789.00 C 1128.75 787.77 1139.08 786.57 1151.00 787.00 C 1162.92 787.43 1175.88 786.85 1188.00 787.00 C 1200.13 787.15 1212.81 787.03 1225.00 787.00 C 1237.19 786.97 1249.84 787.23 1262.00 787.00 C 1274.16 786.77 1285.89 787.62 1298.00 787.00 C 1310.11 786.38 1322.97 788.36 1335.00 787.00 C 1347.03 785.64 1356.48 790.24 1353.80 803.25 C 1351.13 816.25 1340.20 813.04 1329.00 813.00 C 1317.80 812.96 1303.72 813.03 1292.00 813.00 C 1280.28 812.97 1267.96 813.04 1256.00 813.00 C 1244.04 812.96 1231.04 813.08 1219.00 813.00 C 1206.96 812.92 1193.92 813.17 1182.00 813.00 C 1170.08 812.83 1156.52 813.38 1145.00 813.00 C 1133.48 812.62 1121.68 816.38 1115.00 806.00 C 1117.78 822.29 1140.55 817.54 1154.00 818.00 C 1167.45 818.46 1188.92 817.92 1204.00 818.00 C 1219.09 818.08 1239.51 818.22 1255.00 818.00 C 1270.49 817.78 1290.01 818.70 1305.00 818.00 C 1319.99 817.30 1338.70 821.66 1350.25 813.25 C 1361.79 804.83 1356.35 783.67 1341.67 782.33 C 1326.99 780.99 1307.68 782.52 1292.00 782.00 C 1276.33 781.48 1257.92 782.53 1242.00 782.00 C 1226.08 781.47 1206.56 782.87 1191.00 782.00 C 1175.44 781.13 1155.29 783.84 1141.00 782.00 C 1126.71 780.16 1108.43 788.53 1115.00 804.00 Z"/>
</g>
<g fill="None" fill-opacity="0.0" stroke="#CB5805" stroke-opacity="1.00" stroke-width="0.3"><path d=" M 481.00 812.00  C 487.32 803.80 486.63 789.72 475.22 787.78 C 463.81 785.84 454.42 787.02 442.00 787.00 C 429.58 786.98 416.44 786.93 404.00 787.00 C 391.56 787.07 378.32 786.78 366.00 787.00 C 353.68 787.22 339.96 786.49 328.00 787.00 C 316.04 787.51 301.13 785.86 290.00 787.00 C 278.87 788.14 262.37 784.35 253.08 787.08 C 243.79 789.81 245.94 814.49 257.00 813.00 C 268.06 811.51 283.07 813.66 295.00 813.00 C 306.93 812.34 320.70 813.28 333.00 813.00 C 345.30 812.72 358.56 813.08 371.00 813.00 C 383.44 812.92 396.59 812.94 409.00 813.00 C 421.41 813.06 434.77 812.77 447.00 813.00 C 459.23 813.23 470.73 812.64 481.00 812.00 Z"/>
</g>
<g fill="None" fill-opacity="0.0" stroke="#D3A980" stroke-opacity="1.00" stroke-width="0.3"><path d=" M 1062.00 827.00  C 1063.23 814.27 1064.27 800.09 1063.00 787.00 C 1063.00 800.46 1062.00 813.85 1062.00 827.00 Z"/>
</g>
<g fill="None" fill-opacity="0.0" stroke="#CB5806" stroke-opacity="1.00" stroke-width="0.3"><path d=" M 1115.00 804.00  C 1115.00 804.50 1114.92 805.51 1115.00 806.00 C 1121.68 816.38 1133.48 812.62 1145.00 813.00 C 1156.52 813.38 1170.08 812.83 1182.00 813.00 C 1193.92 813.17 1206.96 812.92 1219.00 813.00 C 1231.04 813.08 1244.04 812.96 1256.00 813.00 C 1267.96 813.04 1280.28 812.97 1292.00 813.00 C 1303.72 813.03 1317.80 812.96 1329.00 813.00 C 1340.20 813.04 1351.13 816.25 1353.80 803.25 C 1356.48 790.24 1347.03 785.64 1335.00 787.00 C 1322.97 788.36 1310.11 786.38 1298.00 787.00 C 1285.89 787.62 1274.16 786.77 1262.00 787.00 C 1249.84 787.23 1237.19 786.97 1225.00 787.00 C 1212.81 787.03 1200.13 787.15 1188.00 787.00 C 1175.88 786.85 1162.92 787.43 1151.00 787.00 C 1139.08 786.57 1128.75 787.77 1119.00 789.00 C 1115.69 793.63 1115.00 798.32 1115.00 804.00 Z"/>
</g>
<g fill="None" fill-opacity="0.0" stroke="#CBA683" stroke-opacity="1.00" stroke-width="0.3"><path d=" M 537.00 810.00  C 537.00 803.33 537.00 796.67 537.00 790.00 C 536.40 796.23 536.39 803.71 537.00 810.00 Z"/>
</g>
<g fill="None" fill-opacity="0.0" stroke="#C29669" stroke-opacity="1.00" stroke-width="0.3"><path d=" M 628.00 999.00  C 621.06 992.06 612.83 985.39 606.00 978.00 C 612.18 985.83 620.28 992.91 628.00 999.00 Z"/>
</g>
<g fill="None" fill-opacity="0.0" stroke="#CD9E6E" stroke-opacity="1.00" stroke-width="0.3"><path d=" M 648.00 1015.00  C 644.04 1011.68 640.50 1007.90 636.00 1005.00 C 640.01 1008.30 643.38 1012.25 648.00 1015.00 Z"/>
</g>
<g fill="None" fill-opacity="0.0" stroke="#FDEFD2" stroke-opacity="1.00" stroke-width="0.3"><path d=" M 571.00 1015.00  C 551.93 1011.05 540.95 1030.42 529.30 1041.30 C 517.65 1052.17 507.49 1061.63 496.30 1073.30 C 485.12 1084.97 474.85 1095.01 463.25 1107.25 C 451.65 1119.49 439.98 1127.05 429.75 1140.75 C 419.53 1154.45 402.28 1159.03 401.00 1179.00 C 399.72 1198.97 428.12 1205.29 438.70 1189.70 C 449.28 1174.10 460.72 1169.48 472.25 1156.25 C 483.77 1143.02 493.79 1134.23 505.25 1122.25 C 516.70 1110.27 527.28 1100.77 539.25 1089.25 C 551.22 1077.73 559.66 1065.32 572.75 1055.75 C 585.85 1046.19 592.09 1019.37 571.00 1015.00 M 570.00 1018.00  C 570.50 1018.03 571.53 1017.87 572.00 1018.00 C 583.31 1021.10 585.84 1036.22 580.00 1045.00 C 570.46 1059.34 554.25 1069.83 542.75 1082.75 C 531.25 1095.67 517.64 1108.16 505.25 1120.25 C 492.86 1132.33 480.95 1146.78 467.75 1157.75 C 454.55 1168.72 444.74 1186.61 430.00 1195.00 C 412.51 1204.96 395.11 1185.37 406.00 1169.00 C 418.46 1150.28 439.69 1136.59 454.75 1119.75 C 469.81 1102.91 487.34 1086.36 503.75 1070.75 C 520.16 1055.15 534.93 1035.44 553.00 1022.00 C 558.14 1018.17 563.89 1015.40 570.00 1018.00 Z"/>
</g>
<g fill="None" fill-opacity="0.0" stroke="#F9E7C7" stroke-opacity="1.00" stroke-width="0.3"><path d=" M 1018.00 1050.00  C 1030.63 1058.38 1043.15 1070.08 1053.75 1081.25 C 1064.35 1092.42 1075.48 1104.34 1086.75 1115.25 C 1098.02 1126.16 1110.73 1136.53 1120.23 1148.77 C 1129.73 1161.01 1144.83 1169.51 1154.25 1181.75 C 1163.67 1194.00 1183.75 1209.88 1196.74 1191.74 C 1209.73 1173.61 1187.06 1160.47 1176.75 1149.25 C 1166.44 1138.03 1155.97 1125.43 1143.90 1115.10 C 1131.83 1104.77 1122.24 1093.13 1110.23 1081.77 C 1098.22 1070.40 1089.32 1059.38 1076.75 1048.25 C 1064.18 1037.11 1058.02 1023.88 1041.23 1016.77 C 1024.44 1009.66 1005.67 1032.07 1018.00 1050.00 M 1196.00 1173.00  C 1202.37 1189.22 1187.38 1201.61 1172.00 1196.00 C 1159.34 1191.38 1151.57 1174.56 1140.75 1166.25 C 1129.93 1157.94 1120.50 1145.20 1110.25 1135.75 C 1100.00 1126.30 1089.49 1115.37 1079.75 1105.25 C 1070.01 1095.13 1058.19 1085.51 1049.25 1074.75 C 1040.31 1064.00 1024.97 1055.48 1019.00 1043.00 C 1014.56 1033.72 1017.96 1023.52 1027.00 1019.00 C 1042.90 1011.05 1054.96 1031.19 1065.75 1041.25 C 1076.55 1051.31 1087.70 1063.08 1098.25 1073.75 C 1108.79 1084.43 1121.19 1095.64 1131.25 1106.75 C 1141.31 1117.86 1154.78 1127.56 1163.75 1139.25 C 1172.72 1150.93 1190.68 1159.46 1196.00 1173.00 Z"/>
</g>
<g fill="None" fill-opacity="0.0" stroke="#AE6221" stroke-opacity="1.00" stroke-width="0.3"><path d=" M 553.00 1022.00  C 535.83 1036.96 520.68 1055.34 504.25 1071.25 C 487.81 1087.16 470.61 1103.36 455.25 1120.25 C 439.89 1137.14 419.91 1151.21 406.00 1169.00 C 395.11 1185.37 412.51 1204.96 430.00 1195.00 C 441.31 1187.40 449.04 1173.57 459.75 1164.75 C 470.47 1155.93 479.56 1144.32 489.75 1134.75 C 499.94 1125.19 509.96 1114.77 519.75 1104.75 C 529.54 1094.73 540.51 1085.24 549.75 1074.75 C 559.00 1064.26 571.53 1055.84 580.00 1045.00 C 585.84 1036.22 583.31 1021.10 572.00 1018.00 C 574.92 1019.83 574.44 1021.93 573.00 1024.00 C 589.51 1027.12 578.36 1045.21 570.10 1052.10 C 561.84 1058.99 554.65 1068.87 546.25 1076.25 C 537.85 1083.63 529.94 1092.53 522.25 1100.25 C 514.56 1107.96 506.38 1116.19 498.25 1124.25 C 490.12 1132.31 482.57 1140.44 473.92 1147.92 C 465.26 1155.40 459.50 1163.90 450.25 1172.25 C 441.00 1180.60 435.76 1188.46 424.75 1194.75 C 413.74 1201.05 396.64 1182.45 407.00 1171.00 C 412.00 1169.85 415.73 1160.25 422.25 1155.25 C 428.76 1150.25 433.49 1143.24 439.10 1138.10 C 444.71 1132.96 450.71 1126.76 456.25 1121.25 C 461.79 1115.73 467.68 1109.81 473.25 1104.25 C 478.82 1098.69 484.15 1093.34 489.75 1087.75 C 495.36 1082.16 501.10 1076.36 506.75 1070.75 C 512.41 1065.14 518.05 1059.35 523.75 1053.75 C 529.45 1048.16 534.99 1042.28 540.75 1036.75 C 546.52 1031.22 551.83 1023.05 560.00 1024.00 C 557.87 1019.59 564.98 1017.23 570.00 1018.00 C 563.89 1015.40 558.14 1018.17 553.00 1022.00 Z"/>
</g>
<g fill="None" fill-opacity="0.0" stroke="#AB6224" stroke-opacity="1.00" stroke-width="0.3"><path d=" M 1027.00 1019.00  C 1039.83 1014.61 1048.17 1025.63 1056.25 1033.75 C 1064.32 1041.87 1071.40 1048.81 1079.25 1056.75 C 1087.09 1064.69 1095.06 1072.35 1102.75 1080.25 C 1110.44 1088.14 1118.26 1095.31 1125.75 1103.25 C 1133.25 1111.19 1142.11 1118.65 1149.25 1126.75 C 1156.39 1134.86 1165.91 1141.23 1172.25 1149.75 C 1178.59 1158.28 1191.06 1164.04 1196.00 1173.00 C 1190.68 1159.46 1172.72 1150.93 1163.75 1139.25 C 1154.78 1127.56 1141.31 1117.86 1131.25 1106.75 C 1121.19 1095.64 1108.79 1084.43 1098.25 1073.75 C 1087.70 1063.08 1076.55 1051.31 1065.75 1041.25 C 1054.96 1031.19 1042.90 1011.05 1027.00 1019.00 Z"/>
</g>
<g fill="None" fill-opacity="0.0" stroke="#C85504" stroke-opacity="1.00" stroke-width="0.3"><path d=" M 572.00 1018.00  C 571.53 1017.87 570.50 1018.03 570.00 1018.00 C 564.98 1017.23 557.87 1019.59 560.00 1024.00 C 551.83 1023.05 546.52 1031.22 540.75 1036.75 C 534.99 1042.28 529.45 1048.16 523.75 1053.75 C 518.05 1059.35 512.41 1065.14 506.75 1070.75 C 501.10 1076.36 495.36 1082.16 489.75 1087.75 C 484.15 1093.34 478.82 1098.69 473.25 1104.25 C 467.68 1109.81 461.79 1115.73 456.25 1121.25 C 450.71 1126.76 444.71 1132.96 439.10 1138.10 C 433.49 1143.24 428.76 1150.25 422.25 1155.25 C 415.73 1160.25 412.00 1169.85 407.00 1171.00 C 396.64 1182.45 413.74 1201.05 424.75 1194.75 C 435.76 1188.46 441.00 1180.60 450.25 1172.25 C 459.50 1163.90 465.26 1155.40 473.92 1147.92 C 482.57 1140.44 490.12 1132.31 498.25 1124.25 C 506.38 1116.19 514.56 1107.96 522.25 1100.25 C 529.94 1092.53 537.85 1083.63 546.25 1076.25 C 554.65 1068.87 561.84 1058.99 570.10 1052.10 C 578.36 1045.21 589.51 1027.12 573.00 1024.00 C 574.44 1021.93 574.92 1019.83 572.00 1018.00 Z"/>
</g>
<g fill="None" fill-opacity="0.0" stroke="#C75607" stroke-opacity="1.00" stroke-width="0.3"><path d=" M 1027.00 1019.00  C 1017.96 1023.52 1014.56 1033.72 1019.00 1043.00 C 1026.10 1054.70 1040.14 1063.08 1049.25 1073.75 C 1058.35 1084.43 1069.92 1094.13 1079.75 1104.25 C 1089.59 1114.36 1099.90 1125.23 1110.25 1134.75 C 1120.59 1144.27 1129.78 1156.76 1140.75 1165.25 C 1151.72 1173.73 1159.88 1190.27 1172.00 1196.00 C 1187.38 1201.61 1202.37 1189.22 1196.00 1173.00 C 1191.06 1164.04 1178.59 1158.28 1172.25 1149.75 C 1165.91 1141.23 1156.39 1134.86 1149.25 1126.75 C 1142.11 1118.65 1133.25 1111.19 1125.75 1103.25 C 1118.26 1095.31 1110.44 1088.14 1102.75 1080.25 C 1095.06 1072.35 1087.09 1064.69 1079.25 1056.75 C 1071.40 1048.81 1064.32 1041.87 1056.25 1033.75 C 1048.17 1025.63 1039.83 1014.61 1027.00 1019.00 Z"/>
</g>
<g fill="None" fill-opacity="0.0" stroke="#D4A877" stroke-opacity="1.00" stroke-width="0.3"><path d=" M 406.00 1169.00  C 419.91 1151.21 439.89 1137.14 455.25 1120.25 C 470.61 1103.36 487.81 1087.16 504.25 1071.25 C 520.68 1055.34 535.83 1036.96 553.00 1022.00 C 534.93 1035.44 520.16 1055.15 503.75 1070.75 C 487.34 1086.36 469.81 1102.91 454.75 1119.75 C 439.69 1136.59 418.46 1150.28 406.00 1169.00 Z"/>
</g>
<g fill="None" fill-opacity="0.0" stroke="#B47439" stroke-opacity="1.00" stroke-width="0.3"><path d=" M 718.00 1050.00  C 705.28 1043.21 691.50 1038.23 678.00 1033.00 C 690.58 1040.31 704.31 1045.01 718.00 1050.00 Z"/>
</g>
<g fill="None" fill-opacity="0.0" stroke="#CE9E6A" stroke-opacity="1.00" stroke-width="0.3"><path d=" M 1172.00 1196.00  C 1159.88 1190.27 1151.72 1173.73 1140.75 1165.25 C 1129.78 1156.76 1120.59 1144.27 1110.25 1134.75 C 1099.90 1125.23 1089.59 1114.36 1079.75 1104.25 C 1069.92 1094.13 1058.35 1084.43 1049.25 1073.75 C 1040.14 1063.08 1026.10 1054.70 1019.00 1043.00 C 1024.97 1055.48 1040.31 1064.00 1049.25 1074.75 C 1058.19 1085.51 1070.01 1095.13 1079.75 1105.25 C 1089.49 1115.37 1100.00 1126.30 1110.25 1135.75 C 1120.50 1145.20 1129.93 1157.94 1140.75 1166.25 C 1151.57 1174.56 1159.34 1191.38 1172.00 1196.00 Z"/>
</g>
<g fill="None" fill-opacity="0.0" stroke="#D4A670" stroke-opacity="1.00" stroke-width="0.3"><path d=" M 430.00 1195.00  C 444.74 1186.61 454.55 1168.72 467.75 1157.75 C 480.95 1146.78 492.86 1132.33 505.25 1120.25 C 517.64 1108.16 531.25 1095.67 542.75 1082.75 C 554.25 1069.83 570.46 1059.34 580.00 1045.00 C 571.53 1055.84 559.00 1064.26 549.75 1074.75 C 540.51 1085.24 529.54 1094.73 519.75 1104.75 C 509.96 1114.77 499.94 1125.19 489.75 1134.75 C 479.56 1144.32 470.47 1155.93 459.75 1164.75 C 449.04 1173.57 441.31 1187.40 430.00 1195.00 Z"/>
</g>
<g fill="None" fill-opacity="0.0" stroke="#BA773A" stroke-opacity="1.00" stroke-width="0.3"><path d=" M 815.00 1063.00  C 830.35 1062.42 845.70 1059.33 860.00 1056.00 C 844.77 1057.38 829.46 1060.41 815.00 1063.00 Z"/>
</g>
<g fill="None" fill-opacity="0.0" stroke="#FEF7DF" stroke-opacity="1.00" stroke-width="0.3"><path d=" M 792.00 1115.00  C 793.73 1114.57 795.12 1114.14 797.00 1114.00 C 805.93 1113.35 812.48 1117.29 816.00 1125.00 C 816.70 1126.53 817.51 1128.11 818.00 1130.00 C 823.51 1151.09 816.90 1175.64 819.00 1198.00 C 821.10 1220.36 817.41 1245.53 819.00 1268.00 C 820.59 1290.47 816.85 1314.89 819.00 1337.00 C 821.15 1359.11 782.42 1363.31 782.00 1342.00 C 781.99 1341.50 782.00 1341.00 782.00 1341.00 C 776.44 1333.49 782.79 1318.88 781.00 1309.00 C 779.21 1299.12 781.83 1285.66 781.00 1275.00 C 780.17 1264.34 781.41 1252.00 781.00 1241.00 C 780.59 1230.00 781.27 1218.11 781.00 1207.00 C 780.73 1195.89 781.31 1184.07 781.00 1173.00 C 780.69 1161.93 781.57 1149.86 781.00 1139.00 C 780.43 1128.14 782.66 1121.69 790.70 1115.70 C 777.94 1115.98 780.19 1134.12 780.00 1145.00 C 779.81 1155.88 780.02 1172.72 780.00 1185.00 C 779.98 1197.28 779.88 1213.20 780.00 1226.00 C 780.12 1238.80 779.64 1253.13 780.00 1266.00 C 780.36 1278.87 779.19 1294.48 780.00 1307.00 C 780.81 1319.52 777.57 1334.61 781.25 1345.75 C 784.92 1356.90 799.13 1360.75 809.25 1355.25 C 819.37 1349.76 820.63 1337.94 820.00 1326.00 C 819.37 1314.06 820.28 1297.70 820.00 1285.00 C 819.72 1272.30 820.10 1257.98 820.00 1245.00 C 819.90 1232.03 820.00 1216.88 820.00 1204.00 C 820.00 1191.12 819.90 1176.35 820.00 1164.00 C 820.10 1151.65 820.19 1134.85 818.97 1124.03 C 817.76 1113.20 797.12 1108.31 792.00 1115.00 Z"/>
</g>
<g fill="None" fill-opacity="0.0" stroke="#FDE6C0" stroke-opacity="1.00" stroke-width="0.3"><path d=" M 792.00 1115.00  C 792.00 1115.00 791.50 1114.96 791.00 1115.00 C 782.66 1121.69 780.43 1128.14 781.00 1139.00 C 781.57 1149.86 780.69 1161.93 781.00 1173.00 C 781.31 1184.07 780.73 1195.89 781.00 1207.00 C 781.27 1218.11 780.59 1230.00 781.00 1241.00 C 781.41 1252.00 780.17 1264.34 781.00 1275.00 C 781.83 1285.66 779.21 1299.12 781.00 1309.00 C 782.79 1318.88 776.44 1333.49 782.00 1341.00 C 781.95 1306.19 780.33 1269.64 782.00 1235.00 C 783.67 1200.36 777.02 1163.35 783.00 1130.00 C 783.53 1122.21 789.22 1115.10 797.00 1114.00 C 795.12 1114.14 793.73 1114.57 792.00 1115.00 Z"/>
</g>
<g fill="None" fill-opacity="0.0" stroke="#C55507" stroke-opacity="1.00" stroke-width="0.3"><path d=" M 783.00 1130.00  C 781.73 1148.59 783.27 1168.44 783.00 1187.00 C 782.73 1205.56 782.51 1226.88 783.00 1245.00 C 783.49 1263.12 781.42 1286.12 783.00 1303.00 C 784.58 1319.88 776.24 1342.35 791.00 1353.00 C 800.64 1358.91 812.11 1353.44 816.00 1344.00 C 820.63 1327.17 815.80 1307.72 817.00 1290.00 C 818.20 1272.28 816.97 1252.93 817.00 1235.00 C 817.03 1217.07 818.11 1197.87 817.00 1180.00 C 815.89 1162.13 820.37 1142.11 816.00 1125.00 C 812.48 1117.29 805.93 1113.35 797.00 1114.00 C 789.22 1115.10 783.53 1122.21 783.00 1130.00 Z"/>
</g>
<g fill="None" fill-opacity="0.0" stroke="#9C632C" stroke-opacity="1.00" stroke-width="0.3"><path d=" M 816.00 1344.00  C 822.28 1328.75 816.67 1309.13 818.00 1292.00 C 819.33 1274.87 817.81 1255.54 818.00 1238.00 C 818.19 1220.46 818.82 1201.63 818.00 1184.00 C 817.18 1166.37 820.39 1147.48 818.00 1130.00 C 817.51 1128.11 816.70 1126.53 816.00 1125.00 C 820.37 1142.11 815.89 1162.13 817.00 1180.00 C 818.11 1197.87 817.03 1217.07 817.00 1235.00 C 816.97 1252.93 818.20 1272.28 817.00 1290.00 C 815.80 1307.72 820.63 1327.17 816.00 1344.00 Z"/>
</g>
<g fill="None" fill-opacity="0.0" stroke="#A7743E" stroke-opacity="1.00" stroke-width="0.3"><path d=" M 782.00 1341.00  C 782.00 1341.00 781.99 1341.50 782.00 1342.00 C 784.94 1345.66 786.53 1350.26 791.00 1353.00 C 776.24 1342.35 784.58 1319.88 783.00 1303.00 C 781.42 1286.12 783.49 1263.12 783.00 1245.00 C 782.51 1226.88 782.73 1205.56 783.00 1187.00 C 783.27 1168.44 781.73 1148.59 783.00 1130.00 C 777.02 1163.35 783.67 1200.36 782.00 1235.00 C 780.33 1269.64 781.95 1306.19 782.00 1341.00 Z"/>
</g>
<g fill="None" fill-opacity="0.0" stroke="#FBDCB3" stroke-opacity="1.00" stroke-width="0.3"><path d=" M 816.00 1344.00  C 812.11 1353.44 800.64 1358.91 791.00 1353.00 C 786.53 1350.26 784.94 1345.66 782.00 1342.00 C 782.42 1363.31 821.15 1359.11 819.00 1337.00 C 816.85 1314.89 820.59 1290.47 819.00 1268.00 C 817.41 1245.53 821.10 1220.36 819.00 1198.00 C 816.90 1175.64 823.51 1151.09 818.00 1130.00 C 820.39 1147.48 817.18 1166.37 818.00 1184.00 C 818.82 1201.63 818.19 1220.46 818.00 1238.00 C 817.81 1255.54 819.33 1274.87 818.00 1292.00 C 816.67 1309.13 822.28 1328.75 816.00 1344.00 Z"/>
</g>
<g fill="#FFFFFD" fill-opacity="1.00" stroke="None">

</g>
<g fill="#FDEED3" fill-opacity="1.00" stroke="None">
<path d=" M 806.00 243.00  C 785.62 239.14 778.12 257.53 780.00 275.00 C 781.88 292.47 779.08 313.93 780.00 332.00 C 780.92 350.07 779.43 370.94 780.00 389.00 C 780.57 407.06 779.39 428.58 780.00 446.00 C 780.61 463.42 775.24 482.73 795.78 487.22 C 816.32 491.71 822.04 472.74 820.00 455.00 C 817.96 437.26 820.95 415.85 820.00 398.00 C 819.05 380.15 820.68 360.21 820.00 343.00 C 819.32 325.79 820.64 301.55 820.00 286.00 C 819.36 270.45 824.43 246.49 806.00 243.00 M 808.00 247.00  C 813.47 249.76 816.39 254.30 818.00 260.00 C 822.52 275.96 817.96 295.84 819.00 313.00 C 820.04 330.16 819.29 349.79 819.00 367.00 C 818.71 384.21 820.81 404.26 819.00 421.00 C 817.19 437.74 824.34 459.91 817.00 474.00 C 816.67 475.08 816.46 475.92 816.00 477.00 C 813.79 482.17 809.63 485.49 804.00 486.00 C 797.16 486.62 791.34 485.03 787.00 480.00 C 784.78 477.42 783.90 476.48 783.00 473.00 C 777.45 451.61 783.27 425.75 782.00 403.00 C 780.73 380.25 781.30 354.90 782.00 332.00 C 782.70 309.10 778.49 282.78 783.00 261.00 C 785.37 249.57 796.27 241.07 808.00 247.00 Z"/>
</g>
<g fill="#AA5311" fill-opacity="1.00" stroke="None">
<path d=" M 783.00 261.00  C 780.90 284.14 783.39 307.70 783.00 331.00 C 782.61 354.30 781.99 378.69 783.00 402.00 C 784.01 425.31 779.92 449.91 783.00 473.00 C 783.90 476.48 784.78 477.42 787.00 480.00 C 782.00 468.03 788.95 451.37 787.00 437.00 C 785.05 422.63 787.92 404.84 787.00 390.00 C 786.08 375.16 787.55 356.64 787.00 342.00 C 786.45 327.36 787.52 308.61 787.00 295.00 C 786.48 281.39 781.96 266.18 786.98 253.98 C 791.99 241.77 817.13 247.18 814.78 260.22 C 812.43 273.27 813.05 290.39 813.00 305.00 C 812.95 319.61 813.34 337.28 813.00 352.00 C 812.66 366.72 813.84 385.89 813.00 400.00 C 812.16 414.11 814.95 434.74 813.00 447.00 C 811.05 459.26 818.40 477.04 808.00 484.00 C 811.10 482.53 814.35 479.86 816.00 477.00 C 816.46 475.92 816.67 475.08 817.00 474.00 C 817.28 473.08 817.81 471.96 818.00 471.00 C 820.18 437.02 814.46 400.88 817.00 366.00 C 819.54 331.12 813.85 294.88 817.00 260.00 C 815.08 254.90 812.74 250.03 808.00 247.00 C 796.27 241.07 785.37 249.57 783.00 261.00 Z"/>
</g>
<g fill="#C0894F" fill-opacity="1.00" stroke="None">
<path d=" M 817.00 260.00  C 817.06 260.16 818.00 260.00 818.00 260.00 C 816.39 254.30 813.47 249.76 808.00 247.00 C 812.74 250.03 815.08 254.90 817.00 260.00 Z"/>
</g>
<g fill="#CC5701" fill-opacity="1.00" stroke="None">
<path d=" M 787.00 480.00  C 791.34 485.03 797.16 486.62 804.00 486.00 C 804.88 485.79 806.88 484.53 808.00 484.00 C 818.40 477.04 811.05 459.26 813.00 447.00 C 814.95 434.74 812.16 414.11 813.00 400.00 C 813.84 385.89 812.66 366.72 813.00 352.00 C 813.34 337.28 812.95 319.61 813.00 305.00 C 813.05 290.39 812.43 273.27 814.78 260.22 C 817.13 247.18 791.99 241.77 786.98 253.98 C 781.96 266.18 786.48 281.39 787.00 295.00 C 787.52 308.61 786.45 327.36 787.00 342.00 C 787.55 356.64 786.08 375.16 787.00 390.00 C 787.92 404.84 785.05 422.63 787.00 437.00 C 788.95 451.37 782.00 468.03 787.00 480.00 Z"/>
</g>
<g fill="#935B2C" fill-opacity="1.00" stroke="None">
<path d=" M 818.00 471.00  C 821.34 454.22 816.65 436.21 818.00 419.00 C 819.35 401.79 817.66 383.43 818.00 366.00 C 818.34 348.57 818.45 330.49 818.00 313.00 C 817.55 295.51 819.53 277.43 818.00 260.00 C 818.00 260.00 817.06 260.16 817.00 260.00 C 813.85 294.88 819.54 331.12 817.00 366.00 C 814.46 400.88 820.18 437.02 818.00 471.00 Z"/>
</g>
<g fill="#F8D6B5" fill-opacity="1.00" stroke="None">
<path d=" M 818.00 471.00  C 817.81 471.96 817.28 473.08 817.00 474.00 C 824.34 459.91 817.19 437.74 819.00 421.00 C 820.81 404.26 818.71 384.21 819.00 367.00 C 819.29 349.79 820.04 330.16 819.00 313.00 C 817.96 295.84 822.52 275.96 818.00 260.00 C 819.53 277.43 817.55 295.51 818.00 313.00 C 818.45 330.49 818.34 348.57 818.00 366.00 C 817.66 383.43 819.35 401.79 818.00 419.00 C 816.65 436.21 821.34 454.22 818.00 471.00 Z"/>
</g>
<g fill="#9A6C41" fill-opacity="1.00" stroke="None">
<path d=" M 783.00 473.00  C 779.92 449.91 784.01 425.31 783.00 402.00 C 781.99 378.69 782.61 354.30 783.00 331.00 C 783.39 307.70 780.90 284.14 783.00 261.00 C 778.49 282.78 782.70 309.10 782.00 332.00 C 781.30 354.90 780.73 380.25 782.00 403.00 C 783.27 425.75 777.45 451.61 783.00 473.00 Z"/>
</g>
<g fill="#FDEDD1" fill-opacity="1.00" stroke="None">
<path d=" M 428.00 401.00  C 410.10 396.15 394.24 415.46 402.25 429.75 C 410.26 444.04 422.14 446.64 430.25 458.75 C 438.36 470.87 449.59 476.53 458.25 486.75 C 466.92 496.96 478.31 504.44 487.25 514.75 C 496.19 525.06 506.55 533.45 515.75 543.25 C 524.96 553.05 535.01 561.61 543.30 571.70 C 551.58 581.80 570.12 592.32 581.23 579.23 C 592.34 566.14 580.12 550.96 569.75 542.25 C 559.39 533.54 551.28 522.66 541.25 513.75 C 531.21 504.85 522.70 494.06 512.75 485.25 C 502.81 476.44 494.96 465.55 484.75 457.25 C 474.54 448.94 467.67 435.00 456.70 428.30 C 445.72 421.61 439.92 404.23 428.00 401.00 M 430.00 405.00  C 444.81 413.43 454.54 431.28 467.75 442.25 C 480.96 453.22 492.86 467.67 505.25 479.75 C 517.64 491.83 531.25 504.33 542.75 517.25 C 554.26 530.16 570.50 540.72 580.00 555.00 C 586.39 564.60 583.12 576.58 573.00 581.00 C 565.89 584.10 559.41 582.77 553.00 578.00 C 541.82 569.69 533.02 557.72 522.75 548.25 C 512.48 538.78 502.59 528.12 492.75 518.25 C 482.91 508.38 472.06 498.43 462.75 488.25 C 453.44 478.07 441.07 468.86 432.75 458.25 C 424.43 447.63 407.84 439.66 404.00 427.00 C 399.19 411.14 414.30 396.06 430.00 405.00 Z"/>
</g>
<g fill="#FDEACE" fill-opacity="1.00" stroke="None">
<path d=" M 1018.00 580.00  C 1036.75 595.57 1053.02 575.52 1064.75 562.75 C 1076.49 549.99 1089.28 537.96 1101.75 525.75 C 1114.22 513.54 1125.79 500.68 1137.77 488.77 C 1149.75 476.86 1163.78 463.92 1174.75 451.75 C 1185.73 439.59 1211.75 425.84 1195.25 406.75 C 1178.75 387.65 1161.51 412.31 1149.75 423.75 C 1137.99 435.20 1124.18 448.28 1112.75 460.75 C 1101.31 473.22 1087.90 484.09 1075.75 496.75 C 1063.60 509.42 1051.31 522.10 1039.10 534.10 C 1026.89 546.10 1006.13 559.85 1018.00 580.00 M 1196.00 428.00  C 1191.65 440.23 1175.39 447.64 1167.25 458.25 C 1159.11 468.85 1146.48 478.07 1137.25 488.25 C 1128.02 498.43 1117.05 508.38 1107.25 518.25 C 1097.45 528.12 1087.49 538.78 1077.25 548.25 C 1067.00 557.72 1058.11 569.74 1047.00 578.00 C 1030.39 590.35 1009.05 573.83 1020.00 555.00 C 1028.49 540.40 1045.88 530.84 1056.75 517.75 C 1067.62 504.66 1081.88 493.14 1093.75 480.75 C 1105.63 468.37 1118.17 455.47 1130.75 443.75 C 1143.33 432.03 1154.30 417.19 1168.00 407.00 C 1183.38 395.57 1202.45 409.85 1196.00 428.00 Z"/>
</g>
<g fill="#C6570B" fill-opacity="1.00" stroke="None">
<path d=" M 404.00 427.00  C 405.35 430.48 409.12 433.54 412.00 436.00 C 425.77 447.77 436.65 461.60 450.25 473.75 C 463.85 485.91 475.73 500.24 489.08 511.92 C 502.44 523.59 513.55 538.69 526.75 550.25 C 539.96 561.81 553.51 584.49 573.00 581.00 C 583.12 576.58 586.39 564.60 580.00 555.00 C 571.48 544.10 559.00 535.75 549.75 525.25 C 540.50 514.75 529.54 505.27 519.75 495.25 C 509.96 485.22 499.94 474.82 489.75 465.25 C 479.57 455.68 470.46 444.07 459.75 435.25 C 449.04 426.42 441.25 412.56 430.00 405.00 C 414.30 396.06 399.19 411.14 404.00 427.00 Z"/>
</g>
<g fill="#C5570A" fill-opacity="1.00" stroke="None">
<path d=" M 1168.00 407.00  C 1155.04 418.29 1143.82 432.38 1131.25 444.25 C 1118.68 456.12 1106.18 468.79 1094.25 481.25 C 1082.32 493.71 1068.27 505.12 1057.25 518.25 C 1046.22 531.37 1029.51 541.13 1020.00 555.00 C 1009.05 573.83 1030.39 590.35 1047.00 578.00 C 1057.39 568.94 1066.05 557.73 1076.25 548.25 C 1086.44 538.77 1096.45 528.15 1106.25 518.25 C 1116.04 508.35 1126.99 498.50 1136.25 488.25 C 1145.51 478.00 1158.01 469.01 1166.25 458.25 C 1174.48 447.48 1190.55 439.91 1196.00 428.00 C 1202.45 409.85 1183.38 395.57 1168.00 407.00 Z"/>
</g>
<g fill="#CA9B6E" fill-opacity="1.00" stroke="None">
<path d=" M 580.00 555.00  C 570.50 540.72 554.26 530.16 542.75 517.25 C 531.25 504.33 517.64 491.83 505.25 479.75 C 492.86 467.67 480.96 453.22 467.75 442.25 C 454.54 431.28 444.81 413.43 430.00 405.00 C 441.25 412.56 449.04 426.42 459.75 435.25 C 470.46 444.07 479.57 455.68 489.75 465.25 C 499.94 474.82 509.96 485.22 519.75 495.25 C 529.54 505.27 540.50 514.75 549.75 525.25 C 559.00 535.75 571.48 544.10 580.00 555.00 Z"/>
</g>
<g fill="#D2A376" fill-opacity="1.00" stroke="None">
<path d=" M 1020.00 555.00  C 1029.51 541.13 1046.22 531.37 1057.25 518.25 C 1068.27 505.12 1082.32 493.71 1094.25 481.25 C 1106.18 468.79 1118.68 456.12 1131.25 444.25 C 1143.82 432.38 1155.04 418.29 1168.00 407.00 C 1154.30 417.19 1143.33 432.03 1130.75 443.75 C 1118.17 455.47 1105.63 468.37 1093.75 480.75 C 1081.88 493.14 1067.62 504.66 1056.75 517.75 C 1045.88 530.84 1028.49 540.40 1020.00 555.00 Z"/>
</g>
<g fill="#E0B384" fill-opacity="1.00" stroke="None">
<path d=" M 553.00 578.00  C 528.06 556.26 507.10 529.87 482.75 507.25 C 458.40 484.63 435.43 459.43 412.00 436.00 C 409.12 433.54 405.35 430.48 404.00 427.00 C 407.84 439.66 424.43 447.63 432.75 458.25 C 441.07 468.86 453.44 478.07 462.75 488.25 C 472.06 498.43 482.91 508.38 492.75 518.25 C 502.59 528.12 512.48 538.78 522.75 548.25 C 533.02 557.72 541.82 569.69 553.00 578.00 Z"/>
</g>
<g fill="#DCAC80" fill-opacity="1.00" stroke="None">
<path d=" M 1047.00 578.00  C 1058.11 569.74 1067.00 557.72 1077.25 548.25 C 1087.49 538.78 1097.45 528.12 1107.25 518.25 C 1117.05 508.38 1128.02 498.43 1137.25 488.25 C 1146.48 478.07 1159.11 468.85 1167.25 458.25 C 1175.39 447.64 1191.65 440.23 1196.00 428.00 C 1190.55 439.91 1174.48 447.48 1166.25 458.25 C 1158.01 469.01 1145.51 478.00 1136.25 488.25 C 1126.99 498.50 1116.04 508.35 1106.25 518.25 C 1096.45 528.15 1086.44 538.77 1076.25 548.25 C 1066.05 557.73 1057.39 568.94 1047.00 578.00 Z"/>
</g>
<g fill="#AB6327" fill-opacity="1.00" stroke="None">
<path d=" M 553.00 578.00  C 559.41 582.77 565.89 584.10 573.00 581.00 C 553.51 584.49 539.96 561.81 526.75 550.25 C 513.55 538.69 502.44 523.59 489.08 511.92 C 475.73 500.24 463.85 485.91 450.25 473.75 C 436.65 461.60 425.77 447.77 412.00 436.00 C 435.43 459.43 458.40 484.63 482.75 507.25 C 507.10 529.87 528.06 556.26 553.00 578.00 Z"/>
</g>
<g fill="#E2B182" fill-opacity="1.00" stroke="None">
<path d=" M 808.00 484.00  C 806.88 484.53 804.88 485.79 804.00 486.00 C 809.63 485.49 813.79 482.17 816.00 477.00 C 814.35 479.86 811.10 482.53 808.00 484.00 Z"/>
</g>
<g fill="#F7E0C0" fill-opacity="1.00" stroke="None">
<path d=" M 556.00 900.00  C 555.80 890.43 548.35 882.80 547.02 872.98 C 545.70 863.15 541.55 854.10 540.22 843.78 C 538.89 833.45 537.00 820.89 537.00 810.00 C 536.39 803.71 536.40 796.23 537.00 790.00 C 537.00 720.10 569.78 658.24 619.75 608.75 C 669.72 559.26 741.43 535.59 812.00 537.00 C 832.85 537.42 852.80 541.80 872.00 547.00 C 898.02 550.72 923.33 567.01 945.25 580.75 C 967.16 594.50 984.58 611.63 1002.25 631.75 C 1019.92 651.87 1032.66 673.66 1042.93 699.07 C 1053.19 724.49 1063.00 758.10 1063.00 787.00 C 1064.27 800.09 1063.23 814.27 1062.00 827.00 C 1062.00 863.05 1043.47 904.32 1026.23 934.23 C 1008.99 964.14 986.82 990.64 958.30 1010.30 C 929.78 1029.96 895.20 1052.80 860.00 1056.00 C 845.70 1059.33 830.35 1062.42 815.00 1063.00 C 781.94 1064.26 747.92 1060.91 718.00 1050.00 C 704.31 1045.01 690.58 1040.31 678.00 1033.00 C 667.87 1027.11 658.05 1020.97 648.00 1015.00 C 643.38 1012.25 640.01 1008.30 636.00 1005.00 C 633.35 1003.29 630.64 1001.08 628.00 999.00 C 620.28 992.91 612.18 985.83 606.00 978.00 C 596.47 965.93 587.71 954.51 578.70 942.30 C 569.68 930.10 565.61 912.19 556.00 901.00 C 564.95 924.29 577.39 946.92 593.75 966.25 C 610.11 985.57 625.96 1000.97 646.92 1016.08 C 667.88 1031.20 688.47 1042.19 713.93 1051.07 C 739.39 1059.96 774.43 1065.69 803.00 1065.00 C 831.57 1064.31 864.58 1059.69 889.77 1049.77 C 914.96 1039.86 935.47 1029.46 956.75 1013.75 C 978.03 998.04 991.80 983.31 1008.75 962.75 C 1025.69 942.18 1035.07 923.32 1046.03 898.03 C 1056.98 872.73 1062.84 843.73 1065.00 814.00 C 1067.16 784.27 1059.30 750.01 1056.00 721.00 C 1050.18 715.38 1049.13 705.70 1044.78 698.22 C 1040.43 690.75 1037.79 682.48 1034.25 674.75 C 1030.72 667.01 1026.68 659.74 1021.75 653.25 C 1016.82 646.76 1011.70 640.49 1006.77 634.23 C 1001.84 627.97 996.27 621.90 990.90 616.10 C 985.53 610.30 979.11 605.15 973.25 599.75 C 967.38 594.36 958.55 590.43 956.00 583.00 C 948.64 581.52 940.51 576.79 937.00 570.00 C 925.44 568.76 917.84 560.82 907.23 557.77 C 896.61 554.72 891.52 547.17 880.67 545.33 C 869.82 543.49 856.51 541.57 845.07 538.93 C 833.64 536.29 820.90 536.25 808.67 534.33 C 796.44 532.41 782.78 535.77 771.00 537.00 C 759.22 538.23 746.23 540.51 735.07 543.07 C 723.92 545.64 714.14 548.82 704.07 553.07 C 694.01 557.33 685.23 561.71 675.75 565.75 C 666.26 569.78 656.90 574.73 649.08 581.08 C 641.25 587.42 634.82 593.43 627.25 600.25 C 619.67 607.07 611.94 611.76 605.77 619.77 C 599.60 627.78 592.67 634.64 586.92 642.92 C 581.17 651.19 575.26 658.39 570.25 667.25 C 565.24 676.11 560.94 684.88 556.92 694.92 C 552.91 704.97 547.98 714.77 544.93 724.93 C 541.87 735.08 540.74 747.92 538.00 759.00 C 535.26 770.08 535.77 785.03 535.00 797.00 C 534.23 808.97 535.68 825.27 537.67 836.33 C 539.66 847.39 541.13 861.27 544.00 871.00 C 546.87 880.73 548.04 893.89 556.00 900.00 Z"/>
</g>
<g fill="#C45506" fill-opacity="1.00" stroke="None">
<path d=" M 537.00 790.00  C 537.00 796.67 537.00 803.33 537.00 810.00 C 537.00 820.89 538.89 833.45 540.22 843.78 C 541.55 854.10 545.70 863.15 547.02 872.98 C 548.35 882.80 555.80 890.43 556.00 900.00 C 556.00 900.00 555.99 900.50 556.00 901.00 C 565.61 912.19 569.68 930.10 578.70 942.30 C 587.71 954.51 596.47 965.93 606.00 978.00 C 612.83 985.39 621.06 992.06 628.00 999.00 C 630.64 1001.08 633.35 1003.29 636.00 1005.00 C 640.50 1007.90 644.04 1011.68 648.00 1015.00 C 658.05 1020.97 667.87 1027.11 678.00 1033.00 C 691.50 1038.23 705.28 1043.21 718.00 1050.00 C 747.92 1060.91 781.94 1064.26 815.00 1063.00 C 829.46 1060.41 844.77 1057.38 860.00 1056.00 C 895.20 1052.80 929.78 1029.96 958.30 1010.30 C 986.82 990.64 1008.99 964.14 1026.23 934.23 C 1043.47 904.32 1062.00 863.05 1062.00 827.00 C 1062.00 813.85 1063.00 800.46 1063.00 787.00 C 1063.00 758.10 1053.19 724.49 1042.93 699.07 C 1032.66 673.66 1019.92 651.87 1002.25 631.75 C 984.58 611.63 967.16 594.50 945.25 580.75 C 923.33 567.01 898.02 550.72 872.00 547.00 C 852.83 544.26 832.09 539.87 812.00 537.00 C 741.43 535.59 669.72 559.26 619.75 608.75 C 569.78 658.24 537.00 720.10 537.00 790.00 Z"/>
</g>
<g fill="#B46D34" fill-opacity="1.00" stroke="None">
<path d=" M 872.00 547.00  C 852.80 541.80 832.85 537.42 812.00 537.00 C 832.09 539.87 852.83 544.26 872.00 547.00 Z"/>
</g>
<g fill="#FDE7C9" fill-opacity="1.00" stroke="None">
<path d=" M 480.00 782.00  C 459.28 777.97 436.44 781.01 415.00 780.00 C 393.56 778.99 369.02 781.50 348.00 780.00 C 326.98 778.50 300.72 783.00 281.00 780.00 C 261.28 777.00 235.72 783.81 243.08 806.92 C 250.43 830.04 278.63 817.48 297.00 820.00 C 315.37 822.52 340.79 818.85 359.92 820.07 C 379.05 821.28 400.45 819.52 421.00 820.00 C 441.55 820.48 461.44 820.61 481.00 819.00 C 482.24 812.52 488.50 807.32 487.99 800.01 C 487.48 792.69 483.53 788.04 480.00 782.00 M 471.00 782.00  C 491.49 784.93 490.85 819.10 467.99 817.99 C 445.14 816.89 420.82 818.66 398.00 818.00 C 375.18 817.34 351.55 818.63 329.00 818.00 C 306.45 817.37 281.13 819.16 259.33 817.67 C 237.53 816.18 240.08 781.03 262.01 782.01 C 283.93 782.98 309.48 781.04 332.00 782.00 C 354.52 782.96 378.30 780.41 401.00 782.00 C 423.70 783.59 448.43 778.78 471.00 782.00 Z"/>
</g>
<g fill="#FDE7C9" fill-opacity="1.00" stroke="None">
<path d=" M 1342.00 780.00  C 1318.95 777.21 1293.05 781.11 1270.00 780.00 C 1246.95 778.89 1221.52 780.11 1199.00 780.00 C 1176.48 779.89 1148.16 779.23 1127.01 780.01 C 1105.86 780.79 1107.41 819.51 1128.33 819.67 C 1149.25 819.83 1177.67 820.48 1200.00 820.00 C 1222.33 819.52 1248.31 820.96 1271.00 820.00 C 1293.69 819.04 1320.49 822.16 1342.78 819.78 C 1365.07 817.40 1360.46 782.23 1342.00 780.00 M 1115.00 806.00  C 1114.92 805.51 1115.00 804.50 1115.00 804.00 C 1108.43 788.53 1126.71 780.16 1141.00 782.00 C 1155.29 783.84 1175.44 781.13 1191.00 782.00 C 1206.56 782.87 1226.08 781.47 1242.00 782.00 C 1257.92 782.53 1276.33 781.48 1292.00 782.00 C 1307.68 782.52 1326.99 780.99 1341.67 782.33 C 1356.35 783.67 1361.79 804.83 1350.25 813.25 C 1338.70 821.66 1319.99 817.30 1305.00 818.00 C 1290.01 818.70 1270.49 817.78 1255.00 818.00 C 1239.51 818.22 1219.09 818.08 1204.00 818.00 C 1188.92 817.92 1167.45 818.46 1154.00 818.00 C 1140.55 817.54 1117.78 822.29 1115.00 806.00 Z"/>
</g>
<g fill="#B25F1D" fill-opacity="1.00" stroke="None">
<path d=" M 471.00 782.00  C 448.43 778.78 423.70 783.59 401.00 782.00 C 378.30 780.41 354.52 782.96 332.00 782.00 C 309.48 781.04 283.93 782.98 262.01 782.01 C 240.08 781.03 237.53 816.18 259.33 817.67 C 281.13 819.16 306.45 817.37 329.00 818.00 C 351.55 818.63 375.18 817.34 398.00 818.00 C 420.82 818.66 445.14 816.89 467.99 817.99 C 490.85 819.10 491.49 784.93 471.00 782.00 M 481.00 812.00  C 470.73 812.64 459.23 813.23 447.00 813.00 C 434.77 812.77 421.41 813.06 409.00 813.00 C 396.59 812.94 383.44 812.92 371.00 813.00 C 358.56 813.08 345.30 812.72 333.00 813.00 C 320.70 813.28 306.93 812.34 295.00 813.00 C 283.07 813.66 268.06 811.51 257.00 813.00 C 245.94 814.49 243.79 789.81 253.08 787.08 C 262.37 784.35 278.87 788.14 290.00 787.00 C 301.13 785.86 316.04 787.51 328.00 787.00 C 339.96 786.49 353.68 787.22 366.00 787.00 C 378.32 786.78 391.56 787.07 404.00 787.00 C 416.44 786.93 429.58 786.98 442.00 787.00 C 454.42 787.02 463.81 785.84 475.22 787.78 C 486.63 789.72 487.32 803.80 481.00 812.00 Z"/>
</g>
<g fill="#B25F1E" fill-opacity="1.00" stroke="None">
<path d=" M 1115.00 804.00  C 1115.00 798.32 1115.69 793.63 1119.00 789.00 C 1128.75 787.77 1139.08 786.57 1151.00 787.00 C 1162.92 787.43 1175.88 786.85 1188.00 787.00 C 1200.13 787.15 1212.81 787.03 1225.00 787.00 C 1237.19 786.97 1249.84 787.23 1262.00 787.00 C 1274.16 786.77 1285.89 787.62 1298.00 787.00 C 1310.11 786.38 1322.97 788.36 1335.00 787.00 C 1347.03 785.64 1356.48 790.24 1353.80 803.25 C 1351.13 816.25 1340.20 813.04 1329.00 813.00 C 1317.80 812.96 1303.72 813.03 1292.00 813.00 C 1280.28 812.97 1267.96 813.04 1256.00 813.00 C 1244.04 812.96 1231.04 813.08 1219.00 813.00 C 1206.96 812.92 1193.92 813.17 1182.00 813.00 C 1170.08 812.83 1156.52 813.38 1145.00 813.00 C 1133.48 812.62 1121.68 816.38 1115.00 806.00 C 1117.78 822.29 1140.55 817.54 1154.00 818.00 C 1167.45 818.46 1188.92 817.92 1204.00 818.00 C 1219.09 818.08 1239.51 818.22 1255.00 818.00 C 1270.49 817.78 1290.01 818.70 1305.00 818.00 C 1319.99 817.30 1338.70 821.66 1350.25 813.25 C 1361.79 804.83 1356.35 783.67 1341.67 782.33 C 1326.99 780.99 1307.68 782.52 1292.00 782.00 C 1276.33 781.48 1257.92 782.53 1242.00 782.00 C 1226.08 781.47 1206.56 782.87 1191.00 782.00 C 1175.44 781.13 1155.29 783.84 1141.00 782.00 C 1126.71 780.16 1108.43 788.53 1115.00 804.00 Z"/>
</g>
<g fill="#CB5805" fill-opacity="1.00" stroke="None">
<path d=" M 481.00 812.00  C 487.32 803.80 486.63 789.72 475.22 787.78 C 463.81 785.84 454.42 787.02 442.00 787.00 C 429.58 786.98 416.44 786.93 404.00 787.00 C 391.56 787.07 378.32 786.78 366.00 787.00 C 353.68 787.22 339.96 786.49 328.00 787.00 C 316.04 787.51 301.13 785.86 290.00 787.00 C 278.87 788.14 262.37 784.35 253.08 787.08 C 243.79 789.81 245.94 814.49 257.00 813.00 C 268.06 811.51 283.07 813.66 295.00 813.00 C 306.93 812.34 320.70 813.28 333.00 813.00 C 345.30 812.72 358.56 813.08 371.00 813.00 C 383.44 812.92 396.59 812.94 409.00 813.00 C 421.41 813.06 434.77 812.77 447.00 813.00 C 459.23 813.23 470.73 812.64 481.00 812.00 Z"/>
</g>
<g fill="#D3A980" fill-opacity="1.00" stroke="None">
<path d=" M 1062.00 827.00  C 1063.23 814.27 1064.27 800.09 1063.00 787.00 C 1063.00 800.46 1062.00 813.85 1062.00 827.00 Z"/>
</g>
<g fill="#CB5806" fill-opacity="1.00" stroke="None">
<path d=" M 1115.00 804.00  C 1115.00 804.50 1114.92 805.51 1115.00 806.00 C 1121.68 816.38 1133.48 812.62 1145.00 813.00 C 1156.52 813.38 1170.08 812.83 1182.00 813.00 C 1193.92 813.17 1206.96 812.92 1219.00 813.00 C 1231.04 813.08 1244.04 812.96 1256.00 813.00 C 1267.96 813.04 1280.28 812.97 1292.00 813.00 C 1303.72 813.03 1317.80 812.96 1329.00 813.00 C 1340.20 813.04 1351.13 816.25 1353.80 803.25 C 1356.48 790.24 1347.03 785.64 1335.00 787.00 C 1322.97 788.36 1310.11 786.38 1298.00 787.00 C 1285.89 787.62 1274.16 786.77 1262.00 787.00 C 1249.84 787.23 1237.19 786.97 1225.00 787.00 C 1212.81 787.03 1200.13 787.15 1188.00 787.00 C 1175.88 786.85 1162.92 787.43 1151.00 787.00 C 1139.08 786.57 1128.75 787.77 1119.00 789.00 C 1115.69 793.63 1115.00 798.32 1115.00 804.00 Z"/>
</g>
<g fill="#CBA683" fill-opacity="1.00" stroke="None">
<path d=" M 537.00 810.00  C 537.00 803.33 537.00 796.67 537.00 790.00 C 536.40 796.23 536.39 803.71 537.00 810.00 Z"/>
</g>
<g fill="#C29669" fill-opacity="1.00" stroke="None">
<path d=" M 628.00 999.00  C 621.06 992.06 612.83 985.39 606.00 978.00 C 612.18 985.83 620.28 992.91 628.00 999.00 Z"/>
</g>
<g fill="#CD9E6E" fill-opacity="1.00" stroke="None">
<path d=" M 648.00 1015.00  C 644.04 1011.68 640.50 1007.90 636.00 1005.00 C 640.01 1008.30 643.38 1012.25 648.00 1015.00 Z"/>
</g>
<g fill="#FDEFD2" fill-opacity="1.00" stroke="None">
<path d=" M 571.00 1015.00  C 551.93 1011.05 540.95 1030.42 529.30 1041.30 C 517.65 1052.17 507.49 1061.63 496.30 1073.30 C 485.12 1084.97 474.85 1095.01 463.25 1107.25 C 451.65 1119.49 439.98 1127.05 429.75 1140.75 C 419.53 1154.45 402.28 1159.03 401.00 1179.00 C 399.72 1198.97 428.12 1205.29 438.70 1189.70 C 449.28 1174.10 460.72 1169.48 472.25 1156.25 C 483.77 1143.02 493.79 1134.23 505.25 1122.25 C 516.70 1110.27 527.28 1100.77 539.25 1089.25 C 551.22 1077.73 559.66 1065.32 572.75 1055.75 C 585.85 1046.19 592.09 1019.37 571.00 1015.00 M 570.00 1018.00  C 570.50 1018.03 571.53 1017.87 572.00 1018.00 C 583.31 1021.10 585.84 1036.22 580.00 1045.00 C 570.46 1059.34 554.25 1069.83 542.75 1082.75 C 531.25 1095.67 517.64 1108.16 505.25 1120.25 C 492.86 1132.33 480.95 1146.78 467.75 1157.75 C 454.55 1168.72 444.74 1186.61 430.00 1195.00 C 412.51 1204.96 395.11 1185.37 406.00 1169.00 C 418.46 1150.28 439.69 1136.59 454.75 1119.75 C 469.81 1102.91 487.34 1086.36 503.75 1070.75 C 520.16 1055.15 534.93 1035.44 553.00 1022.00 C 558.14 1018.17 563.89 1015.40 570.00 1018.00 Z"/>
</g>
<g fill="#F9E7C7" fill-opacity="1.00" stroke="None">
<path d=" M 1018.00 1050.00  C 1030.63 1058.38 1043.15 1070.08 1053.75 1081.25 C 1064.35 1092.42 1075.48 1104.34 1086.75 1115.25 C 1098.02 1126.16 1110.73 1136.53 1120.23 1148.77 C 1129.73 1161.01 1144.83 1169.51 1154.25 1181.75 C 1163.67 1194.00 1183.75 1209.88 1196.74 1191.74 C 1209.73 1173.61 1187.06 1160.47 1176.75 1149.25 C 1166.44 1138.03 1155.97 1125.43 1143.90 1115.10 C 1131.83 1104.77 1122.24 1093.13 1110.23 1081.77 C 1098.22 1070.40 1089.32 1059.38 1076.75 1048.25 C 1064.18 1037.11 1058.02 1023.88 1041.23 1016.77 C 1024.44 1009.66 1005.67 1032.07 1018.00 1050.00 M 1196.00 1173.00  C 1202.37 1189.22 1187.38 1201.61 1172.00 1196.00 C 1159.34 1191.38 1151.57 1174.56 1140.75 1166.25 C 1129.93 1157.94 1120.50 1145.20 1110.25 1135.75 C 1100.00 1126.30 1089.49 1115.37 1079.75 1105.25 C 1070.01 1095.13 1058.19 1085.51 1049.25 1074.75 C 1040.31 1064.00 1024.97 1055.48 1019.00 1043.00 C 1014.56 1033.72 1017.96 1023.52 1027.00 1019.00 C 1042.90 1011.05 1054.96 1031.19 1065.75 1041.25 C 1076.55 1051.31 1087.70 1063.08 1098.25 1073.75 C 1108.79 1084.43 1121.19 1095.64 1131.25 1106.75 C 1141.31 1117.86 1154.78 1127.56 1163.75 1139.25 C 1172.72 1150.93 1190.68 1159.46 1196.00 1173.00 Z"/>
</g>
<g fill="#AE6221" fill-opacity="1.00" stroke="None">
<path d=" M 553.00 1022.00  C 535.83 1036.96 520.68 1055.34 504.25 1071.25 C 487.81 1087.16 470.61 1103.36 455.25 1120.25 C 439.89 1137.14 419.91 1151.21 406.00 1169.00 C 395.11 1185.37 412.51 1204.96 430.00 1195.00 C 441.31 1187.40 449.04 1173.57 459.75 1164.75 C 470.47 1155.93 479.56 1144.32 489.75 1134.75 C 499.94 1125.19 509.96 1114.77 519.75 1104.75 C 529.54 1094.73 540.51 1085.24 549.75 1074.75 C 559.00 1064.26 571.53 1055.84 580.00 1045.00 C 585.84 1036.22 583.31 1021.10 572.00 1018.00 C 574.92 1019.83 574.44 1021.93 573.00 1024.00 C 589.51 1027.12 578.36 1045.21 570.10 1052.10 C 561.84 1058.99 554.65 1068.87 546.25 1076.25 C 537.85 1083.63 529.94 1092.53 522.25 1100.25 C 514.56 1107.96 506.38 1116.19 498.25 1124.25 C 490.12 1132.31 482.57 1140.44 473.92 1147.92 C 465.26 1155.40 459.50 1163.90 450.25 1172.25 C 441.00 1180.60 435.76 1188.46 424.75 1194.75 C 413.74 1201.05 396.64 1182.45 407.00 1171.00 C 412.00 1169.85 415.73 1160.25 422.25 1155.25 C 428.76 1150.25 433.49 1143.24 439.10 1138.10 C 444.71 1132.96 450.71 1126.76 456.25 1121.25 C 461.79 1115.73 467.68 1109.81 473.25 1104.25 C 478.82 1098.69 484.15 1093.34 489.75 1087.75 C 495.36 1082.16 501.10 1076.36 506.75 1070.75 C 512.41 1065.14 518.05 1059.35 523.75 1053.75 C 529.45 1048.16 534.99 1042.28 540.75 1036.75 C 546.52 1031.22 551.83 1023.05 560.00 1024.00 C 557.87 1019.59 564.98 1017.23 570.00 1018.00 C 563.89 1015.40 558.14 1018.17 553.00 1022.00 Z"/>
</g>
<g fill="#AB6224" fill-opacity="1.00" stroke="None">
<path d=" M 1027.00 1019.00  C 1039.83 1014.61 1048.17 1025.63 1056.25 1033.75 C 1064.32 1041.87 1071.40 1048.81 1079.25 1056.75 C 1087.09 1064.69 1095.06 1072.35 1102.75 1080.25 C 1110.44 1088.14 1118.26 1095.31 1125.75 1103.25 C 1133.25 1111.19 1142.11 1118.65 1149.25 1126.75 C 1156.39 1134.86 1165.91 1141.23 1172.25 1149.75 C 1178.59 1158.28 1191.06 1164.04 1196.00 1173.00 C 1190.68 1159.46 1172.72 1150.93 1163.75 1139.25 C 1154.78 1127.56 1141.31 1117.86 1131.25 1106.75 C 1121.19 1095.64 1108.79 1084.43 1098.25 1073.75 C 1087.70 1063.08 1076.55 1051.31 1065.75 1041.25 C 1054.96 1031.19 1042.90 1011.05 1027.00 1019.00 Z"/>
</g>
<g fill="#C85504" fill-opacity="1.00" stroke="None">
<path d=" M 572.00 1018.00  C 571.53 1017.87 570.50 1018.03 570.00 1018.00 C 564.98 1017.23 557.87 1019.59 560.00 1024.00 C 551.83 1023.05 546.52 1031.22 540.75 1036.75 C 534.99 1042.28 529.45 1048.16 523.75 1053.75 C 518.05 1059.35 512.41 1065.14 506.75 1070.75 C 501.10 1076.36 495.36 1082.16 489.75 1087.75 C 484.15 1093.34 478.82 1098.69 473.25 1104.25 C 467.68 1109.81 461.79 1115.73 456.25 1121.25 C 450.71 1126.76 444.71 1132.96 439.10 1138.10 C 433.49 1143.24 428.76 1150.25 422.25 1155.25 C 415.73 1160.25 412.00 1169.85 407.00 1171.00 C 396.64 1182.45 413.74 1201.05 424.75 1194.75 C 435.76 1188.46 441.00 1180.60 450.25 1172.25 C 459.50 1163.90 465.26 1155.40 473.92 1147.92 C 482.57 1140.44 490.12 1132.31 498.25 1124.25 C 506.38 1116.19 514.56 1107.96 522.25 1100.25 C 529.94 1092.53 537.85 1083.63 546.25 1076.25 C 554.65 1068.87 561.84 1058.99 570.10 1052.10 C 578.36 1045.21 589.51 1027.12 573.00 1024.00 C 574.44 1021.93 574.92 1019.83 572.00 1018.00 Z"/>
</g>
<g fill="#C75607" fill-opacity="1.00" stroke="None">
<path d=" M 1027.00 1019.00  C 1017.96 1023.52 1014.56 1033.72 1019.00 1043.00 C 1026.10 1054.70 1040.14 1063.08 1049.25 1073.75 C 1058.35 1084.43 1069.92 1094.13 1079.75 1104.25 C 1089.59 1114.36 1099.90 1125.23 1110.25 1134.75 C 1120.59 1144.27 1129.78 1156.76 1140.75 1165.25 C 1151.72 1173.73 1159.88 1190.27 1172.00 1196.00 C 1187.38 1201.61 1202.37 1189.22 1196.00 1173.00 C 1191.06 1164.04 1178.59 1158.28 1172.25 1149.75 C 1165.91 1141.23 1156.39 1134.86 1149.25 1126.75 C 1142.11 1118.65 1133.25 1111.19 1125.75 1103.25 C 1118.26 1095.31 1110.44 1088.14 1102.75 1080.25 C 1095.06 1072.35 1087.09 1064.69 1079.25 1056.75 C 1071.40 1048.81 1064.32 1041.87 1056.25 1033.75 C 1048.17 1025.63 1039.83 1014.61 1027.00 1019.00 Z"/>
</g>
<g fill="#D4A877" fill-opacity="1.00" stroke="None">
<path d=" M 406.00 1169.00  C 419.91 1151.21 439.89 1137.14 455.25 1120.25 C 470.61 1103.36 487.81 1087.16 504.25 1071.25 C 520.68 1055.34 535.83 1036.96 553.00 1022.00 C 534.93 1035.44 520.16 1055.15 503.75 1070.75 C 487.34 1086.36 469.81 1102.91 454.75 1119.75 C 439.69 1136.59 418.46 1150.28 406.00 1169.00 Z"/>
</g>
<g fill="#B47439" fill-opacity="1.00" stroke="None">
<path d=" M 718.00 1050.00  C 705.28 1043.21 691.50 1038.23 678.00 1033.00 C 690.58 1040.31 704.31 1045.01 718.00 1050.00 Z"/>
</g>
<g fill="#CE9E6A" fill-opacity="1.00" stroke="None">
<path d=" M 1172.00 1196.00  C 1159.88 1190.27 1151.72 1173.73 1140.75 1165.25 C 1129.78 1156.76 1120.59 1144.27 1110.25 1134.75 C 1099.90 1125.23 1089.59 1114.36 1079.75 1104.25 C 1069.92 1094.13 1058.35 1084.43 1049.25 1073.75 C 1040.14 1063.08 1026.10 1054.70 1019.00 1043.00 C 1024.97 1055.48 1040.31 1064.00 1049.25 1074.75 C 1058.19 1085.51 1070.01 1095.13 1079.75 1105.25 C 1089.49 1115.37 1100.00 1126.30 1110.25 1135.75 C 1120.50 1145.20 1129.93 1157.94 1140.75 1166.25 C 1151.57 1174.56 1159.34 1191.38 1172.00 1196.00 Z"/>
</g>
<g fill="#D4A670" fill-opacity="1.00" stroke="None">
<path d=" M 430.00 1195.00  C 444.74 1186.61 454.55 1168.72 467.75 1157.75 C 480.95 1146.78 492.86 1132.33 505.25 1120.25 C 517.64 1108.16 531.25 1095.67 542.75 1082.75 C 554.25 1069.83 570.46 1059.34 580.00 1045.00 C 571.53 1055.84 559.00 1064.26 549.75 1074.75 C 540.51 1085.24 529.54 1094.73 519.75 1104.75 C 509.96 1114.77 499.94 1125.19 489.75 1134.75 C 479.56 1144.32 470.47 1155.93 459.75 1164.75 C 449.04 1173.57 441.31 1187.40 430.00 1195.00 Z"/>
</g>
<g fill="#BA773A" fill-opacity="1.00" stroke="None">
<path d=" M 815.00 1063.00  C 830.35 1062.42 845.70 1059.33 860.00 1056.00 C 844.77 1057.38 829.46 1060.41 815.00 1063.00 Z"/>
</g>
<g fill="#FEF7DF" fill-opacity="1.00" stroke="None">
<path d=" M 792.00 1115.00  C 793.73 1114.57 795.12 1114.14 797.00 1114.00 C 805.93 1113.35 812.48 1117.29 816.00 1125.00 C 816.70 1126.53 817.51 1128.11 818.00 1130.00 C 823.51 1151.09 816.90 1175.64 819.00 1198.00 C 821.10 1220.36 817.41 1245.53 819.00 1268.00 C 820.59 1290.47 816.85 1314.89 819.00 1337.00 C 821.15 1359.11 782.42 1363.31 782.00 1342.00 C 781.99 1341.50 782.00 1341.00 782.00 1341.00 C 776.44 1333.49 782.79 1318.88 781.00 1309.00 C 779.21 1299.12 781.83 1285.66 781.00 1275.00 C 780.17 1264.34 781.41 1252.00 781.00 1241.00 C 780.59 1230.00 781.27 1218.11 781.00 1207.00 C 780.73 1195.89 781.31 1184.07 781.00 1173.00 C 780.69 1161.93 781.57 1149.86 781.00 1139.00 C 780.43 1128.14 782.66 1121.69 790.70 1115.70 C 777.94 1115.98 780.19 1134.12 780.00 1145.00 C 779.81 1155.88 780.02 1172.72 780.00 1185.00 C 779.98 1197.28 779.88 1213.20 780.00 1226.00 C 780.12 1238.80 779.64 1253.13 780.00 1266.00 C 780.36 1278.87 779.19 1294.48 780.00 1307.00 C 780.81 1319.52 777.57 1334.61 781.25 1345.75 C 784.92 1356.90 799.13 1360.75 809.25 1355.25 C 819.37 1349.76 820.63 1337.94 820.00 1326.00 C 819.37 1314.06 820.28 1297.70 820.00 1285.00 C 819.72 1272.30 820.10 1257.98 820.00 1245.00 C 819.90 1232.03 820.00 1216.88 820.00 1204.00 C 820.00 1191.12 819.90 1176.35 820.00 1164.00 C 820.10 1151.65 820.19 1134.85 818.97 1124.03 C 817.76 1113.20 797.12 1108.31 792.00 1115.00 Z"/>
</g>
<g fill="#FDE6C0" fill-opacity="1.00" stroke="None">
<path d=" M 792.00 1115.00  C 792.00 1115.00 791.50 1114.96 791.00 1115.00 C 782.66 1121.69 780.43 1128.14 781.00 1139.00 C 781.57 1149.86 780.69 1161.93 781.00 1173.00 C 781.31 1184.07 780.73 1195.89 781.00 1207.00 C 781.27 1218.11 780.59 1230.00 781.00 1241.00 C 781.41 1252.00 780.17 1264.34 781.00 1275.00 C 781.83 1285.66 779.21 1299.12 781.00 1309.00 C 782.79 1318.88 776.44 1333.49 782.00 1341.00 C 781.95 1306.19 780.33 1269.64 782.00 1235.00 C 783.67 1200.36 777.02 1163.35 783.00 1130.00 C 783.53 1122.21 789.22 1115.10 797.00 1114.00 C 795.12 1114.14 793.73 1114.57 792.00 1115.00 Z"/>
</g>
<g fill="#C55507" fill-opacity="1.00" stroke="None">
<path d=" M 783.00 1130.00  C 781.73 1148.59 783.27 1168.44 783.00 1187.00 C 782.73 1205.56 782.51 1226.88 783.00 1245.00 C 783.49 1263.12 781.42 1286.12 783.00 1303.00 C 784.58 1319.88 776.24 1342.35 791.00 1353.00 C 800.64 1358.91 812.11 1353.44 816.00 1344.00 C 820.63 1327.17 815.80 1307.72 817.00 1290.00 C 818.20 1272.28 816.97 1252.93 817.00 1235.00 C 817.03 1217.07 818.11 1197.87 817.00 1180.00 C 815.89 1162.13 820.37 1142.11 816.00 1125.00 C 812.48 1117.29 805.93 1113.35 797.00 1114.00 C 789.22 1115.10 783.53 1122.21 783.00 1130.00 Z"/>
</g>
<g fill="#9C632C" fill-opacity="1.00" stroke="None">
<path d=" M 816.00 1344.00  C 822.28 1328.75 816.67 1309.13 818.00 1292.00 C 819.33 1274.87 817.81 1255.54 818.00 1238.00 C 818.19 1220.46 818.82 1201.63 818.00 1184.00 C 817.18 1166.37 820.39 1147.48 818.00 1130.00 C 817.51 1128.11 816.70 1126.53 816.00 1125.00 C 820.37 1142.11 815.89 1162.13 817.00 1180.00 C 818.11 1197.87 817.03 1217.07 817.00 1235.00 C 816.97 1252.93 818.20 1272.28 817.00 1290.00 C 815.80 1307.72 820.63 1327.17 816.00 1344.00 Z"/>
</g>
<g fill="#A7743E" fill-opacity="1.00" stroke="None">
<path d=" M 782.00 1341.00  C 782.00 1341.00 781.99 1341.50 782.00 1342.00 C 784.94 1345.66 786.53 1350.26 791.00 1353.00 C 776.24 1342.35 784.58 1319.88 783.00 1303.00 C 781.42 1286.12 783.49 1263.12 783.00 1245.00 C 782.51 1226.88 782.73 1205.56 783.00 1187.00 C 783.27 1168.44 781.73 1148.59 783.00 1130.00 C 777.02 1163.35 783.67 1200.36 782.00 1235.00 C 780.33 1269.64 781.95 1306.19 782.00 1341.00 Z"/>
</g>
<g fill="#FBDCB3" fill-opacity="1.00" stroke="None">
<path d=" M 816.00 1344.00  C 812.11 1353.44 800.64 1358.91 791.00 1353.00 C 786.53 1350.26 784.94 1345.66 782.00 1342.00 C 782.42 1363.31 821.15 1359.11 819.00 1337.00 C 816.85 1314.89 820.59 1290.47 819.00 1268.00 C 817.41 1245.53 821.10 1220.36 819.00 1198.00 C 816.90 1175.64 823.51 1151.09 818.00 1130.00 C 820.39 1147.48 817.18 1166.37 818.00 1184.00 C 818.82 1201.63 818.19 1220.46 818.00 1238.00 C 817.81 1255.54 819.33 1274.87 818.00 1292.00 C 816.67 1309.13 822.28 1328.75 816.00 1344.00 Z"/>
</g>
</svg>