<svg aria-hidden="true" xmlns="http://www.w3.org/2000/svg" xmlns:v="https://svgstorm.com" viewBox="0 0 1600 1300" width="1600" height="1300">
<g fill="None" fill-opacity="0.0" stroke="#c76767ff" stroke-opacity="1.00" stroke-width="0.3"><path d=" M 713.00 347.00  C 717.30 358.36 720.77 365.68 733.08 370.92 C 745.39 376.16 736.68 392.20 735.07 403.07 C 733.47 413.95 746.49 423.52 750.00 433.00 C 745.78 424.87 728.07 421.80 727.03 411.97 C 725.99 402.15 734.57 382.11 721.92 377.08 C 709.27 372.05 706.11 365.30 696.00 358.00 C 689.50 356.23 685.74 363.42 681.30 369.30 C 676.86 375.19 673.96 381.88 669.92 387.92 C 665.89 393.97 663.58 400.69 659.93 406.93 C 656.27 413.16 655.48 422.55 651.32 428.32 C 647.16 434.09 649.28 445.57 644.00 450.00 C 688.17 440.38 736.03 448.16 770.70 477.30 C 805.36 506.45 822.67 543.08 825.00 587.00 C 826.27 587.28 828.50 586.24 829.00 588.00 C 834.05 589.66 842.29 588.95 847.07 590.93 C 851.86 592.91 859.75 592.70 863.67 595.33 C 867.60 597.96 876.93 597.82 879.00 602.00 C 883.48 555.76 912.19 496.27 966.00 492.00 C 964.62 488.15 963.68 484.05 963.00 480.00 C 961.46 470.92 958.89 460.97 956.93 452.07 C 954.96 443.18 952.36 435.40 948.92 427.08 C 945.48 418.75 942.67 412.59 938.77 404.23 C 934.87 395.87 931.79 391.51 927.75 382.25 C 923.72 372.98 916.05 383.97 913.00 390.00 C 910.14 395.65 909.41 402.73 905.00 408.00 C 904.05 410.58 900.31 416.77 900.00 419.00 C 902.70 427.56 910.47 447.04 904.75 454.75 C 899.04 462.46 885.45 467.11 878.25 474.25 C 871.06 481.40 859.60 487.35 852.00 494.00 C 861.89 484.56 867.53 476.08 877.25 466.25 C 886.98 456.43 898.30 447.10 890.07 432.93 C 881.85 418.75 886.36 405.33 893.31 392.31 C 900.25 379.28 900.99 360.85 899.00 346.00 C 890.19 334.61 879.92 327.88 868.08 319.92 C 856.23 311.96 842.12 306.97 828.02 302.98 C 813.93 298.98 791.94 299.83 778.00 303.00 C 764.07 306.17 747.05 309.77 736.08 318.08 C 725.12 326.39 707.31 331.95 713.00 347.00 Z"/>
</g>
<g fill="None" fill-opacity="0.0" stroke="#6A4625" stroke-opacity="1.00" stroke-width="0.3"><path d=" M 900.00 419.00  C 897.87 412.24 900.75 413.07 905.00 408.00 C 909.41 402.73 910.14 395.65 913.00 390.00 C 912.65 382.88 906.83 374.38 906.99 367.01 C 907.15 359.63 903.05 351.23 899.00 346.00 C 900.99 360.85 900.25 379.28 893.31 392.31 C 886.36 405.33 881.85 418.75 890.07 432.93 C 898.30 447.10 886.98 456.43 877.25 466.25 C 867.53 476.08 861.89 484.56 852.00 494.00 C 859.60 487.35 871.06 481.40 878.25 474.25 C 885.45 467.11 899.04 462.46 904.75 454.75 C 910.47 447.04 902.70 427.56 900.00 419.00 Z"/>
</g>
<g fill="None" fill-opacity="0.0" stroke="#6B4724" stroke-opacity="1.00" stroke-width="0.3"><path d=" M 696.00 358.00  C 706.11 365.30 709.27 372.05 721.92 377.08 C 734.57 382.11 725.99 402.15 727.03 411.97 C 728.07 421.80 745.78 424.87 750.00 433.00 C 746.49 423.52 733.47 413.95 735.07 403.07 C 736.68 392.20 745.39 376.16 733.08 370.92 C 720.77 365.68 717.30 358.36 713.00 347.00 C 713.31 351.37 710.63 354.91 710.00 359.00 C 705.25 359.06 700.42 359.20 696.00 358.00 Z"/>
</g>
<g fill="None" fill-opacity="0.0" stroke="#8D6540" stroke-opacity="1.00" stroke-width="0.3"><path d=" M 900.00 419.00  C 900.31 416.77 904.05 410.58 905.00 408.00 C 900.75 413.07 897.87 412.24 900.00 419.00 Z"/>
</g>
<g fill="None" fill-opacity="0.0" stroke="#AE8B5C" stroke-opacity="1.00" stroke-width="0.3"><path d=" M 644.00 450.00  C 638.04 451.30 628.36 453.28 623.23 456.23 C 618.10 459.18 607.86 461.45 607.00 467.00 C 607.49 470.49 614.52 474.39 616.75 478.25 C 618.99 482.11 623.96 484.89 626.92 489.08 C 629.88 493.28 634.52 496.81 632.00 503.00 C 629.48 509.20 630.54 516.29 630.00 523.00 C 638.47 529.32 658.48 524.44 664.90 533.10 C 671.32 541.77 670.73 559.19 674.00 568.00 C 672.24 559.21 666.32 556.86 664.23 547.77 C 662.13 538.68 653.35 536.58 645.00 536.00 C 636.65 535.43 627.28 529.87 622.75 538.75 C 618.22 547.63 614.75 548.97 609.00 556.00 C 611.07 546.71 617.24 537.93 619.93 528.93 C 622.61 519.92 619.01 518.25 620.00 509.00 C 620.99 499.75 606.42 494.09 599.33 491.67 C 592.23 489.25 588.28 489.13 588.00 487.00 C 581.06 487.14 581.28 482.59 574.75 489.75 C 568.22 496.91 562.38 502.93 557.30 511.30 C 552.23 519.68 548.07 527.54 543.98 536.98 C 539.88 546.41 537.89 557.15 535.78 567.78 C 533.66 578.41 534.00 592.46 534.00 604.00 C 538.36 606.74 545.56 598.51 552.08 596.08 C 558.59 593.64 565.95 588.62 573.68 586.68 C 581.40 584.74 590.31 581.77 599.00 581.00 C 607.69 580.23 619.33 579.28 628.22 580.78 C 637.11 582.28 645.63 582.91 654.00 586.00 C 684.36 597.21 709.19 612.31 727.75 641.25 C 746.32 670.18 752.81 708.65 747.00 743.00 C 747.22 742.40 750.34 738.15 750.00 740.00 C 747.88 734.19 750.03 728.88 750.00 723.00 C 750.00 722.00 750.00 721.00 750.00 720.00 C 750.00 714.87 749.75 709.81 751.00 705.00 C 758.43 710.64 766.34 716.79 773.00 723.00 C 773.00 718.66 783.76 713.94 785.00 710.00 C 785.00 691.49 786.67 672.61 786.00 654.00 C 785.33 635.39 786.12 624.32 787.00 606.00 C 787.88 587.68 785.04 566.92 791.00 550.00 C 818.34 541.71 811.09 576.60 811.20 595.25 C 811.31 613.89 808.15 643.17 813.00 661.00 C 815.04 649.62 821.91 640.18 822.78 627.78 C 823.64 615.38 827.66 601.20 826.00 588.00 C 827.00 588.00 828.00 588.00 829.00 588.00 C 828.50 586.24 826.27 587.28 825.00 587.00 C 822.67 543.08 805.36 506.45 770.70 477.30 C 736.03 448.16 688.17 440.38 644.00 450.00 Z"/>
</g>
<g fill="None" fill-opacity="0.0" stroke="#684623" stroke-opacity="1.00" stroke-width="0.3"><path d=" M 588.00 487.00  C 588.28 489.13 592.23 489.25 599.33 491.67 C 606.42 494.09 620.99 499.75 620.00 509.00 C 619.01 518.25 622.61 519.92 619.93 528.93 C 617.24 537.93 611.07 546.71 609.00 556.00 C 614.75 548.97 618.22 547.63 622.75 538.75 C 627.28 529.87 636.65 535.43 645.00 536.00 C 653.35 536.58 662.13 538.68 664.23 547.77 C 666.32 556.86 672.24 559.21 674.00 568.00 C 670.73 559.19 671.32 541.77 664.90 533.10 C 658.48 524.44 638.47 529.32 630.00 523.00 C 630.54 516.29 629.48 509.20 632.00 503.00 C 634.52 496.81 629.88 493.28 626.92 489.08 C 623.96 484.89 618.99 482.11 616.75 478.25 C 614.52 474.39 607.49 470.49 607.00 467.00 C 606.44 470.61 611.21 483.41 604.22 483.22 C 597.23 483.03 593.46 486.89 588.00 487.00 Z"/>
</g>
<g fill="None" fill-opacity="0.0" stroke="#EADCC7" stroke-opacity="1.00" stroke-width="0.3"><path d=" M 966.00 492.00  C 971.36 491.57 977.65 491.45 983.00 492.00 C 978.33 489.68 971.50 491.65 966.00 491.00 C 966.73 486.90 963.94 483.23 963.00 480.00 C 963.68 484.05 964.62 488.15 966.00 492.00 Z"/>
</g>
<g fill="None" fill-opacity="0.0" stroke="#B38050" stroke-opacity="1.00" stroke-width="0.3"><path d=" M 879.00 602.00  C 878.07 611.60 879.73 624.03 879.99 633.01 C 880.26 641.99 886.54 649.55 885.00 659.00 C 890.90 651.96 897.95 646.68 905.08 641.08 C 912.21 635.49 920.48 630.83 929.08 627.08 C 937.67 623.32 948.66 618.76 958.08 617.08 C 967.49 615.39 984.84 614.16 994.00 615.00 C 1003.16 615.84 1023.30 615.17 1018.00 626.00 C 1022.17 630.54 1022.55 640.72 1032.00 639.00 C 1036.56 635.61 1041.24 628.73 1047.67 631.33 C 1054.10 633.93 1058.15 636.53 1064.00 640.00 C 1064.28 638.72 1063.24 636.50 1065.00 636.00 C 1065.13 635.60 1065.97 634.13 1066.00 634.00 C 1065.71 626.37 1066.98 618.50 1067.00 611.00 C 1067.02 603.50 1066.54 596.54 1065.33 589.67 C 1064.11 582.80 1063.00 577.49 1060.98 571.02 C 1058.95 564.56 1057.15 559.71 1054.78 553.22 C 1052.40 546.74 1049.91 544.90 1047.25 537.75 C 1044.60 530.59 1037.61 532.71 1032.00 532.00 C 1029.05 533.54 1027.54 538.97 1024.00 540.00 C 1037.13 554.31 1022.69 568.86 1014.00 581.00 C 1014.19 572.14 1015.58 561.50 1017.93 551.93 C 1020.28 542.36 1015.30 528.37 1024.00 522.00 C 1025.67 522.24 1024.17 524.85 1026.00 525.00 C 1026.02 524.00 1025.99 523.00 1026.00 522.00 C 1025.39 519.26 1025.45 517.04 1027.00 514.00 C 1018.87 506.43 1009.44 500.68 1000.00 496.00 C 994.40 494.35 988.67 493.26 983.00 492.00 C 977.65 491.45 971.36 491.57 966.00 492.00 C 912.19 496.27 883.48 555.76 879.00 602.00 Z"/>
</g>
<g fill="None" fill-opacity="0.0" stroke="#D6C5AE" stroke-opacity="1.00" stroke-width="0.3"><path d=" M 1026.00 522.00  C 1025.21 518.89 1027.74 516.78 1028.00 514.00 C 1019.70 506.06 1010.81 499.19 1000.00 496.00 C 1009.44 500.68 1018.87 506.43 1027.00 514.00 C 1025.45 517.04 1025.39 519.26 1026.00 522.00 Z"/>
</g>
<g fill="None" fill-opacity="0.0" stroke="#613E1E" stroke-opacity="1.00" stroke-width="0.3"><path d=" M 1032.00 532.00  C 1028.14 531.51 1025.92 528.62 1026.00 525.00 C 1024.17 524.85 1025.67 522.24 1024.00 522.00 C 1015.30 528.37 1020.28 542.36 1017.93 551.93 C 1015.58 561.50 1014.19 572.14 1014.00 581.00 C 1022.69 568.86 1037.13 554.31 1024.00 540.00 C 1027.54 538.97 1029.05 533.54 1032.00 532.00 Z"/>
</g>
<g fill="None" fill-opacity="0.0" stroke="#A3927A" stroke-opacity="1.00" stroke-width="0.3"><path d=" M 785.00 710.00  C 785.00 717.75 785.39 725.59 784.00 733.00 C 779.55 730.98 776.04 726.71 773.00 723.00 C 766.34 716.79 758.43 710.64 751.00 705.00 C 749.75 709.81 750.00 714.87 750.00 720.00 C 752.32 726.28 764.34 727.88 767.75 734.25 C 771.17 740.61 781.55 743.94 782.00 752.00 C 770.97 742.67 759.30 734.16 750.00 723.00 C 750.03 728.88 747.88 734.19 750.00 740.00 C 753.52 749.65 761.59 754.52 770.23 761.77 C 778.87 769.02 785.33 777.44 783.00 791.00 C 780.67 804.56 782.72 817.51 781.07 831.07 C 779.42 844.63 781.20 859.39 780.00 873.00 C 778.80 886.61 779.15 900.16 779.00 914.00 C 778.85 927.84 779.49 941.45 778.00 955.00 C 776.51 968.55 777.04 983.05 777.00 997.00 C 776.00 997.00 775.00 997.00 774.00 997.00 C 778.43 1015.42 775.04 1036.99 775.00 1057.00 C 774.96 1077.01 772.78 1097.74 773.00 1118.00 C 773.22 1138.26 771.58 1157.85 771.00 1178.00 C 770.42 1198.15 769.65 1218.79 769.00 1239.00 C 768.35 1259.21 768.29 1279.69 768.00 1300.00 C 789.00 1300.00 810.00 1300.00 831.00 1300.00 C 828.02 1199.32 824.78 1098.72 822.00 998.00 C 824.42 998.82 827.25 997.31 829.00 997.00 C 826.67 997.11 824.33 996.92 822.00 997.00 C 819.42 956.40 819.70 915.08 819.00 874.00 C 837.66 858.89 852.95 838.29 871.00 822.00 C 868.58 818.00 866.61 813.87 864.00 810.00 C 862.30 815.02 853.22 818.31 850.25 823.25 C 847.28 828.19 839.19 831.44 835.00 835.00 C 840.34 822.63 852.83 815.74 863.00 808.00 C 861.32 804.46 860.18 800.43 858.00 797.00 C 843.60 808.54 831.45 823.99 817.00 835.00 C 816.40 776.82 812.23 719.53 813.00 661.00 C 808.15 643.17 811.31 613.89 811.20 595.25 C 811.09 576.60 818.34 541.71 791.00 550.00 C 785.04 566.92 787.88 587.68 787.00 606.00 C 786.12 624.32 785.33 635.39 786.00 654.00 C 786.67 672.61 785.00 691.49 785.00 710.00 M 798.00 601.00  C 799.23 621.12 805.73 637.06 805.00 658.00 C 804.27 678.94 804.74 700.99 804.00 722.00 C 799.58 682.92 795.25 640.98 798.00 601.00 M 786.00 763.00  C 807.07 785.47 791.15 815.78 792.00 843.00 C 790.60 816.84 791.42 787.24 786.00 763.00 M 832.00 845.00  C 824.61 862.03 810.50 870.49 810.00 891.00 C 809.50 911.51 810.47 937.50 810.00 959.00 C 809.53 980.50 811.18 1006.07 809.00 1027.00 C 808.24 966.54 774.97 889.98 832.00 845.00 M 787.00 1017.00  C 787.67 1042.51 796.05 1067.42 796.00 1093.00 C 795.95 1118.58 787.33 1142.65 786.00 1168.00 C 783.72 1144.21 792.85 1116.54 788.00 1092.00 C 783.16 1067.46 784.15 1041.82 787.00 1017.00 M 811.00 1104.00  C 813.08 1133.21 812.89 1163.04 816.00 1192.00 C 819.11 1220.97 814.66 1248.98 809.00 1276.00 C 802.98 1264.37 806.81 1248.21 806.00 1234.00 C 805.19 1219.79 806.70 1204.22 807.00 1190.00 C 807.30 1175.78 809.44 1161.49 809.00 1147.00 C 808.56 1132.52 809.65 1117.65 811.00 1104.00 Z"/>
</g>
<g fill="None" fill-opacity="0.0" stroke="#D6B98D" stroke-opacity="1.00" stroke-width="0.3"><path d=" M 534.00 604.00  C 534.00 604.50 533.87 605.54 534.00 606.00 C 534.90 609.18 527.54 612.90 523.25 616.25 C 518.96 619.60 523.56 629.58 522.00 633.00 C 522.02 633.50 522.06 634.51 522.00 635.00 C 529.14 637.01 531.29 651.27 532.00 659.00 C 544.05 658.27 556.15 657.50 568.00 656.00 C 574.21 670.74 580.66 685.33 587.00 700.00 C 582.92 691.45 575.87 688.29 572.23 678.77 C 568.59 669.25 559.85 662.57 550.00 666.00 C 540.15 669.42 526.53 673.03 523.23 663.77 C 519.93 654.51 514.29 645.74 516.00 638.00 C 508.29 640.99 499.41 643.09 495.77 651.77 C 492.13 660.45 487.94 666.49 485.93 675.93 C 483.91 685.36 481.30 694.78 481.00 705.00 C 480.70 715.22 481.45 726.89 482.00 737.00 C 482.65 741.58 484.28 747.97 490.00 749.00 C 491.91 749.34 494.06 748.89 496.00 749.00 C 506.63 749.62 517.23 755.57 525.25 762.75 C 533.27 769.93 545.89 776.80 542.00 790.00 C 556.60 793.67 568.99 803.83 585.01 802.99 C 601.03 802.15 619.71 797.71 636.00 797.00 C 652.29 796.29 653.78 778.13 661.30 766.30 C 668.82 754.48 681.13 749.99 692.75 740.75 C 704.37 731.51 704.21 711.66 705.00 697.00 C 705.79 682.34 696.33 667.32 690.23 654.77 C 684.13 642.22 700.10 620.13 686.25 610.75 C 672.39 601.38 666.60 595.54 654.00 586.00 C 645.63 582.91 637.11 582.28 628.22 580.78 C 619.33 579.28 607.69 580.23 599.00 581.00 C 590.31 581.77 581.40 584.74 573.68 586.68 C 565.95 588.62 558.59 593.64 552.08 596.08 C 545.56 598.51 538.36 606.74 534.00 604.00 Z"/>
</g>
<g fill="None" fill-opacity="0.0" stroke="#C39663" stroke-opacity="1.00" stroke-width="0.3"><path d=" M 496.00 749.00  C 496.58 749.14 497.80 750.79 499.00 750.00 C 497.77 752.17 497.78 754.68 497.00 757.00 C 498.85 758.13 502.62 761.26 501.00 763.00 C 503.27 765.64 505.28 768.10 507.00 771.00 C 514.52 783.66 521.55 795.85 526.01 809.99 C 530.47 824.14 543.88 830.67 556.92 837.08 C 569.97 843.48 586.56 847.65 601.00 850.00 C 665.26 860.44 736.38 805.85 747.00 743.00 C 752.81 708.65 746.32 670.18 727.75 641.25 C 709.19 612.31 684.36 597.21 654.00 586.00 C 666.60 595.54 672.39 601.38 686.25 610.75 C 700.10 620.13 684.13 642.22 690.23 654.77 C 696.33 667.32 705.79 682.34 705.00 697.00 C 704.21 711.66 704.37 731.51 692.75 740.75 C 681.13 749.99 668.82 754.48 661.30 766.30 C 653.78 778.13 652.29 796.29 636.00 797.00 C 619.71 797.71 601.03 802.15 585.01 802.99 C 568.99 803.83 556.60 793.67 542.00 790.00 C 545.89 776.80 533.27 769.93 525.25 762.75 C 517.23 755.57 506.63 749.62 496.00 749.00 Z"/>
</g>
<g fill="None" fill-opacity="0.0" stroke="#997148" stroke-opacity="1.00" stroke-width="0.3"><path d=" M 813.00 661.00  C 812.23 719.53 816.40 776.82 817.00 835.00 C 831.45 823.99 843.60 808.54 858.00 797.00 C 860.18 800.43 861.32 804.46 863.00 808.00 C 863.22 808.47 863.70 809.36 864.00 810.00 C 866.61 813.87 868.58 818.00 871.00 822.00 C 852.95 838.29 837.66 858.89 819.00 874.00 C 819.70 915.08 819.42 956.40 822.00 997.00 C 824.33 996.92 826.67 997.11 829.00 997.00 C 845.17 994.10 860.16 991.55 875.32 985.32 C 890.48 979.10 901.53 975.68 908.00 960.00 C 906.49 961.23 896.51 953.90 896.08 949.92 C 895.66 945.94 900.39 933.55 894.25 930.75 C 888.11 927.95 882.72 925.32 883.00 918.00 C 883.28 910.68 881.96 900.62 884.00 894.00 C 889.15 904.32 884.01 919.32 897.25 925.75 C 910.49 932.18 909.64 945.51 908.00 959.00 C 910.25 952.85 921.74 953.87 926.77 950.77 C 931.80 947.67 939.73 945.68 944.25 941.25 C 948.76 936.82 953.52 932.60 957.75 927.75 C 961.97 922.89 964.80 918.14 968.75 912.75 C 972.69 907.36 976.64 903.20 979.70 896.70 C 982.75 890.19 985.42 882.84 993.99 883.99 C 1002.56 885.15 1009.90 881.21 1017.78 880.78 C 1025.66 880.34 1025.10 871.50 1031.00 868.00 C 1025.65 866.49 1026.58 856.10 1029.92 851.92 C 1033.27 847.74 1035.23 839.68 1029.30 836.70 C 1023.38 833.72 1020.75 830.06 1016.00 826.00 C 1017.98 830.95 1002.91 835.32 996.99 836.99 C 991.08 838.66 977.29 836.56 970.92 832.08 C 964.56 827.59 958.39 823.81 950.77 820.23 C 943.15 816.65 929.38 817.79 920.93 818.93 C 912.47 820.06 903.85 815.72 897.75 810.25 C 891.66 804.77 887.18 798.63 883.25 791.75 C 879.31 784.88 876.24 777.19 873.08 769.92 C 869.92 762.66 866.82 753.92 863.08 746.92 C 859.33 739.93 852.92 733.33 853.01 724.99 C 853.10 716.65 857.12 706.54 859.98 698.98 C 862.83 691.41 867.16 684.79 870.92 677.92 C 874.68 671.05 880.02 664.95 885.00 659.00 C 886.54 649.55 880.26 641.99 879.99 633.01 C 879.73 624.03 878.07 611.60 879.00 602.00 C 876.93 597.82 867.60 597.96 863.67 595.33 C 859.75 592.70 851.86 592.91 847.07 590.93 C 842.29 588.95 834.05 589.66 829.00 588.00 C 828.00 588.00 827.00 588.00 826.00 588.00 C 827.66 601.20 823.64 615.38 822.78 627.78 C 821.91 640.18 815.04 649.62 813.00 661.00 Z"/>
</g>
<g fill="None" fill-opacity="0.0" stroke="#74634F" stroke-opacity="1.00" stroke-width="0.3"><path d=" M 798.00 601.00  C 795.25 640.98 799.58 682.92 804.00 722.00 C 804.74 700.99 804.27 678.94 805.00 658.00 C 805.73 637.06 799.23 621.12 798.00 601.00 Z"/>
</g>
<g fill="None" fill-opacity="0.0" stroke="#EBE0C9" stroke-opacity="1.00" stroke-width="0.3"><path d=" M 522.00 633.00  C 523.56 629.58 518.96 619.60 523.25 616.25 C 527.54 612.90 534.90 609.18 534.00 606.00 C 531.67 611.12 525.54 611.32 521.77 616.77 C 518.00 622.22 521.75 626.99 522.00 633.00 Z"/>
</g>
<g fill="None" fill-opacity="0.0" stroke="#C09C78" stroke-opacity="1.00" stroke-width="0.3"><path d=" M 885.00 659.00  C 880.02 664.95 874.68 671.05 870.92 677.92 C 867.16 684.79 862.83 691.41 859.98 698.98 C 857.12 706.54 853.10 716.65 853.01 724.99 C 852.92 733.33 859.33 739.93 863.08 746.92 C 866.82 753.92 869.92 762.66 873.08 769.92 C 876.24 777.19 879.31 784.88 883.25 791.75 C 887.18 798.63 891.66 804.77 897.75 810.25 C 903.85 815.72 912.47 820.06 920.93 818.93 C 929.38 817.79 943.15 816.65 950.77 820.23 C 958.39 823.81 964.56 827.59 970.92 832.08 C 977.29 836.56 991.08 838.66 996.99 836.99 C 1002.91 835.32 1017.98 830.95 1016.00 826.00 C 1007.41 818.66 1008.20 813.25 1011.99 802.99 C 1015.78 792.74 1018.55 787.22 1021.00 777.00 C 1021.93 783.72 1018.92 793.40 1019.00 801.00 C 1019.08 808.60 1013.18 818.93 1024.00 821.00 C 1028.64 820.23 1032.04 810.36 1037.68 808.68 C 1043.32 806.99 1048.38 800.70 1055.22 800.22 C 1062.07 799.75 1071.33 798.58 1077.23 795.23 C 1083.13 791.88 1086.92 787.11 1088.32 780.32 C 1089.72 773.53 1090.53 764.37 1090.99 756.99 C 1091.46 749.61 1095.80 741.69 1095.00 734.00 C 1093.64 729.12 1091.46 722.08 1087.75 718.25 C 1084.03 714.43 1075.07 724.67 1071.00 721.00 C 1077.35 719.35 1080.84 709.68 1086.75 707.75 C 1092.67 705.82 1095.34 720.52 1101.00 722.00 C 1099.20 715.98 1102.19 708.18 1099.68 702.32 C 1097.16 696.47 1097.70 690.09 1096.00 684.00 C 1094.02 676.91 1092.88 668.46 1089.00 662.00 C 1083.77 654.61 1063.56 645.38 1065.00 636.00 C 1063.24 636.50 1064.28 638.72 1064.00 640.00 C 1058.15 636.53 1054.10 633.93 1047.67 631.33 C 1041.24 628.73 1036.56 635.61 1032.00 639.00 C 1028.61 641.52 1025.10 644.07 1022.00 647.00 C 1028.04 660.15 1034.99 676.30 1020.92 683.92 C 1006.84 691.54 1002.68 701.46 990.00 710.00 C 998.42 696.64 1009.97 684.24 1020.00 672.00 C 1017.23 663.82 1012.79 656.72 1009.23 648.77 C 1005.67 640.82 1015.93 633.38 1018.00 626.00 C 1023.30 615.17 1003.16 615.84 994.00 615.00 C 984.84 614.16 967.49 615.39 958.08 617.08 C 948.66 618.76 937.67 623.32 929.08 627.08 C 920.48 630.83 912.21 635.49 905.08 641.08 C 897.95 646.68 890.90 651.96 885.00 659.00 Z"/>
</g>
<g fill="None" fill-opacity="0.0" stroke="#644123" stroke-opacity="1.00" stroke-width="0.3"><path d=" M 1032.00 639.00  C 1022.55 640.72 1022.17 630.54 1018.00 626.00 C 1015.93 633.38 1005.67 640.82 1009.23 648.77 C 1012.79 656.72 1017.23 663.82 1020.00 672.00 C 1009.97 684.24 998.42 696.64 990.00 710.00 C 1002.68 701.46 1006.84 691.54 1020.92 683.92 C 1034.99 676.30 1028.04 660.15 1022.00 647.00 C 1025.10 644.07 1028.61 641.52 1032.00 639.00 Z"/>
</g>
<g fill="None" fill-opacity="0.0" stroke="#684623" stroke-opacity="1.00" stroke-width="0.3"><path d=" M 522.00 635.00  C 521.54 638.68 518.47 637.04 516.00 638.00 C 514.29 645.74 519.93 654.51 523.23 663.77 C 526.53 673.03 540.15 669.42 550.00 666.00 C 559.85 662.57 568.59 669.25 572.23 678.77 C 575.87 688.29 582.92 691.45 587.00 700.00 C 580.66 685.33 574.21 670.74 568.00 656.00 C 556.15 657.50 544.05 658.27 532.00 659.00 C 531.29 651.27 529.14 637.01 522.00 635.00 Z"/>
</g>
<g fill="None" fill-opacity="0.0" stroke="#F0E6D5" stroke-opacity="1.00" stroke-width="0.3"><path d=" M 1065.00 636.00  C 1063.56 645.38 1083.77 654.61 1089.00 662.00 C 1082.81 651.68 1066.48 646.56 1066.00 634.00 C 1065.97 634.13 1065.13 635.60 1065.00 636.00 Z"/>
</g>
<g fill="None" fill-opacity="0.0" stroke="#967654" stroke-opacity="1.00" stroke-width="0.3"><path d=" M 1101.00 722.00  C 1103.57 724.57 1105.78 729.63 1110.00 727.00 C 1108.70 719.26 1116.08 710.62 1110.30 702.70 C 1104.53 694.77 1101.03 691.64 1096.00 684.00 C 1097.70 690.09 1097.16 696.47 1099.68 702.32 C 1102.19 708.18 1099.20 715.98 1101.00 722.00 Z"/>
</g>
<g fill="None" fill-opacity="0.0" stroke="#644324" stroke-opacity="1.00" stroke-width="0.3"><path d=" M 1095.00 734.00  C 1095.43 735.54 1096.72 737.82 1096.00 740.00 C 1101.21 738.91 1110.49 741.96 1113.00 739.00 C 1111.52 736.17 1110.54 730.20 1110.00 727.00 C 1105.78 729.63 1103.57 724.57 1101.00 722.00 C 1095.34 720.52 1092.67 705.82 1086.75 707.75 C 1080.84 709.68 1077.35 719.35 1071.00 721.00 C 1075.07 724.67 1084.03 714.43 1087.75 718.25 C 1091.46 722.08 1093.64 729.12 1095.00 734.00 Z"/>
</g>
<g fill="None" fill-opacity="0.0" stroke="#96714A" stroke-opacity="1.00" stroke-width="0.3"><path d=" M 773.00 723.00  C 776.04 726.71 779.55 730.98 784.00 733.00 C 785.39 725.59 785.00 717.75 785.00 710.00 C 783.76 713.94 773.00 718.66 773.00 723.00 Z"/>
</g>
<g fill="None" fill-opacity="0.0" stroke="#796753" stroke-opacity="1.00" stroke-width="0.3"><path d=" M 750.00 723.00  C 759.30 734.16 770.97 742.67 782.00 752.00 C 781.55 743.94 771.17 740.61 767.75 734.25 C 764.34 727.88 752.32 726.28 750.00 720.00 C 750.00 721.00 750.00 722.00 750.00 723.00 Z"/>
</g>
<g fill="None" fill-opacity="0.0" stroke="#9B7A56" stroke-opacity="1.00" stroke-width="0.3"><path d=" M 1024.00 821.00  C 1029.17 824.13 1032.29 828.33 1038.23 830.77 C 1044.17 833.21 1048.00 839.04 1044.02 845.02 C 1040.05 851.00 1045.12 860.27 1039.00 865.00 C 1045.43 863.43 1055.59 867.86 1061.75 860.75 C 1067.92 853.65 1073.78 853.10 1079.25 846.25 C 1084.72 839.39 1090.01 836.38 1094.25 829.25 C 1098.49 822.11 1103.90 816.85 1107.08 809.08 C 1110.25 801.31 1113.57 794.27 1116.02 786.02 C 1118.48 777.78 1120.00 766.98 1120.00 758.00 C 1120.00 754.42 1121.21 748.32 1120.00 745.00 C 1119.15 743.46 1114.31 739.33 1113.00 739.00 C 1110.49 741.96 1101.21 738.91 1096.00 740.00 C 1096.72 737.82 1095.43 735.54 1095.00 734.00 C 1095.80 741.69 1091.46 749.61 1090.99 756.99 C 1090.53 764.37 1089.72 773.53 1088.32 780.32 C 1086.92 787.11 1083.13 791.88 1077.23 795.23 C 1071.33 798.58 1062.07 799.75 1055.22 800.22 C 1048.38 800.70 1043.32 806.99 1037.68 808.68 C 1032.04 810.36 1028.64 820.23 1024.00 821.00 Z"/>
</g>
<g fill="None" fill-opacity="0.0" stroke="#E3D7C0" stroke-opacity="1.00" stroke-width="0.3"><path d=" M 507.00 771.00  C 505.28 768.10 503.27 765.64 501.00 763.00 C 497.42 758.86 494.04 752.63 490.00 749.00 C 484.28 747.97 482.65 741.58 482.00 737.00 C 482.74 750.65 499.00 760.24 507.00 771.00 Z"/>
</g>
<g fill="None" fill-opacity="0.0" stroke="#986E44" stroke-opacity="1.00" stroke-width="0.3"><path d=" M 747.00 743.00  C 736.38 805.85 665.26 860.44 601.00 850.00 C 605.73 854.97 605.09 866.82 609.03 872.98 C 612.96 879.13 614.63 887.67 619.23 893.77 C 623.83 899.88 626.36 906.77 631.25 912.75 C 636.13 918.74 639.78 923.85 645.25 929.75 C 650.71 935.65 655.11 941.41 663.00 940.00 C 661.72 939.96 659.51 940.59 659.00 939.00 C 665.91 936.46 672.63 933.69 679.22 930.22 C 685.82 926.76 693.22 924.81 700.01 922.01 C 706.80 919.21 704.07 905.80 706.00 899.00 C 707.92 892.19 718.91 892.27 726.07 890.07 C 733.23 887.87 742.41 884.82 749.00 885.00 C 737.24 888.28 731.92 896.09 719.77 899.77 C 707.62 903.45 718.07 926.32 707.77 931.77 C 697.47 937.22 691.39 945.31 682.00 949.00 C 681.93 952.92 676.10 954.08 676.00 958.00 C 683.23 962.31 689.80 967.86 697.25 971.75 C 704.71 975.63 711.99 980.29 719.98 983.03 C 727.96 985.76 737.00 990.47 745.31 991.69 C 753.61 992.92 765.42 999.63 774.00 997.00 C 775.00 997.00 776.00 997.00 777.00 997.00 C 777.04 983.05 776.51 968.55 778.00 955.00 C 779.49 941.45 778.85 927.84 779.00 914.00 C 779.15 900.16 778.80 886.61 780.00 873.00 C 781.20 859.39 779.42 844.63 781.07 831.07 C 782.72 817.51 780.67 804.56 783.00 791.00 C 785.33 777.44 778.87 769.02 770.23 761.77 C 761.59 754.52 753.52 749.65 750.00 740.00 C 750.34 738.15 747.22 742.40 747.00 743.00 Z"/>
</g>
<g fill="None" fill-opacity="0.0" stroke="#C1B6A3" stroke-opacity="1.00" stroke-width="0.3"><path d=" M 1120.00 758.00  C 1120.37 754.22 1122.16 748.93 1120.00 745.00 C 1121.21 748.32 1120.00 754.42 1120.00 758.00 Z"/>
</g>
<g fill="None" fill-opacity="0.0" stroke="#9D7D54" stroke-opacity="1.00" stroke-width="0.3"><path d=" M 501.00 763.00  C 502.62 761.26 498.85 758.13 497.00 757.00 C 497.78 754.68 497.77 752.17 499.00 750.00 C 497.80 750.79 496.58 749.14 496.00 749.00 C 494.06 748.89 491.91 749.34 490.00 749.00 C 494.04 752.63 497.42 758.86 501.00 763.00 Z"/>
</g>
<g fill="None" fill-opacity="0.0" stroke="#786754" stroke-opacity="1.00" stroke-width="0.3"><path d=" M 786.00 763.00  C 791.42 787.24 790.60 816.84 792.00 843.00 C 791.15 815.78 807.07 785.47 786.00 763.00 Z"/>
</g>
<g fill="None" fill-opacity="0.0" stroke="#6A4726" stroke-opacity="1.00" stroke-width="0.3"><path d=" M 1016.00 826.00  C 1020.75 830.06 1023.38 833.72 1029.30 836.70 C 1035.23 839.68 1033.27 847.74 1029.92 851.92 C 1026.58 856.10 1025.65 866.49 1031.00 868.00 C 1033.07 866.77 1036.64 865.58 1039.00 865.00 C 1045.12 860.27 1040.05 851.00 1044.02 845.02 C 1048.00 839.04 1044.17 833.21 1038.23 830.77 C 1032.29 828.33 1029.17 824.13 1024.00 821.00 C 1013.18 818.93 1019.08 808.60 1019.00 801.00 C 1018.92 793.40 1021.93 783.72 1021.00 777.00 C 1018.55 787.22 1015.78 792.74 1011.99 802.99 C 1008.20 813.25 1007.41 818.66 1016.00 826.00 Z"/>
</g>
<g fill="None" fill-opacity="0.0" stroke="#72614D" stroke-opacity="1.00" stroke-width="0.3"><path d=" M 864.00 810.00  C 863.70 809.36 863.22 808.47 863.00 808.00 C 852.83 815.74 840.34 822.63 835.00 835.00 C 839.19 831.44 847.28 828.19 850.25 823.25 C 853.22 818.31 862.30 815.02 864.00 810.00 Z"/>
</g>
<g fill="None" fill-opacity="0.0" stroke="#766652" stroke-opacity="1.00" stroke-width="0.3"><path d=" M 832.00 845.00  C 774.97 889.98 808.24 966.54 809.00 1027.00 C 811.18 1006.07 809.53 980.50 810.00 959.00 C 810.47 937.50 809.50 911.51 810.00 891.00 C 810.50 870.49 824.61 862.03 832.00 845.00 Z"/>
</g>
<g fill="None" fill-opacity="0.0" stroke="#6A4727" stroke-opacity="1.00" stroke-width="0.3"><path d=" M 663.00 940.00  C 667.65 939.49 672.11 938.53 677.00 939.00 C 676.91 942.61 682.07 945.52 682.00 949.00 C 691.39 945.31 697.47 937.22 707.77 931.77 C 718.07 926.32 707.62 903.45 719.77 899.77 C 731.92 896.09 737.24 888.28 749.00 885.00 C 742.41 884.82 733.23 887.87 726.07 890.07 C 718.91 892.27 707.92 892.19 706.00 899.00 C 704.07 905.80 706.80 919.21 700.01 922.01 C 693.22 924.81 685.82 926.76 679.22 930.22 C 672.63 933.69 665.91 936.46 659.00 939.00 C 659.51 940.59 661.72 939.96 663.00 940.00 Z"/>
</g>
<g fill="None" fill-opacity="0.0" stroke="#5F3E22" stroke-opacity="1.00" stroke-width="0.3"><path d=" M 908.00 960.00  C 908.00 960.00 908.00 959.50 908.00 959.00 C 909.64 945.51 910.49 932.18 897.25 925.75 C 884.01 919.32 889.15 904.32 884.00 894.00 C 881.96 900.62 883.28 910.68 883.00 918.00 C 882.72 925.32 888.11 927.95 894.25 930.75 C 900.39 933.55 895.66 945.94 896.08 949.92 C 896.51 953.90 906.49 961.23 908.00 960.00 Z"/>
</g>
<g fill="None" fill-opacity="0.0" stroke="#796853" stroke-opacity="1.00" stroke-width="0.3"><path d=" M 787.00 1017.00  C 784.15 1041.82 783.16 1067.46 788.00 1092.00 C 792.85 1116.54 783.72 1144.21 786.00 1168.00 C 787.33 1142.65 795.95 1118.58 796.00 1093.00 C 796.05 1067.42 787.67 1042.51 787.00 1017.00 Z"/>
</g>
<g fill="None" fill-opacity="0.0" stroke="#7F6E5A" stroke-opacity="1.00" stroke-width="0.3"><path d=" M 811.00 1104.00  C 809.65 1117.65 808.56 1132.52 809.00 1147.00 C 809.44 1161.49 807.30 1175.78 807.00 1190.00 C 806.70 1204.22 805.19 1219.79 806.00 1234.00 C 806.81 1248.21 802.98 1264.37 809.00 1276.00 C 814.66 1248.98 819.11 1220.97 816.00 1192.00 C 812.89 1163.04 813.08 1133.21 811.00 1104.00 Z"/>
</g>
<g fill="#FEFEFE" fill-opacity="1.00" stroke="None">

</g>
<g fill="#C79867" fill-opacity="1.00" stroke="None">
<path d=" M 713.00 347.00  C 717.30 358.36 720.77 365.68 733.08 370.92 C 745.39 376.16 736.68 392.20 735.07 403.07 C 733.47 413.95 746.49 423.52 750.00 433.00 C 745.78 424.87 728.07 421.80 727.03 411.97 C 725.99 402.15 734.57 382.11 721.92 377.08 C 709.27 372.05 706.11 365.30 696.00 358.00 C 689.50 356.23 685.74 363.42 681.30 369.30 C 676.86 375.19 673.96 381.88 669.92 387.92 C 665.89 393.97 663.58 400.69 659.93 406.93 C 656.27 413.16 655.48 422.55 651.32 428.32 C 647.16 434.09 649.28 445.57 644.00 450.00 C 688.17 440.38 736.03 448.16 770.70 477.30 C 805.36 506.45 822.67 543.08 825.00 587.00 C 826.27 587.28 828.50 586.24 829.00 588.00 C 834.05 589.66 842.29 588.95 847.07 590.93 C 851.86 592.91 859.75 592.70 863.67 595.33 C 867.60 597.96 876.93 597.82 879.00 602.00 C 883.48 555.76 912.19 496.27 966.00 492.00 C 964.62 488.15 963.68 484.05 963.00 480.00 C 961.46 470.92 958.89 460.97 956.93 452.07 C 954.96 443.18 952.36 435.40 948.92 427.08 C 945.48 418.75 942.67 412.59 938.77 404.23 C 934.87 395.87 931.79 391.51 927.75 382.25 C 923.72 372.98 916.05 383.97 913.00 390.00 C 910.14 395.65 909.41 402.73 905.00 408.00 C 904.05 410.58 900.31 416.77 900.00 419.00 C 902.70 427.56 910.47 447.04 904.75 454.75 C 899.04 462.46 885.45 467.11 878.25 474.25 C 871.06 481.40 859.60 487.35 852.00 494.00 C 861.89 484.56 867.53 476.08 877.25 466.25 C 886.98 456.43 898.30 447.10 890.07 432.93 C 881.85 418.75 886.36 405.33 893.31 392.31 C 900.25 379.28 900.99 360.85 899.00 346.00 C 890.19 334.61 879.92 327.88 868.08 319.92 C 856.23 311.96 842.12 306.97 828.02 302.98 C 813.93 298.98 791.94 299.83 778.00 303.00 C 764.07 306.17 747.05 309.77 736.08 318.08 C 725.12 326.39 707.31 331.95 713.00 347.00 Z"/>
</g>
<g fill="#6A4625" fill-opacity="1.00" stroke="None">
<path d=" M 900.00 419.00  C 897.87 412.24 900.75 413.07 905.00 408.00 C 909.41 402.73 910.14 395.65 913.00 390.00 C 912.65 382.88 906.83 374.38 906.99 367.01 C 907.15 359.63 903.05 351.23 899.00 346.00 C 900.99 360.85 900.25 379.28 893.31 392.31 C 886.36 405.33 881.85 418.75 890.07 432.93 C 898.30 447.10 886.98 456.43 877.25 466.25 C 867.53 476.08 861.89 484.56 852.00 494.00 C 859.60 487.35 871.06 481.40 878.25 474.25 C 885.45 467.11 899.04 462.46 904.75 454.75 C 910.47 447.04 902.70 427.56 900.00 419.00 Z"/>
</g>
<g fill="#6B4724" fill-opacity="1.00" stroke="None">
<path d=" M 696.00 358.00  C 706.11 365.30 709.27 372.05 721.92 377.08 C 734.57 382.11 725.99 402.15 727.03 411.97 C 728.07 421.80 745.78 424.87 750.00 433.00 C 746.49 423.52 733.47 413.95 735.07 403.07 C 736.68 392.20 745.39 376.16 733.08 370.92 C 720.77 365.68 717.30 358.36 713.00 347.00 C 713.31 351.37 710.63 354.91 710.00 359.00 C 705.25 359.06 700.42 359.20 696.00 358.00 Z"/>
</g>
<g fill="#8D6540" fill-opacity="1.00" stroke="None">
<path d=" M 900.00 419.00  C 900.31 416.77 904.05 410.58 905.00 408.00 C 900.75 413.07 897.87 412.24 900.00 419.00 Z"/>
</g>
<g fill="#AE8B5C" fill-opacity="1.00" stroke="None">
<path d=" M 644.00 450.00  C 638.04 451.30 628.36 453.28 623.23 456.23 C 618.10 459.18 607.86 461.45 607.00 467.00 C 607.49 470.49 614.52 474.39 616.75 478.25 C 618.99 482.11 623.96 484.89 626.92 489.08 C 629.88 493.28 634.52 496.81 632.00 503.00 C 629.48 509.20 630.54 516.29 630.00 523.00 C 638.47 529.32 658.48 524.44 664.90 533.10 C 671.32 541.77 670.73 559.19 674.00 568.00 C 672.24 559.21 666.32 556.86 664.23 547.77 C 662.13 538.68 653.35 536.58 645.00 536.00 C 636.65 535.43 627.28 529.87 622.75 538.75 C 618.22 547.63 614.75 548.97 609.00 556.00 C 611.07 546.71 617.24 537.93 619.93 528.93 C 622.61 519.92 619.01 518.25 620.00 509.00 C 620.99 499.75 606.42 494.09 599.33 491.67 C 592.23 489.25 588.28 489.13 588.00 487.00 C 581.06 487.14 581.28 482.59 574.75 489.75 C 568.22 496.91 562.38 502.93 557.30 511.30 C 552.23 519.68 548.07 527.54 543.98 536.98 C 539.88 546.41 537.89 557.15 535.78 567.78 C 533.66 578.41 534.00 592.46 534.00 604.00 C 538.36 606.74 545.56 598.51 552.08 596.08 C 558.59 593.64 565.95 588.62 573.68 586.68 C 581.40 584.74 590.31 581.77 599.00 581.00 C 607.69 580.23 619.33 579.28 628.22 580.78 C 637.11 582.28 645.63 582.91 654.00 586.00 C 684.36 597.21 709.19 612.31 727.75 641.25 C 746.32 670.18 752.81 708.65 747.00 743.00 C 747.22 742.40 750.34 738.15 750.00 740.00 C 747.88 734.19 750.03 728.88 750.00 723.00 C 750.00 722.00 750.00 721.00 750.00 720.00 C 750.00 714.87 749.75 709.81 751.00 705.00 C 758.43 710.64 766.34 716.79 773.00 723.00 C 773.00 718.66 783.76 713.94 785.00 710.00 C 785.00 691.49 786.67 672.61 786.00 654.00 C 785.33 635.39 786.12 624.32 787.00 606.00 C 787.88 587.68 785.04 566.92 791.00 550.00 C 818.34 541.71 811.09 576.60 811.20 595.25 C 811.31 613.89 808.15 643.17 813.00 661.00 C 815.04 649.62 821.91 640.18 822.78 627.78 C 823.64 615.38 827.66 601.20 826.00 588.00 C 827.00 588.00 828.00 588.00 829.00 588.00 C 828.50 586.24 826.27 587.28 825.00 587.00 C 822.67 543.08 805.36 506.45 770.70 477.30 C 736.03 448.16 688.17 440.38 644.00 450.00 Z"/>
</g>
<g fill="#684623" fill-opacity="1.00" stroke="None">
<path d=" M 588.00 487.00  C 588.28 489.13 592.23 489.25 599.33 491.67 C 606.42 494.09 620.99 499.75 620.00 509.00 C 619.01 518.25 622.61 519.92 619.93 528.93 C 617.24 537.93 611.07 546.71 609.00 556.00 C 614.75 548.97 618.22 547.63 622.75 538.75 C 627.28 529.87 636.65 535.43 645.00 536.00 C 653.35 536.58 662.13 538.68 664.23 547.77 C 666.32 556.86 672.24 559.21 674.00 568.00 C 670.73 559.19 671.32 541.77 664.90 533.10 C 658.48 524.44 638.47 529.32 630.00 523.00 C 630.54 516.29 629.48 509.20 632.00 503.00 C 634.52 496.81 629.88 493.28 626.92 489.08 C 623.96 484.89 618.99 482.11 616.75 478.25 C 614.52 474.39 607.49 470.49 607.00 467.00 C 606.44 470.61 611.21 483.41 604.22 483.22 C 597.23 483.03 593.46 486.89 588.00 487.00 Z"/>
</g>
<g fill="#EADCC7" fill-opacity="1.00" stroke="None">
<path d=" M 966.00 492.00  C 971.36 491.57 977.65 491.45 983.00 492.00 C 978.33 489.68 971.50 491.65 966.00 491.00 C 966.73 486.90 963.94 483.23 963.00 480.00 C 963.68 484.05 964.62 488.15 966.00 492.00 Z"/>
</g>
<g fill="#B38050" fill-opacity="1.00" stroke="None">
<path d=" M 879.00 602.00  C 878.07 611.60 879.73 624.03 879.99 633.01 C 880.26 641.99 886.54 649.55 885.00 659.00 C 890.90 651.96 897.95 646.68 905.08 641.08 C 912.21 635.49 920.48 630.83 929.08 627.08 C 937.67 623.32 948.66 618.76 958.08 617.08 C 967.49 615.39 984.84 614.16 994.00 615.00 C 1003.16 615.84 1023.30 615.17 1018.00 626.00 C 1022.17 630.54 1022.55 640.72 1032.00 639.00 C 1036.56 635.61 1041.24 628.73 1047.67 631.33 C 1054.10 633.93 1058.15 636.53 1064.00 640.00 C 1064.28 638.72 1063.24 636.50 1065.00 636.00 C 1065.13 635.60 1065.97 634.13 1066.00 634.00 C 1065.71 626.37 1066.98 618.50 1067.00 611.00 C 1067.02 603.50 1066.54 596.54 1065.33 589.67 C 1064.11 582.80 1063.00 577.49 1060.98 571.02 C 1058.95 564.56 1057.15 559.71 1054.78 553.22 C 1052.40 546.74 1049.91 544.90 1047.25 537.75 C 1044.60 530.59 1037.61 532.71 1032.00 532.00 C 1029.05 533.54 1027.54 538.97 1024.00 540.00 C 1037.13 554.31 1022.69 568.86 1014.00 581.00 C 1014.19 572.14 1015.58 561.50 1017.93 551.93 C 1020.28 542.36 1015.30 528.37 1024.00 522.00 C 1025.67 522.24 1024.17 524.85 1026.00 525.00 C 1026.02 524.00 1025.99 523.00 1026.00 522.00 C 1025.39 519.26 1025.45 517.04 1027.00 514.00 C 1018.87 506.43 1009.44 500.68 1000.00 496.00 C 994.40 494.35 988.67 493.26 983.00 492.00 C 977.65 491.45 971.36 491.57 966.00 492.00 C 912.19 496.27 883.48 555.76 879.00 602.00 Z"/>
</g>
<g fill="#D6C5AE" fill-opacity="1.00" stroke="None">
<path d=" M 1026.00 522.00  C 1025.21 518.89 1027.74 516.78 1028.00 514.00 C 1019.70 506.06 1010.81 499.19 1000.00 496.00 C 1009.44 500.68 1018.87 506.43 1027.00 514.00 C 1025.45 517.04 1025.39 519.26 1026.00 522.00 Z"/>
</g>
<g fill="#613E1E" fill-opacity="1.00" stroke="None">
<path d=" M 1032.00 532.00  C 1028.14 531.51 1025.92 528.62 1026.00 525.00 C 1024.17 524.85 1025.67 522.24 1024.00 522.00 C 1015.30 528.37 1020.28 542.36 1017.93 551.93 C 1015.58 561.50 1014.19 572.14 1014.00 581.00 C 1022.69 568.86 1037.13 554.31 1024.00 540.00 C 1027.54 538.97 1029.05 533.54 1032.00 532.00 Z"/>
</g>
<g fill="#A3927A" fill-opacity="1.00" stroke="None">
<path d=" M 785.00 710.00  C 785.00 717.75 785.39 725.59 784.00 733.00 C 779.55 730.98 776.04 726.71 773.00 723.00 C 766.34 716.79 758.43 710.64 751.00 705.00 C 749.75 709.81 750.00 714.87 750.00 720.00 C 752.32 726.28 764.34 727.88 767.75 734.25 C 771.17 740.61 781.55 743.94 782.00 752.00 C 770.97 742.67 759.30 734.16 750.00 723.00 C 750.03 728.88 747.88 734.19 750.00 740.00 C 753.52 749.65 761.59 754.52 770.23 761.77 C 778.87 769.02 785.33 777.44 783.00 791.00 C 780.67 804.56 782.72 817.51 781.07 831.07 C 779.42 844.63 781.20 859.39 780.00 873.00 C 778.80 886.61 779.15 900.16 779.00 914.00 C 778.85 927.84 779.49 941.45 778.00 955.00 C 776.51 968.55 777.04 983.05 777.00 997.00 C 776.00 997.00 775.00 997.00 774.00 997.00 C 778.43 1015.42 775.04 1036.99 775.00 1057.00 C 774.96 1077.01 772.78 1097.74 773.00 1118.00 C 773.22 1138.26 771.58 1157.85 771.00 1178.00 C 770.42 1198.15 769.65 1218.79 769.00 1239.00 C 768.35 1259.21 768.29 1279.69 768.00 1300.00 C 789.00 1300.00 810.00 1300.00 831.00 1300.00 C 828.02 1199.32 824.78 1098.72 822.00 998.00 C 824.42 998.82 827.25 997.31 829.00 997.00 C 826.67 997.11 824.33 996.92 822.00 997.00 C 819.42 956.40 819.70 915.08 819.00 874.00 C 837.66 858.89 852.95 838.29 871.00 822.00 C 868.58 818.00 866.61 813.87 864.00 810.00 C 862.30 815.02 853.22 818.31 850.25 823.25 C 847.28 828.19 839.19 831.44 835.00 835.00 C 840.34 822.63 852.83 815.74 863.00 808.00 C 861.32 804.46 860.18 800.43 858.00 797.00 C 843.60 808.54 831.45 823.99 817.00 835.00 C 816.40 776.82 812.23 719.53 813.00 661.00 C 808.15 643.17 811.31 613.89 811.20 595.25 C 811.09 576.60 818.34 541.71 791.00 550.00 C 785.04 566.92 787.88 587.68 787.00 606.00 C 786.12 624.32 785.33 635.39 786.00 654.00 C 786.67 672.61 785.00 691.49 785.00 710.00 M 798.00 601.00  C 799.23 621.12 805.73 637.06 805.00 658.00 C 804.27 678.94 804.74 700.99 804.00 722.00 C 799.58 682.92 795.25 640.98 798.00 601.00 M 786.00 763.00  C 807.07 785.47 791.15 815.78 792.00 843.00 C 790.60 816.84 791.42 787.24 786.00 763.00 M 832.00 845.00  C 824.61 862.03 810.50 870.49 810.00 891.00 C 809.50 911.51 810.47 937.50 810.00 959.00 C 809.53 980.50 811.18 1006.07 809.00 1027.00 C 808.24 966.54 774.97 889.98 832.00 845.00 M 787.00 1017.00  C 787.67 1042.51 796.05 1067.42 796.00 1093.00 C 795.95 1118.58 787.33 1142.65 786.00 1168.00 C 783.72 1144.21 792.85 1116.54 788.00 1092.00 C 783.16 1067.46 784.15 1041.82 787.00 1017.00 M 811.00 1104.00  C 813.08 1133.21 812.89 1163.04 816.00 1192.00 C 819.11 1220.97 814.66 1248.98 809.00 1276.00 C 802.98 1264.37 806.81 1248.21 806.00 1234.00 C 805.19 1219.79 806.70 1204.22 807.00 1190.00 C 807.30 1175.78 809.44 1161.49 809.00 1147.00 C 808.56 1132.52 809.65 1117.65 811.00 1104.00 Z"/>
</g>
<g fill="#D6B98D" fill-opacity="1.00" stroke="None">
<path d=" M 534.00 604.00  C 534.00 604.50 533.87 605.54 534.00 606.00 C 534.90 609.18 527.54 612.90 523.25 616.25 C 518.96 619.60 523.56 629.58 522.00 633.00 C 522.02 633.50 522.06 634.51 522.00 635.00 C 529.14 637.01 531.29 651.27 532.00 659.00 C 544.05 658.27 556.15 657.50 568.00 656.00 C 574.21 670.74 580.66 685.33 587.00 700.00 C 582.92 691.45 575.87 688.29 572.23 678.77 C 568.59 669.25 559.85 662.57 550.00 666.00 C 540.15 669.42 526.53 673.03 523.23 663.77 C 519.93 654.51 514.29 645.74 516.00 638.00 C 508.29 640.99 499.41 643.09 495.77 651.77 C 492.13 660.45 487.94 666.49 485.93 675.93 C 483.91 685.36 481.30 694.78 481.00 705.00 C 480.70 715.22 481.45 726.89 482.00 737.00 C 482.65 741.58 484.28 747.97 490.00 749.00 C 491.91 749.34 494.06 748.89 496.00 749.00 C 506.63 749.62 517.23 755.57 525.25 762.75 C 533.27 769.93 545.89 776.80 542.00 790.00 C 556.60 793.67 568.99 803.83 585.01 802.99 C 601.03 802.15 619.71 797.71 636.00 797.00 C 652.29 796.29 653.78 778.13 661.30 766.30 C 668.82 754.48 681.13 749.99 692.75 740.75 C 704.37 731.51 704.21 711.66 705.00 697.00 C 705.79 682.34 696.33 667.32 690.23 654.77 C 684.13 642.22 700.10 620.13 686.25 610.75 C 672.39 601.38 666.60 595.54 654.00 586.00 C 645.63 582.91 637.11 582.28 628.22 580.78 C 619.33 579.28 607.69 580.23 599.00 581.00 C 590.31 581.77 581.40 584.74 573.68 586.68 C 565.95 588.62 558.59 593.64 552.08 596.08 C 545.56 598.51 538.36 606.74 534.00 604.00 Z"/>
</g>
<g fill="#C39663" fill-opacity="1.00" stroke="None">
<path d=" M 496.00 749.00  C 496.58 749.14 497.80 750.79 499.00 750.00 C 497.77 752.17 497.78 754.68 497.00 757.00 C 498.85 758.13 502.62 761.26 501.00 763.00 C 503.27 765.64 505.28 768.10 507.00 771.00 C 514.52 783.66 521.55 795.85 526.01 809.99 C 530.47 824.14 543.88 830.67 556.92 837.08 C 569.97 843.48 586.56 847.65 601.00 850.00 C 665.26 860.44 736.38 805.85 747.00 743.00 C 752.81 708.65 746.32 670.18 727.75 641.25 C 709.19 612.31 684.36 597.21 654.00 586.00 C 666.60 595.54 672.39 601.38 686.25 610.75 C 700.10 620.13 684.13 642.22 690.23 654.77 C 696.33 667.32 705.79 682.34 705.00 697.00 C 704.21 711.66 704.37 731.51 692.75 740.75 C 681.13 749.99 668.82 754.48 661.30 766.30 C 653.78 778.13 652.29 796.29 636.00 797.00 C 619.71 797.71 601.03 802.15 585.01 802.99 C 568.99 803.83 556.60 793.67 542.00 790.00 C 545.89 776.80 533.27 769.93 525.25 762.75 C 517.23 755.57 506.63 749.62 496.00 749.00 Z"/>
</g>
<g fill="#997148" fill-opacity="1.00" stroke="None">
<path d=" M 813.00 661.00  C 812.23 719.53 816.40 776.82 817.00 835.00 C 831.45 823.99 843.60 808.54 858.00 797.00 C 860.18 800.43 861.32 804.46 863.00 808.00 C 863.22 808.47 863.70 809.36 864.00 810.00 C 866.61 813.87 868.58 818.00 871.00 822.00 C 852.95 838.29 837.66 858.89 819.00 874.00 C 819.70 915.08 819.42 956.40 822.00 997.00 C 824.33 996.92 826.67 997.11 829.00 997.00 C 845.17 994.10 860.16 991.55 875.32 985.32 C 890.48 979.10 901.53 975.68 908.00 960.00 C 906.49 961.23 896.51 953.90 896.08 949.92 C 895.66 945.94 900.39 933.55 894.25 930.75 C 888.11 927.95 882.72 925.32 883.00 918.00 C 883.28 910.68 881.96 900.62 884.00 894.00 C 889.15 904.32 884.01 919.32 897.25 925.75 C 910.49 932.18 909.64 945.51 908.00 959.00 C 910.25 952.85 921.74 953.87 926.77 950.77 C 931.80 947.67 939.73 945.68 944.25 941.25 C 948.76 936.82 953.52 932.60 957.75 927.75 C 961.97 922.89 964.80 918.14 968.75 912.75 C 972.69 907.36 976.64 903.20 979.70 896.70 C 982.75 890.19 985.42 882.84 993.99 883.99 C 1002.56 885.15 1009.90 881.21 1017.78 880.78 C 1025.66 880.34 1025.10 871.50 1031.00 868.00 C 1025.65 866.49 1026.58 856.10 1029.92 851.92 C 1033.27 847.74 1035.23 839.68 1029.30 836.70 C 1023.38 833.72 1020.75 830.06 1016.00 826.00 C 1017.98 830.95 1002.91 835.32 996.99 836.99 C 991.08 838.66 977.29 836.56 970.92 832.08 C 964.56 827.59 958.39 823.81 950.77 820.23 C 943.15 816.65 929.38 817.79 920.93 818.93 C 912.47 820.06 903.85 815.72 897.75 810.25 C 891.66 804.77 887.18 798.63 883.25 791.75 C 879.31 784.88 876.24 777.19 873.08 769.92 C 869.92 762.66 866.82 753.92 863.08 746.92 C 859.33 739.93 852.92 733.33 853.01 724.99 C 853.10 716.65 857.12 706.54 859.98 698.98 C 862.83 691.41 867.16 684.79 870.92 677.92 C 874.68 671.05 880.02 664.95 885.00 659.00 C 886.54 649.55 880.26 641.99 879.99 633.01 C 879.73 624.03 878.07 611.60 879.00 602.00 C 876.93 597.82 867.60 597.96 863.67 595.33 C 859.75 592.70 851.86 592.91 847.07 590.93 C 842.29 588.95 834.05 589.66 829.00 588.00 C 828.00 588.00 827.00 588.00 826.00 588.00 C 827.66 601.20 823.64 615.38 822.78 627.78 C 821.91 640.18 815.04 649.62 813.00 661.00 Z"/>
</g>
<g fill="#74634F" fill-opacity="1.00" stroke="None">
<path d=" M 798.00 601.00  C 795.25 640.98 799.58 682.92 804.00 722.00 C 804.74 700.99 804.27 678.94 805.00 658.00 C 805.73 637.06 799.23 621.12 798.00 601.00 Z"/>
</g>
<g fill="#EBE0C9" fill-opacity="1.00" stroke="None">
<path d=" M 522.00 633.00  C 523.56 629.58 518.96 619.60 523.25 616.25 C 527.54 612.90 534.90 609.18 534.00 606.00 C 531.67 611.12 525.54 611.32 521.77 616.77 C 518.00 622.22 521.75 626.99 522.00 633.00 Z"/>
</g>
<g fill="#C09C78" fill-opacity="1.00" stroke="None">
<path d=" M 885.00 659.00  C 880.02 664.95 874.68 671.05 870.92 677.92 C 867.16 684.79 862.83 691.41 859.98 698.98 C 857.12 706.54 853.10 716.65 853.01 724.99 C 852.92 733.33 859.33 739.93 863.08 746.92 C 866.82 753.92 869.92 762.66 873.08 769.92 C 876.24 777.19 879.31 784.88 883.25 791.75 C 887.18 798.63 891.66 804.77 897.75 810.25 C 903.85 815.72 912.47 820.06 920.93 818.93 C 929.38 817.79 943.15 816.65 950.77 820.23 C 958.39 823.81 964.56 827.59 970.92 832.08 C 977.29 836.56 991.08 838.66 996.99 836.99 C 1002.91 835.32 1017.98 830.95 1016.00 826.00 C 1007.41 818.66 1008.20 813.25 1011.99 802.99 C 1015.78 792.74 1018.55 787.22 1021.00 777.00 C 1021.93 783.72 1018.92 793.40 1019.00 801.00 C 1019.08 808.60 1013.18 818.93 1024.00 821.00 C 1028.64 820.23 1032.04 810.36 1037.68 808.68 C 1043.32 806.99 1048.38 800.70 1055.22 800.22 C 1062.07 799.75 1071.33 798.58 1077.23 795.23 C 1083.13 791.88 1086.92 787.11 1088.32 780.32 C 1089.72 773.53 1090.53 764.37 1090.99 756.99 C 1091.46 749.61 1095.80 741.69 1095.00 734.00 C 1093.64 729.12 1091.46 722.08 1087.75 718.25 C 1084.03 714.43 1075.07 724.67 1071.00 721.00 C 1077.35 719.35 1080.84 709.68 1086.75 707.75 C 1092.67 705.82 1095.34 720.52 1101.00 722.00 C 1099.20 715.98 1102.19 708.18 1099.68 702.32 C 1097.16 696.47 1097.70 690.09 1096.00 684.00 C 1094.02 676.91 1092.88 668.46 1089.00 662.00 C 1083.77 654.61 1063.56 645.38 1065.00 636.00 C 1063.24 636.50 1064.28 638.72 1064.00 640.00 C 1058.15 636.53 1054.10 633.93 1047.67 631.33 C 1041.24 628.73 1036.56 635.61 1032.00 639.00 C 1028.61 641.52 1025.10 644.07 1022.00 647.00 C 1028.04 660.15 1034.99 676.30 1020.92 683.92 C 1006.84 691.54 1002.68 701.46 990.00 710.00 C 998.42 696.64 1009.97 684.24 1020.00 672.00 C 1017.23 663.82 1012.79 656.72 1009.23 648.77 C 1005.67 640.82 1015.93 633.38 1018.00 626.00 C 1023.30 615.17 1003.16 615.84 994.00 615.00 C 984.84 614.16 967.49 615.39 958.08 617.08 C 948.66 618.76 937.67 623.32 929.08 627.08 C 920.48 630.83 912.21 635.49 905.08 641.08 C 897.95 646.68 890.90 651.96 885.00 659.00 Z"/>
</g>
<g fill="#644123" fill-opacity="1.00" stroke="None">
<path d=" M 1032.00 639.00  C 1022.55 640.72 1022.17 630.54 1018.00 626.00 C 1015.93 633.38 1005.67 640.82 1009.23 648.77 C 1012.79 656.72 1017.23 663.82 1020.00 672.00 C 1009.97 684.24 998.42 696.64 990.00 710.00 C 1002.68 701.46 1006.84 691.54 1020.92 683.92 C 1034.99 676.30 1028.04 660.15 1022.00 647.00 C 1025.10 644.07 1028.61 641.52 1032.00 639.00 Z"/>
</g>
<g fill="#684623" fill-opacity="1.00" stroke="None">
<path d=" M 522.00 635.00  C 521.54 638.68 518.47 637.04 516.00 638.00 C 514.29 645.74 519.93 654.51 523.23 663.77 C 526.53 673.03 540.15 669.42 550.00 666.00 C 559.85 662.57 568.59 669.25 572.23 678.77 C 575.87 688.29 582.92 691.45 587.00 700.00 C 580.66 685.33 574.21 670.74 568.00 656.00 C 556.15 657.50 544.05 658.27 532.00 659.00 C 531.29 651.27 529.14 637.01 522.00 635.00 Z"/>
</g>
<g fill="#F0E6D5" fill-opacity="1.00" stroke="None">
<path d=" M 1065.00 636.00  C 1063.56 645.38 1083.77 654.61 1089.00 662.00 C 1082.81 651.68 1066.48 646.56 1066.00 634.00 C 1065.97 634.13 1065.13 635.60 1065.00 636.00 Z"/>
</g>
<g fill="#967654" fill-opacity="1.00" stroke="None">
<path d=" M 1101.00 722.00  C 1103.57 724.57 1105.78 729.63 1110.00 727.00 C 1108.70 719.26 1116.08 710.62 1110.30 702.70 C 1104.53 694.77 1101.03 691.64 1096.00 684.00 C 1097.70 690.09 1097.16 696.47 1099.68 702.32 C 1102.19 708.18 1099.20 715.98 1101.00 722.00 Z"/>
</g>
<g fill="#644324" fill-opacity="1.00" stroke="None">
<path d=" M 1095.00 734.00  C 1095.43 735.54 1096.72 737.82 1096.00 740.00 C 1101.21 738.91 1110.49 741.96 1113.00 739.00 C 1111.52 736.17 1110.54 730.20 1110.00 727.00 C 1105.78 729.63 1103.57 724.57 1101.00 722.00 C 1095.34 720.52 1092.67 705.82 1086.75 707.75 C 1080.84 709.68 1077.35 719.35 1071.00 721.00 C 1075.07 724.67 1084.03 714.43 1087.75 718.25 C 1091.46 722.08 1093.64 729.12 1095.00 734.00 Z"/>
</g>
<g fill="#96714A" fill-opacity="1.00" stroke="None">
<path d=" M 773.00 723.00  C 776.04 726.71 779.55 730.98 784.00 733.00 C 785.39 725.59 785.00 717.75 785.00 710.00 C 783.76 713.94 773.00 718.66 773.00 723.00 Z"/>
</g>
<g fill="#796753" fill-opacity="1.00" stroke="None">
<path d=" M 750.00 723.00  C 759.30 734.16 770.97 742.67 782.00 752.00 C 781.55 743.94 771.17 740.61 767.75 734.25 C 764.34 727.88 752.32 726.28 750.00 720.00 C 750.00 721.00 750.00 722.00 750.00 723.00 Z"/>
</g>
<g fill="#9B7A56" fill-opacity="1.00" stroke="None">
<path d=" M 1024.00 821.00  C 1029.17 824.13 1032.29 828.33 1038.23 830.77 C 1044.17 833.21 1048.00 839.04 1044.02 845.02 C 1040.05 851.00 1045.12 860.27 1039.00 865.00 C 1045.43 863.43 1055.59 867.86 1061.75 860.75 C 1067.92 853.65 1073.78 853.10 1079.25 846.25 C 1084.72 839.39 1090.01 836.38 1094.25 829.25 C 1098.49 822.11 1103.90 816.85 1107.08 809.08 C 1110.25 801.31 1113.57 794.27 1116.02 786.02 C 1118.48 777.78 1120.00 766.98 1120.00 758.00 C 1120.00 754.42 1121.21 748.32 1120.00 745.00 C 1119.15 743.46 1114.31 739.33 1113.00 739.00 C 1110.49 741.96 1101.21 738.91 1096.00 740.00 C 1096.72 737.82 1095.43 735.54 1095.00 734.00 C 1095.80 741.69 1091.46 749.61 1090.99 756.99 C 1090.53 764.37 1089.72 773.53 1088.32 780.32 C 1086.92 787.11 1083.13 791.88 1077.23 795.23 C 1071.33 798.58 1062.07 799.75 1055.22 800.22 C 1048.38 800.70 1043.32 806.99 1037.68 808.68 C 1032.04 810.36 1028.64 820.23 1024.00 821.00 Z"/>
</g>
<g fill="#E3D7C0" fill-opacity="1.00" stroke="None">
<path d=" M 507.00 771.00  C 505.28 768.10 503.27 765.64 501.00 763.00 C 497.42 758.86 494.04 752.63 490.00 749.00 C 484.28 747.97 482.65 741.58 482.00 737.00 C 482.74 750.65 499.00 760.24 507.00 771.00 Z"/>
</g>
<g fill="#986E44" fill-opacity="1.00" stroke="None">
<path d=" M 747.00 743.00  C 736.38 805.85 665.26 860.44 601.00 850.00 C 605.73 854.97 605.09 866.82 609.03 872.98 C 612.96 879.13 614.63 887.67 619.23 893.77 C 623.83 899.88 626.36 906.77 631.25 912.75 C 636.13 918.74 639.78 923.85 645.25 929.75 C 650.71 935.65 655.11 941.41 663.00 940.00 C 661.72 939.96 659.51 940.59 659.00 939.00 C 665.91 936.46 672.63 933.69 679.22 930.22 C 685.82 926.76 693.22 924.81 700.01 922.01 C 706.80 919.21 704.07 905.80 706.00 899.00 C 707.92 892.19 718.91 892.27 726.07 890.07 C 733.23 887.87 742.41 884.82 749.00 885.00 C 737.24 888.28 731.92 896.09 719.77 899.77 C 707.62 903.45 718.07 926.32 707.77 931.77 C 697.47 937.22 691.39 945.31 682.00 949.00 C 681.93 952.92 676.10 954.08 676.00 958.00 C 683.23 962.31 689.80 967.86 697.25 971.75 C 704.71 975.63 711.99 980.29 719.98 983.03 C 727.96 985.76 737.00 990.47 745.31 991.69 C 753.61 992.92 765.42 999.63 774.00 997.00 C 775.00 997.00 776.00 997.00 777.00 997.00 C 777.04 983.05 776.51 968.55 778.00 955.00 C 779.49 941.45 778.85 927.84 779.00 914.00 C 779.15 900.16 778.80 886.61 780.00 873.00 C 781.20 859.39 779.42 844.63 781.07 831.07 C 782.72 817.51 780.67 804.56 783.00 791.00 C 785.33 777.44 778.87 769.02 770.23 761.77 C 761.59 754.52 753.52 749.65 750.00 740.00 C 750.34 738.15 747.22 742.40 747.00 743.00 Z"/>
</g>
<g fill="#C1B6A3" fill-opacity="1.00" stroke="None">
<path d=" M 1120.00 758.00  C 1120.37 754.22 1122.16 748.93 1120.00 745.00 C 1121.21 748.32 1120.00 754.42 1120.00 758.00 Z"/>
</g>
<g fill="#9D7D54" fill-opacity="1.00" stroke="None">
<path d=" M 501.00 763.00  C 502.62 761.26 498.85 758.13 497.00 757.00 C 497.78 754.68 497.77 752.17 499.00 750.00 C 497.80 750.79 496.58 749.14 496.00 749.00 C 494.06 748.89 491.91 749.34 490.00 749.00 C 494.04 752.63 497.42 758.86 501.00 763.00 Z"/>
</g>
<g fill="#786754" fill-opacity="1.00" stroke="None">
<path d=" M 786.00 763.00  C 791.42 787.24 790.60 816.84 792.00 843.00 C 791.15 815.78 807.07 785.47 786.00 763.00 Z"/>
</g>
<g fill="#6A4726" fill-opacity="1.00" stroke="None">
<path d=" M 1016.00 826.00  C 1020.75 830.06 1023.38 833.72 1029.30 836.70 C 1035.23 839.68 1033.27 847.74 1029.92 851.92 C 1026.58 856.10 1025.65 866.49 1031.00 868.00 C 1033.07 866.77 1036.64 865.58 1039.00 865.00 C 1045.12 860.27 1040.05 851.00 1044.02 845.02 C 1048.00 839.04 1044.17 833.21 1038.23 830.77 C 1032.29 828.33 1029.17 824.13 1024.00 821.00 C 1013.18 818.93 1019.08 808.60 1019.00 801.00 C 1018.92 793.40 1021.93 783.72 1021.00 777.00 C 1018.55 787.22 1015.78 792.74 1011.99 802.99 C 1008.20 813.25 1007.41 818.66 1016.00 826.00 Z"/>
</g>
<g fill="#72614D" fill-opacity="1.00" stroke="None">
<path d=" M 864.00 810.00  C 863.70 809.36 863.22 808.47 863.00 808.00 C 852.83 815.74 840.34 822.63 835.00 835.00 C 839.19 831.44 847.28 828.19 850.25 823.25 C 853.22 818.31 862.30 815.02 864.00 810.00 Z"/>
</g>
<g fill="#766652" fill-opacity="1.00" stroke="None">
<path d=" M 832.00 845.00  C 774.97 889.98 808.24 966.54 809.00 1027.00 C 811.18 1006.07 809.53 980.50 810.00 959.00 C 810.47 937.50 809.50 911.51 810.00 891.00 C 810.50 870.49 824.61 862.03 832.00 845.00 Z"/>
</g>
<g fill="#6A4727" fill-opacity="1.00" stroke="None">
<path d=" M 663.00 940.00  C 667.65 939.49 672.11 938.53 677.00 939.00 C 676.91 942.61 682.07 945.52 682.00 949.00 C 691.39 945.31 697.47 937.22 707.77 931.77 C 718.07 926.32 707.62 903.45 719.77 899.77 C 731.92 896.09 737.24 888.28 749.00 885.00 C 742.41 884.82 733.23 887.87 726.07 890.07 C 718.91 892.27 707.92 892.19 706.00 899.00 C 704.07 905.80 706.80 919.21 700.01 922.01 C 693.22 924.81 685.82 926.76 679.22 930.22 C 672.63 933.69 665.91 936.46 659.00 939.00 C 659.51 940.59 661.72 939.96 663.00 940.00 Z"/>
</g>
<g fill="#5F3E22" fill-opacity="1.00" stroke="None">
<path d=" M 908.00 960.00  C 908.00 960.00 908.00 959.50 908.00 959.00 C 909.64 945.51 910.49 932.18 897.25 925.75 C 884.01 919.32 889.15 904.32 884.00 894.00 C 881.96 900.62 883.28 910.68 883.00 918.00 C 882.72 925.32 888.11 927.95 894.25 930.75 C 900.39 933.55 895.66 945.94 896.08 949.92 C 896.51 953.90 906.49 961.23 908.00 960.00 Z"/>
</g>
<g fill="#796853" fill-opacity="1.00" stroke="None">
<path d=" M 787.00 1017.00  C 784.15 1041.82 783.16 1067.46 788.00 1092.00 C 792.85 1116.54 783.72 1144.21 786.00 1168.00 C 787.33 1142.65 795.95 1118.58 796.00 1093.00 C 796.05 1067.42 787.67 1042.51 787.00 1017.00 Z"/>
</g>
<g fill="#7F6E5A" fill-opacity="1.00" stroke="None">
<path d=" M 811.00 1104.00  C 809.65 1117.65 808.56 1132.52 809.00 1147.00 C 809.44 1161.49 807.30 1175.78 807.00 1190.00 C 806.70 1204.22 805.19 1219.79 806.00 1234.00 C 806.81 1248.21 802.98 1264.37 809.00 1276.00 C 814.66 1248.98 819.11 1220.97 816.00 1192.00 C 812.89 1163.04 813.08 1133.21 811.00 1104.00 Z"/>
</g>
</svg>