<svg xmlns="http://www.w3.org/2000/svg" xmlns:v="https://svgstorm.com" viewBox="0 0 1600 1257" width="1600" height="1257">

<g fill="None" fill-opacity="0.0" stroke="#42884C" stroke-opacity="1.00" stroke-width="0.3"><path d=" M 644.00 1117.00  C 644.49 1122.03 644.48 1128.03 644.00 1133.00 C 644.00 1160.29 639.00 1187.42 639.00 1215.00 C 639.00 1219.00 639.00 1223.00 639.00 1227.00 C 639.00 1236.53 639.86 1246.51 639.00 1256.00 C 643.00 1256.00 647.00 1256.00 651.00 1256.00 C 650.12 1243.86 652.38 1231.96 652.00 1220.00 C 651.62 1208.04 653.53 1197.72 654.00 1186.00 C 654.47 1174.28 656.45 1163.10 656.07 1151.07 C 655.70 1139.05 668.54 1139.42 677.99 1136.99 C 687.45 1134.57 696.58 1130.88 705.31 1127.31 C 714.03 1123.74 721.30 1119.65 729.31 1115.31 C 737.31 1110.96 745.10 1106.61 752.30 1101.30 C 759.51 1096.00 765.48 1091.03 772.25 1085.25 C 779.02 1079.47 785.16 1073.65 790.75 1066.75 C 796.34 1059.85 802.36 1054.44 806.75 1046.75 C 811.13 1039.06 817.21 1032.25 821.23 1024.23 C 825.25 1016.21 829.76 1008.55 833.08 1000.08 C 836.39 991.60 840.93 982.21 842.00 973.00 C 765.00 981.92 690.74 1035.36 662.00 1109.00 C 664.49 1063.93 677.38 1014.53 689.02 971.02 C 700.67 927.52 715.08 888.95 733.00 848.00 C 737.11 848.54 740.84 848.57 745.00 849.00 C 748.99 849.41 752.74 850.00 757.00 850.00 C 765.00 850.00 773.00 850.00 781.00 850.00 C 782.66 850.00 784.34 850.03 786.00 850.00 C 841.38 845.87 895.22 815.47 926.00 768.00 C 859.43 753.93 790.11 775.83 744.00 826.00 C 750.40 810.97 759.26 796.42 767.08 782.08 C 774.89 767.73 782.95 754.53 791.75 740.75 C 800.54 726.96 808.97 714.99 818.25 701.25 C 827.52 687.50 837.53 677.74 847.75 663.75 C 857.96 649.76 866.74 643.64 878.25 628.25 C 889.76 612.86 910.77 619.18 929.00 621.00 C 947.23 622.82 970.24 626.67 989.00 627.00 C 980.82 621.75 976.01 609.44 968.23 602.77 C 960.45 596.10 953.61 586.23 945.75 579.25 C 937.90 572.27 933.15 561.90 924.75 555.25 C 916.36 548.59 910.35 538.01 902.70 531.30 C 895.04 524.59 889.06 512.43 880.00 508.00 C 880.44 512.91 880.00 518.07 880.00 523.00 C 880.00 542.33 880.00 561.67 880.00 581.00 C 880.39 585.06 881.00 590.26 881.00 595.00 C 881.00 611.85 865.58 622.08 855.25 634.25 C 844.92 646.42 835.64 656.87 826.25 669.25 C 816.85 681.62 806.87 692.74 799.00 706.00 C 797.37 708.74 795.44 711.18 794.00 714.00 C 792.07 712.04 794.33 707.70 796.00 706.00 C 814.35 644.13 798.85 573.59 754.00 527.00 C 747.11 540.97 743.15 554.50 739.78 569.78 C 736.41 585.06 735.08 605.87 736.00 622.00 C 736.92 638.13 740.69 654.58 745.08 668.92 C 749.46 683.26 756.69 695.07 763.70 707.30 C 770.71 719.54 784.84 728.52 775.77 740.77 C 766.70 753.02 762.71 763.68 754.92 775.92 C 747.14 788.16 742.31 799.98 735.77 812.77 C 729.23 825.56 723.13 838.16 717.31 851.31 C 711.48 864.45 706.19 877.43 700.98 890.98 C 695.76 904.52 690.83 918.32 686.32 932.32 C 681.81 946.33 677.59 961.71 674.00 976.00 C 672.66 981.32 670.41 986.40 670.00 992.00 C 667.91 979.88 670.10 965.14 671.00 953.00 C 671.46 909.68 671.33 857.49 668.00 816.00 C 664.67 774.51 658.84 731.71 650.33 693.67 C 641.81 655.64 632.06 620.42 618.77 586.23 C 605.48 552.04 590.63 522.38 572.75 492.25 C 554.88 462.12 535.63 437.54 513.77 411.23 C 491.91 384.92 468.52 363.74 442.00 344.00 C 471.86 384.07 494.25 419.39 515.68 465.32 C 537.11 511.25 554.20 556.15 569.68 606.32 C 585.15 656.49 598.14 708.69 608.22 762.78 C 618.30 816.87 628.32 874.90 633.67 932.33 C 639.02 989.76 644.00 1057.39 644.00 1117.00 Z"/>
</g>
<g fill="None" fill-opacity="0.0" stroke="#65A1D4" stroke-opacity="1.00" stroke-width="0.3"><path d=" M 879.00 508.00  C 879.00 507.96 880.00 508.00 880.00 508.00 C 889.06 512.43 895.04 524.59 902.70 531.30 C 910.35 538.01 916.36 548.59 924.75 555.25 C 933.15 561.90 937.90 572.27 945.75 579.25 C 953.61 586.23 960.45 596.10 968.23 602.77 C 976.01 609.44 980.82 621.75 989.00 627.00 C 1001.25 626.34 1014.12 619.11 1026.99 615.99 C 1039.87 612.87 1051.98 607.22 1064.99 603.99 C 1078.00 600.77 1089.74 595.24 1102.99 591.99 C 1116.24 588.74 1130.13 585.31 1132.68 570.68 C 1135.23 556.04 1142.03 546.84 1145.22 533.22 C 1148.42 519.61 1156.14 509.83 1158.00 496.00 C 1151.32 495.43 1143.46 498.62 1137.00 498.00 C 1130.54 497.38 1121.71 500.83 1116.00 500.00 C 1110.30 499.17 1100.15 505.75 1098.00 500.00 C 1097.51 500.81 1096.49 501.61 1097.00 503.00 C 1063.11 505.41 1029.82 510.24 996.00 513.00 C 1002.12 480.80 1009.86 448.97 1017.00 417.00 C 1018.28 416.72 1020.50 417.76 1021.00 416.00 C 1019.67 416.00 1018.33 416.00 1017.00 416.00 C 1021.42 396.02 1026.51 376.18 1030.00 356.00 C 999.09 361.13 968.84 368.77 938.00 374.00 C 934.56 383.15 929.87 392.26 926.31 401.31 C 922.74 410.35 917.53 419.06 913.98 427.98 C 910.42 436.89 905.48 445.44 902.32 454.32 C 899.16 463.21 892.65 472.52 890.31 481.31 C 887.97 490.10 878.39 499.10 879.00 508.00 Z"/>
</g>
<g fill="None" fill-opacity="0.0" stroke="#4786B8" stroke-opacity="1.00" stroke-width="0.3"><path d=" M 1021.00 416.00  C 1020.50 417.76 1018.28 416.72 1017.00 417.00 C 1009.86 448.97 1002.12 480.80 996.00 513.00 C 1029.82 510.24 1063.11 505.41 1097.00 503.00 C 1096.49 501.61 1097.51 500.81 1098.00 500.00 C 1107.90 465.74 1117.58 431.40 1127.00 397.00 C 1092.64 406.41 1054.92 405.28 1021.00 416.00 Z"/>
</g>
<g fill="None" fill-opacity="0.0" stroke="#96B99E" stroke-opacity="1.00" stroke-width="0.3"><path d=" M 880.00 523.00  C 880.00 518.07 880.44 512.91 880.00 508.00 C 880.00 508.00 879.00 507.96 879.00 508.00 C 878.54 513.07 879.58 518.64 880.00 523.00 Z"/>
</g>
<g fill="None" fill-opacity="0.0" stroke="#A3C3A8" stroke-opacity="1.00" stroke-width="0.3"><path d=" M 881.00 595.00  C 881.00 590.26 880.39 585.06 880.00 581.00 C 880.00 585.74 880.61 590.94 881.00 595.00 Z"/>
</g>
<g fill="None" fill-opacity="0.0" stroke="#A7CAAD" stroke-opacity="1.00" stroke-width="0.3"><path d=" M 799.00 706.00  C 798.02 706.87 794.38 707.18 796.00 706.00 C 794.33 707.70 792.07 712.04 794.00 714.00 C 795.44 711.18 797.37 708.74 799.00 706.00 Z"/>
</g>
<g fill="None" fill-opacity="0.0" stroke="#CFE5D2" stroke-opacity="1.00" stroke-width="0.3"><path d=" M 786.00 850.00  C 784.34 850.03 782.66 850.00 781.00 850.00 C 773.44 850.80 764.48 850.72 757.00 850.00 C 752.74 850.00 748.99 849.41 745.00 849.00 C 758.38 851.77 772.28 852.65 786.00 850.00 Z"/>
</g>
<g fill="None" fill-opacity="0.0" stroke="#6E9874" stroke-opacity="1.00" stroke-width="0.3"><path d=" M 781.00 850.00  C 773.00 850.00 765.00 850.00 757.00 850.00 C 764.48 850.72 773.44 850.80 781.00 850.00 Z"/>
</g>
<g fill="None" fill-opacity="0.0" stroke="#CCE2CF" stroke-opacity="1.00" stroke-width="0.3"><path d=" M 674.00 976.00  C 672.12 975.48 672.13 977.43 671.00 978.00 C 671.00 969.67 671.00 961.33 671.00 953.00 C 670.10 965.14 667.91 979.88 670.00 992.00 C 670.41 986.40 672.66 981.32 674.00 976.00 Z"/>
</g>
<g fill="None" fill-opacity="0.0" stroke="#9CC0A1" stroke-opacity="1.00" stroke-width="0.3"><path d=" M 644.00 1133.00  C 644.48 1128.03 644.49 1122.03 644.00 1117.00 C 644.00 1122.33 644.00 1127.67 644.00 1133.00 Z"/>
</g>
<g fill="None" fill-opacity="0.0" stroke="#D0E8D5" stroke-opacity="1.00" stroke-width="0.3"><path d=" M 638.00 1256.00  C 637.14 1246.53 638.16 1235.69 639.00 1227.00 C 639.00 1223.00 639.00 1219.00 639.00 1215.00 C 638.55 1219.61 637.02 1231.28 637.00 1236.00 C 636.98 1240.72 637.68 1256.21 638.00 1256.00 Z"/>
</g>
<g fill="None" fill-opacity="0.0" stroke="#70A07A" stroke-opacity="1.00" stroke-width="0.3"><path d=" M 638.00 1256.00  C 638.00 1256.00 638.50 1256.00 639.00 1256.00 C 639.86 1246.51 639.00 1236.53 639.00 1227.00 C 638.16 1235.69 637.14 1246.53 638.00 1256.00 Z"/>
</g>
<g fill="#FEFFFE" fill-opacity="1.00" stroke="None">

</g>
<g fill="#42884C" fill-opacity="1.00" stroke="None">
<path d=" M 644.00 1117.00  C 644.49 1122.03 644.48 1128.03 644.00 1133.00 C 644.00 1160.29 639.00 1187.42 639.00 1215.00 C 639.00 1219.00 639.00 1223.00 639.00 1227.00 C 639.00 1236.53 639.86 1246.51 639.00 1256.00 C 643.00 1256.00 647.00 1256.00 651.00 1256.00 C 650.12 1243.86 652.38 1231.96 652.00 1220.00 C 651.62 1208.04 653.53 1197.72 654.00 1186.00 C 654.47 1174.28 656.45 1163.10 656.07 1151.07 C 655.70 1139.05 668.54 1139.42 677.99 1136.99 C 687.45 1134.57 696.58 1130.88 705.31 1127.31 C 714.03 1123.74 721.30 1119.65 729.31 1115.31 C 737.31 1110.96 745.10 1106.61 752.30 1101.30 C 759.51 1096.00 765.48 1091.03 772.25 1085.25 C 779.02 1079.47 785.16 1073.65 790.75 1066.75 C 796.34 1059.85 802.36 1054.44 806.75 1046.75 C 811.13 1039.06 817.21 1032.25 821.23 1024.23 C 825.25 1016.21 829.76 1008.55 833.08 1000.08 C 836.39 991.60 840.93 982.21 842.00 973.00 C 765.00 981.92 690.74 1035.36 662.00 1109.00 C 664.49 1063.93 677.38 1014.53 689.02 971.02 C 700.67 927.52 715.08 888.95 733.00 848.00 C 737.11 848.54 740.84 848.57 745.00 849.00 C 748.99 849.41 752.74 850.00 757.00 850.00 C 765.00 850.00 773.00 850.00 781.00 850.00 C 782.66 850.00 784.34 850.03 786.00 850.00 C 841.38 845.87 895.22 815.47 926.00 768.00 C 859.43 753.93 790.11 775.83 744.00 826.00 C 750.40 810.97 759.26 796.42 767.08 782.08 C 774.89 767.73 782.95 754.53 791.75 740.75 C 800.54 726.96 808.97 714.99 818.25 701.25 C 827.52 687.50 837.53 677.74 847.75 663.75 C 857.96 649.76 866.74 643.64 878.25 628.25 C 889.76 612.86 910.77 619.18 929.00 621.00 C 947.23 622.82 970.24 626.67 989.00 627.00 C 980.82 621.75 976.01 609.44 968.23 602.77 C 960.45 596.10 953.61 586.23 945.75 579.25 C 937.90 572.27 933.15 561.90 924.75 555.25 C 916.36 548.59 910.35 538.01 902.70 531.30 C 895.04 524.59 889.06 512.43 880.00 508.00 C 880.44 512.91 880.00 518.07 880.00 523.00 C 880.00 542.33 880.00 561.67 880.00 581.00 C 880.39 585.06 881.00 590.26 881.00 595.00 C 881.00 611.85 865.58 622.08 855.25 634.25 C 844.92 646.42 835.64 656.87 826.25 669.25 C 816.85 681.62 806.87 692.74 799.00 706.00 C 797.37 708.74 795.44 711.18 794.00 714.00 C 792.07 712.04 794.33 707.70 796.00 706.00 C 814.35 644.13 798.85 573.59 754.00 527.00 C 747.11 540.97 743.15 554.50 739.78 569.78 C 736.41 585.06 735.08 605.87 736.00 622.00 C 736.92 638.13 740.69 654.58 745.08 668.92 C 749.46 683.26 756.69 695.07 763.70 707.30 C 770.71 719.54 784.84 728.52 775.77 740.77 C 766.70 753.02 762.71 763.68 754.92 775.92 C 747.14 788.16 742.31 799.98 735.77 812.77 C 729.23 825.56 723.13 838.16 717.31 851.31 C 711.48 864.45 706.19 877.43 700.98 890.98 C 695.76 904.52 690.83 918.32 686.32 932.32 C 681.81 946.33 677.59 961.71 674.00 976.00 C 672.66 981.32 670.41 986.40 670.00 992.00 C 667.91 979.88 670.10 965.14 671.00 953.00 C 671.46 909.68 671.33 857.49 668.00 816.00 C 664.67 774.51 658.84 731.71 650.33 693.67 C 641.81 655.64 632.06 620.42 618.77 586.23 C 605.48 552.04 590.63 522.38 572.75 492.25 C 554.88 462.12 535.63 437.54 513.77 411.23 C 491.91 384.92 468.52 363.74 442.00 344.00 C 471.86 384.07 494.25 419.39 515.68 465.32 C 537.11 511.25 554.20 556.15 569.68 606.32 C 585.15 656.49 598.14 708.69 608.22 762.78 C 618.30 816.87 628.32 874.90 633.67 932.33 C 639.02 989.76 644.00 1057.39 644.00 1117.00 Z"/>
</g>
<g fill="#65A1D4" fill-opacity="1.00" stroke="None">
<path d=" M 879.00 508.00  C 879.00 507.96 880.00 508.00 880.00 508.00 C 889.06 512.43 895.04 524.59 902.70 531.30 C 910.35 538.01 916.36 548.59 924.75 555.25 C 933.15 561.90 937.90 572.27 945.75 579.25 C 953.61 586.23 960.45 596.10 968.23 602.77 C 976.01 609.44 980.82 621.75 989.00 627.00 C 1001.25 626.34 1014.12 619.11 1026.99 615.99 C 1039.87 612.87 1051.98 607.22 1064.99 603.99 C 1078.00 600.77 1089.74 595.24 1102.99 591.99 C 1116.24 588.74 1130.13 585.31 1132.68 570.68 C 1135.23 556.04 1142.03 546.84 1145.22 533.22 C 1148.42 519.61 1156.14 509.83 1158.00 496.00 C 1151.32 495.43 1143.46 498.62 1137.00 498.00 C 1130.54 497.38 1121.71 500.83 1116.00 500.00 C 1110.30 499.17 1100.15 505.75 1098.00 500.00 C 1097.51 500.81 1096.49 501.61 1097.00 503.00 C 1063.11 505.41 1029.82 510.24 996.00 513.00 C 1002.12 480.80 1009.86 448.97 1017.00 417.00 C 1018.28 416.72 1020.50 417.76 1021.00 416.00 C 1019.67 416.00 1018.33 416.00 1017.00 416.00 C 1021.42 396.02 1026.51 376.18 1030.00 356.00 C 999.09 361.13 968.84 368.77 938.00 374.00 C 934.56 383.15 929.87 392.26 926.31 401.31 C 922.74 410.35 917.53 419.06 913.98 427.98 C 910.42 436.89 905.48 445.44 902.32 454.32 C 899.16 463.21 892.65 472.52 890.31 481.31 C 887.97 490.10 878.39 499.10 879.00 508.00 Z"/>
</g>
<g fill="#4786B8" fill-opacity="1.00" stroke="None">
<path d=" M 1021.00 416.00  C 1020.50 417.76 1018.28 416.72 1017.00 417.00 C 1009.86 448.97 1002.12 480.80 996.00 513.00 C 1029.82 510.24 1063.11 505.41 1097.00 503.00 C 1096.49 501.61 1097.51 500.81 1098.00 500.00 C 1107.90 465.74 1117.58 431.40 1127.00 397.00 C 1092.64 406.41 1054.92 405.28 1021.00 416.00 Z"/>
</g>
<g fill="#96B99E" fill-opacity="1.00" stroke="None">
<path d=" M 880.00 523.00  C 880.00 518.07 880.44 512.91 880.00 508.00 C 880.00 508.00 879.00 507.96 879.00 508.00 C 878.54 513.07 879.58 518.64 880.00 523.00 Z"/>
</g>
<g fill="#A3C3A8" fill-opacity="1.00" stroke="None">
<path d=" M 881.00 595.00  C 881.00 590.26 880.39 585.06 880.00 581.00 C 880.00 585.74 880.61 590.94 881.00 595.00 Z"/>
</g>
<g fill="#A7CAAD" fill-opacity="1.00" stroke="None">
<path d=" M 799.00 706.00  C 798.02 706.87 794.38 707.18 796.00 706.00 C 794.33 707.70 792.07 712.04 794.00 714.00 C 795.44 711.18 797.37 708.74 799.00 706.00 Z"/>
</g>
<g fill="#CFE5D2" fill-opacity="1.00" stroke="None">
<path d=" M 786.00 850.00  C 784.34 850.03 782.66 850.00 781.00 850.00 C 773.44 850.80 764.48 850.72 757.00 850.00 C 752.74 850.00 748.99 849.41 745.00 849.00 C 758.38 851.77 772.28 852.65 786.00 850.00 Z"/>
</g>
<g fill="#6E9874" fill-opacity="1.00" stroke="None">
<path d=" M 781.00 850.00  C 773.00 850.00 765.00 850.00 757.00 850.00 C 764.48 850.72 773.44 850.80 781.00 850.00 Z"/>
</g>
<g fill="#CCE2CF" fill-opacity="1.00" stroke="None">
<path d=" M 674.00 976.00  C 672.12 975.48 672.13 977.43 671.00 978.00 C 671.00 969.67 671.00 961.33 671.00 953.00 C 670.10 965.14 667.91 979.88 670.00 992.00 C 670.41 986.40 672.66 981.32 674.00 976.00 Z"/>
</g>
<g fill="#9CC0A1" fill-opacity="1.00" stroke="None">
<path d=" M 644.00 1133.00  C 644.48 1128.03 644.49 1122.03 644.00 1117.00 C 644.00 1122.33 644.00 1127.67 644.00 1133.00 Z"/>
</g>
<g fill="#D0E8D5" fill-opacity="1.00" stroke="None">
<path d=" M 638.00 1256.00  C 637.14 1246.53 638.16 1235.69 639.00 1227.00 C 639.00 1223.00 639.00 1219.00 639.00 1215.00 C 638.55 1219.61 637.02 1231.28 637.00 1236.00 C 636.98 1240.72 637.68 1256.21 638.00 1256.00 Z"/>
</g>
<g fill="#70A07A" fill-opacity="1.00" stroke="None">
<path d=" M 638.00 1256.00  C 638.00 1256.00 638.50 1256.00 639.00 1256.00 C 639.86 1246.51 639.00 1236.53 639.00 1227.00 C 638.16 1235.69 637.14 1246.53 638.00 1256.00 Z"/>
</g>
</svg>