<svg xmlns="http://www.w3.org/2000/svg" xmlns:v="https://svgstorm.com" viewBox="0 0 1600 1314" width="1600" height="1314">

<g fill="blue" fill-opacity="0.0" stroke="red" stroke-opacity="1.00" stroke-width="0.3"><path xmlns="http://www.w3.org/2000/svg" d=" M 791.00 890.00  C 794.47 903.37 791.78 919.50 792.00 934.00 C 792.22 948.50 793.32 965.42 792.00 980.00 C 797.27 979.99 802.76 980.46 808.00 980.00 C 807.96 980.00 808.00 979.00 808.00 979.00 C 808.00 962.97 804.68 941.40 810.00 927.00 C 815.60 917.13 816.64 903.55 823.23 894.23 C 829.82 884.91 845.55 886.10 856.32 882.32 C 867.09 878.54 881.49 876.18 892.98 872.98 C 904.46 869.77 916.53 866.14 928.33 863.33 C 940.13 860.52 941.66 846.98 946.07 836.07 C 950.49 825.17 954.56 813.67 958.68 802.68 C 962.80 791.68 966.76 780.93 971.03 770.03 C 975.29 759.12 980.05 748.31 983.00 737.00 C 970.39 739.88 957.67 743.28 945.07 746.07 C 932.48 748.87 921.83 753.79 909.01 756.01 C 896.19 758.23 885.71 764.03 872.22 765.22 C 858.74 766.42 851.49 775.84 848.32 788.32 C 845.15 800.80 839.72 810.22 835.92 821.92 C 832.13 833.63 826.97 843.58 822.98 854.98 C 818.98 866.37 814.34 876.83 810.00 888.00 C 806.05 878.36 808.40 863.13 808.00 851.00 C 807.60 838.87 808.00 824.01 808.00 812.00 C 808.00 799.99 807.14 785.19 809.22 774.22 C 811.30 763.26 816.06 755.48 819.70 745.70 C 823.33 735.91 827.82 728.29 832.07 719.07 C 836.33 709.85 838.08 698.87 848.78 696.78 C 859.47 694.68 868.57 690.34 878.99 687.99 C 889.42 685.65 899.86 682.72 910.00 680.00 C 920.13 677.28 931.35 675.37 940.99 671.99 C 950.63 668.62 963.08 668.08 971.93 663.93 C 980.77 659.77 995.54 661.77 1000.68 653.68 C 1005.82 645.59 1007.05 634.07 1011.22 625.22 C 1015.39 616.38 1017.94 606.13 1022.02 597.02 C 1026.11 587.92 1028.46 577.53 1032.23 568.23 C 1036.00 558.93 1039.65 549.49 1043.07 540.07 C 1046.50 530.65 1050.67 521.46 1054.07 512.07 C 1057.48 502.69 1061.57 493.63 1064.00 484.00 C 1052.20 487.84 1039.12 489.95 1027.22 493.22 C 1015.32 496.50 1003.83 499.78 992.02 503.02 C 980.22 506.27 967.06 508.83 955.68 512.68 C 944.30 516.52 930.79 517.92 920.07 522.07 C 909.35 526.22 892.61 524.96 886.77 534.77 C 880.93 544.58 878.87 556.48 873.93 566.93 C 868.98 577.38 866.00 589.65 861.32 600.32 C 856.64 610.99 853.34 622.14 848.93 632.93 C 844.51 643.72 840.72 655.58 836.31 666.31 C 831.89 677.03 827.85 687.51 822.92 697.92 C 818.00 708.33 813.53 718.46 809.00 729.00 C 806.75 715.97 808.56 700.85 808.00 687.00 C 807.44 673.15 808.68 658.82 808.00 645.00 C 807.32 631.18 809.36 617.52 809.00 604.00 C 808.64 590.48 812.36 577.96 811.67 564.67 C 810.98 551.38 823.22 549.28 832.25 543.25 C 841.29 537.22 849.15 532.75 858.25 527.25 C 867.36 521.75 874.84 516.41 884.30 511.30 C 893.76 506.19 900.91 499.94 910.92 494.92 C 920.93 489.90 925.61 483.90 936.92 478.92 C 948.24 473.95 949.90 462.00 949.00 449.00 C 948.10 436.00 952.45 423.24 952.00 410.00 C 951.55 396.76 953.09 383.10 954.00 370.00 C 954.91 356.90 955.50 343.28 956.00 330.00 C 956.50 316.72 957.76 303.36 958.00 290.00 C 947.11 296.35 936.45 303.15 925.70 309.70 C 914.95 316.24 904.77 322.28 894.08 329.08 C 883.39 335.89 873.11 341.23 862.23 348.23 C 851.35 355.23 841.58 361.09 830.08 368.08 C 818.58 375.07 805.05 379.20 805.98 394.98 C 806.91 410.75 802.86 427.00 803.00 443.00 C 803.14 459.00 800.36 475.95 799.93 491.93 C 799.50 507.90 797.81 524.13 796.93 539.93 C 796.04 555.72 794.80 571.10 792.00 586.00 C 788.65 574.81 782.72 564.74 777.92 554.08 C 773.13 543.41 768.08 533.01 763.98 522.02 C 759.87 511.04 755.94 499.50 751.32 488.68 C 746.70 477.85 743.54 465.92 738.78 455.22 C 734.02 444.53 730.89 432.49 725.92 422.08 C 720.96 411.66 719.51 399.22 713.32 389.68 C 707.13 380.13 690.91 381.24 680.01 376.99 C 669.10 372.74 654.69 371.37 643.07 367.93 C 631.45 364.48 618.83 361.37 607.00 358.00 C 595.18 354.63 582.05 352.31 570.22 348.78 C 558.39 345.25 546.64 343.16 535.00 339.00 C 540.07 351.35 544.42 364.35 549.23 376.77 C 554.04 389.19 558.63 401.29 563.23 413.77 C 567.83 426.26 573.37 437.65 577.68 450.32 C 581.98 462.99 587.10 474.84 591.22 487.78 C 595.35 500.71 599.14 514.67 613.99 516.01 C 628.84 517.35 640.27 523.90 654.33 526.67 C 668.39 529.44 681.15 533.91 694.98 537.02 C 708.80 540.14 721.79 544.63 735.77 547.23 C 749.75 549.83 761.46 554.23 765.70 568.31 C 769.93 582.38 777.54 589.31 781.68 603.32 C 785.82 617.33 792.85 627.98 792.00 644.00 C 791.15 660.02 792.43 678.48 792.00 695.00 C 791.57 711.52 792.29 729.29 792.00 746.00 C 791.71 762.71 792.35 780.30 792.00 797.00 C 791.65 813.70 793.10 831.10 791.00 847.00 C 787.27 836.02 782.15 825.51 776.92 815.08 C 771.70 804.65 767.69 794.47 763.32 783.68 C 758.96 772.88 755.39 760.85 750.93 750.07 C 746.47 739.30 743.42 727.87 738.77 717.23 C 734.12 706.59 730.93 694.41 725.92 684.08 C 720.92 673.74 719.03 661.60 712.92 652.08 C 706.82 642.55 689.20 644.91 678.68 640.32 C 668.15 635.73 654.50 634.36 643.07 630.93 C 631.65 627.49 618.72 624.37 607.02 620.98 C 595.33 617.59 582.80 615.34 571.01 611.99 C 559.22 608.65 546.97 605.72 535.00 603.00 C 540.25 614.70 544.36 627.10 549.08 638.92 C 553.79 650.75 558.01 662.55 562.68 674.32 C 567.34 686.10 571.34 699.23 576.22 710.78 C 581.11 722.32 584.50 735.24 589.69 746.31 C 594.89 757.37 594.73 773.91 607.33 777.67 C 619.93 781.43 634.42 784.08 646.99 788.01 C 659.56 791.94 673.75 793.65 685.98 798.02 C 698.20 802.40 713.38 803.42 724.98 808.02 C 736.57 812.63 754.75 811.36 761.23 821.77 C 767.71 832.18 771.73 843.93 777.08 854.92 C 782.42 865.92 787.95 878.23 791.00 890.00 Z" style="&#10;    color: red;&#10;    fill: aliceblue;&#10;"/>
</g>
<g fill="None" fill-opacity="0.0" stroke="#C3D0C6" stroke-opacity="1.00" stroke-width="0.3"><path d=" M 791.00 980.00  C 791.50 980.00 792.00 980.00 792.00 980.00 C 793.32 965.42 792.22 948.50 792.00 934.00 C 791.78 919.50 794.47 903.37 791.00 890.00 C 794.93 919.46 788.34 950.38 791.00 980.00 Z"/>
</g>
<g fill="None" fill-opacity="0.0" stroke="#BFCCC3" stroke-opacity="1.00" stroke-width="0.3"><path d=" M 808.00 979.00  C 808.25 978.75 809.00 979.00 809.00 979.00 C 810.53 962.06 806.13 943.39 810.00 927.00 C 804.68 941.40 808.00 962.97 808.00 979.00 Z"/>
</g>
<g fill="None" fill-opacity="0.0" stroke="#FAE7DC" stroke-opacity="1.00" stroke-width="0.3"><path d=" M 808.00 980.00  C 820.31 981.11 832.62 979.37 845.00 980.00 C 857.38 980.63 870.64 979.41 883.00 980.00 C 895.36 980.59 908.87 979.06 921.00 980.00 C 933.14 980.94 947.44 978.07 959.00 980.00 C 970.56 981.93 986.08 975.33 996.00 981.00 C 993.51 975.52 980.06 980.16 974.00 979.00 C 967.94 977.84 957.02 979.54 950.00 979.00 C 942.98 978.46 934.51 979.23 927.00 979.00 C 919.49 978.77 910.74 979.11 903.00 979.00 C 895.26 978.89 886.79 979.05 879.00 979.00 C 871.21 978.95 863.81 979.02 856.00 979.00 C 848.19 978.98 839.80 979.01 832.00 979.00 C 824.20 978.99 816.77 979.00 809.00 979.00 C 809.00 979.00 808.25 978.75 808.00 979.00 C 808.00 979.00 807.96 980.00 808.00 980.00 Z"/>
</g>
<g fill="None" fill-opacity="0.0" stroke="#CC7C5D" stroke-opacity="1.00" stroke-width="0.3"><path d=" M 600.00 987.00  C 598.05 997.87 600.00 1010.93 600.00 1022.00 C 600.00 1033.07 598.05 1046.13 600.00 1057.00 C 604.79 1072.16 628.04 1058.04 630.67 1071.33 C 633.30 1084.62 634.96 1095.39 638.00 1108.00 C 641.04 1120.61 642.12 1132.55 645.02 1144.98 C 647.93 1157.40 650.52 1169.83 652.67 1182.33 C 654.82 1194.83 657.91 1206.57 660.00 1219.00 C 662.10 1231.42 664.69 1243.59 667.07 1255.93 C 669.45 1268.26 671.92 1280.59 674.00 1293.00 C 758.00 1293.00 842.00 1293.00 926.00 1293.00 C 940.69 1220.33 952.47 1147.18 969.00 1075.00 C 969.51 1072.79 968.88 1067.85 970.00 1066.00 C 974.29 1058.93 995.71 1070.23 998.77 1058.77 C 1001.83 1047.31 999.55 1036.01 1000.00 1024.00 C 1000.45 1011.99 1000.01 999.09 1000.00 987.00 C 1000.00 986.50 1000.15 985.45 1000.00 985.00 C 995.02 976.51 981.08 982.21 972.00 981.00 C 962.92 979.79 949.12 981.53 939.00 981.00 C 928.88 980.47 916.58 981.20 906.00 981.00 C 895.42 980.80 883.75 981.01 873.00 981.00 C 862.25 980.99 850.75 980.82 840.00 981.00 C 829.25 981.18 817.94 980.96 808.00 980.00 C 802.76 980.46 797.27 979.99 792.00 980.00 C 792.00 980.00 791.50 980.00 791.00 980.00 C 774.97 980.00 756.82 979.72 741.00 980.00 C 725.18 980.28 707.12 979.24 692.00 980.00 C 676.88 980.76 655.56 978.30 642.00 980.00 C 628.44 981.70 604.41 973.05 600.00 987.00 Z"/>
</g>
<g fill="None" fill-opacity="0.0" stroke="#C79882" stroke-opacity="1.00" stroke-width="0.3"><path d=" M 1000.00 985.00  C 999.59 983.74 997.82 981.96 997.00 981.00 C 997.00 981.00 996.38 981.22 996.00 981.00 C 986.08 975.33 970.56 981.93 959.00 980.00 C 947.44 978.07 933.14 980.94 921.00 980.00 C 908.87 979.06 895.36 980.59 883.00 980.00 C 870.64 979.41 857.38 980.63 845.00 980.00 C 832.62 979.37 820.31 981.11 808.00 980.00 C 817.94 980.96 829.25 981.18 840.00 981.00 C 850.75 980.82 862.25 980.99 873.00 981.00 C 883.75 981.01 895.42 980.80 906.00 981.00 C 916.58 981.20 928.88 980.47 939.00 981.00 C 949.12 981.53 962.92 979.79 972.00 981.00 C 981.08 982.21 995.02 976.51 1000.00 985.00 Z"/>
</g>
<g fill="None" fill-opacity="0.0" stroke="#F7E2D7" stroke-opacity="1.00" stroke-width="0.3"><path d=" M 1000.00 985.00  C 1000.15 985.45 1000.00 986.50 1000.00 987.00 C 1003.96 996.31 1000.83 1012.40 1001.00 1023.00 C 1001.17 1033.61 1003.51 1049.12 1000.00 1059.00 C 1005.14 1056.64 1000.94 1044.37 1002.00 1039.00 C 1003.06 1033.63 1001.52 1024.03 1002.00 1018.00 C 1002.48 1011.97 1001.78 1003.05 1002.00 997.00 C 1002.22 990.95 1003.17 984.02 997.00 981.00 C 997.82 981.96 999.59 983.74 1000.00 985.00 Z"/>
</g>
<g fill="None" fill-opacity="0.0" stroke="#CAA798" stroke-opacity="1.00" stroke-width="0.3"><path d=" M 600.00 1057.00  C 598.05 1046.13 600.00 1033.07 600.00 1022.00 C 600.00 1010.93 598.05 997.87 600.00 987.00 C 596.91 996.77 598.99 1011.18 599.00 1022.00 C 599.01 1032.82 596.89 1047.16 600.00 1057.00 Z"/>
</g>
<g fill="None" fill-opacity="0.0" stroke="#BF9381" stroke-opacity="1.00" stroke-width="0.3"><path d=" M 970.00 1066.00  C 972.79 1062.80 982.24 1064.83 987.00 1065.00 C 991.76 1065.17 995.93 1062.83 1000.00 1060.00 C 1000.00 1060.00 999.84 1059.44 1000.00 1059.00 C 1003.51 1049.12 1001.17 1033.61 1001.00 1023.00 C 1000.83 1012.40 1003.96 996.31 1000.00 987.00 C 1000.01 999.09 1000.45 1011.99 1000.00 1024.00 C 999.55 1036.01 1001.83 1047.31 998.77 1058.77 C 995.71 1070.23 974.29 1058.93 970.00 1066.00 Z"/>
</g>
<g fill="None" fill-opacity="0.0" stroke="#F8E5DB" stroke-opacity="1.00" stroke-width="0.3"><path d=" M 970.00 1066.00  C 968.88 1067.85 969.51 1072.79 969.00 1075.00 C 970.68 1072.73 971.05 1069.09 971.00 1066.00 C 980.10 1064.25 994.82 1070.60 1000.00 1060.00 C 995.93 1062.83 991.76 1065.17 987.00 1065.00 C 982.24 1064.83 972.79 1062.80 970.00 1066.00 Z"/>
</g>
<g fill="None" fill-opacity="0.0" stroke="#262121" stroke-opacity="1.00" stroke-width="0.3"><path d=" M 926.00 1293.00  C 842.00 1293.00 758.00 1293.00 674.00 1293.00 C 661.10 1293.00 647.87 1291.75 635.00 1293.00 C 622.13 1294.25 609.23 1289.33 596.70 1293.70 C 584.16 1298.06 594.58 1313.50 607.00 1310.00 C 619.42 1306.50 633.30 1311.59 646.00 1310.00 C 658.70 1308.41 672.22 1310.73 685.00 1310.00 C 697.78 1309.27 710.18 1310.31 723.00 1310.00 C 735.82 1309.69 749.16 1310.12 762.00 1310.00 C 774.84 1309.88 787.14 1310.00 800.00 1310.00 C 812.86 1310.00 826.10 1309.88 839.00 1310.00 C 851.90 1310.12 865.14 1309.69 878.00 1310.00 C 890.86 1310.31 903.16 1309.27 916.00 1310.00 C 928.84 1310.73 942.18 1308.42 955.00 1310.00 C 967.82 1311.58 981.32 1306.50 994.00 1310.00 C 1006.68 1313.50 1015.46 1296.69 1002.67 1293.33 C 989.88 1289.97 976.84 1294.12 964.00 1293.00 C 951.16 1291.88 938.79 1293.00 926.00 1293.00 Z"/>
</g>
<g fill="#FEFFFE" fill-opacity="1.00" stroke="None">

</g>
<g fill="#739580" fill-opacity="1.00" stroke="None">
<path d=" M 791.00 890.00  C 794.47 903.37 791.78 919.50 792.00 934.00 C 792.22 948.50 793.32 965.42 792.00 980.00 C 797.27 979.99 802.76 980.46 808.00 980.00 C 807.96 980.00 808.00 979.00 808.00 979.00 C 808.00 962.97 804.68 941.40 810.00 927.00 C 815.60 917.13 816.64 903.55 823.23 894.23 C 829.82 884.91 845.55 886.10 856.32 882.32 C 867.09 878.54 881.49 876.18 892.98 872.98 C 904.46 869.77 916.53 866.14 928.33 863.33 C 940.13 860.52 941.66 846.98 946.07 836.07 C 950.49 825.17 954.56 813.67 958.68 802.68 C 962.80 791.68 966.76 780.93 971.03 770.03 C 975.29 759.12 980.05 748.31 983.00 737.00 C 970.39 739.88 957.67 743.28 945.07 746.07 C 932.48 748.87 921.83 753.79 909.01 756.01 C 896.19 758.23 885.71 764.03 872.22 765.22 C 858.74 766.42 851.49 775.84 848.32 788.32 C 845.15 800.80 839.72 810.22 835.92 821.92 C 832.13 833.63 826.97 843.58 822.98 854.98 C 818.98 866.37 814.34 876.83 810.00 888.00 C 806.05 878.36 808.40 863.13 808.00 851.00 C 807.60 838.87 808.00 824.01 808.00 812.00 C 808.00 799.99 807.14 785.19 809.22 774.22 C 811.30 763.26 816.06 755.48 819.70 745.70 C 823.33 735.91 827.82 728.29 832.07 719.07 C 836.33 709.85 838.08 698.87 848.78 696.78 C 859.47 694.68 868.57 690.34 878.99 687.99 C 889.42 685.65 899.86 682.72 910.00 680.00 C 920.13 677.28 931.35 675.37 940.99 671.99 C 950.63 668.62 963.08 668.08 971.93 663.93 C 980.77 659.77 995.54 661.77 1000.68 653.68 C 1005.82 645.59 1007.05 634.07 1011.22 625.22 C 1015.39 616.38 1017.94 606.13 1022.02 597.02 C 1026.11 587.92 1028.46 577.53 1032.23 568.23 C 1036.00 558.93 1039.65 549.49 1043.07 540.07 C 1046.50 530.65 1050.67 521.46 1054.07 512.07 C 1057.48 502.69 1061.57 493.63 1064.00 484.00 C 1052.20 487.84 1039.12 489.95 1027.22 493.22 C 1015.32 496.50 1003.83 499.78 992.02 503.02 C 980.22 506.27 967.06 508.83 955.68 512.68 C 944.30 516.52 930.79 517.92 920.07 522.07 C 909.35 526.22 892.61 524.96 886.77 534.77 C 880.93 544.58 878.87 556.48 873.93 566.93 C 868.98 577.38 866.00 589.65 861.32 600.32 C 856.64 610.99 853.34 622.14 848.93 632.93 C 844.51 643.72 840.72 655.58 836.31 666.31 C 831.89 677.03 827.85 687.51 822.92 697.92 C 818.00 708.33 813.53 718.46 809.00 729.00 C 806.75 715.97 808.56 700.85 808.00 687.00 C 807.44 673.15 808.68 658.82 808.00 645.00 C 807.32 631.18 809.36 617.52 809.00 604.00 C 808.64 590.48 812.36 577.96 811.67 564.67 C 810.98 551.38 823.22 549.28 832.25 543.25 C 841.29 537.22 849.15 532.75 858.25 527.25 C 867.36 521.75 874.84 516.41 884.30 511.30 C 893.76 506.19 900.91 499.94 910.92 494.92 C 920.93 489.90 925.61 483.90 936.92 478.92 C 948.24 473.95 949.90 462.00 949.00 449.00 C 948.10 436.00 952.45 423.24 952.00 410.00 C 951.55 396.76 953.09 383.10 954.00 370.00 C 954.91 356.90 955.50 343.28 956.00 330.00 C 956.50 316.72 957.76 303.36 958.00 290.00 C 947.11 296.35 936.45 303.15 925.70 309.70 C 914.95 316.24 904.77 322.28 894.08 329.08 C 883.39 335.89 873.11 341.23 862.23 348.23 C 851.35 355.23 841.58 361.09 830.08 368.08 C 818.58 375.07 805.05 379.20 805.98 394.98 C 806.91 410.75 802.86 427.00 803.00 443.00 C 803.14 459.00 800.36 475.95 799.93 491.93 C 799.50 507.90 797.81 524.13 796.93 539.93 C 796.04 555.72 794.80 571.10 792.00 586.00 C 788.65 574.81 782.72 564.74 777.92 554.08 C 773.13 543.41 768.08 533.01 763.98 522.02 C 759.87 511.04 755.94 499.50 751.32 488.68 C 746.70 477.85 743.54 465.92 738.78 455.22 C 734.02 444.53 730.89 432.49 725.92 422.08 C 720.96 411.66 719.51 399.22 713.32 389.68 C 707.13 380.13 690.91 381.24 680.01 376.99 C 669.10 372.74 654.69 371.37 643.07 367.93 C 631.45 364.48 618.83 361.37 607.00 358.00 C 595.18 354.63 582.05 352.31 570.22 348.78 C 558.39 345.25 546.64 343.16 535.00 339.00 C 540.07 351.35 544.42 364.35 549.23 376.77 C 554.04 389.19 558.63 401.29 563.23 413.77 C 567.83 426.26 573.37 437.65 577.68 450.32 C 581.98 462.99 587.10 474.84 591.22 487.78 C 595.35 500.71 599.14 514.67 613.99 516.01 C 628.84 517.35 640.27 523.90 654.33 526.67 C 668.39 529.44 681.15 533.91 694.98 537.02 C 708.80 540.14 721.79 544.63 735.77 547.23 C 749.75 549.83 761.46 554.23 765.70 568.31 C 769.93 582.38 777.54 589.31 781.68 603.32 C 785.82 617.33 792.85 627.98 792.00 644.00 C 791.15 660.02 792.43 678.48 792.00 695.00 C 791.57 711.52 792.29 729.29 792.00 746.00 C 791.71 762.71 792.35 780.30 792.00 797.00 C 791.65 813.70 793.10 831.10 791.00 847.00 C 787.27 836.02 782.15 825.51 776.92 815.08 C 771.70 804.65 767.69 794.47 763.32 783.68 C 758.96 772.88 755.39 760.85 750.93 750.07 C 746.47 739.30 743.42 727.87 738.77 717.23 C 734.12 706.59 730.93 694.41 725.92 684.08 C 720.92 673.74 719.03 661.60 712.92 652.08 C 706.82 642.55 689.20 644.91 678.68 640.32 C 668.15 635.73 654.50 634.36 643.07 630.93 C 631.65 627.49 618.72 624.37 607.02 620.98 C 595.33 617.59 582.80 615.34 571.01 611.99 C 559.22 608.65 546.97 605.72 535.00 603.00 C 540.25 614.70 544.36 627.10 549.08 638.92 C 553.79 650.75 558.01 662.55 562.68 674.32 C 567.34 686.10 571.34 699.23 576.22 710.78 C 581.11 722.32 584.50 735.24 589.69 746.31 C 594.89 757.37 594.73 773.91 607.33 777.67 C 619.93 781.43 634.42 784.08 646.99 788.01 C 659.56 791.94 673.75 793.65 685.98 798.02 C 698.20 802.40 713.38 803.42 724.98 808.02 C 736.57 812.63 754.75 811.36 761.23 821.77 C 767.71 832.18 771.73 843.93 777.08 854.92 C 782.42 865.92 787.95 878.23 791.00 890.00 Z"/>
</g>
<g fill="#C3D0C6" fill-opacity="1.00" stroke="None">
<path d=" M 791.00 980.00  C 791.50 980.00 792.00 980.00 792.00 980.00 C 793.32 965.42 792.22 948.50 792.00 934.00 C 791.78 919.50 794.47 903.37 791.00 890.00 C 794.93 919.46 788.34 950.38 791.00 980.00 Z"/>
</g>
<g fill="#BFCCC3" fill-opacity="1.00" stroke="None">
<path d=" M 808.00 979.00  C 808.25 978.75 809.00 979.00 809.00 979.00 C 810.53 962.06 806.13 943.39 810.00 927.00 C 804.68 941.40 808.00 962.97 808.00 979.00 Z"/>
</g>
<g fill="#FAE7DC" fill-opacity="1.00" stroke="None">
<path d=" M 808.00 980.00  C 820.31 981.11 832.62 979.37 845.00 980.00 C 857.38 980.63 870.64 979.41 883.00 980.00 C 895.36 980.59 908.87 979.06 921.00 980.00 C 933.14 980.94 947.44 978.07 959.00 980.00 C 970.56 981.93 986.08 975.33 996.00 981.00 C 993.51 975.52 980.06 980.16 974.00 979.00 C 967.94 977.84 957.02 979.54 950.00 979.00 C 942.98 978.46 934.51 979.23 927.00 979.00 C 919.49 978.77 910.74 979.11 903.00 979.00 C 895.26 978.89 886.79 979.05 879.00 979.00 C 871.21 978.95 863.81 979.02 856.00 979.00 C 848.19 978.98 839.80 979.01 832.00 979.00 C 824.20 978.99 816.77 979.00 809.00 979.00 C 809.00 979.00 808.25 978.75 808.00 979.00 C 808.00 979.00 807.96 980.00 808.00 980.00 Z"/>
</g>
<g fill="#CC7C5D" fill-opacity="1.00" stroke="None">
<path d=" M 600.00 987.00  C 598.05 997.87 600.00 1010.93 600.00 1022.00 C 600.00 1033.07 598.05 1046.13 600.00 1057.00 C 604.79 1072.16 628.04 1058.04 630.67 1071.33 C 633.30 1084.62 634.96 1095.39 638.00 1108.00 C 641.04 1120.61 642.12 1132.55 645.02 1144.98 C 647.93 1157.40 650.52 1169.83 652.67 1182.33 C 654.82 1194.83 657.91 1206.57 660.00 1219.00 C 662.10 1231.42 664.69 1243.59 667.07 1255.93 C 669.45 1268.26 671.92 1280.59 674.00 1293.00 C 758.00 1293.00 842.00 1293.00 926.00 1293.00 C 940.69 1220.33 952.47 1147.18 969.00 1075.00 C 969.51 1072.79 968.88 1067.85 970.00 1066.00 C 974.29 1058.93 995.71 1070.23 998.77 1058.77 C 1001.83 1047.31 999.55 1036.01 1000.00 1024.00 C 1000.45 1011.99 1000.01 999.09 1000.00 987.00 C 1000.00 986.50 1000.15 985.45 1000.00 985.00 C 995.02 976.51 981.08 982.21 972.00 981.00 C 962.92 979.79 949.12 981.53 939.00 981.00 C 928.88 980.47 916.58 981.20 906.00 981.00 C 895.42 980.80 883.75 981.01 873.00 981.00 C 862.25 980.99 850.75 980.82 840.00 981.00 C 829.25 981.18 817.94 980.96 808.00 980.00 C 802.76 980.46 797.27 979.99 792.00 980.00 C 792.00 980.00 791.50 980.00 791.00 980.00 C 774.97 980.00 756.82 979.72 741.00 980.00 C 725.18 980.28 707.12 979.24 692.00 980.00 C 676.88 980.76 655.56 978.30 642.00 980.00 C 628.44 981.70 604.41 973.05 600.00 987.00 Z"/>
</g>
<g fill="#C79882" fill-opacity="1.00" stroke="None">
<path d=" M 1000.00 985.00  C 999.59 983.74 997.82 981.96 997.00 981.00 C 997.00 981.00 996.38 981.22 996.00 981.00 C 986.08 975.33 970.56 981.93 959.00 980.00 C 947.44 978.07 933.14 980.94 921.00 980.00 C 908.87 979.06 895.36 980.59 883.00 980.00 C 870.64 979.41 857.38 980.63 845.00 980.00 C 832.62 979.37 820.31 981.11 808.00 980.00 C 817.94 980.96 829.25 981.18 840.00 981.00 C 850.75 980.82 862.25 980.99 873.00 981.00 C 883.75 981.01 895.42 980.80 906.00 981.00 C 916.58 981.20 928.88 980.47 939.00 981.00 C 949.12 981.53 962.92 979.79 972.00 981.00 C 981.08 982.21 995.02 976.51 1000.00 985.00 Z"/>
</g>
<g fill="#F7E2D7" fill-opacity="1.00" stroke="None">
<path d=" M 1000.00 985.00  C 1000.15 985.45 1000.00 986.50 1000.00 987.00 C 1003.96 996.31 1000.83 1012.40 1001.00 1023.00 C 1001.17 1033.61 1003.51 1049.12 1000.00 1059.00 C 1005.14 1056.64 1000.94 1044.37 1002.00 1039.00 C 1003.06 1033.63 1001.52 1024.03 1002.00 1018.00 C 1002.48 1011.97 1001.78 1003.05 1002.00 997.00 C 1002.22 990.95 1003.17 984.02 997.00 981.00 C 997.82 981.96 999.59 983.74 1000.00 985.00 Z"/>
</g>
<g fill="#CAA798" fill-opacity="1.00" stroke="None">
<path d=" M 600.00 1057.00  C 598.05 1046.13 600.00 1033.07 600.00 1022.00 C 600.00 1010.93 598.05 997.87 600.00 987.00 C 596.91 996.77 598.99 1011.18 599.00 1022.00 C 599.01 1032.82 596.89 1047.16 600.00 1057.00 Z"/>
</g>
<g fill="#BF9381" fill-opacity="1.00" stroke="None">
<path d=" M 970.00 1066.00  C 972.79 1062.80 982.24 1064.83 987.00 1065.00 C 991.76 1065.17 995.93 1062.83 1000.00 1060.00 C 1000.00 1060.00 999.84 1059.44 1000.00 1059.00 C 1003.51 1049.12 1001.17 1033.61 1001.00 1023.00 C 1000.83 1012.40 1003.96 996.31 1000.00 987.00 C 1000.01 999.09 1000.45 1011.99 1000.00 1024.00 C 999.55 1036.01 1001.83 1047.31 998.77 1058.77 C 995.71 1070.23 974.29 1058.93 970.00 1066.00 Z"/>
</g>
<g fill="#F8E5DB" fill-opacity="1.00" stroke="None">
<path d=" M 970.00 1066.00  C 968.88 1067.85 969.51 1072.79 969.00 1075.00 C 970.68 1072.73 971.05 1069.09 971.00 1066.00 C 980.10 1064.25 994.82 1070.60 1000.00 1060.00 C 995.93 1062.83 991.76 1065.17 987.00 1065.00 C 982.24 1064.83 972.79 1062.80 970.00 1066.00 Z"/>
</g>
<g fill="#262121" fill-opacity="1.00" stroke="None">
<path d=" M 926.00 1293.00  C 842.00 1293.00 758.00 1293.00 674.00 1293.00 C 661.10 1293.00 647.87 1291.75 635.00 1293.00 C 622.13 1294.25 609.23 1289.33 596.70 1293.70 C 584.16 1298.06 594.58 1313.50 607.00 1310.00 C 619.42 1306.50 633.30 1311.59 646.00 1310.00 C 658.70 1308.41 672.22 1310.73 685.00 1310.00 C 697.78 1309.27 710.18 1310.31 723.00 1310.00 C 735.82 1309.69 749.16 1310.12 762.00 1310.00 C 774.84 1309.88 787.14 1310.00 800.00 1310.00 C 812.86 1310.00 826.10 1309.88 839.00 1310.00 C 851.90 1310.12 865.14 1309.69 878.00 1310.00 C 890.86 1310.31 903.16 1309.27 916.00 1310.00 C 928.84 1310.73 942.18 1308.42 955.00 1310.00 C 967.82 1311.58 981.32 1306.50 994.00 1310.00 C 1006.68 1313.50 1015.46 1296.69 1002.67 1293.33 C 989.88 1289.97 976.84 1294.12 964.00 1293.00 C 951.16 1291.88 938.79 1293.00 926.00 1293.00 Z"/>
</g>
</svg>