<svg xmlns="http://www.w3.org/2000/svg" xmlns:xlink="http://www.w3.org/1999/xlink" version="1.1" id="Layer_1" x="0px" y="0px" width="100%" viewBox="0 0 2048 2048" enable-background="new 0 0 2048 2048" xml:space="preserve">

<path fill="#F9A532" opacity="1.000000" stroke="none" d=" M884.697571,718.689331   C917.866089,703.596802 952.066589,693.646057 988.023071,689.922791   C1056.498413,682.832336 1121.371948,694.723389 1182.363037,726.829224   C1207.692993,740.162842 1230.673340,756.872925 1251.813110,776.177429   C1283.535278,805.145691 1309.136719,838.673767 1328.145874,877.247986   C1345.791138,913.054932 1356.098145,950.866577 1360.135864,990.522522   C1365.242065,1040.671997 1359.918091,1089.583862 1343.037964,1137.111450   C1328.374634,1178.396973 1306.467651,1215.488770 1277.327148,1248.229370   C1239.266968,1290.991577 1193.327759,1322.286499 1139.602417,1342.036987   C1109.890259,1352.959839 1079.201538,1359.216187 1047.559937,1361.225830   C1001.401367,1364.157471 956.501648,1358.215454 912.897156,1342.940308   C871.185974,1328.328369 834.208130,1305.609985 801.036865,1276.529053   C767.769897,1247.364380 741.708374,1212.672485 722.162292,1173.099854   C704.746399,1137.839966 694.019653,1100.613281 689.863037,1061.428711   C683.006775,996.794739 693.544312,935.091980 722.364502,877.025818   C757.808655,805.614075 812.156250,752.932434 884.697571,718.689331  z"/>
<path fill="#F6952A" opacity="1.000000" stroke="none" d=" M535.000000,1001.935425   C557.485718,1001.957092 579.472534,1001.855774 601.456726,1002.051880   C613.084106,1002.155579 622.428406,1010.914001 623.755737,1022.340027   C625.076233,1033.706909 617.800171,1044.447876 606.692688,1047.277710   C604.466797,1047.844849 602.083130,1047.994385 599.772034,1047.995483   C512.328552,1048.036255 424.885010,1048.065063 337.441559,1048.012695   C324.336456,1048.004883 314.868225,1039.665039 313.315338,1027.269653   C311.948608,1016.360413 319.363892,1005.377563 330.214813,1002.718628   C333.232697,1001.979126 336.482086,1001.988281 339.625519,1001.986084   C404.583649,1001.940552 469.541840,1001.942993 535.000000,1001.935425  z"/>
<path fill="#F6952A" opacity="1.000000" stroke="none" d=" M1508.000000,1001.927307   C1576.638062,1001.937805 1644.776001,1001.928467 1712.914062,1001.979004   C1724.532593,1001.987610 1732.788696,1008.015259 1735.838013,1018.367065   C1740.033325,1032.609375 1729.428467,1047.589355 1714.553589,1047.930542   C1700.732910,1048.247559 1686.900391,1048.070679 1673.072998,1048.071045   C1599.437256,1048.072998 1525.801636,1048.030273 1452.165894,1048.096313   C1442.834595,1048.104614 1435.117676,1045.183594 1429.967773,1037.161011   C1425.161865,1029.674194 1424.858521,1021.767639 1429.102905,1013.930481   C1433.239502,1006.292480 1439.779663,1002.069702 1448.524780,1002.006287   C1468.182373,1001.863770 1487.841553,1001.940247 1508.000000,1001.927307  z"/>
<path fill="#F69429" opacity="1.000000" stroke="none" d=" M1316.521484,745.720703   C1301.576294,738.342834 1297.638306,722.214478 1307.925781,709.707825   C1313.406372,703.045105 1319.872314,697.180969 1326.005249,691.068604   C1381.475830,635.784668 1436.917603,580.471619 1492.575439,525.376770   C1496.417969,521.573120 1501.589111,518.330994 1506.730469,516.790955   C1516.024902,514.006836 1525.443970,518.010620 1530.373779,525.661499   C1535.688721,533.909973 1535.233887,542.426270 1530.366821,550.690369   C1528.869629,553.232422 1526.750244,555.474304 1524.643555,557.581360   C1464.436523,617.793396 1404.149170,677.925232 1344.014282,738.209167   C1336.200806,746.042114 1327.601196,749.208984 1316.521484,745.720703  z"/>
<path fill="#F69429" opacity="1.000000" stroke="none" d=" M1359.795410,1392.204590   C1342.976807,1375.313232 1326.305664,1358.772217 1309.878174,1341.992554   C1301.157104,1333.084595 1300.024658,1321.804077 1306.301514,1312.393677   C1313.052612,1302.272217 1326.477783,1299.268677 1336.673462,1305.894287   C1339.988037,1308.048218 1342.959106,1310.830811 1345.773682,1313.639893   C1405.659180,1373.405884 1465.468262,1433.248169 1525.395630,1492.972168   C1531.626587,1499.182007 1534.810791,1506.184326 1533.667725,1514.935303   C1531.448364,1531.928223 1511.687378,1540.043701 1497.641235,1529.660278   C1494.449097,1527.300537 1491.602173,1524.433716 1488.786011,1521.611084   C1445.853638,1478.577759 1402.952515,1435.513306 1359.795410,1392.204590  z"/>
<path fill="#F69228" opacity="1.000000" stroke="none" d=" M1001.937500,523.000000   C1001.950745,461.513306 1001.993103,400.526581 1001.939880,339.539948   C1001.933044,331.763336 1004.198242,325.012939 1010.100647,319.918610   C1017.310242,313.696075 1025.635620,312.339203 1034.357178,316.203186   C1043.112793,320.082153 1047.628418,327.338226 1047.822144,336.747681   C1048.141113,352.237854 1047.929932,367.739044 1047.933594,383.235596   C1047.950439,454.386749 1048.026855,525.538086 1047.849243,596.688782   C1047.836304,601.849365 1046.963745,607.485535 1044.755493,612.063538   C1040.171265,621.567688 1029.520630,625.421021 1018.701782,622.709656   C1009.176575,620.322388 1002.140320,611.687683 1002.071472,601.482849   C1001.895996,575.489441 1001.965637,549.494385 1001.937500,523.000000  z"/>
<path fill="#F69429" opacity="1.000000" stroke="none" d=" M1001.960327,1668.000000   C1001.964966,1596.046997 1001.989136,1524.593872 1001.940857,1453.140869   C1001.936707,1446.993896 1002.722046,1441.203979 1006.571899,1436.155762   C1012.623962,1428.219971 1022.223633,1424.890625 1031.445557,1427.582764   C1040.457642,1430.213745 1046.997070,1438.668457 1047.767212,1448.794922   C1047.931152,1450.949585 1047.874390,1453.123169 1047.874756,1455.287964   C1047.885498,1538.899780 1047.891479,1622.511475 1047.893921,1706.123291   C1047.894043,1708.621460 1047.909180,1711.121948 1047.812988,1713.617432   C1047.308716,1726.721924 1037.973755,1735.910889 1025.140503,1735.975098   C1012.258972,1736.039551 1002.507019,1727.062012 1002.154663,1713.967041   C1001.747009,1698.820557 1001.996460,1683.656494 1001.960327,1668.000000  z"/>
<path fill="#F69429" opacity="1.000000" stroke="none" d=" M552.386902,520.558105   C572.401245,540.377136 592.156189,559.951843 611.847595,579.590149   C651.705505,619.340759 691.531555,659.123413 731.362610,698.900940   C735.127991,702.661255 739.089417,706.264587 742.518005,710.314758   C749.818115,718.938538 749.482239,731.925903 742.068481,740.103271   C734.601807,748.338989 721.926941,749.897461 712.471619,743.584045   C710.138611,742.026245 707.996704,740.112244 706.004944,738.123657   C645.662231,677.875732 585.356018,617.591309 525.017822,557.338867   C520.559814,552.887207 516.880676,548.091736 516.160950,541.572510   C515.115906,532.106934 518.208496,524.341492 526.321899,519.258423   C534.978882,513.834717 543.726196,514.713867 552.386902,520.558105  z"/>
<path fill="#F69429" opacity="1.000000" stroke="none" d=" M580.572449,1501.572510   C571.968567,1510.197632 563.668701,1518.627563 555.246582,1526.933472   C546.061829,1535.991211 531.751526,1536.600586 523.206726,1528.430542   C513.848511,1519.482422 513.179260,1504.656860 522.494507,1495.201172   C545.757751,1471.587402 569.355591,1448.303345 592.810486,1424.878418   C629.236877,1388.498779 665.648376,1352.104248 702.093628,1315.743652   C704.918579,1312.925293 707.804199,1310.126099 710.931396,1307.660156   C720.622559,1300.017822 733.247742,1300.737427 741.243042,1309.204468   C749.701843,1318.162476 749.935242,1331.837646 741.304382,1340.894287   C731.996887,1350.661133 722.310425,1360.067749 712.761230,1369.603394   C668.787048,1413.515137 624.803101,1457.417236 580.572449,1501.572510  z"/>
</svg>