<svg aria-hidden="true" xmlns="http://www.w3.org/2000/svg" xmlns:xlink="http://www.w3.org/1999/xlink" version="1.1" id="Layer_1" x="0px" y="0px" width="100%" viewBox="0 0 2048 1665" enable-background="new 0 0 2048 1665" xml:space="preserve">

<path fill="#468C47" opacity="1.000000" stroke="none" d=" M684.698792,776.959106   C684.139282,771.714539 683.011597,766.459900 683.104858,761.226990   C684.682068,672.677063 737.548889,600.855347 822.155396,577.030212   C823.418274,576.674683 824.619385,576.100098 826.506714,575.332886   C830.940552,574.586853 834.761536,574.366028 838.486450,573.647339   C861.949219,569.120178 885.310974,570.022705 908.614441,574.745422   C935.926880,580.280823 960.490540,591.799133 982.940491,608.259766   C1003.932739,623.651672 1020.535645,642.737427 1033.178467,665.396912   C1047.841431,691.677490 1054.839966,720.116455 1056.946777,749.913147   C1057.158203,752.904175 1058.363159,753.807983 1061.234619,754.051697   C1078.813232,755.543457 1096.010986,758.804077 1112.395630,765.638306   C1116.918457,767.524841 1121.509399,769.248108 1126.018677,771.026367   C1127.391602,761.558899 1128.204956,752.508118 1130.075195,743.681213   C1136.326660,714.176392 1149.155518,687.833191 1169.876587,665.763000   C1188.090820,646.362915 1210.590576,634.740906 1237.029907,630.968628   C1253.791138,630.302734 1270.246460,631.278687 1285.786743,638.664673   C1311.055054,650.674377 1329.554810,669.721069 1343.284058,693.680359   C1353.903442,712.212402 1359.816528,732.443054 1363.839355,753.740967   C1363.713501,754.520203 1363.817871,754.718323 1364.122314,754.795593   C1364.387451,756.608398 1364.652466,758.421265 1364.928711,760.883179   C1365.014771,761.694824 1365.089722,761.857361 1365.164673,762.019836   C1365.478149,774.040344 1365.791504,786.060852 1366.015869,798.780762   C1365.968994,799.651184 1366.010986,799.822205 1366.052979,799.993286   C1365.764282,802.717468 1365.475586,805.441650 1365.048096,808.809326   C1364.930176,810.296265 1364.950928,811.139709 1364.971558,811.983093   C1364.699829,813.423096 1364.428101,814.863159 1363.969849,816.930908   C1363.582764,818.390625 1363.382324,819.222656 1362.818604,820.019287   C1361.730591,819.597900 1360.967407,819.269958 1360.286499,818.817932   C1327.351074,796.955383 1291.401733,786.545959 1251.655762,788.824219   C1230.987427,790.008911 1211.436890,794.671143 1192.475952,802.670593   C1163.388428,814.942505 1140.125610,834.446899 1121.642944,859.746216   C1106.023193,881.126892 1096.343628,905.011292 1091.653320,931.163208   C1087.602905,953.747070 1088.572144,975.966614 1093.588135,998.159119   C1095.228638,1005.416992 1097.226562,1012.594055 1098.782593,1020.015991   C1080.294067,1038.042969 1062.084106,1055.862061 1042.992432,1074.543945   C1042.992432,1071.286011 1042.992310,1069.482910 1042.992432,1067.679810   C1043.002441,952.374939 1043.013062,837.070007 1043.019043,721.765137   C1043.019165,717.766296 1043.365356,713.708496 1042.782715,709.792358   C1042.472290,707.705872 1040.827881,704.511719 1039.248657,704.147766   C1032.672607,702.632202 1025.863525,701.060364 1019.193848,701.264893   C1008.795227,701.583740 1006.991211,704.157654 1006.988159,714.565063   C1006.967529,784.047913 1006.972534,853.530762 1006.949951,923.013611   C1006.948120,928.675171 1006.803406,934.336670 1006.429932,940.001038   C1005.739502,940.017822 1005.344238,940.031799 1004.645508,939.904175   C992.758301,928.560913 981.242310,917.287598 969.541809,906.209229   C966.723145,903.540527 963.293152,901.517578 960.100891,898.757080   C959.371216,893.737976 958.829102,889.132446 957.975525,884.585327   C951.786377,851.612976 937.470703,822.671875 914.563477,798.115601   C897.654419,779.989258 877.567017,766.386719 854.691772,756.856873   C825.647278,744.756897 795.365479,741.127319 764.407715,745.286743   C738.611816,748.752686 714.601746,757.856750 692.837708,772.451111   C690.271179,774.172058 687.418701,775.466797 684.698792,776.959106  z"/>
<path fill="#56AC56" opacity="1.000000" stroke="none" d=" M684.465881,777.176392   C687.418701,775.466797 690.271179,774.172058 692.837708,772.451111   C714.601746,757.856750 738.611816,748.752686 764.407715,745.286743   C795.365479,741.127319 825.647278,744.756897 854.691772,756.856873   C877.567017,766.386719 897.654419,779.989258 914.563477,798.115601   C937.470703,822.671875 951.786377,851.612976 957.975525,884.585327   C958.829102,889.132446 959.371216,893.737976 960.090515,899.158508   C960.412231,903.123840 961.075806,906.265564 960.923706,909.367249   C960.308105,921.917358 959.441589,934.455261 958.457581,947.289429   C957.785950,949.344177 957.263916,951.093933 956.872009,952.872253   C952.133972,974.371521 943.675476,994.283447 931.269592,1012.472900   C920.919861,1027.647461 908.724670,1041.110352 894.137207,1052.387573   C875.614441,1066.707153 855.031067,1076.856567 832.468567,1082.863892   C812.121277,1088.281738 791.297241,1089.615479 770.317200,1089.018311   C762.593018,1087.363770 754.818176,1085.914551 747.152954,1084.021240   C699.194580,1072.176270 663.125244,1044.420288 638.063232,1002.084656   C627.334167,983.960876 620.674683,964.352661 617.224670,943.620361   C616.738892,940.701172 616.373596,937.761963 616.121826,934.150879   C616.130981,932.333618 615.970947,931.197388 615.810913,930.061218   C615.776123,921.996033 615.741394,913.930847 615.848877,905.133179   C616.004456,902.941406 616.017822,901.482056 616.031250,900.022705   C616.278503,897.929016 616.525757,895.835327 616.988220,893.160950   C617.129761,891.731323 617.056213,890.882446 616.982605,890.033508   C620.457336,877.320129 622.918518,864.218628 627.609314,851.971008   C638.736877,822.917358 657.139709,798.952698 681.701233,779.777466   C682.611023,779.067261 683.392029,778.192017 684.465881,777.176392  z"/>
<path fill="#56AC56" opacity="1.000000" stroke="none" d=" M1099.061035,1019.808044   C1097.226562,1012.594055 1095.228638,1005.416992 1093.588135,998.159119   C1088.572144,975.966614 1087.602905,953.747070 1091.653320,931.163208   C1096.343628,905.011292 1106.023193,881.126892 1121.642944,859.746216   C1140.125610,834.446899 1163.388428,814.942505 1192.475952,802.670593   C1211.436890,794.671143 1230.987427,790.008911 1251.655762,788.824219   C1291.401733,786.545959 1327.351074,796.955383 1360.286499,818.817932   C1360.967407,819.269958 1361.730591,819.597900 1362.949463,820.228821   C1363.838135,820.747253 1364.232666,821.020630 1364.627075,821.294067   C1364.874390,821.523926 1365.121826,821.753784 1365.690186,822.333923   C1366.242188,822.963257 1366.538330,823.091980 1366.899780,823.070374   C1386.176270,838.030273 1401.842407,856.069275 1413.645996,878.227661   C1415.094238,881.031006 1416.305054,883.211304 1417.515869,885.391602   C1417.515869,885.391602 1417.673828,885.766846 1417.781738,886.171997   C1417.963867,886.899536 1418.141724,887.147522 1418.423340,887.321167   C1418.423340,887.321167 1418.617554,887.733093 1418.745728,888.282471   C1419.759644,890.679138 1420.645264,892.526306 1421.531006,894.373535   C1421.531006,894.373535 1421.673462,894.762512 1421.781250,895.184998   C1421.888916,895.607483 1422.174805,896.003601 1422.174805,896.003601   C1422.309814,896.412659 1422.444824,896.821777 1422.654053,897.734375   C1423.000610,898.616089 1423.272827,898.994324 1423.545166,899.372559   C1423.659668,899.744385 1423.774292,900.116211 1423.860596,900.879517   C1424.104492,901.610474 1424.376709,901.949951 1424.648926,902.289490   C1424.752197,902.724060 1424.855469,903.158630 1424.945435,903.904785   C1424.932129,904.216309 1424.944092,904.505310 1424.944092,904.505310   C1424.944092,904.505310 1425.250977,904.420959 1425.250977,904.420959   C1425.334839,904.656982 1425.418579,904.893066 1425.562256,905.732788   C1425.967407,906.980286 1426.312744,907.624084 1426.658081,908.267822   C1426.747314,908.684875 1426.836548,909.101868 1426.885620,909.861084   C1426.845459,910.203308 1426.858398,910.549622 1426.858398,910.549622   C1426.858398,910.549622 1427.198120,910.584656 1427.198120,910.584656   C1427.403442,911.189758 1427.608765,911.794861 1427.773926,912.814331   C1427.894165,913.470032 1428.054443,913.711426 1428.214844,913.952759   C1428.328369,914.374756 1428.441895,914.796692 1428.580688,915.779175   C1428.907471,917.015259 1429.208862,917.690918 1429.510254,918.366516   C1429.609131,918.731445 1429.708130,919.096375 1429.723877,919.909790   C1429.925659,921.023804 1430.210693,921.689392 1430.495605,922.354980   C1430.574219,922.728821 1430.652832,923.102600 1430.677979,923.924805   C1430.863037,925.050781 1431.101562,925.728333 1431.340088,926.405823   C1431.480591,927.056641 1431.621094,927.707397 1431.676147,928.911987   C1431.847656,930.281616 1432.104736,931.097473 1432.361938,931.913269   C1432.552490,933.060242 1432.743042,934.207153 1432.852539,935.913086   C1433.058472,937.415955 1433.345459,938.359802 1433.632568,939.303650   C1433.716064,940.299194 1433.799561,941.294800 1433.765381,942.934692   C1433.877075,945.023926 1434.106689,946.468872 1434.336182,947.913818   C1434.333252,956.355286 1434.330566,964.796692 1434.108521,973.876343   C1433.922607,976.000793 1433.955933,977.487122 1433.989258,978.973389   C1433.867920,979.949341 1433.746704,980.925232 1433.356689,982.437256   C1433.076050,983.970703 1433.064453,984.968140 1433.052856,985.965515   C1432.957275,986.671692 1432.861694,987.377930 1432.500488,988.587769   C1432.134888,990.391113 1432.034790,991.690735 1431.934814,992.990356   C1431.826660,993.649170 1431.718506,994.307983 1431.328613,995.488342   C1431.019165,996.733093 1430.991455,997.456238 1430.963745,998.179443   C1430.753418,998.889954 1430.543091,999.600464 1430.138184,1000.731567   C1429.880859,1001.245178 1429.747437,1001.360718 1429.768433,1001.427185   C1429.829468,1001.619019 1429.952515,1001.791199 1430.051147,1001.971130   C1429.788818,1002.845947 1429.526489,1003.720703 1429.066406,1004.945251   C1428.868652,1005.294983 1428.741455,1005.673218 1428.741455,1005.673218   C1428.741455,1005.673218 1429.027466,1005.938538 1429.027588,1005.938538   C1428.925659,1006.324463 1428.823730,1006.710388 1428.410889,1007.554077   C1428.016357,1008.743713 1427.932739,1009.475586 1427.849121,1010.207458   C1427.677246,1010.590271 1427.505615,1010.973083 1427.138672,1011.889404   C1426.955444,1012.597168 1426.967651,1012.771362 1426.979736,1012.945557   C1426.749634,1013.536926 1426.519409,1014.128235 1426.068115,1015.070312   C1425.846802,1015.420959 1425.738159,1015.731628 1425.738159,1015.731628   C1425.738159,1015.731628 1425.992798,1015.940552 1425.992798,1015.940552   C1425.791016,1016.385620 1425.589355,1016.830750 1425.152832,1017.837769   C1424.922119,1018.567993 1424.926025,1018.736450 1424.930054,1018.904846   C1424.930054,1018.904846 1424.749023,1019.305847 1424.442871,1019.671265   C1423.986084,1020.756470 1423.835449,1021.476196 1423.684937,1022.195923   C1423.580444,1022.375671 1423.475952,1022.555481 1423.010620,1023.222229   C1422.090698,1025.452881 1421.531738,1027.196533 1420.972656,1028.940186   C1420.972656,1028.940186 1420.790039,1029.326782 1420.443115,1029.691772   C1418.898926,1032.764526 1417.701660,1035.472290 1416.504395,1038.180176   C1416.504395,1038.180176 1416.334595,1038.335083 1416.057739,1038.510620   C1415.697754,1039.155762 1415.614746,1039.625366 1415.531616,1040.094971   C1415.531616,1040.094971 1415.350098,1040.268188 1415.019531,1040.514160   C1414.095947,1042.141479 1413.502930,1043.522705 1412.909790,1044.904053   C1412.909790,1044.904053 1412.985596,1044.974365 1412.658447,1045.052612   C1412.052368,1045.818481 1411.773682,1046.506104 1411.494873,1047.193726   C1411.494873,1047.193726 1411.330444,1047.318237 1411.022949,1047.495361   C1410.352051,1048.522217 1409.988770,1049.371826 1409.625366,1050.221558   C1409.509033,1050.354858 1409.392822,1050.488159 1408.870361,1050.931641   C1408.206299,1051.901001 1407.948242,1052.560181 1407.690186,1053.219360   C1407.690186,1053.219360 1407.446777,1053.430420 1407.101685,1053.602539   C1406.377686,1054.589355 1405.998657,1055.404053 1405.619629,1056.218750   C1405.385986,1056.530884 1405.152222,1056.843018 1404.547363,1057.511963   C1403.962036,1058.314453 1403.747803,1058.760254 1403.533691,1059.206055   C1403.291382,1059.519409 1403.049194,1059.832886 1402.458984,1060.525635   C1401.880127,1061.137817 1401.762329,1061.418213 1401.757446,1061.746094   C1401.339966,1062.218628 1400.922485,1062.691162 1400.188721,1063.374512   C1399.872559,1063.585327 1399.698975,1063.836548 1399.698975,1063.836548   C1399.698975,1063.836548 1399.916260,1064.052368 1399.916260,1064.052368   C1399.612305,1064.406128 1399.308350,1064.759888 1398.610596,1065.530273   C1397.956909,1066.184692 1397.828857,1066.479736 1397.832520,1066.832031   C1397.385864,1067.314941 1396.939087,1067.797852 1396.205811,1068.462646   C1395.919067,1068.644653 1395.770508,1068.864868 1395.770508,1068.864868   C1395.770508,1068.864868 1396.014648,1068.973389 1396.014648,1068.973389   C1368.187866,1102.211548 1333.303833,1123.397949 1290.305664,1130.484375   C1281.206177,1131.984009 1271.961670,1132.602783 1262.131104,1133.536133   C1249.199097,1131.879150 1236.834106,1130.796143 1224.661621,1128.630981   C1207.665527,1125.607910 1192.112305,1118.530273 1177.117676,1110.095093   C1157.948975,1099.311768 1141.235474,1085.696045 1127.618774,1068.360352   C1123.844482,1063.555176 1120.000000,1058.805420 1116.123535,1053.671875   C1113.633545,1048.807617 1111.107422,1044.352295 1108.805664,1039.783813   C1105.472290,1033.168213 1102.301270,1026.470703 1099.061035,1019.808044  z"/>
<path fill="#57AC57" opacity="1.000000" stroke="none" d=" M1236.847046,630.609009   C1210.590576,634.740906 1188.090820,646.362915 1169.876587,665.763000   C1149.155518,687.833191 1136.326660,714.176392 1130.075195,743.681213   C1128.204956,752.508118 1127.391602,761.558899 1126.018677,771.026367   C1121.509399,769.248108 1116.918457,767.524841 1112.395630,765.638306   C1096.010986,758.804077 1078.813232,755.543457 1061.234619,754.051697   C1058.363159,753.807983 1057.158203,752.904175 1056.946777,749.913147   C1054.839966,720.116455 1047.841431,691.677490 1033.178467,665.396912   C1020.535645,642.737427 1003.932739,623.651672 982.940491,608.259766   C960.490540,591.799133 935.926880,580.280823 908.614441,574.745422   C885.310974,570.022705 861.949219,569.120178 838.486450,573.647339   C834.761536,574.366028 830.940552,574.586853 826.744263,575.033691   C830.876343,555.653931 838.379028,537.357178 846.893188,519.460815   C862.201843,487.282654 881.845703,458.090271 908.066711,433.762878   C935.202515,408.586731 966.681763,391.494995 1003.720215,386.497559   C1037.964966,381.877075 1070.621826,387.990295 1101.077881,404.391052   C1142.522217,426.709076 1171.442017,461.060974 1193.970581,501.621460   C1215.334106,540.084473 1227.577759,581.553406 1235.783813,624.443481   C1236.151367,626.364624 1236.374023,628.313477 1236.847046,630.609009  z"/>
<path fill="#468C46" opacity="1.000000" stroke="none" d=" M770.227478,1089.390137   C791.297241,1089.615479 812.121277,1088.281738 832.468567,1082.863892   C855.031067,1076.856567 875.614441,1066.707153 894.137207,1052.387573   C908.724670,1041.110352 920.919861,1027.647461 931.269592,1012.472900   C943.675476,994.283447 952.133972,974.371521 956.872009,952.872253   C957.263916,951.093933 957.785950,949.344177 958.795044,947.413574   C973.649292,961.410339 987.892334,975.640015 1002.309998,989.690491   C1005.654358,992.949768 1007.035522,996.398254 1007.030090,1001.124084   C1006.927429,1090.169922 1006.982910,1179.215942 1006.987061,1268.261963   C1006.987244,1271.917236 1006.807007,1275.572632 1006.710815,1279.227905   C986.836731,1277.363159 967.076050,1274.618286 948.087402,1268.294312   C861.047974,1239.306396 801.553345,1182.215454 771.911377,1094.860840   C771.333130,1093.156738 770.729492,1091.461426 770.227478,1089.390137  z"/>
<path fill="#3E2B18" opacity="1.000000" stroke="none" d=" M1006.735962,1279.683960   C1006.807007,1275.572632 1006.987244,1271.917236 1006.987061,1268.261963   C1006.982910,1179.215942 1006.927429,1090.169922 1007.030090,1001.124084   C1007.035522,996.398254 1005.654358,992.949768 1002.309998,989.690491   C987.892334,975.640015 973.649292,961.410339 959.005127,947.121765   C959.441589,934.455261 960.308105,921.917358 960.923706,909.367249   C961.075806,906.265564 960.412231,903.123840 960.133972,899.599121   C963.293152,901.517578 966.723145,903.540527 969.541809,906.209229   C981.242310,917.287598 992.758301,928.560913 1004.786011,940.128418   C1005.728394,940.328918 1006.226746,940.163574 1006.725098,939.998169   C1006.803406,934.336670 1006.948120,928.675171 1006.949951,923.013611   C1006.972534,853.530762 1006.967529,784.047913 1006.988159,714.565063   C1006.991211,704.157654 1008.795227,701.583740 1019.193848,701.264893   C1025.863525,701.060364 1032.672607,702.632202 1039.248657,704.147766   C1040.827881,704.511719 1042.472290,707.705872 1042.782715,709.792358   C1043.365356,713.708496 1043.019165,717.766296 1043.019043,721.765137   C1043.013062,837.070007 1043.002441,952.374939 1042.992432,1067.679810   C1042.992310,1069.482910 1042.992432,1071.286011 1042.992432,1074.543945   C1062.084106,1055.862061 1080.294067,1038.042969 1098.782593,1020.015991   C1102.301270,1026.470703 1105.472290,1033.168213 1108.805664,1039.783813   C1111.107422,1044.352295 1113.633545,1048.807617 1115.797363,1053.787598   C1092.508667,1076.891479 1069.522583,1099.562744 1046.400391,1122.094116   C1043.758545,1124.668579 1042.899902,1127.302979 1042.906616,1130.878418   C1042.995361,1178.327148 1042.950195,1225.776001 1042.954346,1273.224854   C1042.954468,1275.217529 1043.110229,1277.210205 1043.193359,1279.202881   C1043.186401,1333.494019 1043.175537,1387.785034 1043.173340,1442.076172   C1043.170532,1514.687866 1043.175537,1587.299561 1043.166504,1659.911255   C1043.166260,1661.365845 1043.036133,1662.820557 1042.938843,1664.855591   C1031.374390,1664.855591 1020.104919,1664.855591 1008.396851,1664.487549   C1007.650879,1663.810181 1007.343384,1663.500977 1007.035889,1663.191772   C1006.984924,1602.597046 1006.927734,1542.002197 1006.884583,1481.407471   C1006.836792,1414.318359 1006.801758,1347.229126 1006.735962,1279.683960  z"/>
<path fill="#468C46" opacity="1.000000" stroke="none" d=" M1043.626953,1279.139160   C1043.110229,1277.210205 1042.954468,1275.217529 1042.954346,1273.224854   C1042.950195,1225.776001 1042.995361,1178.327148 1042.906616,1130.878418   C1042.899902,1127.302979 1043.758545,1124.668579 1046.400391,1122.094116   C1069.522583,1099.562744 1092.508667,1076.891479 1115.861328,1054.145996   C1120.000000,1058.805420 1123.844482,1063.555176 1127.618774,1068.360352   C1141.235474,1085.696045 1157.948975,1099.311768 1177.117676,1110.095093   C1192.112305,1118.530273 1207.665527,1125.607910 1224.661621,1128.630981   C1236.834106,1130.796143 1249.199097,1131.879150 1261.771240,1133.749268   C1234.494507,1188.687012 1192.472046,1228.421509 1137.529053,1254.824585   C1118.699219,1263.873413 1098.919678,1270.305054 1078.563721,1274.629761   C1067.258057,1277.031494 1055.574097,1277.651978 1043.626953,1279.139160  z"/>
<path fill="#D0C9C1" opacity="1.000000" stroke="none" d=" M1416.795166,1038.044434   C1417.701660,1035.472290 1418.898926,1032.764526 1420.379028,1029.895630   C1419.469849,1032.459351 1418.277832,1035.184082 1416.795166,1038.044434  z"/>
<path fill="#D0C9C1" opacity="1.000000" stroke="none" d=" M1417.554932,885.034302   C1416.305054,883.211304 1415.094238,881.031006 1413.859863,878.494507   C1415.088745,880.317932 1416.341431,882.497437 1417.554932,885.034302  z"/>
<path fill="#D0C9C1" opacity="1.000000" stroke="none" d=" M1434.229492,978.743958   C1433.955933,977.487122 1433.922607,976.000793 1434.141846,974.302002   C1434.419556,975.564514 1434.444702,977.039551 1434.229492,978.743958  z"/>
<path fill="#D0C9C1" opacity="1.000000" stroke="none" d=" M1434.544678,947.655273   C1434.106689,946.468872 1433.877075,945.023926 1433.829102,943.304199   C1434.257935,944.485229 1434.505493,945.940979 1434.544678,947.655273  z"/>
<path fill="#D0C9C1" opacity="1.000000" stroke="none" d=" M1364.697510,820.922668   C1364.232666,821.020630 1363.838135,820.747253 1363.312744,820.264282   C1363.382324,819.222656 1363.582764,818.390625 1363.964600,817.297791   C1364.353149,818.208435 1364.560669,819.379883 1364.697510,820.922668  z"/>
<path fill="#D0C9C1" opacity="1.000000" stroke="none" d=" M1421.570312,894.015625   C1420.645264,892.526306 1419.759644,890.679138 1418.874756,888.470093   C1419.786987,889.958130 1420.698364,891.807861 1421.570312,894.015625  z"/>
<path fill="#D0C9C1" opacity="1.000000" stroke="none" d=" M1432.204102,992.732422   C1432.034790,991.690735 1432.134888,990.391113 1432.494141,988.944763   C1432.660034,990.023560 1432.566650,991.249023 1432.204102,992.732422  z"/>
<path fill="#D0C9C1" opacity="1.000000" stroke="none" d=" M615.785706,900.256409   C616.017822,901.482056 616.004456,902.941406 615.831604,904.699341   C615.628174,903.495300 615.584229,901.992676 615.785706,900.256409  z"/>
<path fill="#D0C9C1" opacity="1.000000" stroke="none" d=" M615.597534,930.286682   C615.970947,931.197388 616.130981,932.333618 616.107849,933.713867   C615.744507,932.809326 615.564331,931.660767 615.597534,930.286682  z"/>
<path fill="#D0C9C1" opacity="1.000000" stroke="none" d=" M1421.251465,1028.741455   C1421.531738,1027.196533 1422.090698,1025.452881 1422.923828,1023.521851   C1422.642090,1025.070557 1422.086182,1026.806519 1421.251465,1028.741455  z"/>
<path fill="#D0C9C1" opacity="1.000000" stroke="none" d=" M1433.312744,985.712280   C1433.064453,984.968140 1433.076050,983.970703 1433.297974,982.801147   C1433.529663,983.572327 1433.551270,984.515686 1433.312744,985.712280  z"/>
<path fill="#D0C9C1" opacity="1.000000" stroke="none" d=" M1433.750488,938.962097   C1433.345459,938.359802 1433.058472,937.415955 1432.927612,936.255371   C1433.345337,936.899292 1433.606934,937.759949 1433.750488,938.962097  z"/>
<path fill="#D0C9C1" opacity="1.000000" stroke="none" d=" M1432.546875,931.696045   C1432.104736,931.097473 1431.847656,930.281616 1431.748047,929.237488   C1432.181030,929.832458 1432.456543,930.655640 1432.546875,931.696045  z"/>
<path fill="#D0C9C1" opacity="1.000000" stroke="none" d=" M1413.191162,1044.743652   C1413.502930,1043.522705 1414.095947,1042.141479 1414.975586,1040.631714   C1414.665527,1041.863281 1414.069092,1043.223267 1413.191162,1044.743652  z"/>
<path fill="#D0C9C1" opacity="1.000000" stroke="none" d=" M616.767822,890.217773   C617.056213,890.882446 617.129761,891.731323 617.000366,892.763977   C616.715942,892.099121 616.634521,891.250549 616.767822,890.217773  z"/>
<path fill="#D0C9C1" opacity="1.000000" stroke="none" d=" M1365.193604,811.797241   C1364.950928,811.139709 1364.930176,810.296265 1365.045898,809.221436   C1365.260010,809.863831 1365.337769,810.737610 1365.193604,811.797241  z"/>
<path fill="#D0C9C1" opacity="1.000000" stroke="none" d=" M1426.747192,907.994263   C1426.312744,907.624084 1425.967407,906.980286 1425.738525,906.064575   C1426.182007,906.435364 1426.509155,907.078064 1426.747192,907.994263  z"/>
<path fill="#D0C9C1" opacity="1.000000" stroke="none" d=" M1429.626099,918.093628   C1429.208862,917.690918 1428.907471,917.015259 1428.728516,916.072571   C1429.147949,916.477173 1429.444946,917.148926 1429.626099,918.093628  z"/>
<path fill="#D0C9C1" opacity="1.000000" stroke="none" d=" M1430.628052,922.043701   C1430.210693,921.689392 1429.925659,921.023804 1429.792480,920.184937   C1430.216309,920.585266 1430.488403,921.158875 1430.628052,922.043701  z"/>
<path fill="#D0C9C1" opacity="1.000000" stroke="none" d=" M1431.491211,926.096436   C1431.101562,925.728333 1430.863037,925.050781 1430.764893,924.197876   C1431.151001,924.610718 1431.396606,925.198853 1431.491211,926.096436  z"/>
<path fill="#D0C9C1" opacity="1.000000" stroke="none" d=" M1411.762817,1047.078491   C1411.773682,1046.506104 1412.052368,1045.818481 1412.611816,1045.030273   C1412.605347,1045.607422 1412.317993,1046.285400 1411.762817,1047.078491  z"/>
<path fill="#D0C9C1" opacity="1.000000" stroke="none" d=" M1423.936523,1022.042725   C1423.835449,1021.476196 1423.986084,1020.756470 1424.385132,1019.883545   C1424.485107,1020.450073 1424.336670,1021.169800 1423.936523,1022.042725  z"/>
<path fill="#D0C9C1" opacity="1.000000" stroke="none" d=" M1409.875854,1050.100098   C1409.988770,1049.371826 1410.352051,1048.522217 1410.987549,1047.592285   C1410.881958,1048.334229 1410.504150,1049.156372 1409.875854,1050.100098  z"/>
<path fill="#D0C9C1" opacity="1.000000" stroke="none" d=" M1407.928467,1053.094482   C1407.948242,1052.560181 1408.206299,1051.901001 1408.752441,1051.169434   C1408.749146,1051.721069 1408.457886,1052.345337 1407.928467,1053.094482  z"/>
<path fill="#D0C9C1" opacity="1.000000" stroke="none" d=" M1405.863770,1056.113525   C1405.998657,1055.404053 1406.377686,1054.589355 1407.028442,1053.746094   C1406.902832,1054.481079 1406.505493,1055.244629 1405.863770,1056.113525  z"/>
<path fill="#D0C9C1" opacity="1.000000" stroke="none" d=" M1431.170776,997.981384   C1430.991455,997.456238 1431.019165,996.733093 1431.262695,995.815613   C1431.444946,996.341980 1431.411377,997.062683 1431.170776,997.981384  z"/>
<path fill="#D0C9C1" opacity="1.000000" stroke="none" d=" M1428.074707,1010.026123   C1427.932739,1009.475586 1428.016357,1008.743713 1428.344238,1007.845947   C1428.492432,1008.401672 1428.396362,1009.123169 1428.074707,1010.026123  z"/>
<path fill="#D0C9C1" opacity="1.000000" stroke="none" d=" M1415.707275,1039.955688   C1415.614746,1039.625366 1415.697754,1039.155762 1416.023438,1038.620361   C1416.138306,1038.975098 1416.010620,1039.395752 1415.707275,1039.955688  z"/>
<path fill="#468C47" opacity="1.000000" stroke="none" d=" M1006.972900,1663.437622   C1007.343384,1663.500977 1007.650879,1663.810181 1007.944092,1664.342529   C1007.589905,1664.271484 1007.249939,1663.977417 1006.972900,1663.437622  z"/>
<path fill="#D0C9C1" opacity="1.000000" stroke="none" d=" M1403.781006,1059.114746   C1403.747803,1058.760254 1403.962036,1058.314453 1404.421875,1057.777588   C1404.454346,1058.132080 1404.241333,1058.577759 1403.781006,1059.114746  z"/>
<path fill="#D0C9C1" opacity="1.000000" stroke="none" d=" M1430.212891,1001.913452   C1429.952515,1001.791199 1429.829468,1001.619019 1429.768433,1001.427185   C1429.747437,1001.360718 1429.880859,1001.245178 1430.106934,1001.103027   C1430.375122,1001.232361 1430.502686,1001.402588 1430.571045,1001.593933   C1430.591431,1001.650574 1430.444824,1001.766846 1430.212891,1001.913452  z"/>
<path fill="#D0C9C1" opacity="1.000000" stroke="none" d=" M1428.348877,913.848572   C1428.054443,913.711426 1427.894165,913.470032 1427.862671,913.121338   C1428.155273,913.257507 1428.319092,913.500916 1428.348877,913.848572  z"/>
<path fill="#D0C9C1" opacity="1.000000" stroke="none" d=" M1424.695312,902.037231   C1424.376709,901.949951 1424.104492,901.610474 1423.962769,901.152954   C1424.309448,901.284912 1424.525513,901.534912 1424.695312,902.037231  z"/>
<path fill="#D0C9C1" opacity="1.000000" stroke="none" d=" M1423.621338,899.145874   C1423.272827,898.994324 1423.000610,898.616089 1422.820312,898.013245   C1423.174194,898.165527 1423.435913,898.542358 1423.621338,899.145874  z"/>
<path fill="#D0C9C1" opacity="1.000000" stroke="none" d=" M1364.162354,754.607178   C1363.817871,754.718323 1363.713501,754.520203 1363.926025,754.134766   C1364.042725,754.068237 1364.202393,754.418762 1364.162354,754.607178  z"/>
<path fill="#D0C9C1" opacity="1.000000" stroke="none" d=" M1429.108398,1005.781372   C1429.027466,1005.938538 1428.741455,1005.673218 1428.741455,1005.673218   C1428.741455,1005.673218 1428.868652,1005.294983 1429.011963,1005.283691   C1429.155396,1005.272339 1429.189331,1005.624268 1429.108398,1005.781372  z"/>
<path fill="#D0C9C1" opacity="1.000000" stroke="none" d=" M1396.026855,1068.945312   C1396.014648,1068.973389 1395.770508,1068.864868 1395.770508,1068.864868   C1395.770508,1068.864868 1395.919067,1068.644653 1396.020020,1068.735352   C1396.120850,1068.826172 1396.039185,1068.917236 1396.026855,1068.945312  z"/>
<path fill="#D0C9C1" opacity="1.000000" stroke="none" d=" M1398.079956,1066.745850   C1397.828857,1066.479736 1397.956909,1066.184692 1398.435791,1065.834229   C1398.545898,1066.034180 1398.436646,1066.346924 1398.079956,1066.745850  z"/>
<path fill="#D0C9C1" opacity="1.000000" stroke="none" d=" M1399.980713,1064.011230   C1399.916260,1064.052368 1399.698975,1063.836548 1399.698975,1063.836548   C1399.698975,1063.836548 1399.872559,1063.585327 1400.017090,1063.640503   C1400.161621,1063.695679 1400.045166,1063.970215 1399.980713,1064.011230  z"/>
<path fill="#D0C9C1" opacity="1.000000" stroke="none" d=" M1402.010986,1061.676270   C1401.762329,1061.418213 1401.880127,1061.137817 1402.306030,1060.781006   C1402.422363,1060.973511 1402.343506,1061.289917 1402.010986,1061.676270  z"/>
<path fill="#D0C9C1" opacity="1.000000" stroke="none" d=" M1365.297852,761.911987   C1365.089722,761.857361 1365.014771,761.694824 1364.996338,761.270020   C1365.178833,761.273254 1365.305054,761.538696 1365.297852,761.911987  z"/>
<path fill="#D0C9C1" opacity="1.000000" stroke="none" d=" M1366.202881,799.909302   C1366.010986,799.822205 1365.968994,799.651184 1366.024902,799.235107   C1366.248413,799.165894 1366.396484,799.330994 1366.486450,799.523376   C1366.517212,799.588806 1366.401611,799.722717 1366.202881,799.909302  z"/>
<path fill="#D0C9C1" opacity="1.000000" stroke="none" d=" M1366.803223,822.837524   C1366.538330,823.091980 1366.242188,822.963257 1365.914551,822.454468   C1366.114136,822.351318 1366.410400,822.478027 1366.803223,822.837524  z"/>
<path fill="#D0C9C1" opacity="1.000000" stroke="none" d=" M1418.501221,887.073120   C1418.141724,887.147522 1417.963867,886.899536 1417.891724,886.343323   C1418.122192,886.348022 1418.350586,886.586487 1418.501221,887.073120  z"/>
<path fill="#D0C9C1" opacity="1.000000" stroke="none" d=" M1422.304077,895.887573   C1422.174805,896.003601 1421.888916,895.607483 1421.885742,895.363770   C1422.066162,895.337219 1422.249756,895.554382 1422.304077,895.887573  z"/>
<path fill="#D0C9C1" opacity="1.000000" stroke="none" d=" M1425.258789,904.363281   C1425.250977,904.420959 1424.944092,904.505310 1424.944092,904.505310   C1424.944092,904.505310 1424.932129,904.216309 1425.057739,904.220337   C1425.183350,904.224365 1425.266479,904.305664 1425.258789,904.363281  z"/>
<path fill="#D0C9C1" opacity="1.000000" stroke="none" d=" M1427.217041,910.462585   C1427.198120,910.584656 1426.858398,910.549622 1426.858398,910.549622   C1426.858398,910.549622 1426.845459,910.203308 1426.972290,910.169067   C1427.099121,910.134766 1427.236084,910.340515 1427.217041,910.462585  z"/>
<path fill="#D0C9C1" opacity="1.000000" stroke="none" d=" M1425.100342,1018.867310   C1424.926025,1018.736450 1424.922119,1018.567993 1425.063110,1018.193237   C1425.302002,1018.179077 1425.420044,1018.364685 1425.475464,1018.567383   C1425.493042,1018.631348 1425.343750,1018.740967 1425.100342,1018.867310  z"/>
<path fill="#D0C9C1" opacity="1.000000" stroke="none" d=" M1426.066040,1015.857361   C1425.992798,1015.940552 1425.738159,1015.731628 1425.738159,1015.731628   C1425.738159,1015.731628 1425.846802,1015.420959 1426.008301,1015.381958   C1426.169800,1015.342896 1426.139282,1015.774170 1426.066040,1015.857361  z"/>
<path fill="#D0C9C1" opacity="1.000000" stroke="none" d=" M1427.143311,1012.888611   C1426.967651,1012.771362 1426.955444,1012.597168 1427.078979,1012.199402   C1427.311157,1012.167603 1427.431885,1012.352356 1427.490234,1012.555054   C1427.510010,1012.623962 1427.372437,1012.738159 1427.143311,1012.888611  z"/>
<path fill="#468C46" opacity="1.000000" stroke="none" d=" M1006.429932,940.000977   C1006.226746,940.163574 1005.728394,940.328918 1005.089478,940.270020   C1005.344238,940.031799 1005.739502,940.017822 1006.429932,940.000977  z"/>
</svg>